<?xml version="1.0" encoding="utf-8"?>
<!-- Generator: Adobe Illustrator 22.0.1, SVG Export Plug-In . SVG Version: 6.00 Build 0)  -->
<svg version="1.1" id="Layer_1" xmlns="http://www.w3.org/2000/svg" xmlns:xlink="http://www.w3.org/1999/xlink" x="0px" y="0px"
	 viewBox="0 0 424.5 401.6" style="enable-background:new 0 0 424.5 401.6;" xml:space="preserve">
<style type="text/css">
	.st0{fill:#231F20;}
	.st1{fill:none;stroke:#231F20;stroke-width:5.3426;stroke-linecap:round;stroke-linejoin:bevel;stroke-miterlimit:10;}
	.st2{fill:none;stroke:#231F20;stroke-width:6.244;stroke-miterlimit:10;}
	.st3{fill:none;stroke:#231F20;stroke-width:6.2759;stroke-miterlimit:10;}
	.st4{fill:none;stroke:#231F20;stroke-width:6.1914;stroke-miterlimit:10;}
	.st5{fill:none;stroke:#231F20;stroke-width:5;stroke-miterlimit:10;}
	.st6{fill:none;stroke:#231F20;stroke-width:4;stroke-miterlimit:10;}
</style>
<g id="Engineer">
	<g>
		<path class="st0" d="M342,141.4c0.5-0.6,1-1.2,1.4-1.9c0.1-0.3,0.2-0.5,0.3-0.8c7.9-15.4,9.8-33.1,6.4-50.2
			c-0.1-0.6-0.7-1.1-1.4-1.2c-0.7,0.2-1.4,0.4-2.2,0.6c-0.3,0.1-0.6,0.2-0.9,0.3c-0.1,0-0.2,0-0.2,0c-1.7,0.6-3.3,1.2-4.9,2
			c-2.2,1.1-4.1,2.5-6.2,3.5c-8.8,5-16.9,11.6-23,19.6c-2.2,2.1-4.3,4.2-6.3,6.4c-0.1,0.1-0.1,0.1-0.2,0.2c-1.2,1-1.9,3.1-0.4,4.2
			c1.1,0.8,2.8,0.8,4.2,0.9h0.1c2.9-0.9,5.8-1.7,8.7-2.6c-0.8,1-1.5,2-2.3,3c-1.5,2,1,4.2,2.9,3.8c2.4-0.5,4.7-0.8,6.9-0.8
			c-2.1,1.2-4.2,2.6-6.3,4.1c-2.1,1.6-1.4,4.6,1.3,4.9c5.6,0.7,10.8,2.3,15.8,4.8C338.2,142.7,340.1,143.6,342,141.4z M337.3,126
			c-0.1-0.9-1.6-1.1-2.7-1.4c-3.9-0.9-7.6-1.3-11.4-1.1c0.6-0.7,1.1-1.5,1.7-2.2c0.9-0.8,2.1-2.4,2.8-3.3c1.7-2.4,1.4-4.4-4.2-2.5
			c-1.8,0.7-3.7,1.3-5.5,1.9c-1.1,0.3-2.3,0.5-3.4,0.9c2.8-2.3,5.6-4.7,8.4-7c5.4-4.4,9.4-8.2,15.3-12.3c5.9-5.3,6.4-3.7,6.3-1.5
			v3.4c-0.7,5.4-0.6,10.7-1.5,16.1c-1.1,7-3,13.8-5.2,20.5c-1.3-0.6-2.6-1.2-4-1.7c-2.1-1.1-4.3-1.9-6.7-2.3
			c2.4-1.4,4.8-2.7,7.5-3.8c0.4-0.2,0.7-0.4,1-0.7C336.5,128.5,337.7,126.8,337.3,126z"/>
		<path class="st0" d="M150.2,142.2c5-2.5,10.2-4.1,15.8-4.8c2.7-0.3,3.4-3.3,1.3-4.9c-2.1-1.5-4.2-2.9-6.3-4.1
			c2.2,0,4.5,0.3,6.9,0.8c1.9,0.4,4.4-1.8,2.9-3.8c-0.8-1-1.5-2-2.3-3c2.9,0.9,5.8,1.7,8.7,2.6h0.1c1.4-0.1,3.1-0.1,4.2-0.9
			c1.5-1.1,0.8-3.2-0.4-4.2c-0.1-0.1-0.1-0.1-0.2-0.2c-2-2.2-4.1-4.3-6.3-6.4c-6.1-8-14.2-14.6-23-19.6c-2.1-1-4-2.4-6.2-3.5
			c-1.6-0.8-3.2-1.4-4.9-2c0,0-0.1,0-0.2,0c-0.3-0.1-0.6-0.2-0.9-0.3c-0.8-0.2-1.5-0.4-2.2-0.6c-0.7,0.1-1.3,0.6-1.4,1.2
			c-3.4,17.1-1.5,34.8,6.4,50.2c0.1,0.3,0.2,0.5,0.3,0.8c0.4,0.7,0.9,1.3,1.4,1.9C145.8,143.6,147.7,142.7,150.2,142.2z M150.2,129
			c0.3,0.3,0.6,0.5,1,0.7c2.7,1.1,5.1,2.4,7.5,3.8c-2.4,0.4-4.6,1.2-6.7,2.3c-1.4,0.5-2.7,1.1-4,1.7c-2.2-6.7-4.1-13.5-5.2-20.5
			c-0.9-5.4-0.8-10.7-1.5-16.1v-3.4c-0.1-2.2,0.4-3.8,6.3,1.5c5.9,4.1,9.9,7.9,15.3,12.3c2.8,2.3,5.6,4.7,8.4,7
			c-1.1-0.4-2.3-0.6-3.4-0.9c-1.8-0.6-3.7-1.2-5.5-1.9c-5.6-1.9-5.9,0.1-4.2,2.5c0.7,0.9,1.9,2.5,2.8,3.3c0.6,0.7,1.1,1.5,1.7,2.2
			c-3.8-0.2-7.5,0.2-11.4,1.1c-1.1,0.3-2.6,0.5-2.7,1.4C148.2,126.8,149.4,128.5,150.2,129z"/>
		<path class="st0" d="M239.3,279c0-5.6,0.7-17,0.8-17.2c0.3-0.1,0.7-0.3,1-0.6c3.2-3.7,6.6-7.4,9.6-11.3c1.4-1.8,2.8-4.1,2.2-6.5
			c-1.5-6.1-13.7-4.8-18.1-4.8c-4.3,0-15.3-1-13.6,6.2c0.8,3.1,4.1,6.3,6.2,8.6c2.1,2.3,4.4,4.4,6.8,6.2c-1,5.4-1,11.3-0.1,16.9
			c0,0.7-0.1,1.4-0.1,2.1c0,0.2,0,0.4,0.1,0.6C231.4,279.8,243.2,281.5,239.3,279z"/>
		<g>
			<g>
				<path class="st1" d="M302.1,275.5c0.7,2.3,1.2-4.8,1.1-1.3c-0.9,23-33.1,49.9-64.7,45.2c-31.7-4.7-45.4-30.1-46-31.7
					L302.1,275.5z"/>
				<path class="st2" d="M224.5,212.9c0,13.7-16.6,22.8-37,24.7c-37.7,3.5-41.9-10.1-37-24.7c4.3-12.9,16.6-24.7,37-24.7
					S224.5,199.2,224.5,212.9z"/>
				<ellipse class="st3" cx="286.5" cy="213.9" rx="37" ry="25"/>
				<ellipse class="st0" cx="192" cy="213.4" rx="8.5" ry="10.5"/>
				<ellipse class="st0" cx="290" cy="215.4" rx="8.5" ry="10.5"/>
			</g>
			<g>
				<path class="st0" d="M278.2,128.7c-6.3-1.3-12.7-2.2-19-2.6c-3.2-0.2-6.4-0.4-9.5-0.4c-3.2,0-6.3,0-9.5,0.2
					c-3.1,0.2-6.3,0.6-9.4,1.2c-3.1,0.5-6.2,0.9-9.3,1.2c-3.1,0.3-6.3,0.5-9.5,0.7c-3.2,0.2-6.4,0.3-9.9,0.2c-0.2,0-0.4-0.2-0.4-0.4
					c0-0.1,0.1-0.3,0.2-0.3c2.7-2.1,5.7-3.6,8.8-5c3.1-1.3,6.3-2.3,9.5-3.1c3.2-0.8,6.6-1.1,9.9-1.1c3.3,0,6.7,0.2,10,0.3
					c3.3,0.2,6.6,0.5,9.9,0.9c3.3,0.4,6.5,1,9.7,1.7c6.4,1.4,12.7,3.3,18.7,5.8c0.2,0.1,0.3,0.3,0.2,0.5
					C278.6,128.7,278.4,128.8,278.2,128.7z"/>
			</g>
		</g>
		<path class="st0" d="M421.8,262.8c-13.6-4.7-28.6-6.5-43-6.1c-2.8,0.1-5.8,0.2-8.9,0.4c-0.3-4.4-0.5-8.9-0.9-13.3
			c8.2-1.6,16.4-2.9,24.9-3.7c2.9-0.5,5.9-1,8.3-2.4c1.7-1,3.2-2.5,3-4.6V233c-0.6-0.9-1.5-1.6-2.9-1.6c-11.2-0.6-22.9,0.4-34,3.3
			c-0.2-1.6-0.3-3.2-0.5-4.9c-2.7-25.2-6.5-51.8-16.7-75.3c7-16.3,11.2-33.8,10.9-51.6c-0.1-9.2-1.6-32.7-13.9-34.6
			c-5.6-0.9-12.5,3.4-17.5,5.7c-7.3,3.4-14.1,7.5-20.5,12.4c-10.3,7.9-19.2,18-23.9,30c-0.2-0.7-0.5-1.3-0.8-2
			c-0.1,0.4-0.2,0.9-0.3,1.3c-1.5,4.7-2.6,9.7-5.6,13.5c2.5-1,5-2.1,7.5-3.1c0.3-0.1,0.5-0.3,0.7-0.5c0.5-0.2,0.9-0.5,1.1-1.1
			c0.6-1.4,1.4-2.6,2.1-3.9c0.3-0.9,0.7-1.8,1.4-2.6c2.1-3.7,4.3-7.2,6.7-10.4c3.3-4.1,6.9-7.9,10.9-11.5c9.7-8.4,21-15,33.1-19.2
			c0.6-0.2,1.4-0.6,2.2-0.9c1.9,0.1,3.4,1,4.7,2.4c0.2,0.5,0.4,0.9,0.6,1.4c1.2,2.9,1.9,6.3,2.5,9.4c1.3,6.9,1.6,14,1.2,21
			c-0.8,13.7-4.6,27-9.8,39.6c0.7,2.4,0.5,5.3,0.4,7.7c0,0,0,0,0,0.1c1.2,10.9,4.4,22.1,6.2,32.7c2.4,14.4,4.5,28.9,6.1,43.5
			c0.1,1.4,0.3,2.7,0.4,4.1c-6,2.4-11.7,5.4-16.9,9.2c-2.8,2.1-0.5,6.1,2.7,4.7c5-2.2,9.9-4.2,14.8-5.9c0.1,0,0.1,0,0.2,0
			c0.4,4.1,0.7,8.2,1,12.3c-5,0.8-9.9,2.1-14.4,3.9c-0.2,0.3-0.5,0.5-1,0.6c-0.2,0-0.4,0.1-0.6,0.2c-0.1,0.1-0.2,0.1-0.4,0.2
			c-2.2,1.1-3.9,2.4-5.1,4.4c0,1.3,0.9,2.5,2.4,2.4c6.6-0.4,13.1-1.8,19.7-3c0.3,4,0.5,8.1,0.7,12.1c-7.7-0.9-15.2-0.4-21.7,2.4
			c-2,0.9-1.4,4.1,0.6,4.6c7,1.5,14.3,1.4,21.5,2c0.4,10,0.6,20,0.7,30c0,1.2,0.7,1.8,1.6,2.1c0.2,0.3,0.5,0.5,1,0.6
			c2.1,0.4,4.2,0.8,6.3,1.1c0-3.3,0.7-24.7,0.5-32.2c9.8,2.3,19.3,5.8,28.8,9.2c1.9,0.7,3.3-0.1,4-1.4c0.1-1.3-0.1-2.5-0.7-3.7
			c-0.8-1.6-2.2-2.7-3.8-3.6c-4.5-1.8-9.1-3.4-14-4.7c-4.7-1.6-9.6-3.1-14.5-4.3c-0.1-5.2-0.3-10.5-0.6-15.7
			c2.8-0.4,5.6-0.6,8.4-0.7c14.1-0.3,27.3,2.2,40.9,5.7C424.6,271.6,426.5,264.4,421.8,262.8z"/>
		<path class="st0" d="M60.4,270.4c13.6-3.5,26.8-6,40.9-5.7c2.8,0.1,5.6,0.3,8.4,0.7c-0.3,5.2-0.5,10.5-0.6,15.7
			c-4.9,1.2-9.8,2.7-14.5,4.3c-4.9,1.3-9.5,2.9-14,4.7c-1.6,0.9-3,2-3.8,3.6c-0.6,1.2-0.8,2.4-0.7,3.7c0.7,1.3,2.1,2.1,4,1.4
			c9.5-3.4,19-6.9,28.8-9.2c-0.2,7.5,0.5,28.9,0.5,32.2c2.1-0.3,4.2-0.7,6.3-1.1c0.5-0.1,0.8-0.3,1-0.6c0.9-0.3,1.6-0.9,1.6-2.1
			c0.1-10,0.3-20,0.7-30c7.2-0.6,14.5-0.5,21.5-2c2-0.5,2.6-3.7,0.6-4.6c-6.5-2.8-14-3.3-21.7-2.4c0.2-4,0.4-8.1,0.7-12.1
			c6.6,1.2,13.1,2.6,19.7,3c1.5,0.1,2.4-1.1,2.4-2.4c-1.2-2-2.9-3.3-5.1-4.4c-0.2-0.1-0.3-0.1-0.4-0.2c-0.2-0.1-0.4-0.2-0.6-0.2
			c-0.5-0.1-0.8-0.3-1-0.6c-4.5-1.8-9.4-3.1-14.4-3.9c0.3-4.1,0.6-8.2,1-12.3c0.1,0,0.1,0,0.2,0c4.9,1.7,9.8,3.7,14.8,5.9
			c3.2,1.4,5.5-2.6,2.7-4.7c-5.2-3.8-10.9-6.8-16.9-9.2c0.1-1.4,0.3-2.7,0.4-4.1c1.6-14.6,3.7-29.1,6.1-43.5
			c1.8-10.6,5-21.8,6.2-32.7c0-0.1,0-0.1,0-0.1c-0.1-2.4-0.3-5.3,0.4-7.7c-5.2-12.6-9-25.9-9.8-39.6c-0.4-7-0.1-14.1,1.2-21
			c0.6-3.1,1.3-6.5,2.5-9.4c0.2-0.5,0.4-0.9,0.6-1.4c1.3-1.4,2.8-2.3,4.7-2.4c0.8,0.3,1.6,0.7,2.2,0.9c12.1,4.2,23.4,10.8,33.1,19.2
			c4,3.6,7.6,7.4,10.9,11.5c2.4,3.2,4.6,6.7,6.7,10.4c0.7,0.8,1.1,1.7,1.4,2.6c0.7,1.3,1.5,2.5,2.1,3.9c0.2,0.6,0.6,0.9,1.1,1.1
			c0.2,0.2,0.4,0.4,0.7,0.5c2.5,1,5,2.1,7.5,3.1c-3-3.8-4.1-8.8-5.6-13.5c-0.1-0.4-0.2-0.9-0.3-1.3c-0.3,0.7-0.6,1.3-0.8,2
			c-4.7-12-13.6-22.1-23.9-30c-6.4-4.9-13.2-9-20.5-12.4c-5-2.3-11.9-6.6-17.5-5.7c-12.3,1.9-13.8,25.4-13.9,34.6
			c-0.3,17.8,3.9,35.3,10.9,51.6c-10.2,23.5-14,50.1-16.7,75.3c-0.2,1.7-0.3,3.3-0.5,4.9c-11.1-2.9-22.8-3.9-34-3.3
			c-1.4,0-2.3,0.7-2.9,1.6v0.1c-0.2,2.1,1.3,3.6,3,4.6c2.4,1.4,5.4,1.9,8.3,2.4c8.5,0.8,16.7,2.1,24.9,3.7
			c-0.4,4.4-0.6,8.9-0.9,13.3c-3.1-0.2-6.1-0.3-8.9-0.4c-14.4-0.4-29.4,1.4-43,6.1C53.5,264.4,55.4,271.6,60.4,270.4z"/>
	</g>
</g>
<path class="st0" d="M377.8,168.4c-5.4,0.1-10.9,0.2-16.3,0.3c-0.1-5.6-0.3-11.2-0.3-16.9c-0.3-22.5,0.1-44.3,0.9-65.5
	c-0.2-0.7-1.3-5.1,1.2-8.7c2.8-3.9,9-5.3,14.5-2.5h0c9.2,0,16.7,7.5,16.7,16.7v60C394.5,160.9,387,168.4,377.8,168.4z"/>
<path class="st0" d="M102.1,168.4c5.4,0.1,10.9,0.2,16.3,0.3c0.1-5.6,0.3-11.2,0.3-16.9c0.3-22.5-0.1-44.3-0.9-65.5
	c0.2-0.7,1.3-5.1-1.2-8.7c-2.8-3.9-9-5.3-14.5-2.5h0c-9.2,0-16.7,7.5-16.7,16.7v60C85.4,160.9,92.9,168.4,102.1,168.4z"/>
<path class="st4" d="M104.5,77.2c7.5-10.8,45.5-62.8,112.8-72.5c60.4-8.7,121.5,19.9,160.2,73.9"/>
<line class="st5" x1="121.8" y1="371.8" x2="47.3" y2="302.8"/>
<path class="st5" d="M80.5,400.3c-19.2-29.1-38.4-58.3-57.7-87.4"/>
<path class="st5" d="M22.8,312.8L22.8,312.8c-11.2,0-20.3-9.1-20.3-20.3v-38.7c0-11.2,9.1-20.3,20.3-20.3h0c2.9,0.4,8.6,1.6,14.4,6
	c7,5.3,9.7,12,10.6,14.7c-2.7,12.5,3.7,26.6,4,42.2c0,2.5-6.7,8.9-10.7,11.8C33.5,313.8,25.1,313.1,22.8,312.8z"/>
<path class="st5" d="M11.3,237.1L9,216.7c-0.4-3.6,2.2-6.8,5.8-7.2h0c3.6-0.4,6.8,2.2,7.2,5.8c1.6,5.5,3.2,11,4.9,16.5
	c-1.2,0.8-2.9,2-7.7,1.7C16,233.3,12.6,237.8,11.3,237.1z"/>
<path class="st6" d="M102.1,168.4c0,76.3,28.8,138,64.4,138"/>
<ellipse class="st0" cx="173.1" cy="306.9" rx="11.8" ry="8.2"/>
</svg>
