<?xml version="1.0" encoding="utf-8"?>
<!-- Generator: Adobe Illustrator 22.0.1, SVG Export Plug-In . SVG Version: 6.00 Build 0)  -->
<svg version="1.1" id="Layer_1" xmlns="http://www.w3.org/2000/svg" xmlns:xlink="http://www.w3.org/1999/xlink" x="0px" y="0px"
	 viewBox="0 0 139 134.7" style="enable-background:new 0 0 139 134.7;" xml:space="preserve">
<style type="text/css">
	.st0{fill:none;stroke:#27235D;stroke-width:0.75;stroke-miterlimit:10;}
	.st1{fill:none;stroke:#27235D;stroke-width:0.5602;stroke-miterlimit:10;}
	.st2{fill:none;stroke:#27235D;stroke-width:0.7783;stroke-miterlimit:10;}
	.st3{fill:none;stroke:#27235D;stroke-width:0.7829;stroke-miterlimit:10;}
	.st4{fill:none;stroke:#27235D;stroke-width:0.7961;stroke-miterlimit:10;}
	.st5{fill:none;stroke:#27235D;stroke-width:0.797;stroke-miterlimit:10;}
	.st6{fill:none;stroke:#27235D;stroke-width:0.7549;stroke-miterlimit:10;}
	.st7{fill:none;stroke:#27235D;stroke-width:0.7616;stroke-miterlimit:10;}
	.st8{fill:none;stroke:#27235D;stroke-width:0.5001;stroke-miterlimit:10;}
	.st9{fill:none;stroke:#27235D;stroke-width:0.4839;stroke-miterlimit:10;}
	.st10{fill:none;stroke:#27235D;stroke-width:0.4985;stroke-miterlimit:10;}
	.st11{fill:#27235D;}
	.st12{fill:none;stroke:#000000;stroke-miterlimit:10;}
	.st13{fill:#FFFFFF;}
	.st14{fill:#FFFF00;}
	.st15{fill:#FFFFCC;}
	.st16{fill:#CCCC00;}
</style>
<g>
	<path class="st0" d="M62.1,104.1c5.2,2.6,8.7,8,8.7,14.3c0,8.8-7.2,16-16,16s-16-7.2-16-16s7.2-16,16-16c0.5,0,1,0,1.5,0.1"/>
	<path class="st0" d="M114.4,112.6"/>
	<path class="st0" d="M114.4,112.6c1.6-0.8,3.3-1.3,5.2-1.3c6.2,0,11.3,5,11.3,11.3c0,6.2-5,11.3-11.3,11.3c-6.2,0-11.3-5-11.3-11.3
		c0-2,0.5-3.9,1.4-5.5"/>
	<path class="st0" d="M27.6,31.6"/>
	<path class="st0" d="M27.6,31.6c-2.8,2.1-6.3,3.3-10.1,3.3c-9.4,0-17.1-7.6-17.1-17.1S8,0.7,17.5,0.7s17.1,7.6,17.1,17.1
		c0,3.7-1.2,7.2-3.2,10"/>
	<path class="st1" d="M86.9,41.8c5.3,3.6,9.4,8.8,11.6,15"/>
	<path class="st1" d="M86.9,41.8"/>
	<path class="st1" d="M48.9,45c5.4-5.2,12.8-8.4,21-8.4c4.2,0,8.2,0.9,11.9,2.4"/>
	<line class="st2" x1="114.7" y1="112.8" x2="91.3" y2="87.9"/>
	<line class="st3" x1="86.5" y1="91.9" x2="110.2" y2="117.2"/>
	<line class="st4" x1="61.9" y1="104.4" x2="64.7" y2="96.5"/>
	<line class="st5" x1="59" y1="94.9" x2="56.2" y2="102.8"/>
	<g>
		<path class="st0" d="M91.8,32.7c1.5,0.4,3.1,0.7,4.7,0.7c9.1,0,16.5-7.4,16.5-16.5S105.6,0.4,96.5,0.4S80,7.8,80,16.9
			c0,5.3,2.5,10.1,6.5,13.1"/>
		<path class="st0" d="M91.7,88.1c5.3-5.5,8.6-12.9,8.6-21.2c0-1.5-0.1-3-0.3-4.4l-9-2.1C88.2,51.5,79.9,45,70,45
			c-6.2,0-11.9,2.6-15.9,6.8l-9-2.1c-3.1,4.4-5,9.6-5.4,15.3"/>
		<path class="st0" d="M64.6,96.8c1.7,0.3,3.5,0.5,5.3,0.5c6.3,0,12.1-1.9,17-5.2"/>
		<path class="st0" d="M39.9,71.2c1.5,11,9,20.1,19,24"/>
		<path class="st0" d="M39.2,65"/>
		<path class="st0" d="M40,65l-13.2,1.1c0,0-0.1,0.2-0.1,0c-1.4-4.5-5.7-7.8-10.7-7.8c-6.2,0-11.3,5-11.3,11.3s5,11.3,11.3,11.3
			c5.2,0,9.6-3.6,10.9-8.5c0.2-0.6,0.4-0.3,0.4-0.3L40.2,71"/>
	</g>
	<line class="st6" x1="31.7" y1="27.9" x2="49.1" y2="45.3"/>
	<line class="st7" x1="27.5" y1="32.1" x2="45.2" y2="49.8"/>
	<line class="st8" x1="86.6" y1="29.7" x2="81.7" y2="39.3"/>
	<path class="st9" d="M86.5,30.1"/>
	<line class="st10" x1="87" y1="41.9" x2="91.9" y2="32.4"/>
	<g>
		<path class="st0" d="M99.6,62.7l6.2-1.3"/>
		<line class="st0" x1="104.3" y1="55.4" x2="98.2" y2="56.9"/>
		<path class="st0" d="M105.9,61c2.7,6,8.7,10.1,15.6,10.1c9.5,0,17.1-7.7,17.1-17.1s-7.7-17.1-17.1-17.1s-17.1,7.7-17.1,17.1
			c0,0.4,0,0.8,0,1.2"/>
		<g>
			<polygon class="st11" points="105.7,61 105.7,61.1 106.2,60.8 			"/>
			<polygon class="st11" points="104.9,55.6 104.4,55.7 104.4,55.8 			"/>
		</g>
	</g>
	<polygon class="st11" points="104.8,55.1 104.2,55.2 104.4,55.7 104.8,55.6 	"/>
	<polygon class="st11" points="31.5,28.2 31,27.6 31.4,27.1 32,27.7 	"/>
	<polyline class="st11" points="27.8,31.9 27.3,31.3 26.8,31.8 27.3,32.4 	"/>
	<g>
		<path class="st12" d="M116.5,128.3c-2.1-1.2-3.5-3.4-3.5-6c0-3.8,3-6.8,6.8-6.8s6.8,3,6.8,6.8c0,2.6-1.5,4.9-3.6,6"/>
		<g>
			<path class="st12" d="M118.6,124.1c-0.6-0.4-1-1-1-1.8c0-1.2,1-2.1,2.1-2.1s2.1,1,2.1,2.1c0,0.7-0.4,1.3-0.9,1.7"/>
			<line class="st12" x1="116.4" y1="128.5" x2="118.8" y2="123.9"/>
			<line class="st12" x1="123.1" y1="128.6" x2="120.7" y2="123.9"/>
		</g>
	</g>
</g>
<g>
	<path d="M11.6,12.4c3.2-3.3,6.6-4,10.3-4c0.7,0,1.2,0.4,1.2,1.2s-0.5,1.2-1.3,1.2c-2.1,0-4.2,0.4-6.1,1.5c-3.5,2-5.6,5-6.1,9.1
		c0,0.2,0,0.4-0.1,0.6c-0.1,0.8-0.4,1.5-1.4,1.4C7.2,23.3,7,22.6,7,21.8c0.1-2.1,0.7-4.1,1.7-5.9C9.8,14.4,10.8,13.1,11.6,12.4z"/>
	<path d="M14.9,15.2c1.7-1.7,3.9-2.5,6.4-2.6c0.9,0,1.6,0.2,1.7,1.2c0,1-0.7,1.2-1.5,1.2c-4.3,0.3-6.8,2.7-7.4,7
		c-0.1,0.8-0.4,1.5-1.4,1.4s-1.2-0.8-1.1-1.6C11.8,19.2,12.8,17,14.9,15.2z"/>
	<path d="M17.6,18.4c1.1-1.1,2.5-1.6,4-1.5c0.8,0,1.3,0.3,1.4,1.2c0,0.8-0.5,1.2-1.2,1.2c-2.1,0.1-3.3,1.2-3.6,3.3
		c-0.1,0.7-0.6,1.1-1.3,1.1c-0.8-0.1-1.1-0.7-1-1.4C15.8,20.7,16.5,19.5,17.6,18.4z"/>
	<path d="M22.6,21.6c0.6,0.7,0.6,1.6,0,2.2c-0.7,0.6-1.6,0.6-2.2-0.1s-0.6-1.6,0-2.2C21.1,20.9,22,20.9,22.6,21.6z"/>
	<path d="M8.6,20.9c0.1,0,0.2-0.1,0.3,0s0.1,0.2,0,0.3c-0.1,0-0.2,0-0.3,0C8.6,21.1,8.7,21,8.6,20.9z"/>
</g>
<g>
	<g>
		<circle cx="119.7" cy="45.6" r="3"/>
		<circle class="st13" cx="119.7" cy="45.6" r="1.5"/>
	</g>
	<path d="M125.4,55.9c-0.2,0.2-0.4,0.3-0.6,0.5c0-0.1-0.1-0.1-0.1-0.1c-0.4-0.3-0.8-0.6-1.2-0.9c-0.1-0.1-0.1-0.1-0.1-0.2
		c0.3-0.8,0.3-1.6,0-2.4c0-0.1,0-0.2,0.1-0.2c0.4-0.3,0.8-0.6,1.2-0.9c0-0.1,0.1-0.1,0.1-0.1l0.1,0.1c0.8,0.8,1.7,1.1,2.8,0.9
		c1.6-0.3,2.6-1.8,2.4-3.4c-0.2-1.6-1.8-2.8-3.5-2.5c-1.8,0.4-2.8,2.1-2.4,3.8c0,0,0,0.1-0.1,0.1l-0.9,0.6c-0.2,0.1-0.3,0.2-0.5,0.3
		c-0.6-0.8-1.4-1.2-2.4-1.4v-1.6c-0.1,0-0.2,0-0.3,0c-0.4,0-0.7,0-1-0.1c0,0,0,0,0.1,0s0.1,0,0.1,0.1v1.6h-0.1
		c-2.1,0.4-3.5,2.6-3,4.7c0.4,1.6,1.4,2.5,3,2.9c0.1,0.1,0.1,0.1,0.1,0.2v1.6c0,0,0,0.1-0.1,0.1c-1.5,0.4-2.4,1.9-2.2,3.4
		c0.2,1.6,1.7,2.8,3.3,2.6c1.5-0.2,2.6-1.4,2.7-2.9c0-1.5-0.9-2.7-2.3-3.1c-0.1,0-0.1,0-0.1-0.1v-1.7c1-0.2,1.8-0.7,2.4-1.4
		c0.5,0.4,0.9,0.7,1.4,1c0,0,0,0,0,0.1c-0.2,0.4-0.2,0.9-0.1,1.3c0.2,1.5,1.8,2.7,3.4,2.4c1.6-0.2,2.7-1.7,2.5-3.4
		C129.8,55.7,127.2,54.6,125.4,55.9z M125.7,49.8c0-0.9,0.7-1.5,1.5-1.5s1.4,0.7,1.4,1.5s-0.7,1.4-1.5,1.4
		C126.3,51.1,125.6,50.5,125.7,49.8z M121.3,62.6c0,0.9-0.7,1.5-1.5,1.5c-0.9,0-1.5-0.7-1.5-1.5s0.6-1.4,1.5-1.5
		C120.7,61.1,121.3,61.8,121.3,62.6z M119.7,56c-1.1,0-2-0.9-2-2s0.9-2,2-2s2,0.9,2,2S120.8,56,119.7,56z M127.1,59.8
		c-0.8,0-1.5-0.7-1.5-1.5s0.7-1.5,1.5-1.5s1.5,0.7,1.5,1.5C128.6,59.2,127.9,59.8,127.1,59.8z"/>
</g>
<path d="M59,118.2c-2.4,2.4-4.8,4.8-7.2,7.2v-0.1c0-0.9,0-1.7,0-2.6c0-0.1,0-0.1,0.1-0.2c1.4-1.4,2.8-2.8,4.2-4.2l0.1-0.1
	c0,0-0.1,0-0.1-0.1c-1.4-1.4-2.8-2.8-4.2-4.2c-0.1-0.1-0.1-0.1-0.1-0.2c0-0.8,0-1.7,0-2.5v-0.1C54.2,113.4,56.6,115.8,59,118.2z"/>
<path d="M60.8,118.2L60.8,118.2c-1.5-1.5-2.9-2.9-4.4-4.3c-0.1-0.1-0.1-0.1-0.1-0.2c0-0.8,0-1.7,0-2.5v-0.1c2.4,2.4,4.8,4.8,7.2,7.2
	c-2.4,2.4-4.8,4.8-7.2,7.2v-0.1c0-0.9,0-1.7,0-2.6c0-0.1,0-0.1,0.1-0.2c1.2-1.2,2.4-2.5,3.7-3.7C60.3,118.6,60.6,118.4,60.8,118.2z"
	/>
<path d="M47.2,125.4C47.2,125.3,47.2,125.3,47.2,125.4c0-0.9,0-1.8,0-2.6c0-0.1,0-0.1,0.1-0.2c1.4-1.4,2.8-2.8,4.2-4.2l0.1-0.1
	l-0.1-0.1c-1.4-1.4-2.8-2.8-4.3-4.3c-0.1-0.1-0.1-0.1-0.1-0.2c0-0.9,0-1.7,0-2.6V111c2.4,2.4,4.8,4.8,7.2,7.2
	C52,120.6,49.6,123,47.2,125.4z"/>
<g>
	<path d="M22.5,74c0,0.6,0,1.2,0,1.8c-4.2,0-8.4,0-12.5,0c0-0.6,0-1.2,0-1.8c1.8,0,3.6,0,5.5,0c0-0.4,0-0.8,0-1.2
		c-1.3,0-2.6,0-3.9,0c-0.2-2.4-0.3-4.9-0.5-7.3c0.2,0,0.3,0,0.5,0c0-0.4,0-0.8,0-1.2c0.2,0,0.3,0,0.5,0c0-0.4,0-0.8,0-1.2
		c1,0,2.1,0,3.1,0c0.1,0.3,0.3,0.6,0.4,1c0.1,0.2,0.2,0.3,0.4,0.3c1.6,0,3.1,0,4.7,0c0.1,0,0.2,0,0.3,0c0,0.4,0,0.8,0,1.2
		c0.2,0,0.3,0,0.5,0c-0.2,2.5-0.3,4.9-0.5,7.3c-1.3,0-2.6,0-3.9,0c0,0.4,0,0.8,0,1.2C18.8,74,20.6,74,22.5,74z M12,72.2
		c2.8,0,5.6,0,8.5,0c0.1-2,0.3-4,0.4-6.1c-3.1,0-6.2,0-9.3,0C11.7,68.1,11.8,70.1,12,72.2z M20.4,64.9c-0.1,0-0.2,0-0.3,0
		c-1.5,0-3,0-4.5,0c-0.2,0-0.3,0-0.3-0.2c-0.1-0.3-0.2-0.5-0.3-0.8c-0.1-0.2-0.1-0.2-0.3-0.2c-0.6,0-1.3,0-1.9,0c-0.1,0-0.1,0-0.2,0
		c0,0.4,0,0.8,0,1.2c-0.2,0-0.3,0-0.5,0c0,0.2,0,0.4,0,0.6c2.8,0,5.6,0,8.3,0C20.4,65.3,20.4,65.1,20.4,64.9z M17.7,74.6
		c-0.4,0-0.9,0-1.3,0c0-0.6,0-1.2,0-1.8c-0.2,0-0.3,0-0.5,0c0,0.6,0,1.2,0,1.8c-0.4,0-0.9,0-1.3,0c0,0.2,0,0.4,0,0.6
		c1,0,2.1,0,3.1,0C17.7,75,17.7,74.8,17.7,74.6z M14.1,74.7c-1.2,0-2.4,0-3.6,0c0,0.2,0,0.4,0,0.6c1.2,0,2.4,0,3.6,0
		C14.1,75,14.1,74.8,14.1,74.7z M18.3,75.2c1.2,0,2.4,0,3.6,0c0-0.2,0-0.4,0-0.6c-1.2,0-2.4,0-3.6,0C18.3,74.9,18.3,75,18.3,75.2z"
		/>
</g>
<g>
	<path class="st14" d="M93.3,11.6l-1.7,0.3l-1.5,0.7l-1.3,0.8l-1.2,1.5l-0.7,0.7l-0.7,0.2L86,15.4l0.3-0.5l0.1-0.6l0.2,0l0.2,0.2
		l-0.1-0.6l-0.3-0.2l0-0.2l-0.6,0.3l-0.5,0.6l-0.1,0.6l0.2,0.5l0.2,0.8l0.4,0.2l0.5,0l0.4-0.3l-0.3,1.5l0.3,1.7l-0.3,0.8l-1.1,1.1
		l0.2,0.7l0.5,0.8l0.9,0.7l0.5,0.1l0.6,0L88,25l1.3,0.5l1.6,0.2l0.5-0.4l0-1l0.6-1l0-0.8l1.5,0.1l1.4-0.1l-1.4,0.8l0.2,1l0.9,1.3
		l0.8,0.4l0.7-0.3l0.3-0.5l1.4-1.1l0.3,0.2l2.2,0.1l0.4-0.4l0-0.6l-0.1-0.3l-0.1-1.7L99.9,20l0.1-0.7l0.4,0.2l1.2,1.2l0.6,0l0.7-0.3
		l0.7-0.5l0.3-1.1l2,0.1l1.2-0.5l1-0.9l0.7-1.3l0.2-1.5l-0.1-1.8l-0.4-1.6l-0.4-0.5l-0.5-0.2l-0.9,1l-0.8,0.3l-0.7-1.2l-0.7-0.7
		l-0.4-0.3l-1.6-1.3L101,7.9l-1.3-0.1l-1.5,0.3l-1.3,0.5L96,9.3l-0.7,0.9l-0.7,0.2L93.3,11.6"/>
	<path class="st15" d="M88.4,15.4c-1.4,1.7-1.1,3.7-0.7,5.7c-0.2-0.5-0.4-1.1-0.6-1.6L86.8,18c0-0.5,0-1,0.1-1.5l0.6-1.4l0.9-1.3
		l1.4-1.2l1.5-0.6l1.8-0.2l-1.7,1.9C90.2,14,89.4,14.3,88.4,15.4"/>
	<path class="st15" d="M95.2,10.3c-1,1-1.5,1.7-2.2,2.9c-0.5,0.8-1,1.6-1.4,2.4c-0.2,0.4-0.3,0.8-0.3,1.2l-0.7-0.8
		c0.1-0.3,0.2-0.7,0.3-1l1.1-2.1l2.4-2.4C94.7,10.4,94.9,10.3,95.2,10.3 M100.2,7.9c-0.8,0.3-2.1,0.4-2.2,1.3c-0.1,0.7,0,1,0.4,1.7
		c-1-1-1.2-0.9-3.1-0.5l0.8-1.1l1.4-0.9l1.8-0.4L100.2,7.9"/>
	<path class="st16" d="M102.4,20.3c0.3,0.2,0.3,0.3,0.2,0.4c0.2-0.1,0.4-0.2,0.6-0.3l0.4-0.5l0.3-0.8l-0.4-0.3l-1.7,0.2
		c0,0.1-0.1,0.2-0.1,0.3c0,0.2,0,0.3,0,0.5c0.1,0.1,0.1,0.2,0.2,0.3c0.1,0,0.2,0.1,0.3,0.1C102.2,20.3,102.3,20.3,102.4,20.3
		 M102.2,17.4c-0.9,0.2-0.8,0.3-1.1,1.2C101.4,18,101.7,17.8,102.2,17.4 M107.9,11.1c-0.2,0.1-0.3,0.1-0.4,0.2
		c-0.2,0.3-0.4,0.5-0.7,0.8c-0.2,0.1-0.3,0.2-0.5,0.2c-0.1,0-0.2,0-0.4,0.1c0.1,0,0.2,0,0.2,0h0.5l0.6-0.4l0.4-0.4L107.9,11.1
		 M94.3,13c-0.3,0.9-0.6,1.7-1.1,2.5c0.6-0.7,1-1.3,1.4-2.1c0.1-0.3,0.2-0.7,0.6-0.5c0,0.3,0.1,0.6,0.1,0.9c0.2-1.6,0.8-2.2,2.3-2.8
		l-1.2,0.1l-1.1,0.3l-0.6,0.8L94.3,13 M97.1,12.9c0.3,1.4,0.8,2.8,0.9,4.3c0.1,1,0.1,1.4-0.3,2.2c-0.5,0-0.9,0-1.4,0.2
		c-2,0.7-3.2,1.6-4.5-0.3l1.3,0.6c0.3-0.1,0.6-0.1,0.9-0.2c0.5-0.3,1.1-0.6,1.6-1l1.3-0.3l0.4-1.7L97,14.5c0-0.4,0-0.7,0-1.1
		C97,13.3,97,13.1,97.1,12.9 M100.6,21.9c-0.2,1.2,0.4,1.8,0.2,2.1c-0.1,0.1-0.2,0.3-0.3,0.3c-0.4,0.2-0.8,0-0.9,0.1h-1.2l-0.5-0.2
		l0.7-0.8c0.2-0.5,0.5-1,0.7-1.5l0.5-1.6h0.2L100.6,21.9"/>
	<path class="st16" d="M98.6,18.5c0.1,0.5,0.3,0.7,0.5,1.2c-0.2,0.8-0.4,1.8-0.8,2.6c-0.1,0.3-0.2,0.5-0.5,0.7
		c-0.4,0.4-0.8,0.8-1.3,1.1c-0.3,0.3-0.6,0.1-1,0.1c-0.2,0.3-0.2,0.5-0.5,0.6c-0.5,0.2-0.9-0.3-1.3-0.6c0.3,0.4,0.6,0.9,0.8,1.3
		c0.2,0.2,0.4,0.4,0.6,0.5l0.5,0.1l0.6-0.4c0.1-0.2,0.2-0.4,0.3-0.6c0.2-0.2,0.5-0.4,0.7-0.5c0.3-0.3,0.6-0.5,0.9-0.8l0.6-0.8
		l0.5-0.9c0.2-0.6,0.4-1.3,0.7-1.9c0-0.2,0-0.5,0.1-0.7c-0.3-0.1-0.5-0.2-0.8-0.4C99,18.8,98.8,18.7,98.6,18.5 M92.1,22.2
		c0.9,0,1.9-0.1,2.7-0.4c0.2-0.4,0.5-0.6,0.8-1c-0.3,0.5-0.3,0.8-0.4,1.3l-0.3,0.4c-0.7,0-1.4,0-2.1,0.1c-0.2,0-0.4,0-0.7-0.1
		c0,0,0,0-0.1-0.1C92.1,22.4,92.1,22.3,92.1,22.2 M92,21.6L91.9,21c-0.2,0.9-0.1,1.6-0.5,2.4c-0.3,0.4-0.7,0.7-1.2,0.9
		c0,0.2,0,0.4,0,0.5c-0.1,0.6-1.3,0.3-1.8,0.3l2.4,0.6l0.5-0.2c0.1-0.3,0.1-0.7,0.2-1l0.5-0.9l0.1-0.6L92,21.6 M90.6,16.3
		c0,0.5-0.1,0.6,0.1,1c0.3,0.5,0.6,1,0.8,1.5l0.1-1C91.3,17.3,91,16.8,90.6,16.3 M86.9,19.8c-0.1,0.2-0.2,0.3-0.2,0.5
		c0.2,0.7,0.4,1.2,0.8,1.8c-0.1,0.3-0.1,0.4-0.3,0.6c-0.4-0.1-0.7-0.1-1-0.1c0.4,0.3,0.8,0.6,1.2,0.9c0.2,0,0.4-0.1,0.6-0.1l0.6-0.6
		l-0.8-1.3C87.5,20.9,87.2,20.3,86.9,19.8 M107.9,10.8c0.2,1.1,0.6,2.1,0.5,3.3c0,1.4-0.3,3.1-1.6,4c-1.4,0.9-3.1,0.5-4.7,0.1
		L104,19c0.6,0,1.2,0.1,1.8,0.1c0.4-0.1,0.8-0.2,1.2-0.4c0.3-0.3,0.6-0.5,1-0.8l0.7-1.5l0.3-1.8c-0.1-0.6-0.1-1.1-0.2-1.7l-0.4-1.7
		C108.2,11.1,108,11,107.9,10.8 M86.4,14.1c-0.7,0.4-0.9,0.6-0.8,1.4l0.2,0.7l0.3,0.2l0.3,0.1l0.6-0.1c0.1-0.3,0.2-0.7,0.3-1
		l-0.9,0.4h-0.2c-0.1-0.1-0.2-0.2-0.2-0.4l0.3-0.4l0.1-0.8c0.1,0,0.1,0,0.2,0.1c0.1,0.1,0.2,0.1,0.2,0.2l0-0.4l-0.2-0.3
		c-0.1,0-0.1-0.1-0.2-0.1L86.4,14.1 M101,7.9c0.6,0.5,1.3,1,1.8,1.7c0.2,0.3,0.4,0.4,0,0.7c0.4-0.1,0.6-0.1,0.9-0.1
		c0.6,0.1,1.1,0.9,1.2,1.5c0,0.1-0.2,0.2-0.6,0.3c0,0-0.3,0-0.3,0c0,0.1,0.1,0.1,0.2,0.2c0,0.1,0,0.4,0.1,0.5c0.3,0,0.6,0,0.8,0.1
		c0.1,0.2,0.1,0.3,0.1,0.5l0.3-0.1c0-0.2-0.1-0.5-0.1-0.7c0.1-0.2,0.2-0.3,0.3-0.5l-0.4-0.9c-0.3-0.3-0.5-0.5-0.8-0.8l-0.1,0
		c-0.3-0.2-0.6-0.4-0.9-0.5l-1.5-1.2L101,7.9 M102,12.4c0,0.1-0.1,0.1-0.1,0.2c0.2,0.2,0.4,0.4,0.4,0.7c-0.3,0.1-0.5,0.3-0.8,0.4
		l-0.7,0.7c-0.3-0.2-0.4-0.3-0.5-0.6c-0.2,0-0.3,0.1-0.5,0c0.1,0,0.1,0,0.2-0.1l0.4-0.5c0.3-0.2,0.5-0.4,0.8-0.6l0.5-0.2
		C101.8,12.5,102,12.4,102,12.4"/>
	<path class="st16" d="M102.8,13.2c-0.9,0.5-1.7,0.9-2.1,1.8C100.6,13.9,101.8,13.4,102.8,13.2 M100.5,11c-0.6,0.4-1.1,1.3-1,2.2
		c-0.2-0.7-0.1-1.5,0.5-2c0.1-0.1,0.2-0.1,0.3-0.2C100.3,11,100.4,11,100.5,11"/>
	<path d="M109.1,13c-0.1-0.7-0.3-1.5-0.6-2c0-0.1-0.1-0.1-0.1-0.2c-0.1-0.1-0.3-0.3-0.5-0.3c-0.2-0.1-0.4-0.1-0.6,0
		c0,0-0.1,0.1-0.1,0.1c-0.1,0.1-0.2,0.3-0.3,0.4c-0.1,0.2-0.2,0.3-0.4,0.4c-0.2,0.1-0.3,0.2-0.5,0.3c-0.1-0.2-0.2-0.4-0.3-0.5
		c-0.1-0.2-0.3-0.4-0.4-0.6c-0.1-0.1-0.2-0.3-0.4-0.4c-0.1-0.1-0.3-0.2-0.4-0.3c-0.4-0.3-0.8-0.6-1.2-0.9c-0.2-0.1-0.3-0.3-0.5-0.4
		c-0.9-0.7-1.7-1.1-2.6-1.1c-0.9-0.1-1.8,0.2-2.9,0.6C96.7,8.4,96.3,8.6,96,9c-0.3,0.3-0.6,0.7-0.9,1.1c-0.2,0-0.3,0-0.5,0.1
		c-0.2,0.1-0.4,0.2-0.6,0.4c-0.1,0.1-0.3,0.3-0.4,0.4c-0.1,0.1-0.3,0.3-0.4,0.4c-1,0.2-1.8,0.3-2.5,0.6c-0.7,0.3-1.4,0.7-2.1,1.3
		c-0.3,0.2-0.5,0.5-0.7,0.8c-0.2,0.3-0.4,0.6-0.5,0.8c-0.1,0.1-0.3,0.3-0.4,0.4c-0.1,0.1-0.3,0.2-0.5,0.3l0,0
		c-0.1,0-0.1,0.1-0.1,0.1c0,0,0,0,0,0c0.2-0.2,0.3-0.6,0.3-0.9c0,0,0.1,0.1,0.1,0.1c0,0,0.1,0.1,0.1,0.2l0.2,0.2l0.1-0.3
		c0-0.2,0.1-0.5,0-0.8c0-0.2-0.1-0.3-0.2-0.4c0,0,0-0.1,0-0.1c0-0.1,0.1-0.2,0.1-0.3l0.1-0.2l-0.2,0c-0.3,0-0.9,0.4-1.3,0.8
		c-0.2,0.2-0.3,0.4-0.4,0.5c-0.1,0.2-0.1,0.4-0.1,0.6c0,0.2,0.1,0.4,0.3,0.5c0,0.1,0.1,0.2,0.1,0.3c0,0.1,0.1,0.2,0.1,0.3
		c0.1,0.3,0.3,0.4,0.6,0.5c0.2,0.1,0.4,0.1,0.6,0c0,0.2-0.1,0.5-0.1,0.7c0,0.3,0,0.7,0,1.2c0,0.1,0,0.2,0,0.3c0,0.1,0,0.2,0,0.3
		c0,0.1-0.1,0.2-0.1,0.3l-0.2,0.5L86,20.4c-0.1,0.1-0.2,0.2-0.4,0.4c0,0-0.1,0-0.1,0.1c-0.2,0.2-0.3,0.3-0.2,0.7
		c0,0.3,0.1,0.5,0.3,0.8c0.1,0.2,0.3,0.5,0.5,0.7c0.3,0.3,0.7,0.6,1.1,0.7c0.3,0.1,0.5,0.1,0.8,0.1c0,0,0,0.1,0,0.1
		c0,0.1-0.1,0.2-0.1,0.3c-0.3,0.7,0,1,0.5,1.2c0.2,0.1,0.5,0.2,0.8,0.3c0.1,0,0.1,0,0.2,0c0.3,0.1,0.9,0.2,1.4,0.3
		c0.5,0,1-0.1,1.2-0.6c0.1-0.2,0.1-0.3,0.1-0.5c0-0.1,0-0.3,0-0.4c0.2-0.3,0.2-0.4,0.3-0.6c0,0,0-0.1,0.1-0.1
		c0.1-0.2,0.2-0.3,0.2-0.4c0-0.1,0-0.3,0-0.5c0,0,0,0,0-0.1c0.3,0,0.6,0.1,0.9,0.1c0.2,0,0.3,0,0.5,0c0,0-0.1,0-0.1,0.1l-0.1,0
		c-0.4,0.2-0.4,0.6-0.3,1c0.1,0.4,0.4,0.8,0.5,1c0.3,0.5,0.6,0.9,1,1.1c0.4,0.2,0.8,0.3,1.4,0c0.3-0.2,0.4-0.3,0.5-0.5
		c0-0.1,0.1-0.1,0.1-0.2c0.1-0.1,0.4-0.3,0.7-0.6c0.1-0.1,0.2-0.2,0.3-0.3c0.1,0.1,0.2,0.1,0.3,0.1c0.1,0,0.3,0.1,0.5,0.1
		c0.2,0,0.7,0,1,0c0.1,0,0.2,0,0.2,0c0.3,0,0.6,0,0.8-0.1c0.2-0.1,0.4-0.3,0.4-0.7c0-0.2,0-0.3,0-0.4c0-0.1-0.1-0.2-0.1-0.3
		c0-0.2,0-0.3,0-0.5c0-0.2,0-0.4,0-0.5c0-0.2,0-0.4-0.1-0.6c0-0.2-0.1-0.3-0.2-0.5c-0.1-0.1-0.1-0.3-0.1-0.4l-0.1,0l0,0l0.1,0v0
		c-0.1-0.2-0.1-0.4-0.2-0.6c0,0,0-0.1,0-0.1l0.2,0.2l0.3,0.3c0.2,0.2,0.4,0.4,0.6,0.5c0.2,0.1,0.5,0.2,0.9,0.2
		c0.4,0,0.8-0.2,1.1-0.4c0.3-0.2,0.6-0.5,0.7-0.9l0.1-0.3l0.1-0.2c0.5,0.1,1.1,0.1,1.6,0.1c0.5-0.1,1-0.2,1.4-0.4
		c0.6-0.3,1.1-0.8,1.4-1.4h0c0.4-0.6,0.6-1.4,0.7-2.2C109.3,14.7,109.3,13.8,109.1,13L109.1,13z M102.6,18.3
		c-0.3-0.1-0.5-0.2-0.8-0.4c0.1,0.3,0.1,0.6,0,1c-0.1,0.5-0.4,1.3,0.3,1.5c0.3,0.1,0.4,0,0.7-0.1c-0.3,0.1-0.4,0.1-0.6,0
		c-0.2,0-0.3-0.2-0.3-0.3c0.1,0,0.2,0.1,0.3,0.1c0.5,0.1,1-0.1,1.1-0.5c0.1-0.2,0-0.3,0.2-0.6c0.1,0,0.2,0.1,0.3,0.1l-0.2,0.6
		c-0.2,0.5-0.8,1-1.3,0.9c-0.5,0-0.8-0.3-1.2-0.6c-0.2-0.2-0.5-0.4-0.7-0.6c-0.6-0.2-1.2-0.4-1.7-0.9c0.4,0.5,0.7,0.8,1.3,1
		c-0.1,0.9-0.4,1.5-0.6,2.4c-0.1,0.4-1,1.9-1.3,2c-0.2,0.1-1.3,1.1-1.5,1.2c-0.2,0.2-0.3,0.5-0.5,0.6c-0.7,0.4-1.2-0.4-1.6-1
		c-0.2-0.3-0.7-1.1-0.2-1.3c0.4-0.2,0.6-0.4,1.1-0.7c0.1,0.1,0.2,0.2,0.2,0.3l0-0.4c0-0.2,0-0.4,0-0.6c0-0.2,0-0.4,0.1-0.7
		c-0.1,0.2-0.2,0.4-0.3,0.7c0,0.1,0,0.2-0.1,0.2c-0.9,0.2-1.9,0.2-2.8,0c-0.1-0.3-0.1-0.7-0.2-1c0,0.3,0,1.1,0,1.6
		c0,0.4,0,0.5-0.2,0.8c-0.2,0.3-0.2,0.3-0.5,0.8c0,0.3,0,0.5-0.1,0.8c-0.1,0.5-1.5,0.1-1.8,0c-0.4-0.1-1.3-0.3-1.1-0.9
		c0.2-0.5,0.3-1,0.4-1.7c-0.8-1.1-1.5-2.7-1.7-4.1c-0.1-1.1,0-1.7,0.2-2.4c0.4-1,0.9-1.9,1.7-2.7c1.1-1,2.2-1.4,3.8-1.6
		c-0.4,0.4-0.8,0.9-1.2,1.4c-0.4,0.5-0.7,1-1,1.6c-0.4,0.8-0.4,1.1,0.1,1.7c0.4,0.6,0.7,0.8,0.8,1.4c-0.2,0.3-0.2,0.6-0.3,1
		c0.5,0.6,0.9,1,1.4,1.1c0.5,0.1,0.9,0.1,1.4-0.1c1-0.5,1.9-1.2,3-1.2c0.5-1.3,0.5-2.3,0.2-3.6c-0.2-0.8-0.2-1.6-0.3-2.5
		c-0.2,0.9-0.2,1.7-0.1,2.5c0.2,1.1,0.3,2.2-0.2,3.2c-1,0.1-1.9,0.7-2.8,1.2c-0.4,0.2-0.8,0.2-1.2,0.1c-0.4-0.1-0.6-0.4-1-0.8
		c0-0.5,0.1-0.7,0.3-1.1c0.3-0.7,0.7-1.3,1.2-2c-0.5,0.6-1,1.1-1.4,1.8c-0.2-0.4-0.4-0.7-0.7-1.2c-0.4-0.5-0.4-0.7-0.1-1.3
		c0.3-0.6,0.5-1.1,1-1.6c0.8-0.9,1.5-1.8,2.4-2.7c0.5-0.5,0.7-0.4,1.3-0.5c0.6-0.1,1.1-0.2,1.7-0.3c-0.6,0.1-1.1,0.1-1.6,0.1l0,0
		c0.5-0.7,0.8-1.1,1.7-1.4c2.1-0.9,3.5-1,5.2,0.4c0.4,0.4,0.8,0.7,1.3,1c-0.2,0-0.3,0-0.5,0.1c0.2,0,0.5,0,0.7,0
		c0.1,0,0.1,0.1,0.2,0.1c0.3,0.2,0.5,0.3,0.7,0.6c0.2,0.3,0.4,0.6,0.6,1c-0.1,0-0.2-0.1-0.3-0.1c-0.2-0.1-0.4-0.1-0.6,0l0,0
		c-0.2,0.1-0.4,0.2-0.6,0.2c0.1,0,0.3,0,0.4,0c0,0,0,0,0,0c0,0.1-0.1,0.2-0.1,0.2c0,0.1,0,0.2,0.1,0.3l0,0c0,0,0,0.1,0.1,0.1
		c-0.1,0-0.2,0.1-0.3,0.1c0.4-0.1,0.8-0.1,1.1,0c0,0.1,0.1,0.3,0.1,0.4l-0.1,0c0,0,0,0,0,0c-0.2-0.1-0.4-0.1-0.7-0.1
		c-0.8,0.2-0.7,0.7-1,1.4c0.4-0.5,0.4-1,1-1.2c0.2,0,0.3-0.1,0.4-0.1c-0.2,0.1-0.4,0.3-0.4,0.4c-0.2,0.5-0.1,0.9-0.3,1.4
		c0.2-0.4,0.3-0.8,0.5-1.3c0.1-0.2,0.4-0.4,0.6-0.4l0.1,0c0,0.3,0.1,0.6,0.1,0.8c0,0.4-0.1,1.1-0.2,1.3c0.2-0.3,0.3-0.9,0.4-1.3
		c0.1-0.4,0.1-1,0-1.5c-0.1-0.7,0.6-0.6,0.9-0.9c0.3-0.2,0.5-0.6,0.8-0.9c0.3-0.3,0.7,0.1,0.8,0.4c0.4,1.1,0.7,2.8,0.5,3.9
		c-0.1,1.2-0.7,2.6-1.8,3.2C105.6,19.3,103.9,18.8,102.6,18.3L102.6,18.3z M100.6,23.8c0,0.5-0.2,0.5-0.7,0.5c-0.2,0-1,0-1.2,0
		c-0.3,0-0.5-0.1-0.5-0.1c0.5-0.3,1.2-1.7,1.4-2.2c0.2-0.5,0.3-0.9,0.5-1.4c0.1,0.2,0.1,0.4,0.2,0.6c0.1,0.3,0.2,0.6,0.2,0.9l0,1.2
		C100.6,23.5,100.6,23.5,100.6,23.8L100.6,23.8z M86.9,19.9c0.3,1,0.8,2,1.3,2.8v0c0,0.1-0.1,0.3-0.2,0.4c-0.4,0.5-1.4-0.2-1.7-0.5
		c-0.3-0.3-0.5-0.7-0.6-1.1c0-0.3,0-0.3,0.2-0.4l0.7-0.7L86.9,19.9L86.9,19.9z M86.4,13.7c-0.1,0.2-0.1,0.3-0.2,0.4
		c-0.2,0.5,0.1,1-0.4,1.4c0.2,0.5,0.2,0.6,0.7,0.4c0.2-0.1,0.4-0.2,0.5-0.3c-0.1,0.2-0.1,0.4-0.2,0.6c0,0,0,0.1,0,0.1
		c-0.4,0.2-0.9,0.3-1.1-0.1c-0.1-0.2-0.1-0.4-0.2-0.6C84.9,14.8,85.9,14,86.4,13.7L86.4,13.7z M86.7,14.4c-0.1-0.1-0.1-0.1-0.2-0.1
		c0-0.1,0-0.1,0-0.2c0,0,0-0.1,0-0.1C86.7,14,86.7,14.2,86.7,14.4L86.7,14.4z M105.5,11.9c0,0,0,0.1,0.1,0.2c0,0,0,0-0.1,0
		c0-0.1-0.1-0.1-0.1-0.2C105.4,11.9,105.4,11.9,105.5,11.9L105.5,11.9z M87.4,14.9L87.4,14.9L87.4,14.9L87.4,14.9z M92.2,22.7
		L92.2,22.7L92.2,22.7z M97.9,24.4L97.9,24.4L97.9,24.4z M100.1,20.1L100.1,20.1L100.1,20.1L100.1,20.1z M86.5,15.7L86.5,15.7
		L86.5,15.7L86.5,15.7L86.5,15.7z M108.5,17.5L108.5,17.5L108.5,17.5z M84.2,15.5c0.1-1.1,0.3-1.6,1.1-2.5
		C84.4,13.8,84.1,14.1,84.2,15.5"/>
	<path d="M84,14.6c0.1-0.5,0.2-0.7,0.5-1.1C84,13.8,83.9,14,84,14.6 M95.8,7.5c-0.6,0.1-0.7,0.3-0.9,0.8C95.2,7.9,95.3,7.8,95.8,7.5
		"/>
	<path d="M96.7,7.4c-1.2,0.3-1.5,0.5-1.9,1.9C95.3,8.3,95.7,7.9,96.7,7.4 M99.3,12.5c0.1-0.6,0.4-1.1,1.2-1.5
		C99.4,11.2,99.2,11.7,99.3,12.5 M106.7,12.5c0.7-0.2,1-0.8,1.2-1.4c-0.3,0.5-0.7,1-1.2,1.3c-0.3,0.1-0.5,0.1-0.8,0.1
		C106.1,12.5,106.3,12.6,106.7,12.5 M102,13.1c-0.1-0.2-0.2-0.3-0.4-0.4c0.2-0.1,0.3-0.2,0.5-0.3c-0.4,0.2-0.8,0.1-1.1,0.4
		c-0.3,0.2-0.7,0.8-1,1.1c0.2-0.1,0.4-0.2,0.6-0.4c0,0.3,0.2,0.6,0.4,0.7c-0.1,0.1-0.2,0.3-0.3,0.5c0.6-0.7,1.4-1.2,2.1-1.4
		c-0.2,0-0.5,0-0.7,0.1C102.1,13.2,102,13.1,102,13.1 M101.2,18c0,0.2-0.1,0.4-0.1,0.6c0.1-0.2,0.2-0.4,0.2-0.6
		c0.1-0.2,0.1-0.2,0.3-0.3c0.1-0.1,0.4-0.2,0.5-0.2c-0.1,0-0.4,0.1-0.5,0.1C101.3,17.6,101.3,17.7,101.2,18 M94.9,11.5
		c-0.4,0.4-0.8,1.9-1,2.4c0.2-0.5,0.7-1.8,1.1-2.2c0.1-0.1,0.2-0.2,0.3-0.2c-0.3,0.5-0.3,0.6-0.2,1.2c0.1-0.7,0.3-0.9,0.7-1.4
		c0.4-0.1,0.8-0.2,1.2-0.4c-0.5,0.1-0.9,0.1-1.4,0.1C95.3,11.2,95.2,11.2,94.9,11.5"/>
	<path class="st15" d="M100.7,13.9c-0.1-0.2,0-0.4,0.2-0.4c0.2-0.1,0.4,0,0.4,0.2c0,0,0,0,0,0c-0.2,0.1-0.3,0.3-0.4,0.4
		C100.9,14.1,100.8,14,100.7,13.9 M104.4,12.5c0-0.1,0.1-0.2,0.3-0.2c0.1,0,0.2,0.1,0.2,0.3c0,0,0,0.1,0,0.1c-0.1,0-0.2,0.1-0.4,0.1
		C104.4,12.7,104.4,12.6,104.4,12.5"/>
</g>
</svg>
