<?xml version="1.0" encoding="utf-8"?>
<!-- Generator: Adobe Illustrator 22.0.1, SVG Export Plug-In . SVG Version: 6.00 Build 0)  -->
<svg version="1.1" id="Layer_1" xmlns="http://www.w3.org/2000/svg" xmlns:xlink="http://www.w3.org/1999/xlink" x="0px" y="0px"
	 viewBox="0 0 646.1 638.2" style="enable-background:new 0 0 646.1 638.2;" xml:space="preserve">
<style type="text/css">
	.st0{fill:#20145F;}
	.st1{fill:#B7BABB;}
	.st2{clip-path:url(#SVGID_2_);fill:#20145F;}
	.st3{clip-path:url(#SVGID_4_);fill:url(#SVGID_5_);}
	.st4{clip-path:url(#SVGID_7_);fill:url(#SVGID_8_);}
	.st5{clip-path:url(#SVGID_10_);fill:url(#SVGID_11_);}
	.st6{fill:#25215D;}
	.st7{clip-path:url(#SVGID_13_);fill:url(#SVGID_14_);}
	.st8{clip-path:url(#SVGID_16_);fill:url(#SVGID_17_);}
	.st9{clip-path:url(#SVGID_19_);fill:url(#SVGID_20_);}
	.st10{clip-path:url(#SVGID_22_);fill:url(#SVGID_23_);}
</style>
<g>
	<g>
		<g>
			<path class="st0" d="M599.4,159c0.1,0,0.3,0,0.4,0.2c0.1,0.2,0,0.4,0,0.5L576,199.9L318.6,635.2c-0.1,0.1-0.2,0.2-0.4,0.2
				c-0.2,0-0.3-0.1-0.4-0.2L60.5,200l-23.8-40.3c0-0.1-0.1-0.2,0-0.5c0.1-0.2,0.3-0.2,0.4-0.2h47.5h466.6H599.4 M599.4,156.2h-48.3
				H84.5H37c-2.5,0-4.1,2.7-2.8,4.9L58,201.4l257.4,435.2c0.6,1.1,1.7,1.6,2.8,1.6c1.1,0,2.2-0.5,2.8-1.6l257.4-435.3l23.8-40.3
				C603.5,158.9,601.9,156.2,599.4,156.2L599.4,156.2z"/>
		</g>
		<path class="st1" d="M315.4,636.6c0.6,1.1,1.7,1.6,2.8,1.6c1.1,0,2.1-0.5,2.8-1.6l24.2-40.9h-53.9L315.4,636.6z"/>
		<path class="st0" d="M58.1,201.4L34.2,161c-1.3-2.2,0.3-4.9,2.8-4.9h47.5L58.1,201.4z"/>
		<path class="st1" d="M578.4,201.3l23.8-40.3c1.3-2.2-0.3-4.9-2.8-4.9h-48.3L578.4,201.3z"/>
	</g>
	<g>
		<g>
			<path class="st0" d="M318.2,2.8c0.2,0,0.3,0.1,0.4,0.2L576,438.2l23.8,40.3c0,0.1,0.1,0.2,0,0.5c-0.1,0.2-0.3,0.2-0.4,0.2h-47.5
				H85.3H37c-0.1,0-0.3,0-0.4-0.2c-0.1-0.2,0-0.4,0-0.5l23.8-40.3L317.8,3C317.9,2.9,318,2.8,318.2,2.8 M318.2,0
				c-1.1,0-2.2,0.5-2.8,1.6L58,436.9l-23.8,40.3c-1.3,2.2,0.3,4.9,2.8,4.9h48.3h466.6h47.5c2.5,0,4.1-2.7,2.8-4.9l-23.8-40.3
				L321,1.6C320.4,0.5,319.3,0,318.2,0L318.2,0z"/>
		</g>
		<path class="st1" d="M321,1.6c-0.6-1.1-1.7-1.6-2.8-1.6c-1.1,0-2.1,0.5-2.8,1.6l-24.2,40.9h53.9L321,1.6z"/>
		<g>
			<g>
				<g>
					<defs>
						<path id="SVGID_1_" d="M578.4,436.8l23.8,40.3c1.3,2.2-0.3,4.9-2.8,4.9h-47.5L578.4,436.8z"/>
					</defs>
					<clipPath id="SVGID_2_">
						<use xlink:href="#SVGID_1_"  style="overflow:visible;"/>
					</clipPath>
					<rect x="549.4" y="435.3" class="st2" width="55.8" height="48.4"/>
				</g>
			</g>
		</g>
		<path class="st1" d="M58,436.8l-23.8,40.3c-1.3,2.2,0.3,4.9,2.8,4.9h48.3L58,436.8z"/>
	</g>
	<g>
		<g>
			<path class="st0" d="M475.8,38.7c0.1,0,0.5,0.1,0.5,0.5l0.5,47.5l4.8,466.6l0.5,48.3c0,0.1,0,0.2-0.1,0.3s-0.2,0.1-0.3,0.1
				c-0.1,0-0.1,0-0.2-0.1L441,578.5L3,325.7c-0.1-0.1-0.2-0.2-0.2-0.4c0-0.2,0.1-0.3,0.2-0.4L435.5,63l40.1-24.3
				C475.7,38.7,475.7,38.7,475.8,38.7 M475.8,35.9c-0.6,0-1.1,0.1-1.7,0.5L434,60.7L1.6,322.5c-2.1,1.3-2.1,4.3,0.1,5.6L439.5,581
				l40.5,23.4c0.5,0.3,1.1,0.4,1.6,0.4c1.7,0,3.3-1.4,3.2-3.3l-0.5-48.3l-4.8-466.6L479,39.1C479,37.2,477.5,35.9,475.8,35.9
				L475.8,35.9z"/>
		</g>
		<g>
			<g>
				<g>
					<defs>
						<path id="SVGID_3_" d="M1.6,322.5c-1.1,0.6-1.6,1.7-1.6,2.8c0,1.1,0.6,2.1,1.6,2.8l41.1,23.7l-0.6-53.9L1.6,322.5z"/>
					</defs>
					<clipPath id="SVGID_4_">
						<use xlink:href="#SVGID_3_"  style="overflow:visible;"/>
					</clipPath>
					
						<linearGradient id="SVGID_5_" gradientUnits="userSpaceOnUse" x1="-623.5704" y1="725.7587" x2="-622.6859" y2="725.7587" gradientTransform="matrix(62.0745 0 0 -62.0745 38701.6875 45375.7617)">
						<stop  offset="0" style="stop-color:#1D9ADD"/>
						<stop  offset="1" style="stop-color:#EBE717"/>
					</linearGradient>
					<rect x="-6.6" y="292.3" class="st3" width="55.8" height="64.7"/>
				</g>
			</g>
		</g>
		<g>
			<g>
				<g>
					<defs>
						<path id="SVGID_6_" d="M434.1,60.6l40.1-24.3c2.1-1.3,4.9,0.2,4.9,2.7l0.5,47.5L434.1,60.6z"/>
					</defs>
					<clipPath id="SVGID_7_">
						<use xlink:href="#SVGID_6_"  style="overflow:visible;"/>
					</clipPath>
					
						<linearGradient id="SVGID_8_" gradientUnits="userSpaceOnUse" x1="-616.5364" y1="729.9996" x2="-615.5821" y2="729.9996" gradientTransform="matrix(62.0745 0 0 -62.0745 38701.6875 45375.7617)">
						<stop  offset="0" style="stop-color:#1D9ADD"/>
						<stop  offset="1" style="stop-color:#EBE717"/>
					</linearGradient>
					<rect x="430" y="35.3" class="st4" width="60.2" height="52.2"/>
				</g>
			</g>
		</g>
		<g>
			<g>
				<g>
					<defs>
						<path id="SVGID_9_" d="M439.5,581l40.5,23.4c2.2,1.3,4.9-0.3,4.9-2.8l-0.5-48.3L439.5,581z"/>
					</defs>
					<clipPath id="SVGID_10_">
						<use xlink:href="#SVGID_9_"  style="overflow:visible;"/>
					</clipPath>
					
						<linearGradient id="SVGID_11_" gradientUnits="userSpaceOnUse" x1="-616.6147" y1="721.6669" x2="-615.4328" y2="721.6669" gradientTransform="matrix(62.0745 0 0 -62.0745 38701.6875 45375.7617)">
						<stop  offset="0" style="stop-color:#1D9ADD"/>
						<stop  offset="1" style="stop-color:#EBE717"/>
					</linearGradient>
					<rect x="425" y="546.3" class="st5" width="74.6" height="64.7"/>
				</g>
			</g>
		</g>
	</g>
	<g>
		<g>
			<path class="st0" d="M153.5,39.6c0.1,0,0.1,0,0.2,0.1L195,63.1l406,230.1l42,23.8c0.1,0,0.2,0.1,0.2,0.4s-0.2,0.4-0.2,0.4
				l-40.6,23.3L163.9,592.8c-0.1,0-0.1,0.1-0.2,0.1c-0.1,0-0.4-0.1-0.5-0.4L153.9,87L153,40.2c0-0.1,0-0.2,0.1-0.3
				C153.3,39.7,153.4,39.6,153.5,39.6 M153.5,36.8c-1.7,0-3.3,1.4-3.2,3.3l0.9,46.8l9.3,505.5c0,1.9,1.6,3.2,3.2,3.2
				c0.5,0,1.1-0.1,1.6-0.4l438.6-251.8l40.6-23.3c2.2-1.2,2.2-4.4,0-5.6l-42-23.8l-406-230.1l-41.3-23.4
				C154.6,37,154.1,36.8,153.5,36.8L153.5,36.8z"/>
		</g>
		<path class="st6" d="M160.5,592.5c0,1.2,0.7,2.2,1.6,2.8c0.9,0.5,2.1,0.6,3.2,0l41.2-23.6L159.6,545L160.5,592.5z"/>
		<g>
			<g>
				<g>
					<defs>
						<path id="SVGID_12_" d="M151.2,87l-0.9-46.8c0-2.5,2.6-4.1,4.8-2.9l41.3,23.4L151.2,87z"/>
					</defs>
					<clipPath id="SVGID_13_">
						<use xlink:href="#SVGID_12_"  style="overflow:visible;"/>
					</clipPath>
					
						<linearGradient id="SVGID_14_" gradientUnits="userSpaceOnUse" x1="-621.4336" y1="730.0149" x2="-620.2431" y2="730.0149" gradientTransform="matrix(62.0745 0 0 -62.0745 38701.6875 45375.7617)">
						<stop  offset="0" style="stop-color:#1D9ADD"/>
						<stop  offset="1" style="stop-color:#EBE717"/>
					</linearGradient>
					<rect x="125.9" y="27.9" class="st7" width="75.1" height="65.1"/>
				</g>
			</g>
		</g>
		<g>
			<g>
				<g>
					<g>
						<defs>
							<path id="SVGID_15_" d="M603.9,343.5l40.6-23.3c2.2-1.2,2.2-4.4,0-5.6l-42-23.8L603.9,343.5z"/>
						</defs>
						<clipPath id="SVGID_16_">
							<use xlink:href="#SVGID_15_"  style="overflow:visible;"/>
						</clipPath>
						
							<linearGradient id="SVGID_17_" gradientUnits="userSpaceOnUse" x1="690.8635" y1="510.5" x2="745.7717" y2="510.5" gradientTransform="matrix(1 0 0 1 -94 -194)">
							<stop  offset="0" style="stop-color:#1D9ADD"/>
							<stop  offset="1" style="stop-color:#EBE717"/>
						</linearGradient>
						<rect x="596.4" y="292.3" class="st8" width="55.8" height="48.4"/>
					</g>
				</g>
			</g>
			<g>
				<g>
					<g>
						<defs>
							<path id="SVGID_18_" d="M603.9,343.5l40.6-23.3c2.2-1.2,2.2-4.4,0-5.6l-42-23.8L603.9,343.5z"/>
						</defs>
						<clipPath id="SVGID_19_">
							<use xlink:href="#SVGID_18_"  style="overflow:visible;"/>
						</clipPath>
						
							<linearGradient id="SVGID_20_" gradientUnits="userSpaceOnUse" x1="-613.9882" y1="725.8723" x2="-612.8397" y2="725.8723" gradientTransform="matrix(62.0745 0 0 -62.0745 38701.6875 45375.7617)">
							<stop  offset="0" style="stop-color:#1D9ADD"/>
							<stop  offset="1" style="stop-color:#EBE717"/>
						</linearGradient>
						<rect x="588.1" y="286.2" class="st9" width="72.5" height="62.8"/>
					</g>
				</g>
			</g>
		</g>
	</g>
</g>
<g>
	<polygon class="st0" points="323.1,231.1 301,253.2 305.3,257.5 323.1,239.7 402.5,319.1 384.7,336.9 389,341.2 411.1,319.1 	"/>
	<g>
		<g>
			<defs>
				<path id="SVGID_21_" d="M382.4,256.3c0,0.1-4.6,11.5-10.3,23.6c-5.8,12.4-9.7,19.1-12.1,22.6c-2.6-3.3-5.8-8.1-8-11.4
					c-8.3-12.6-14.9-22.5-24.6-22.5c-10.3,0-13.8,11.7-15.4,17.3c-1.9,6.5-3.7,15.1-5.4,23.4c-1.2,5.8-2.9,13.9-4.5,20.1
					c-0.5-0.8-0.9-1.6-1.2-2.2c-3.8-6.9-7.8-14.1-15.9-14.1c-7.2,0-11.8,6.6-16,13.4c-2.9,4.8-6.5,11.5-10.6,19.8
					c-6.8,13.9-12.7,27.5-13,28c-2.2,5,0.1,10.9,5.2,13c1.3,0.6,2.6,0.8,3.9,0.8c3.8,0,7.5-2.2,9.1-6c6.7-15.5,15.2-33.2,21-43.2
					c4.2,7.5,10,16.4,19.9,16.4c10.5,0,14.1-12,15.8-17.8c2-6.8,3.9-15.7,5.6-24.2c1.2-5.7,2.7-13.2,4.2-19c1.8,2.6,3.7,5.5,5.2,7.7
					c8.5,12.8,15.2,23,25.2,23c7.4,0,12.5-6.3,16.9-13.2c3.1-4.9,6.8-11.6,10.8-20c6.7-13.9,12.2-27.6,12.4-28.2
					c2-5.1-0.4-10.9-5.5-12.9c-1.2-0.5-2.5-0.7-3.7-0.7C387.6,250.1,383.9,252.4,382.4,256.3"/>
			</defs>
			<clipPath id="SVGID_22_">
				<use xlink:href="#SVGID_21_"  style="overflow:visible;"/>
			</clipPath>
			
				<linearGradient id="SVGID_23_" gradientUnits="userSpaceOnUse" x1="-305.5881" y1="-67.5848" x2="-303.0618" y2="-67.5848" gradientTransform="matrix(62.0745 0 0 62.0745 19213.8926 4514.4453)">
				<stop  offset="0" style="stop-color:#1D9ADD"/>
				<stop  offset="1" style="stop-color:#EBE717"/>
			</linearGradient>
			<rect x="243.3" y="250.1" class="st10" width="159.5" height="138.1"/>
		</g>
	</g>
	<polygon class="st0" points="235.1,319.1 323.1,407.1 345.2,385 340.9,380.7 323.1,398.5 243.7,319.1 261.5,301.3 257.2,297 	"/>
</g>
</svg>
