<?xml version="1.0" encoding="utf-8"?>
<!-- Generator: Adobe Illustrator 22.0.1, SVG Export Plug-In . SVG Version: 6.00 Build 0)  -->
<svg version="1.1" id="Layer_1" xmlns="http://www.w3.org/2000/svg" xmlns:xlink="http://www.w3.org/1999/xlink" x="0px" y="0px"
	 viewBox="0 0 646.1 638.2" style="enable-background:new 0 0 646.1 638.2;" xml:space="preserve">
<style type="text/css">
	.st0{fill:#25215D;}
	.st1{fill:#B7BABB;}
	.st2{clip-path:url(#SVGID_2_);fill:#25215D;}
	.st3{clip-path:url(#SVGID_4_);fill:url(#SVGID_5_);}
	.st4{clip-path:url(#SVGID_7_);fill:url(#SVGID_8_);}
	.st5{clip-path:url(#SVGID_10_);fill:url(#SVGID_11_);}
	.st6{clip-path:url(#SVGID_13_);fill:url(#SVGID_14_);}
	.st7{clip-path:url(#SVGID_16_);fill:url(#SVGID_17_);}
	.st8{clip-path:url(#SVGID_19_);fill:url(#SVGID_20_);}
</style>
<g>
	<g>
		<g>
			<path class="st0" d="M599.4,159c0.1,0,0.3,0,0.4,0.2c0.1,0.2,0,0.4,0,0.5L576,199.9L318.6,635.2c-0.1,0.1-0.2,0.2-0.4,0.2
				c-0.2,0-0.3-0.1-0.4-0.2L60.5,200l-23.8-40.3c0-0.1-0.1-0.2,0-0.5c0.1-0.2,0.3-0.2,0.4-0.2h47.5h466.6H599.4 M599.4,156.2h-48.3
				H84.5H37c-2.5,0-4.1,2.7-2.8,4.9l23.8,40.3l257.4,435.2c0.6,1.1,1.7,1.6,2.8,1.6c1.1,0,2.2-0.5,2.8-1.6l257.4-435.3l23.8-40.3
				C603.5,158.9,601.9,156.2,599.4,156.2L599.4,156.2z"/>
		</g>
		<path class="st1" d="M315.4,636.6c0.6,1.1,1.7,1.6,2.8,1.6c1.1,0,2.1-0.5,2.8-1.6l24.2-40.9h-53.9L315.4,636.6z"/>
		<path class="st0" d="M58.1,201.4L34.2,161c-1.3-2.2,0.3-4.9,2.8-4.9h47.5L58.1,201.4z"/>
		<path class="st1" d="M578.4,201.3l23.8-40.3c1.3-2.2-0.3-4.9-2.8-4.9h-48.3L578.4,201.3z"/>
	</g>
	<g>
		<g>
			<path class="st0" d="M318.2,2.8c0.2,0,0.3,0.1,0.4,0.2L576,438.2l23.8,40.3c0,0.1,0.1,0.2,0,0.5c-0.1,0.2-0.3,0.2-0.4,0.2h-47.5
				H85.3H37c-0.1,0-0.3,0-0.4-0.2c-0.1-0.2,0-0.4,0-0.5l23.8-40.3L317.8,3C317.9,2.9,318,2.8,318.2,2.8 M318.2,0
				c-1.1,0-2.2,0.5-2.8,1.6L58,436.9l-23.8,40.3c-1.3,2.2,0.3,4.9,2.8,4.9h48.3h466.6h47.5c2.5,0,4.1-2.7,2.8-4.9l-23.8-40.3
				L321,1.6C320.4,0.5,319.3,0,318.2,0L318.2,0z"/>
		</g>
		<path class="st1" d="M321,1.6c-0.6-1.1-1.7-1.6-2.8-1.6c-1.1,0-2.1,0.5-2.8,1.6l-24.2,40.9h53.9L321,1.6z"/>
		<g>
			<defs>
				<path id="SVGID_1_" d="M578.4,436.8l23.8,40.3c1.3,2.2-0.3,4.9-2.8,4.9h-47.5L578.4,436.8z"/>
			</defs>
			<clipPath id="SVGID_2_">
				<use xlink:href="#SVGID_1_"  style="overflow:visible;"/>
			</clipPath>
			<rect x="549.4" y="435.3" class="st2" width="55.8" height="48.4"/>
		</g>
		<path class="st1" d="M58,436.8l-23.8,40.3c-1.3,2.2,0.3,4.9,2.8,4.9h48.3L58,436.8z"/>
	</g>
	<g>
		<g>
			<path class="st0" d="M475.8,38.7c0.1,0,0.5,0.1,0.5,0.5l0.5,47.5l4.8,466.6l0.5,48.3c0,0.1,0,0.2-0.1,0.3
				c-0.1,0.1-0.2,0.1-0.3,0.1c-0.1,0-0.1,0-0.2-0.1l-40.5-23.4L3,325.7c-0.1-0.1-0.2-0.2-0.2-0.4c0-0.2,0.1-0.3,0.2-0.4L435.5,63
				l40.1-24.3C475.7,38.7,475.7,38.7,475.8,38.7 M475.8,35.9c-0.6,0-1.1,0.1-1.7,0.5l-40.1,24.3L1.6,322.5c-2.1,1.3-2.1,4.3,0.1,5.6
				L439.5,581l40.5,23.4c0.5,0.3,1.1,0.4,1.6,0.4c1.7,0,3.3-1.4,3.2-3.3l-0.5-48.3l-4.8-466.6l-0.5-47.5
				C479,37.2,477.5,35.9,475.8,35.9L475.8,35.9z"/>
		</g>
		<g>
			<defs>
				<path id="SVGID_3_" d="M1.6,322.5c-1.1,0.6-1.6,1.7-1.6,2.8c0,1.1,0.6,2.1,1.6,2.8l41.1,23.7l-0.6-53.9L1.6,322.5z"/>
			</defs>
			<clipPath id="SVGID_4_">
				<use xlink:href="#SVGID_3_"  style="overflow:visible;"/>
			</clipPath>
			
				<linearGradient id="SVGID_5_" gradientUnits="userSpaceOnUse" x1="45.475" y1="726.9862" x2="46.3595" y2="726.9862" gradientTransform="matrix(62.0745 0 0 -62.0745 -2828.9724 45451.7617)">
				<stop  offset="0" style="stop-color:#1D9ADD"/>
				<stop  offset="1" style="stop-color:#EBE717"/>
			</linearGradient>
			<rect x="-6.6" y="300.3" class="st3" width="55.8" height="48.4"/>
		</g>
		<g>
			<defs>
				<path id="SVGID_6_" d="M434.1,60.6l40.1-24.3c2.1-1.3,4.9,0.2,4.9,2.7l0.5,47.5L434.1,60.6z"/>
			</defs>
			<clipPath id="SVGID_7_">
				<use xlink:href="#SVGID_6_"  style="overflow:visible;"/>
			</clipPath>
			
				<linearGradient id="SVGID_8_" gradientUnits="userSpaceOnUse" x1="52.5793" y1="731.223" x2="53.4639" y2="731.223" gradientTransform="matrix(62.0745 0 0 -62.0745 -2828.9724 45451.7617)">
				<stop  offset="0" style="stop-color:#1D9ADD"/>
				<stop  offset="1" style="stop-color:#EBE717"/>
			</linearGradient>
			<rect x="434.4" y="37.3" class="st4" width="55.8" height="48.4"/>
		</g>
		<g>
			<defs>
				<path id="SVGID_9_" d="M439.5,581l40.5,23.4c2.2,1.3,4.9-0.3,4.9-2.8l-0.5-48.3L439.5,581z"/>
			</defs>
			<clipPath id="SVGID_10_">
				<use xlink:href="#SVGID_9_"  style="overflow:visible;"/>
			</clipPath>
			
				<linearGradient id="SVGID_11_" gradientUnits="userSpaceOnUse" x1="52.5793" y1="722.8782" x2="53.4639" y2="722.8782" gradientTransform="matrix(62.0745 0 0 -62.0745 -2828.9724 45451.7617)">
				<stop  offset="0" style="stop-color:#1D9ADD"/>
				<stop  offset="1" style="stop-color:#EBE717"/>
			</linearGradient>
			<rect x="434.4" y="555.3" class="st5" width="55.8" height="48.4"/>
		</g>
	</g>
	<g>
		<g>
			<path class="st0" d="M153.5,39.6c0.1,0,0.1,0,0.2,0.1l41.3,23.4l406,230.1l42,23.8c0.1,0,0.2,0.1,0.2,0.4c0,0.3-0.2,0.4-0.2,0.4
				l-40.6,23.3L163.9,592.8c-0.1,0-0.1,0.1-0.2,0.1c-0.1,0-0.4-0.1-0.5-0.4l-9.3-505.5l-0.9-46.8c0-0.1,0-0.2,0.1-0.3
				C153.3,39.7,153.4,39.6,153.5,39.6 M153.5,36.8c-1.7,0-3.3,1.4-3.2,3.3l0.9,46.8l9.3,505.5c0,1.9,1.6,3.2,3.2,3.2
				c0.5,0,1.1-0.1,1.6-0.4l438.6-251.8l40.6-23.3c2.2-1.2,2.2-4.4,0-5.6l-42-23.8l-406-230.1l-41.3-23.4
				C154.6,37,154.1,36.8,153.5,36.8L153.5,36.8z"/>
		</g>
		<path class="st0" d="M160.5,592.5c0,1.2,0.7,2.2,1.6,2.8c0.9,0.5,2.1,0.6,3.2,0l41.2-23.6L159.6,545L160.5,592.5z"/>
		<g>
			<defs>
				<path id="SVGID_12_" d="M151.2,87l-0.9-46.8c0-2.5,2.6-4.1,4.8-2.9l41.3,23.4L151.2,87z"/>
			</defs>
			<clipPath id="SVGID_13_">
				<use xlink:href="#SVGID_12_"  style="overflow:visible;"/>
			</clipPath>
			
				<linearGradient id="SVGID_14_" gradientUnits="userSpaceOnUse" x1="47.8431" y1="731.2391" x2="48.7276" y2="731.2391" gradientTransform="matrix(62.0745 0 0 -62.0745 -2828.9724 45451.7617)">
				<stop  offset="0" style="stop-color:#1D9ADD"/>
				<stop  offset="1" style="stop-color:#EBE717"/>
			</linearGradient>
			<rect x="140.4" y="36.3" class="st6" width="55.8" height="48.4"/>
		</g>
		<g>
			<g>
				<defs>
					<path id="SVGID_15_" d="M603.9,343.5l40.6-23.3c2.2-1.2,2.2-4.4,0-5.6l-42-23.8L603.9,343.5z"/>
				</defs>
				<clipPath id="SVGID_16_">
					<use xlink:href="#SVGID_15_"  style="overflow:visible;"/>
				</clipPath>
				
					<linearGradient id="SVGID_17_" gradientUnits="userSpaceOnUse" x1="690.8635" y1="435.1496" x2="745.7717" y2="435.1496" gradientTransform="matrix(1 0 0 1 -94 -118)">
					<stop  offset="0" style="stop-color:#1D9ADD"/>
					<stop  offset="1" style="stop-color:#EBE717"/>
				</linearGradient>
				<rect x="596.4" y="292.3" class="st7" width="55.8" height="48.4"/>
			</g>
			<g>
				<defs>
					<path id="SVGID_18_" d="M603.9,343.5l40.6-23.3c2.2-1.2,2.2-4.4,0-5.6l-42-23.8L603.9,343.5z"/>
				</defs>
				<clipPath id="SVGID_19_">
					<use xlink:href="#SVGID_18_"  style="overflow:visible;"/>
				</clipPath>
				
					<linearGradient id="SVGID_20_" gradientUnits="userSpaceOnUse" x1="55.1891" y1="727.1151" x2="56.0736" y2="727.1151" gradientTransform="matrix(62.0745 0 0 -62.0745 -2828.9724 45451.7617)">
					<stop  offset="0" style="stop-color:#1D9ADD"/>
					<stop  offset="1" style="stop-color:#EBE717"/>
				</linearGradient>
				<rect x="596.4" y="292.3" class="st8" width="55.8" height="48.4"/>
			</g>
			<g>
				<defs>
					<path id="SVGID_21_" d="M603.9,343.5l40.6-23.3c2.2-1.2,2.2-4.4,0-5.6l-42-23.8L603.9,343.5z"/>
				</defs>
				<clipPath id="SVGID_22_">
					<use xlink:href="#SVGID_21_"  style="overflow:visible;"/>
				</clipPath>
			</g>
		</g>
	</g>
</g>
</svg>
