<?xml version="1.0" encoding="utf-8"?>
<!-- Generator: Adobe Illustrator 22.0.1, SVG Export Plug-In . SVG Version: 6.00 Build 0)  -->
<svg version="1.1" id="Layer_1" xmlns="http://www.w3.org/2000/svg" xmlns:xlink="http://www.w3.org/1999/xlink" x="0px" y="0px"
	 viewBox="0 0 538 636" style="enable-background:new 0 0 538 636;" xml:space="preserve">
<style type="text/css">
	.st0{fill:#25215D;}
	.st1{fill:#FFFFFF;}
	.st2{clip-path:url(#SVGID_2_);fill:url(#SVGID_3_);}
	.st3{fill:none;}
	.st4{fill-rule:evenodd;clip-rule:evenodd;fill:#413D72;}
	.st5{fill:none;stroke:url(#SVGID_4_);stroke-width:10.2652;stroke-miterlimit:10;}
	.st6{fill:url(#SVGID_5_);}
	.st7{fill-rule:evenodd;clip-rule:evenodd;fill:#FFFFFF;}
	.st8{fill:#FFFFFF;stroke:#000000;stroke-width:2;stroke-miterlimit:10;}
	.st9{fill:none;stroke:#25215D;stroke-miterlimit:10;}
	.st10{font-family:'OpenSans';}
	.st11{font-size:12.7044px;}
</style>
<g>
	<rect y="486" class="st0" width="538" height="150"/>
	<g>
		<g>
			<path class="st1" d="M184,567.1v-1c0-5.3-4.8-6.9-9.3-7.3c-3.9-0.4-6.9-1.3-6.9-5.2v-0.4c0-2.8,1.8-5,6.1-5
				c4.9,0,6.4,3.4,6.4,6.4v0.3h3.1v-0.8c0-4.5-3-8.8-9.5-8.8c-6.4,0-9.2,3.3-9.2,7.8v0.9c0,5.5,4.6,7.2,9.5,7.7
				c4,0.4,6.7,1.6,6.7,4.9v0.4c0,3.1-2.1,5.3-6.6,5.3c-4.8,0-7.1-3.4-7.1-6.4v-0.3h-3.1v0.8c0,4.9,3.8,8.8,10.2,8.8
				C180.8,575,184,571.8,184,567.1 M222.6,574.4h3.1v-28.6h-3.1v13.5h-13.2v-13.5h-3.1v28.6h3.1v-12.2h13.2V574.4z M267.6,574.4h3.3
				l-10.3-28.6h-3.2l-10.3,28.6h3.2l8.6-25L267.6,574.4z M308.6,556.2c0,4.3-2.1,6.6-6,6.6h-7.2v-14.1h7.2c3.9,0,6,2.3,6,6.6V556.2z
				 M311.6,556.7v-2c0-5.4-3.5-8.9-9.1-8.9h-10.3v28.6h3.1v-8.8h7.2C308.2,565.6,311.6,562.2,311.6,556.7 M333.8,574.4h16.8v-2.8
				h-13.8V562h11.3v-2.8h-11.3v-10.5h13.5v-2.9h-16.5V574.4z M372.6,574.4h17v-2.8h-13.9v-25.7h-3.1V574.4z M410.9,574.4h16.8v-2.8
				H414V562h11.3v-2.8H414v-10.5h13.5v-2.9h-16.5V574.4z M459.8,548.7h8.4v-2.8h-19.8v2.8h8.4v25.7h3.1V548.7z M492.2,553.6v-0.4
				c0-2.8,1.8-5,6.1-5c4.9,0,6.4,3.4,6.4,6.4v0.3h3.1v-0.8c0-4.5-3-8.8-9.5-8.8c-6.4,0-9.2,3.3-9.2,7.8v0.9c0,5.5,4.6,7.2,9.5,7.7
				c4,0.4,6.7,1.6,6.7,4.9v0.4c0,3.1-2.1,5.3-6.6,5.3c-4.8,0-7.1-3.4-7.1-6.4v-0.3h-3.1v0.8c0,4.9,3.8,8.8,10.2,8.8
				c6.4,0,9.7-3.2,9.7-8v-1c0-5.3-4.8-6.9-9.3-7.3C495.2,558.4,492.2,557.5,492.2,553.6"/>
		</g>
		<g>
			<polygon class="st1" points="88.8,516.7 77.6,527.9 79.8,530.1 88.8,521.1 128.8,561.1 119.8,570.1 122,572.3 133.2,561.1 			"/>
			<g>
				<defs>
					<path id="SVGID_1_" d="M118.7,529.4c0,0.1-2.3,5.8-5.2,11.9c-2.9,6.3-4.9,9.6-6.1,11.4c-1.3-1.6-2.9-4.1-4-5.7
						c-4.2-6.3-7.5-11.3-12.4-11.3c-5.2,0-6.9,5.9-7.8,8.7c-1,3.3-1.9,7.6-2.7,11.8c-0.6,2.9-1.5,7-2.3,10.1
						c-0.2-0.4-0.4-0.8-0.6-1.1c-1.9-3.5-3.9-7.1-8-7.1c-3.6,0-6,3.3-8,6.7c-1.5,2.4-3.3,5.8-5.3,10c-3.4,7-6.4,13.8-6.5,14.1
						c-1.1,2.5,0.1,5.5,2.6,6.6c0.6,0.3,1.3,0.4,2,0.4c1.9,0,3.8-1.1,4.6-3c3.4-7.8,7.7-16.7,10.6-21.8c2.1,3.8,5.1,8.3,10,8.3
						c5.3,0,7.1-6.1,8-9c1-3.4,2-7.9,2.8-12.2c0.6-2.9,1.4-6.7,2.1-9.6c0.9,1.3,1.9,2.8,2.6,3.9c4.3,6.5,7.7,11.6,12.7,11.6
						c3.7,0,6.3-3.2,8.5-6.7c1.6-2.5,3.4-5.9,5.5-10.1c3.4-7,6.2-13.9,6.3-14.2c1-2.6-0.2-5.5-2.8-6.5c-0.6-0.2-1.2-0.4-1.9-0.4
						C121.3,526.3,119.5,527.5,118.7,529.4"/>
				</defs>
				<clipPath id="SVGID_2_">
					<use xlink:href="#SVGID_1_"  style="overflow:visible;"/>
				</clipPath>
				
					<linearGradient id="SVGID_3_" gradientUnits="userSpaceOnUse" x1="-32.3043" y1="682.179" x2="-31.03" y2="682.179" gradientTransform="matrix(62.0745 0 0 -62.0745 2054.4939 42907.0508)">
					<stop  offset="0" style="stop-color:#1D9ADD"/>
					<stop  offset="1" style="stop-color:#EBE717"/>
				</linearGradient>
				<rect x="48.5" y="526.3" class="st2" width="80.5" height="69.7"/>
			</g>
			<polygon class="st1" points="44.4,561.1 88.8,605.5 99.9,594.4 97.7,592.2 88.8,601.2 48.7,561.1 57.7,552.1 55.5,550 			"/>
		</g>
	</g>
	<g>
		<g>
			<g>
				<g>
					<g>
						<g>
							<rect x="203.9" y="380.5" class="st3" width="45" height="35.2"/>
						</g>
						<rect x="223.5" y="406.5" class="st4" width="4.5" height="6.5"/>
						<rect x="223.5" y="394.8" class="st4" width="4.5" height="6.5"/>
						<rect x="223.5" y="383.2" class="st4" width="4.5" height="6.5"/>
					</g>
				</g>
				<g>
					<g>
						<g>
							<rect x="203.9" y="415.7" class="st3" width="45" height="35.2"/>
						</g>
						<rect x="223.5" y="441.7" class="st4" width="4.5" height="6.5"/>
						<rect x="223.5" y="430" class="st4" width="4.5" height="6.5"/>
						<rect x="223.5" y="418.3" class="st4" width="4.5" height="6.5"/>
					</g>
				</g>
				<g>
					<g>
						<g>
							<rect x="203.9" y="450.8" class="st3" width="45" height="35.2"/>
						</g>
						<rect x="223.5" y="476.9" class="st4" width="4.5" height="6.5"/>
						<rect x="223.5" y="465.2" class="st4" width="4.5" height="6.5"/>
						<rect x="223.5" y="453.5" class="st4" width="4.5" height="6.5"/>
					</g>
				</g>
			</g>
		</g>
	</g>
	<g>
		<g>
			<g>
				<g>
					<g>
						<g>
							<rect x="245.6" y="390" class="st3" width="45" height="48.5"/>
						</g>
						<rect x="265.2" y="425.9" class="st4" width="4.5" height="9"/>
						<rect x="265.2" y="409.8" class="st4" width="4.5" height="9"/>
						<rect x="265.2" y="393.7" class="st4" width="4.5" height="9"/>
					</g>
				</g>
				<g>
					<g>
						<g>
							<rect x="245.6" y="438.5" class="st3" width="45" height="48.5"/>
						</g>
						<rect x="265.2" y="474.4" class="st4" width="4.5" height="9"/>
						<rect x="265.2" y="458.3" class="st4" width="4.5" height="9"/>
						<rect x="265.2" y="442.2" class="st4" width="4.5" height="9"/>
					</g>
				</g>
			</g>
		</g>
	</g>
	<g>
		<g>
			<g>
				<g>
					<g>
						<g>
							<rect x="285.4" y="375.5" class="st3" width="45" height="36.8"/>
						</g>
						<rect x="305" y="402.8" class="st4" width="4.5" height="6.8"/>
						<rect x="305" y="390.5" class="st4" width="4.5" height="6.8"/>
						<rect x="305" y="378.3" class="st4" width="4.5" height="6.8"/>
					</g>
				</g>
				<g>
					<g>
						<g>
							<rect x="285.4" y="412.3" class="st3" width="45" height="36.8"/>
						</g>
						<rect x="305" y="439.6" class="st4" width="4.5" height="6.8"/>
						<rect x="305" y="427.3" class="st4" width="4.5" height="6.8"/>
						<rect x="305" y="415.1" class="st4" width="4.5" height="6.8"/>
					</g>
				</g>
				<g>
					<g>
						<g>
							<rect x="285.4" y="449.2" class="st3" width="45" height="36.8"/>
						</g>
						<rect x="305" y="476.4" class="st4" width="4.5" height="6.8"/>
						<rect x="305" y="464.2" class="st4" width="4.5" height="6.8"/>
						<rect x="305" y="452" class="st4" width="4.5" height="6.8"/>
					</g>
				</g>
			</g>
		</g>
	</g>
	<linearGradient id="SVGID_4_" gradientUnits="userSpaceOnUse" x1="265.2925" y1="38.0701" x2="265.2925" y2="392.2791">
		<stop  offset="0" style="stop-color:#2A99D5"/>
		<stop  offset="0.2248" style="stop-color:#217AAA"/>
		<stop  offset="0.7295" style="stop-color:#0C2C3D"/>
		<stop  offset="1" style="stop-color:#000000"/>
	</linearGradient>
	<path class="st5" d="M252.3,43.2C318,44,370.6,49.3,420.3,70.1c4.2,1.8,8.4,3.9,12.3,6.2c21.8,12.7,26.3,24.2,12.2,44.9
		c-18.1,26.4-38.8,51.1-59.3,75.7c-22,26.3-45.2,51.6-67.7,77.4c-7,8-10.1,17.1-9.6,28c0.8,19.3-0.2,38.7,0.4,58
		c0.3,10.8-4.6,17.2-14.2,21c-20.2,7.8-40.2,7.8-60.1-1c-8.2-3.6-12.6-9.5-12.4-18.9c0.4-20.4,0.8-40.8-0.2-61.2
		c-0.4-7.9-2.6-17.3-7.4-23.1c-27-32.2-55.7-63-82.6-95.3c-17.3-20.8-33.8-42.6-48-65.5C72.6,99,77.1,88.8,95,78.1
		c28.3-16.9,60-24,92-28.8C212.6,45.5,238.7,44.4,252.3,43.2z M274.4,144c15.6-1.2,39.5-2.3,63.1-4.9c27.2-3,54.5-7.1,79-20.4
		c6.5-3.5,13.3-10.5,15.1-17.2c2.6-9.3-6.5-15.4-14.1-18.9c-14.1-6.4-28.5-13.2-43.6-16.6c-70.7-16.3-141.8-16.3-212.7-0.5
		c-19.1,4.2-38,9.9-53.2,23.1c-9.3,8-9.3,18.2,1,24.7c10,6.3,21.1,11.8,32.5,15.1C182.2,140.3,224.1,142.7,274.4,144z"/>
	<g>
		<linearGradient id="SVGID_5_" gradientUnits="userSpaceOnUse" x1="209.9498" y1="13.0096" x2="391.1657" y2="326.8849">
			<stop  offset="0" style="stop-color:#253BA6"/>
			<stop  offset="0.2148" style="stop-color:#25389D"/>
			<stop  offset="0.5689" style="stop-color:#252F84"/>
			<stop  offset="1" style="stop-color:#25215D"/>
		</linearGradient>
		<path class="st6" d="M252.5,43.4c65.1,0.8,117.1,6.1,166.4,27c4.2,1.8,8.3,3.9,12.2,6.2c21.6,12.8,26.1,24.3,12,45
			c-17.9,26.4-38.4,51.2-58.7,75.9c-21.7,26.4-44.7,51.7-67,77.6c-6.9,8-10,17.1-9.6,28.1c0.8,19.4-0.2,38.8,0.4,58.2
			c0.3,10.8-4.5,17.3-14.1,21c-20,7.8-39.8,7.9-59.5-1c-8.2-3.6-12.4-9.5-12.3-18.9c0.4-20.5,0.8-40.9-0.2-61.4
			c-0.4-7.9-2.5-17.4-7.4-23.2c-26.7-32.3-55.2-63.1-81.8-95.5c-17.1-20.9-33.4-42.7-47.6-65.7c-10.7-17.4-6.3-27.7,11.5-38.4
			c28-17,59.4-24.1,91.1-28.9C213.3,45.6,239.1,44.6,252.5,43.4z M274.4,144.4c15.5-1.2,39.1-2.3,62.5-4.9c27-3,54-7.1,78.2-20.4
			c6.4-3.5,13.1-10.6,14.9-17.3c2.5-9.3-6.4-15.4-13.9-18.9c-14-6.5-28.3-13.2-43.2-16.7C302.9,50,232.6,50,162.4,65.8
			c-18.9,4.3-37.6,10-52.7,23.1c-9.2,8.1-9.2,18.2,1,24.8c9.9,6.4,20.9,11.8,32.2,15.1C183.1,140.8,224.6,143.2,274.4,144.4z"/>
		<g>
			<path class="st3" d="M252.5,43.4c65.1,0.8,117.1,6.1,166.4,27c4.2,1.8,8.3,3.9,12.2,6.2c21.6,12.8,26.1,24.3,12,45
				c-17.9,26.4-38.4,51.2-58.7,75.9c-21.7,26.4-44.7,51.7-67,77.6c-6.9,8-10,17.1-9.6,28.1c0.8,19.4-0.2,38.8,0.4,58.2
				c0.3,10.8-4.5,17.3-14.1,21c-20,7.8-39.8,7.9-59.5-1c-8.2-3.6-12.4-9.5-12.3-18.9c0.4-20.5,0.8-40.9-0.2-61.4
				c-0.4-7.9-2.5-17.4-7.4-23.2c-26.7-32.3-55.2-63.1-81.8-95.5c-17.1-20.9-33.4-42.7-47.6-65.7c-10.7-17.4-6.3-27.7,11.5-38.4
				c28-17,59.4-24.1,91.1-28.9C213.3,45.6,239.1,44.6,252.5,43.4z M274.4,144.4c15.5-1.2,39.1-2.3,62.5-4.9c27-3,54-7.1,78.2-20.4
				c6.4-3.5,13.1-10.6,14.9-17.3c2.5-9.3-6.4-15.4-13.9-18.9c-14-6.5-28.3-13.2-43.2-16.7C302.9,50,232.6,50,162.4,65.8
				c-18.9,4.3-37.6,10-52.7,23.1c-9.2,8.1-9.2,18.2,1,24.8c9.9,6.4,20.9,11.8,32.2,15.1C183.1,140.8,224.6,143.2,274.4,144.4z"/>
			<g>
				<g>
					<g>
						<g>
							<polygon class="st3" points="274.8,162.1 307.8,159.8 305.3,124.7 274,126.8 							"/>
						</g>
						<polygon class="st7" points="298.1,141.6 298.3,145.1 304.3,144.7 304.1,141.2 						"/>
						
							<rect x="287.5" y="142.1" transform="matrix(0.9979 -6.480430e-02 6.480430e-02 0.9979 -8.7125 19.129)" class="st7" width="6" height="3.5"/>
						<polygon class="st7" points="276.8,143 277,146.5 283,146.1 282.7,142.6 						"/>
					</g>
				</g>
				<g>
					<g>
						<g>
							<path class="st3" d="M307.8,159.8c10.8-0.8,21.8-1.7,32.8-3l-4-35c-10.4,1.2-20.8,2.1-31.3,2.8L307.8,159.8z"/>
						</g>
						<polygon class="st7" points="330.2,139 330.5,142.5 336.5,141.9 336.1,138.4 						"/>
						<polygon class="st7" points="319.5,140 319.8,143.5 325.8,143 325.4,139.5 						"/>
						<polygon class="st7" points="308.9,140.8 309.1,144.4 315.1,143.9 314.8,140.4 						"/>
					</g>
				</g>
				<g>
					<g>
						<g>
							<path class="st3" d="M340.6,156.9c10.9-1.2,22-2.7,33.3-5l-7-34.6c-9.7,2-19.9,3.3-30.3,4.5L340.6,156.9z"/>
						</g>
						<path class="st7" d="M362,134.9l0.6,3.5c2-0.4,4-0.7,5.9-1.1l-0.7-3.5C365.9,134.2,364,134.6,362,134.9z"/>
						<polygon class="st7" points="351.4,136.5 351.9,140 357.9,139.1 357.3,135.7 						"/>
						<polygon class="st7" points="340.9,137.8 341.3,141.3 347.2,140.6 346.8,137.1 						"/>
					</g>
				</g>
				<g>
					<g>
						<g>
							<path class="st3" d="M373.9,151.9c5.7-1.2,11.3-2.5,17-4.1c5.7-1.6,11.4-3.6,17-5.8l-13.2-32.7c-4.4,1.7-8.9,3.3-13.5,4.6
								c-4.6,1.3-9.4,2.4-14.3,3.4L373.9,151.9z"/>
						</g>
						<polygon class="st7" points="393.1,127.4 394.2,130.7 397.1,129.7 399.9,128.6 398.6,125.4 395.9,126.4 						"/>
						<path class="st7" d="M382.9,130.4l0.9,3.4c1.9-0.5,3.9-1.1,5.8-1.7l-1-3.4C386.7,129.4,384.8,129.9,382.9,130.4z"/>
						<path class="st7" d="M372.6,132.9l0.7,3.4c2-0.4,3.9-0.8,5.9-1.3l-0.8-3.4C376.4,132.1,374.5,132.5,372.6,132.9z"/>
					</g>
				</g>
				<g>
					<g>
						<g>
							<path class="st3" d="M407.9,142c2.8-1.2,5.6-2.3,8.3-3.7l2.1-1l2-1.1l2-1.1l1-0.5c0.1-0.1,0.4-0.2,0.6-0.4l0.7-0.4
								c3.7-2.2,6.8-4.6,9.6-7.3c0.7-0.7,1.4-1.4,2.1-2.1c0.6-0.6,1.6-1.8,2.4-2.8c0.9-1,1.6-2.1,2.4-3.2c0.7-1.1,1.5-2.2,2.1-3.4
								l-32.4-15l-1,1c-1,1-2.2,1.9-3.1,2.4l-0.2,0.1c-0.1,0-0.1,0.1-0.2,0.1l-0.8,0.4l-1.5,0.8l-1.5,0.8l-1.6,0.7
								c-2.1,1-4.2,1.9-6.4,2.8L407.9,142z"/>
						</g>
						<path class="st7" d="M421.1,113.2l2.4,2.6c0.8-0.7,1.5-1.5,2.2-2.3c0.7-0.8,1.5-1.7,2.1-2.6l-3-1.9c-0.6,0.7-1.2,1.4-1.8,2.1
							C422.5,111.8,421.8,112.5,421.1,113.2z"/>
						<path class="st7" d="M412.6,119l1.6,3.1c1.8-0.9,3.7-2,5.4-3.2l-2.1-2.9C416,117.2,414.4,118.1,412.6,119z"/>
						<path class="st7" d="M403.1,123.6l1.4,3.2c0.9-0.4,1.9-0.8,2.8-1.2l2.8-1.3l-1.5-3.2l-2.7,1.3
							C404.9,122.8,404,123.2,403.1,123.6z"/>
					</g>
				</g>
				<g>
					<g>
						<g>
							<path class="st3" d="M443.4,115.1c2.6-4.6,4.3-9.6,4.6-14.7c0.3-5.1-0.8-10.2-3.1-14.8c-2.3-4.6-5.8-8.6-10-11.8
								c-2.1-1.6-4.3-3.1-6.7-4.4c-1.6-0.9-3.3-1.7-4.8-2.5l-14.8,32l2.3,1.2L443.4,115.1z"/>
						</g>
						<path class="st7" d="M422.4,88l2.4-2.6c-0.9-0.7-1.8-1.3-2.8-1.9c-0.5-0.3-1-0.6-1.4-0.8c-0.5-0.3-0.9-0.5-1.4-0.7l-1.6,3.1
							C419.4,86,420.9,86.9,422.4,88z"/>
						<path class="st7" d="M428.6,95.6l3.5-0.9c-0.7-2.1-1.9-4-3.3-5.7l-3.1,1.9C427,92.3,428,93.9,428.6,95.6z"/>
						<path class="st7" d="M427.3,105.2l3.4,1.1c1-2,1.7-4.1,1.9-6.4l-3.7,0C428.8,101.8,428.2,103.6,427.3,105.2z"/>
					</g>
				</g>
				<g>
					<g>
						<g>
							<path class="st3" d="M423.4,66.9c-9.7-4.5-19.9-9.3-31.1-13.3l-11.7,33.2c9,3.2,18.3,7.5,28.1,12L423.4,66.9z"/>
						</g>
						<path class="st7" d="M393.8,74.4l1.3-3.3c-1.9-0.8-3.7-1.5-5.6-2.2l-1.2,3.3C390.1,73,392,73.7,393.8,74.4z"/>
						<path class="st7" d="M403.6,78.6l1.4-3.2c-1.8-0.8-3.7-1.6-5.5-2.4l-1.4,3.2C400,77,401.8,77.8,403.6,78.6z"/>
						<polygon class="st7" points="413.3,83 414.8,79.8 409.4,77.3 407.9,80.5 						"/>
					</g>
				</g>
				<g>
					<g>
						<g>
							<path class="st3" d="M392.3,53.7c-2.8-1-5.7-1.9-8.6-2.8c-1.5-0.4-3-0.8-4.5-1.2l-2.3-0.6l-2-0.4c-5.4-1.2-10.8-2.5-16.3-3.4
								l-6.7,34.6C357,80.8,362,82,367.1,83l1.9,0.4l1.6,0.4c1.1,0.3,2.2,0.6,3.3,0.9c2.2,0.6,4.4,1.4,6.7,2.2L392.3,53.7z"/>
						</g>
						<path class="st7" d="M363.2,65.4l0.7-3.4c-2-0.4-3.9-0.9-5.9-1.2l-0.7,3.5C359.3,64.6,361.2,65,363.2,65.4z"/>
						<path class="st7" d="M373.6,67.7l0.8-3.4c-2-0.5-3.9-0.9-5.9-1.3l-0.8,3.4C369.7,66.9,371.7,67.3,373.6,67.7z"/>
						<path class="st7" d="M383.8,70.7l1.1-3.3c-1.9-0.6-3.9-1.2-5.8-1.8l-1,3.4C380,69.5,381.9,70.1,383.8,70.7z"/>
					</g>
				</g>
				<g>
					<g>
						<g>
							<path class="st3" d="M358.6,45.2l-8.2-1.5c-2.7-0.5-5.5-0.9-8.2-1.3c-5.5-0.9-11-1.6-16.5-2.3l-4.3,35
								c5.1,0.7,10.2,1.3,15.3,2.2c2.5,0.4,5.1,0.8,7.6,1.2l7.6,1.4L358.6,45.2z"/>
						</g>
						<polygon class="st7" points="331.6,59.8 332.1,56.3 326.1,55.6 325.6,59.1 						"/>
						<polygon class="st7" points="342.1,61.5 342.7,58 336.8,57 336.2,60.5 						"/>
						<polygon class="st7" points="352.6,63.3 353.3,59.9 347.4,58.7 346.8,62.2 						"/>
					</g>
				</g>
				<g>
					<g>
						<g>
							<path class="st3" d="M325.6,40c-2.8-0.4-5.5-0.7-8.3-0.9l-8.3-0.8l-8.3-0.6c-2.8-0.2-5.6-0.4-8.3-0.5l-1.9,35.2
								c2.6,0.1,5.2,0.3,7.7,0.5l7.7,0.6l7.7,0.8c2.6,0.3,5.1,0.5,7.7,0.9L325.6,40z"/>
						</g>
						<polygon class="st7" points="299.6,56.5 299.9,52.9 293.9,52.5 293.7,56 						"/>
						<polygon class="st7" points="310.3,57.3 310.6,53.8 307.6,53.5 304.6,53.3 304.3,56.8 307.3,57 						"/>
						<path class="st7" d="M320.9,58.4l0.4-3.5c-2-0.2-4-0.4-6-0.6l-0.4,3.5C316.9,58,318.9,58.2,320.9,58.4z"/>
					</g>
				</g>
				<g>
					<g>
						<g>
							<path class="st3" d="M292.3,37.1c-5.6-0.2-11.1-0.6-16.7-0.6l-8.4-0.1l-8.4,0.1l0.6,35.3l7.7-0.1l7.7,0.1
								c5.2,0,10.3,0.3,15.5,0.5L292.3,37.1z"/>
						</g>
						<polygon class="st7" points="267.6,55.2 267.6,51.7 261.6,51.8 261.6,55.3 						"/>
						<polygon class="st7" points="278.2,55.4 278.3,51.9 272.3,51.8 272.3,55.3 						"/>
						<polygon class="st7" points="288.9,55.8 289.1,52.3 283.1,52 282.9,55.5 						"/>
					</g>
				</g>
				<g>
					<g>
						<g>
							<path class="st3" d="M258.9,36.5l-4.2,0.1c-1.4,0-2.8,0.1-4.2,0.2l-8.3,0.3c-2.8,0.1-5.6,0.4-8.3,0.5
								c-2.8,0.2-5.6,0.4-8.3,0.6l3,35.1c2.6-0.2,5.1-0.4,7.7-0.6c2.6-0.2,5.1-0.4,7.7-0.5l7.7-0.3c1.3,0,2.6-0.1,3.9-0.1l3.9,0
								L258.9,36.5z"/>
						</g>
						<polygon class="st7" points="235.5,56.4 235.2,52.9 229.2,53.3 229.5,56.8 						"/>
						<path class="st7" d="M246.1,55.8l-0.2-3.5c-2,0.1-4,0.1-6,0.3l0.2,3.5C242.2,55.9,244.2,55.9,246.1,55.8z"/>
						<path class="st7" d="M256.8,55.4l-0.1-3.5c-2,0-4,0.1-6,0.2l0.1,3.5C252.8,55.5,254.8,55.4,256.8,55.4z"/>
					</g>
				</g>
				<g>
					<g>
						<g>
							<path class="st3" d="M225.5,38.2l-8.3,0.8l-4.2,0.4l-4.1,0.5l-8.3,1c-2.8,0.4-5.5,0.8-8.3,1.2l5.4,34.8
								c2.6-0.4,5.1-0.8,7.7-1.2l7.7-1l3.8-0.5l3.9-0.4l7.7-0.8L225.5,38.2z"/>
						</g>
						<path class="st7" d="M203.5,59.6l-0.5-3.5c-2,0.2-4,0.6-5.9,0.9l0.5,3.5C199.6,60.2,201.6,59.9,203.5,59.6z"/>
						<polygon class="st7" points="214.1,58.3 213.7,54.8 207.8,55.5 208.2,59 						"/>
						<polygon class="st7" points="224.7,57.2 224.4,53.7 218.4,54.3 218.8,57.8 						"/>
					</g>
				</g>
				<g>
					<g>
						<g>
							<path class="st3" d="M192.4,42.2c-11,1.6-21.9,3.8-32.8,6.2l7.7,34.4c10.1-2.2,20.3-4.2,30.5-5.7L192.4,42.2z"/>
						</g>
						<polygon class="st7" points="171.9,65.1 171.2,61.6 165.3,62.9 166.1,66.3 						"/>
						<polygon class="st7" points="182.4,63 181.8,59.6 175.8,60.7 176.5,64.1 						"/>
						<path class="st7" d="M192.9,61.2l-0.6-3.5c-2,0.3-4,0.6-5.9,1l0.6,3.5C189,61.8,190.9,61.5,192.9,61.2z"/>
					</g>
				</g>
				<g>
					<g>
						<g>
							<path class="st3" d="M159.6,48.4c-10.9,2.4-22.4,5.4-33.9,10.3l13.8,32.4c8.3-3.5,17.7-6.1,27.7-8.3L159.6,48.4z"/>
						</g>
						<path class="st7" d="M140.9,73l-1.2-3.3c-1.9,0.7-3.8,1.4-5.7,2.1l1.3,3.3C137.2,74.4,139,73.7,140.9,73z"/>
						<path class="st7" d="M151,69.9l-0.9-3.4c-1.9,0.5-3.9,1.1-5.8,1.7l1,3.4C147.2,71,149.1,70.4,151,69.9z"/>
						<path class="st7" d="M161.4,67.3l-0.8-3.4c-2,0.4-3.9,0.9-5.9,1.4l0.9,3.4C157.5,68.2,159.4,67.8,161.4,67.3z"/>
					</g>
				</g>
				<g>
					<g>
						<g>
							<path class="st3" d="M125.8,58.6c-5.7,2.4-11.5,5.4-16.9,8.9c-1.4,0.9-2.7,1.8-4,2.8l-2,1.5l-1,0.7c-0.1,0.1-0.4,0.3-0.6,0.5
								l-0.7,0.6l-2.8,2.5c-0.5,0.4-1,0.8-1.4,1.3l-1.4,1.4l-1.4,1.4c-0.4,0.5-0.8,1-1.2,1.6l-1.2,1.6c-0.4,0.5-0.7,1.1-1,1.6
								l33,15.6l0.3-0.2l2-1.5c0.8-0.6,1.7-1.2,2.6-1.8c3.5-2.3,7.4-4.3,11.5-6.1L125.8,58.6z"/>
						</g>
						<path class="st7" d="M113,87.8l-2.3-2.7l-2.5,2.1c-0.4,0.4-0.8,0.8-1.2,1.2c-0.4,0.4-0.8,0.8-1.2,1.2l3,1.9
							c0.6-0.7,1.3-1.3,2-1.9L113,87.8z"/>
						<polygon class="st7" points="121.6,81.8 119.8,78.8 117.2,80.4 114.7,82.2 116.7,85.1 119.1,83.4 						"/>
						<path class="st7" d="M131,77l-1.5-3.2c-0.9,0.4-1.9,0.8-2.8,1.3l-2.7,1.4l1.7,3.1l2.6-1.3C129.2,77.8,130.1,77.4,131,77z"/>
					</g>
				</g>
				<g>
					<g>
						<g>
							<path class="st3" d="M90.1,85.1c-2.7,4.4-4.3,9.3-4.7,14.3c-0.5,5,0.6,10.1,2.7,14.6c2.1,4.6,5.3,8.7,9.5,11.9l0.7,0.6
								c0.3,0.2,0.5,0.4,0.8,0.6l1.6,1.1c1.1,0.8,2.1,1.4,3.1,2l1.5,0.9l1,0.6l1.9,1.1l17.5-30.6l-2.7-1.6L90.1,85.1z"/>
						</g>
						<path class="st7" d="M111,112.3l-2.6,2.5c1.8,1.3,3.8,2.5,5.6,3.5l1.8-3C114.1,114.3,112.5,113.4,111,112.3z"/>
						<path class="st7" d="M104.9,104.7l-3.6,0.8c0.6,2.1,1.8,4.1,3.2,5.8l3.2-1.8C106.4,108.1,105.4,106.5,104.9,104.7z"/>
						<path class="st7" d="M106.2,95.2l-3.5-1.1c-1,2-1.8,4.1-2,6.3l3.7,0.1C104.6,98.5,105.3,96.8,106.2,95.2z"/>
					</g>
				</g>
				<g>
					<g>
						<g>
							<path class="st3" d="M108.4,132.9c5.2,3,10.6,5.7,16.3,8.1c2.8,1.2,5.7,2.3,8.7,3.3c1.5,0.5,3,1,4.5,1.4l4.1,1.2l9.5-33.9
								l-3.6-1c-1.1-0.3-2.1-0.7-3.2-1c-2.1-0.7-4.2-1.5-6.3-2.4c-4.2-1.8-8.4-3.9-12.5-6.2L108.4,132.9z"/>
						</g>
						<path class="st7" d="M139.2,126.4l-1.1,3.3c1.9,0.6,3.9,1.3,5.8,1.8l1-3.4C142.9,127.6,141.1,127,139.2,126.4z"/>
						<path class="st7" d="M129.3,122.4l-1.4,3.2c1.8,0.8,3.7,1.6,5.6,2.4l1.3-3.3C133,124,131.1,123.2,129.3,122.4z"/>
						<path class="st7" d="M119.9,117.7l-1.7,3.1c1.8,1,3.6,1.9,5.4,2.8l1.6-3.2C123.4,119.6,121.6,118.7,119.9,117.7z"/>
					</g>
				</g>
				<g>
					<g>
						<g>
							<path class="st3" d="M142,146.9c11,3.1,22.1,5.5,33.2,7.4l6-34.8c-10-1.7-19.9-3.9-29.6-6.6L142,146.9z"/>
						</g>
						<path class="st7" d="M170.2,134.2l-0.7,3.5c2,0.4,3.9,0.8,5.9,1.1l0.6-3.5C174.1,135,172.2,134.6,170.2,134.2z"/>
						<polygon class="st7" points="159.8,132 159,135.4 164.9,136.8 165.6,133.3 						"/>
						<path class="st7" d="M149.5,129.4l-0.9,3.4c1.9,0.6,3.9,1,5.8,1.5l0.9-3.4C153.3,130.4,151.4,130,149.5,129.4z"/>
					</g>
				</g>
				<g>
					<g>
						<g>
							<path class="st3" d="M175.2,154.3c11.1,1.9,22.2,3.3,33.2,4.3l3.3-35.1c-10.3-1-20.5-2.2-30.6-4L175.2,154.3z"/>
						</g>
						<path class="st7" d="M201.9,139l-0.4,3.5c2,0.2,4,0.4,6,0.6l0.3-3.5C205.9,139.5,203.9,139.3,201.9,139z"/>
						<polygon class="st7" points="191.3,137.7 190.9,141.2 196.8,142 197.2,138.5 						"/>
						<polygon class="st7" points="180.8,136.2 180.2,139.6 186.2,140.6 186.7,137.1 						"/>
					</g>
				</g>
				<g>
					<g>
						<g>
							<path class="st3" d="M208.5,158.7c11,1,22,1.7,32.9,2.3l1.7-35.2c-10.5-0.5-21-1.2-31.3-2.1L208.5,158.7z"/>
						</g>
						<polygon class="st7" points="234,141.6 233.8,145.2 239.7,145.5 239.9,142 						"/>
						<polygon class="st7" points="223.3,141 223,144.5 229,144.9 229.2,141.4 						"/>
						<polygon class="st7" points="212.7,140.1 212.3,143.6 218.3,144.1 218.6,140.6 						"/>
					</g>
				</g>
				<g>
					<g>
						<g>
							<path class="st3" d="M241.4,160.9c5.5,0.3,10.9,0.5,16.3,0.7l17.1,0.5l-0.8-35.3l-15.1-0.5c-5.3-0.2-10.6-0.4-15.8-0.6
								L241.4,160.9z"/>
						</g>
						<polygon class="st7" points="266.1,143 266,146.5 272,146.7 272.1,143.1 						"/>
						<polygon class="st7" points="255.4,142.6 255.3,146.1 261.2,146.3 261.4,142.8 						"/>
						<polygon class="st7" points="244.7,142.2 244.6,145.7 250.5,146 250.7,142.4 						"/>
					</g>
				</g>
			</g>
			<g>
				<g>
					<g>
						<g>
							<path class="st3" d="M253.1,61l7,0.1c2.6,0,5.2,0.1,7.8,0.2l7.8,0.2l7.7,0.3l1.5-35.2l-8.1-0.3l-8.1-0.2
								c-2.7-0.1-5.4-0.1-8-0.2l-8.8-0.1L253.1,61z"/>
						</g>
						<polygon class="st7" points="276,42.6 275.9,46.2 281.7,46.4 281.9,42.9 						"/>
						<polygon class="st7" points="265.4,42.4 265.4,45.9 271.2,46 271.3,42.5 						"/>
						<polygon class="st7" points="254.9,42.2 254.9,45.7 260.7,45.8 260.8,42.3 						"/>
					</g>
				</g>
				<g>
					<g>
						<g>
							<path class="st3" d="M283.4,61.8c10.3,0.4,20.6,1.1,30.7,2l3.2-35.1c-10.9-1-21.7-1.7-32.4-2.1L283.4,61.8z"/>
						</g>
						<path class="st7" d="M307.7,44.4l-0.3,3.5c1.9,0.1,3.9,0.3,5.8,0.5l0.3-3.5C311.6,44.7,309.6,44.5,307.7,44.4z"/>
						<path class="st7" d="M297.1,43.6l-0.2,3.5c2,0.1,3.9,0.2,5.8,0.4L303,44C301,43.9,299.1,43.7,297.1,43.6z"/>
						<path class="st7" d="M286.6,43.1l-0.2,3.5c2,0.1,3.9,0.2,5.9,0.3l0.2-3.5C290.5,43.3,288.6,43.1,286.6,43.1z"/>
					</g>
				</g>
				<g>
					<g>
						<g>
							<path class="st3" d="M314.1,63.8c5.1,0.4,10.1,1,15.2,1.6c5,0.7,10,1.3,15,2.2l5.7-34.8c-5.4-0.9-10.9-1.6-16.3-2.4
								c-5.4-0.6-10.9-1.3-16.3-1.7L314.1,63.8z"/>
						</g>
						<path class="st7" d="M339.2,47.7l-0.5,3.5c1.9,0.2,3.9,0.5,5.8,0.9l0.5-3.5C343.1,48.3,341.2,48,339.2,47.7z"/>
						<path class="st7" d="M328.7,46.4l-0.4,3.5c1.9,0.2,3.9,0.4,5.8,0.7l0.5-3.5C332.6,46.8,330.7,46.6,328.7,46.4z"/>
						<path class="st7" d="M318.3,45.3l-0.3,3.5c1.9,0.2,3.9,0.4,5.8,0.6l0.4-3.5C322.2,45.6,320.2,45.4,318.3,45.3z"/>
					</g>
				</g>
				<g>
					<g>
						<g>
							<path class="st3" d="M344.3,67.6c9.9,1.6,19.8,3.6,29.4,6.1l8.8-34.1c-10.8-2.8-21.7-5-32.6-6.8L344.3,67.6z"/>
						</g>
						<path class="st7" d="M370.5,53.5l-0.8,3.4c1.9,0.4,3.8,0.9,5.7,1.4l0.9-3.4C374.3,54.4,372.4,53.9,370.5,53.5z"/>
						<path class="st7" d="M360.1,51.3l-0.7,3.5c1.9,0.3,3.8,0.8,5.7,1.2l0.7-3.4C364,52.1,362,51.6,360.1,51.3z"/>
						<path class="st7" d="M349.7,49.4l-0.6,3.5c1.9,0.3,3.8,0.7,5.8,1l0.6-3.5C353.6,50,351.7,49.7,349.7,49.4z"/>
					</g>
				</g>
				<g>
					<g>
						<g>
							<path class="st3" d="M373.7,73.7c9.6,2.5,19.1,5.4,28.4,8.9l12.4-33c-10.5-4-21.2-7.3-32-10.1L373.7,73.7z"/>
						</g>
						<polygon class="st7" points="401,62.2 399.9,65.5 405.3,67.5 406.6,64.2 						"/>
						<polygon class="st7" points="390.9,58.9 389.9,62.3 395.5,64.1 396.6,60.7 						"/>
						<path class="st7" d="M380.8,56l-0.9,3.4c1.9,0.5,3.7,1.1,5.6,1.6l1-3.4C384.6,57.1,382.7,56.5,380.8,56z"/>
					</g>
				</g>
				<g>
					<g>
						<g>
							<path class="st3" d="M402.1,82.7c2.3,0.8,4.6,1.8,6.9,2.7l3.4,1.4c1,0.4,1.9,0.9,2.9,1.3c1.9,0.9,3.9,2,5.9,3.1
								c2,1.1,3.9,2.3,5.6,3.5l19.9-29.1c-2.7-1.8-5.3-3.4-7.9-4.9c-2.6-1.5-5.3-3-8.1-4.3c-1.4-0.7-2.8-1.3-4.3-2l-0.5-0.2
								l-0.5-0.2l-1-0.4l-2-0.8c-2.6-1-5.2-2.1-7.8-3.1L402.1,82.7z"/>
						</g>
						<path class="st7" d="M430.3,74.7l-1.8,3.1c1.7,1,3.3,2,4.9,3l1.9-3C433.7,76.7,432,75.7,430.3,74.7z"/>
						<path class="st7" d="M420.8,69.9l-1.4,3.2c1.7,0.8,3.5,1.6,5.2,2.5l1.6-3.1C424.4,71.5,422.6,70.7,420.8,69.9z"/>
						<polygon class="st7" points="411,65.9 409.8,69.2 415.2,71.3 416.5,68.1 						"/>
					</g>
				</g>
				<g>
					<g>
						<g>
							<path class="st3" d="M426.7,94.7c1.7,1.2,3.2,2.3,4.3,3.4c1.1,1,1.9,2,2.3,2.5c0.1,0.3,0.3,0.4,0.3,0.5c0,0.1,0,0.1,0,0.1
								c0,0,0,0.3-0.1,1.1l34.4,7.8c1-4.3,1.4-9.4,0.5-14.6c-0.8-5.2-3-10.2-5.5-14c-2.5-3.9-5.4-6.9-8.1-9.4
								c-2.8-2.5-5.5-4.5-8.1-6.4L426.7,94.7z"/>
						</g>
						<path class="st7" d="M452.2,97.7l-3.5,0.6c0.3,1.7,0.3,3.4,0.1,5.2l3.5,0.4C452.6,101.9,452.5,99.8,452.2,97.7z"/>
						<path class="st7" d="M447.3,87.8l-2.7,2.2c1.1,1.4,2.1,2.9,2.9,4.4l3.2-1.5C449.8,91.1,448.6,89.4,447.3,87.8z"/>
						<path class="st7" d="M439.4,80.5l-2.1,2.8c1.5,1.1,3,2.3,4.3,3.6l2.4-2.6C442.5,83,441,81.7,439.4,80.5z"/>
					</g>
				</g>
				<g>
					<g>
						<g>
							<path class="st3" d="M433.5,102.2c-0.2,0.8-0.7,2.1-1.4,3.6c-0.7,1.5-1.7,3.2-2.8,4.9l-0.4,0.7l-0.5,0.7l-1.1,1.6l-2.2,3.2
								c-1.5,2.1-2.9,4.2-4.4,6.3l28.7,20.5c1.6-2.2,3.1-4.4,4.7-6.7l2.3-3.4l1.2-1.7l0.6-0.9l0.7-1c1.7-2.7,3.4-5.5,5-8.8
								c1.6-3.2,3-6.9,4-11.2L433.5,102.2z"/>
						</g>
						<polygon class="st7" points="440.7,127.4 437.9,125.4 434.5,130.2 437.4,132.2 						"/>
						<path class="st7" d="M446.6,118.6l-3-1.8c-1,1.6-2,3.2-3.1,4.8l2.9,2C444.5,121.9,445.6,120.3,446.6,118.6z"/>
						<path class="st7" d="M451.2,108.8l-3.4-1.1c-0.6,1.7-1.3,3.4-2.1,5.1l3.2,1.6C449.8,112.6,450.6,110.7,451.2,108.8z"/>
					</g>
				</g>
				<g>
					<g>
						<g>
							<path class="st3" d="M420.6,123.1c-6,8.3-12.2,16.5-18.6,24.7l27.8,21.7c6.6-8.5,13.2-17.1,19.5-25.9L420.6,123.1z"/>
						</g>
						<polygon class="st7" points="422,153 419.2,150.8 415.6,155.5 418.4,157.6 						"/>
						<polygon class="st7" points="428.4,144.6 425.5,142.5 422,147.1 424.8,149.3 						"/>
						<polygon class="st7" points="434.6,136.1 431.7,134 428.3,138.7 431.1,140.8 						"/>
					</g>
				</g>
				<g>
					<g>
						<g>
							<path class="st3" d="M402.1,147.8c-6.4,8.2-13,16.3-19.6,24.4l27.3,22.3c6.7-8.2,13.5-16.5,20.1-25L402.1,147.8z"/>
						</g>
						<polygon class="st7" points="402.3,177.8 399.5,175.6 395.8,180.1 398.6,182.4 						"/>
						<polygon class="st7" points="408.9,169.6 406.2,167.4 402.5,172 405.2,174.2 						"/>
						<polygon class="st7" points="415.5,161.4 412.7,159.2 409,163.8 411.8,166 						"/>
					</g>
				</g>
				<g>
					<g>
						<g>
							<path class="st3" d="M382.5,172.2l-10,12.2c-3.4,4.1-6.6,8-10,12l27,22.7c3.4-4.1,6.9-8.2,10.3-12.3l10.1-12.3L382.5,172.2z"
								/>
						</g>
						<polygon class="st7" points="382.2,202.3 379.5,200 375.7,204.5 378.4,206.8 						"/>
						
							<rect x="382.7" y="193.5" transform="matrix(0.6362 -0.7716 0.7716 0.6362 -10.3653 368.6136)" class="st7" width="5.9" height="3.5"/>
						
							<rect x="389.4" y="185.4" transform="matrix(0.6344 -0.773 0.773 0.6344 -1.2538 371.7247)" class="st7" width="5.9" height="3.5"/>
					</g>
				</g>
				<g>
					<g>
						<g>
							<path class="st3" d="M362.4,196.4c-6.7,8-13.6,15.9-20.4,23.8l26.6,23.2c7-8,13.9-16.1,20.8-24.2L362.4,196.4z"/>
						</g>
						
							<rect x="355.4" y="225.7" transform="matrix(0.6547 -0.7559 0.7559 0.6547 -48.2077 349.4122)" class="st7" width="5.9" height="3.5"/>
						<polygon class="st7" points="368.5,218.4 365.8,216.1 362,220.6 364.7,222.9 						"/>
						<polygon class="st7" points="375.3,210.4 372.6,208.1 368.8,212.6 371.5,214.9 						"/>
					</g>
				</g>
				<g>
					<g>
						<g>
							<polygon class="st3" points="342,220.2 321.2,244 347.7,267.2 368.6,243.4 							"/>
						</g>
						
							<rect x="334.6" y="249.5" transform="matrix(0.6593 -0.7519 0.7519 0.6593 -73.9613 339.3977)" class="st7" width="5.9" height="3.5"/>
						
							<rect x="341.5" y="241.6" transform="matrix(0.659 -0.7522 0.7522 0.659 -65.5886 342.111)" class="st7" width="5.9" height="3.5"/>
						
							<rect x="348.5" y="233.7" transform="matrix(0.6574 -0.7535 0.7535 0.6574 -57.0564 345.4608)" class="st7" width="5.9" height="3.5"/>
					</g>
				</g>
				<g>
					<g>
						<g>
							<path class="st3" d="M321.2,244l-10.5,12l-5.2,6l-1.3,1.5l-1.7,2.1c-0.6,0.7-1.1,1.5-1.7,2.2c-0.5,0.8-1.1,1.6-1.6,2.3
								l29.6,19.2l0.6-0.9l0.7-0.9l0.8-1l1.3-1.5l5.1-5.9l10.4-11.9L321.2,244z"/>
						</g>
						<path class="st7" d="M320,274.1l-2.7-2.3c-0.6,0.8-1.3,1.5-1.9,2.3l-1,1.2l-0.9,1.2l2.8,2.1C317.4,277,318.7,275.6,320,274.1z
							"/>
						
							<rect x="320.7" y="265.5" transform="matrix(0.6567 -0.7541 0.7541 0.6567 -90.4243 335.7935)" class="st7" width="5.9" height="3.5"/>
						
							<rect x="327.6" y="257.5" transform="matrix(0.6585 -0.7525 0.7525 0.6585 -82.2717 337.276)" class="st7" width="5.9" height="3.5"/>
					</g>
				</g>
				<g>
					<g>
						<g>
							<path class="st3" d="M299.2,270.2c-4.2,6.4-7.1,14.1-8.2,21.5c-0.6,3.7-0.8,7.4-0.7,11l0.2,7.9l35.3-0.7l-0.2-7.9
								c0-1.7,0.1-3.3,0.3-4.8c0.5-2.9,1.4-5.3,3-7.8L299.2,270.2z"/>
						</g>
						<path class="st7" d="M309.1,302l-3.5,0.1c0,1,0,2,0.1,3l0.1,2.9l3.5-0.1C309.2,305.9,309.1,303.9,309.1,302z"/>
						<path class="st7" d="M310.1,291.9l-3.4-0.8c-0.5,2-0.8,4.1-1,6.1l3.5,0.3C309.4,295.6,309.7,293.7,310.1,291.9z"/>
						<path class="st7" d="M313.8,282.4l-3.1-1.7c-1,1.8-1.9,3.7-2.6,5.7l3.3,1.2C312.1,285.8,312.9,284.1,313.8,282.4z"/>
					</g>
				</g>
				<g>
					<g>
						<g>
							<path class="st3" d="M290.5,310.6c0.2,10.1,0,20.5,0,31.2l35.3,0.2c0.1-10.4,0.2-21.1,0-32.1L290.5,310.6z"/>
						</g>
						
							<rect x="304.7" y="334.9" transform="matrix(7.499097e-03 -1 1 7.499097e-03 -31.3166 641.6924)" class="st7" width="5.9" height="3.5"/>
						<polygon class="st7" points="309.4,323.1 305.9,323.1 305.9,329 309.4,329 						"/>
						<polygon class="st7" points="309.4,312.6 305.8,312.7 305.9,318.5 309.4,318.5 						"/>
					</g>
				</g>
				<g>
					<g>
						<g>
							<path class="st3" d="M290.5,341.8c0,5.3,0,10.8,0.1,16.2l0.1,4c0,0.3,0,0.6,0,0.9c0,0.2,0,0.5-0.1,0.7
								c-0.1,0.4-0.1,0.7-0.2,0.8c0,0,0,0.1,0,0.1c0,0,0,0,0,0c0,0,0,0,0,0l30.8,17.1c0.6-1.2,1.2-2.3,1.7-3.6l0.7-1.8
								c0.2-0.6,0.4-1.2,0.6-1.8c0.7-2.4,1.1-4.7,1.4-6.9c0.1-1.1,0.2-2.1,0.2-3.2c0-1.1,0-2,0-3.1l-0.1-3.9
								c-0.1-5.1-0.1-10.2-0.1-15.4L290.5,341.8z"/>
						</g>
						<path class="st7" d="M309.3,365.5l-3.5-0.4c-0.2,1.8-0.6,3.5-1.2,5.1l3.3,1.3C308.7,369.6,309.1,367.5,309.3,365.5z"/>
						<polygon class="st7" points="309.4,354.8 305.8,354.8 305.9,360.7 309.5,360.7 						"/>
						<polygon class="st7" points="309.3,344.3 305.8,344.3 305.8,350.2 309.3,350.2 						"/>
					</g>
				</g>
				<g>
					<g>
						<g>
							<path class="st3" d="M290.4,364.6C290.3,364.6,290.4,364.6,290.4,364.6c0,0-0.1,0.1-0.3,0.2c-0.1,0.1-0.3,0.2-0.4,0.3
								c-0.2,0.1-0.3,0.2-0.6,0.3c-0.3,0.1-0.4,0.2-0.8,0.4c-0.3,0.1-0.5,0.2-1.1,0.4c-4,1.5-8,2.7-12.1,3.4l6.3,34.7
								c6.4-1.2,12.5-3,18.4-5.2c0.7-0.2,1.7-0.7,2.6-1c0.9-0.4,1.9-0.9,2.8-1.3c0.9-0.5,1.9-1.1,2.9-1.6c1-0.6,1.9-1.2,2.9-1.9
								c3.9-2.8,7.7-6.9,10.2-11.5L290.4,364.6z"/>
						</g>
						<path class="st7" d="M286.7,386.3l-1-3.4c-1.8,0.5-3.7,1-5.5,1.4l0.7,3.4C282.9,387.4,284.8,386.8,286.7,386.3z"/>
						<path class="st7" d="M296.8,382.7l-1.5-3.2c-1.6,0.8-3.4,1.4-5.2,2.1l1.2,3.3C293.1,384.2,294.9,383.6,296.8,382.7z"/>
						<path class="st7" d="M305.5,375.9l-2.8-2.1c-1,1.4-2.3,2.5-3.7,3.6l2,2.9C302.7,379.1,304.2,377.6,305.5,375.9z"/>
					</g>
				</g>
				<g>
					<g>
						<g>
							<path class="st3" d="M275.2,369.7c-8,1.5-16,1.2-23.8-0.8l-8.9,34.1c6.3,1.7,12.9,2.6,19.5,2.9c6.6,0.2,13.2-0.3,19.5-1.4
								L275.2,369.7z"/>
						</g>
						<path class="st7" d="M254.8,388.7l0.5-3.5c-1.9-0.2-3.7-0.6-5.6-1l-0.8,3.4C250.9,388,252.9,388.5,254.8,388.7z"/>
						<path class="st7" d="M265.5,389.5l0-3.5c-0.9,0-1.9,0-2.8,0c-0.9,0-1.9,0-2.8-0.2l-0.3,3.5c1,0.1,2,0.1,3,0.2
							C263.5,389.5,264.5,389.5,265.5,389.5z"/>
						<path class="st7" d="M276.2,388.6l-0.5-3.5c-0.9,0.2-1.9,0.2-2.8,0.4c-0.9,0.1-1.9,0.2-2.8,0.3l0.2,3.5c1-0.1,2-0.1,3-0.3
							C274.2,388.9,275.2,388.8,276.2,388.6z"/>
					</g>
				</g>
				<g>
					<g>
						<g>
							<path class="st3" d="M251.4,368.8c-2-0.5-3.9-1.1-5.8-1.8c-1.8-0.7-4.3-1.7-4.8-2c-0.2-0.1-0.3-0.2-0.5-0.3
								c-0.1,0-0.1-0.1-0.2-0.1c-0.1,0-0.1-0.1-0.1-0.1c0,0,0,0,0,0c0,0,0,0.1,0,0l-34.5,7.5c0.5,2.5,1.4,5.1,2.5,7.4
								c1.1,2.4,2.5,4.7,4.1,6.7c1.6,2.1,3.5,4,5.5,5.6c2,1.6,3.9,2.9,5.8,3.9l1.4,0.8l1.4,0.7l0.7,0.3l0.3,0.2l0.3,0.1l1.1,0.5
								c1.5,0.6,2.9,1.3,4.5,1.8c3,1.1,6.1,2.1,9.3,2.9L251.4,368.8z"/>
						</g>
						<path class="st7" d="M225.3,376.3l2.8-2.2c-1.1-1.3-1.9-2.8-2.5-4.4l-3.3,1.2C223,372.8,224,374.7,225.3,376.3z"/>
						<path class="st7" d="M234.3,382.7l1.4-3.2c-1.7-0.7-3.3-1.6-4.7-2.7l-2.1,2.8C230.6,380.9,232.4,381.9,234.3,382.7z"/>
						<polygon class="st7" points="244.3,386.4 245.3,383 242.6,382.2 239.9,381.2 238.6,384.5 241.5,385.5 						"/>
					</g>
				</g>
				<g>
					<g>
						<g>
							<path class="st3" d="M240.1,364.4c-0.2,0.6,0-6.9,0.1-11.8l0.2-16l-35.3-0.2l-0.2,15.7l-0.1,7.9l0,2l0,1.4l0,1.6
								c0.1,2.2,0.3,4.4,0.9,7L240.1,364.4z"/>
						</g>
						<polygon class="st7" points="221.4,344.7 224.9,344.8 225,338.9 221.5,338.8 						"/>
						
							<rect x="220.1" y="350.6" transform="matrix(1.734779e-02 -0.9998 0.9998 1.734779e-02 -133.1163 569.2352)" class="st7" width="5.9" height="3.5"/>
						<polygon class="st7" points="221.2,365.9 224.7,365.5 224.6,364.2 224.6,362.9 224.7,359.9 221.1,359.9 221.1,362.8 
							221.1,364.4 						"/>
					</g>
				</g>
				<g>
					<g>
						<g>
							<path class="st3" d="M240.4,336.6c0.1-10.7,0-21.6-0.5-32.5l-35.2,1.5c0.4,10.1,0.5,20.4,0.4,30.8L240.4,336.6z"/>
						</g>
						<polygon class="st7" points="221.3,313.1 224.8,313 224.6,307.1 221.1,307.2 						"/>
						<polygon class="st7" points="221.5,323.6 225,323.6 224.9,317.7 221.4,317.8 						"/>
						<polygon class="st7" points="221.5,334.1 225,334.1 225,328.2 221.5,328.2 						"/>
					</g>
				</g>
				<g>
					<g>
						<g>
							<path class="st3" d="M239.9,304.1l-0.2-4.2c-0.1-1.7-0.2-3.4-0.5-5.1c-0.4-3.4-1.1-6.9-2.1-10.4c-1-3.5-2.3-7.2-4.4-10.9
								c-1-1.9-2.2-3.8-3.7-5.7c-0.9-1.2-1.2-1.4-1.6-2l-1.3-1.5l-27.1,22.6l1.2,1.5c0.4,0.5,1,1.2,0.9,1.1c0.1,0.1,0.3,0.5,0.6,0.9
								c0.5,0.9,1,2.2,1.4,3.8c0.4,1.6,0.8,3.3,1,5.1c0.1,0.9,0.2,1.8,0.2,2.7l0.2,3.7L239.9,304.1z"/>
						</g>
						<path class="st7" d="M216.3,282.7l3.1-1.6c-0.5-0.9-1-1.9-1.6-2.7c-0.6-0.9-1.3-1.8-1.9-2.5l-2.7,2.3c0.6,0.8,1.2,1.5,1.7,2.2
							C215.4,281.1,215.9,281.9,216.3,282.7z"/>
						<path class="st7" d="M219.7,292.3l3.4-0.7c-0.4-2-1-4-1.7-5.9l-3.3,1.2C218.8,288.6,219.3,290.4,219.7,292.3z"/>
						<path class="st7" d="M220.9,302.5l3.5-0.2c-0.1-1.9-0.2-4-0.5-6l-3.5,0.5C220.7,298.7,220.8,300.6,220.9,302.5z"/>
					</g>
				</g>
				<g>
					<g>
						<g>
							<path class="st3" d="M226.2,264.2c-6.8-8.2-13.8-16.3-20.7-24.4l-26.7,23.1c6.9,7.9,13.6,15.9,20.3,23.9L226.2,264.2z"/>
						</g>
						<polygon class="st7" points="196.5,258.4 199.2,256.1 195.4,251.6 192.7,253.9 						"/>
						<polygon class="st7" points="203.4,266.4 206.1,264.1 202.3,259.6 199.6,261.9 						"/>
						<polygon class="st7" points="210.1,274.4 212.9,272.2 209.1,267.7 206.4,269.9 						"/>
					</g>
				</g>
				<g>
					<g>
						<g>
							<polygon class="st3" points="205.5,239.8 184.6,215.9 158.1,239.1 178.8,262.9 							"/>
						</g>
						
							<rect x="173.4" y="228.2" transform="matrix(0.7537 -0.6572 0.6572 0.7537 -108.735 172.0648)" class="st7" width="3.5" height="5.9"/>
						
							<rect x="180.4" y="236.1" transform="matrix(0.7544 -0.6565 0.6565 0.7544 -112.1915 178.2826)" class="st7" width="3.5" height="5.9"/>
						
							<rect x="187.3" y="244" transform="matrix(0.7561 -0.6545 0.6545 0.7561 -115.5392 183.9493)" class="st7" width="3.5" height="5.9"/>
					</g>
				</g>
				<g>
					<g>
						<g>
							<path class="st3" d="M184.6,215.9c-6.9-7.9-13.8-15.9-20.6-23.8L137.2,215c6.9,8.1,13.9,16.1,20.8,24.1L184.6,215.9z"/>
						</g>
						<polygon class="st7" points="155,210.6 157.7,208.3 153.9,203.8 151.2,206.1 						"/>
						
							<rect x="159.6" y="212.2" transform="matrix(0.7553 -0.6553 0.6553 0.7553 -101.5367 158.379)" class="st7" width="3.5" height="5.9"/>
						
							<rect x="166.5" y="220.2" transform="matrix(0.754 -0.6569 0.6569 0.754 -105.166 165.3842)" class="st7" width="3.5" height="5.9"/>
					</g>
				</g>
				<g>
					<g>
						<g>
							<path class="st3" d="M164,192.1c-6.8-7.9-13.5-15.9-20-24l-27.4,22.2c6.8,8.3,13.7,16.5,20.6,24.6L164,192.1z"/>
						</g>
						<polygon class="st7" points="134.6,186.4 137.3,184.1 133.6,179.6 130.8,181.8 						"/>
						<polygon class="st7" points="141.3,194.5 144,192.2 140.3,187.7 137.6,190 						"/>
						<polygon class="st7" points="148.1,202.5 150.8,200.2 147,195.7 144.3,198 						"/>
					</g>
				</g>
				<g>
					<g>
						<g>
							<path class="st3" d="M144,168.1c-6.5-8-12.9-16.1-19-24.4l-28.3,21c6.5,8.7,13.1,17.2,19.9,25.6L144,168.1z"/>
						</g>
						<polygon class="st7" points="114.8,161.6 117.6,159.4 114.1,154.8 111.3,156.9 						"/>
						<polygon class="st7" points="121.3,169.9 124.1,167.7 120.5,163.1 117.7,165.3 						"/>
						<polygon class="st7" points="127.8,178.2 130.6,175.9 126.9,171.4 124.2,173.6 						"/>
					</g>
				</g>
				<g>
					<g>
						<g>
							<path class="st3" d="M125,143.7c-6.1-8.2-12-16.6-17.6-25.1L78,138c6,9.1,12.3,18,18.7,26.8L125,143.7z"/>
						</g>
						<polygon class="st7" points="96.3,135.8 99.2,133.9 95.9,129 93,131 						"/>
						<polygon class="st7" points="102.3,144.5 105.2,142.5 101.8,137.7 98.9,139.7 						"/>
						<polygon class="st7" points="108.4,153.1 111.3,151 107.8,146.2 105,148.3 						"/>
					</g>
				</g>
				<g>
					<g>
						<g>
							<path class="st3" d="M107.5,118.6c-1.4-2.1-2.8-4.3-4.1-6.4l-2-3.2l-1-1.6l-0.7-1.2c-1-1.6-1.5-3-2-4.2
								c-0.3-1-0.4-1.8-0.4-1.6l-35.3-1c0,1.3,0,2.6,0.1,3.9c0,0.7,0.1,1.2,0.2,1.8l0.3,1.8l0.3,1.7c0.1,0.5,0.3,1.1,0.4,1.6
								c0.3,1,0.6,2.1,0.9,3.1c1.4,3.8,3,7.2,4.7,10.1l1.3,2.2l1.1,1.8l2.2,3.5c1.5,2.3,2.9,4.6,4.5,6.9L107.5,118.6z"/>
						</g>
						<path class="st7" d="M79.9,108.4l3.3-1.2c-0.3-0.9-0.5-1.7-0.8-2.6c-0.2-0.9-0.3-1.7-0.5-2.6l-3.5,0.4c0.2,1,0.3,2.1,0.5,3.1
							C79.3,106.5,79.5,107.5,79.9,108.4z"/>
						<path class="st7" d="M84.7,118.1l3-1.9c-0.5-0.8-1-1.6-1.4-2.5l-0.7-1.2l-0.6-1.3l-3.2,1.6l0.7,1.4l0.7,1.3
							C83.7,116.4,84.2,117.3,84.7,118.1z"/>
						<polygon class="st7" points="90.4,127 93.3,125.1 90.2,120.1 87.2,122 						"/>
					</g>
				</g>
				<g>
					<g>
						<g>
							<path class="st3" d="M97.2,100.5C97.3,100.5,97.3,100.5,97.2,100.5c0.1,0,0.1-0.1,0.1-0.1c0.1-0.1,0.2-0.3,0.3-0.4
								c0-0.1,0.3-0.3,0.5-0.5l0.3-0.3l0.1-0.2l0.2-0.2c0.5-0.5,1-1,1.7-1.5l1-0.8l1.2-0.8c0.7-0.6,1.7-1.1,2.6-1.7
								c0.8-0.6,1.9-1.2,2.9-1.7L90.4,61.7c-1.3,0.8-2.5,1.4-3.9,2.3c-1.3,0.9-2.7,1.7-4,2.7l-2,1.5c-0.7,0.5-1.4,1.1-2.1,1.6
								c-1.4,1-2.8,2.4-4.2,3.7L73.5,74L73,74.6l-1.1,1.2c-0.7,0.8-1.4,1.5-2.1,2.5c-0.7,0.9-1.4,1.8-2,2.8
								c-0.7,1.1-1.3,2.2-1.9,3.3c-2.4,4.6-3.8,9.9-3.9,15.2L97.2,100.5z"/>
						</g>
						<path class="st7" d="M91.6,80.3l2,2.9c1.5-1.1,3.2-2.1,4.8-3.1l-1.8-3C94.9,78.1,93.2,79.1,91.6,80.3z"/>
						<path class="st7" d="M83.4,87.5l2.7,2.3c0.6-0.7,1.2-1.4,1.9-2c0.7-0.6,1.3-1.3,2.1-1.9l-2.3-2.7c-0.8,0.6-1.5,1.4-2.2,2
							C84.8,85.9,84.1,86.7,83.4,87.5z"/>
						<path class="st7" d="M78.6,97.4l3.5,0.6c0.1-0.4,0.2-0.8,0.3-1.2c0.1-0.4,0.2-0.8,0.3-1.2c0.4-0.8,0.6-1.6,1.1-2.3l-3.1-1.7
							c-0.6,0.9-0.9,1.9-1.3,2.9c-0.2,0.5-0.3,1-0.4,1.5C78.8,96.4,78.7,96.9,78.6,97.4z"/>
					</g>
				</g>
				<g>
					<g>
						<g>
							<path class="st3" d="M108.1,92.2c4-2.4,8.3-4.5,12.5-6.5c2.2-0.9,4.3-2,6.6-2.8l3.3-1.3l3.4-1.3l-12.1-33.1l-4,1.5l-4,1.6
								c-2.7,1-5.3,2.3-8,3.5c-5.3,2.5-10.5,5.1-15.5,8.1L108.1,92.2z"/>
						</g>
						<path class="st7" d="M119.8,65.5l1.3,3.3c1.8-0.7,3.6-1.5,5.4-2.1l-1.2-3.3C123.4,63.9,121.6,64.7,119.8,65.5z"/>
						<path class="st7" d="M110.1,69.8l1.5,3.2c0.9-0.4,1.7-0.9,2.6-1.3l2.7-1.2l-1.4-3.2l-2.7,1.2C111.9,68.9,111,69.4,110.1,69.8z
							"/>
						<path class="st7" d="M100.7,74.7l1.7,3.1c1.7-1,3.4-1.8,5.1-2.8l-1.6-3.1C104.2,72.8,102.4,73.7,100.7,74.7z"/>
					</g>
				</g>
				<g>
					<g>
						<g>
							<path class="st3" d="M133.9,80.2c9-3.3,18.5-5.9,28.2-8.1l-7.7-34.4c-10.9,2.5-21.8,5.4-32.6,9.4L133.9,80.2z"/>
						</g>
						<path class="st7" d="M150,55.6l0.9,3.4c1.9-0.5,3.8-0.9,5.7-1.4l-0.8-3.4C153.8,54.7,151.9,55.1,150,55.6z"/>
						<path class="st7" d="M139.8,58.4l1,3.4c1.9-0.6,3.7-1.1,5.6-1.6l-0.9-3.4C143.6,57.3,141.7,57.8,139.8,58.4z"/>
						<polygon class="st7" points="129.8,61.6 130.9,65 136.4,63.1 135.4,59.8 						"/>
					</g>
				</g>
				<g>
					<g>
						<g>
							<path class="st3" d="M162.2,72.1c9.7-2.1,19.7-3.9,29.9-5.4l-5.1-34.9c-10.8,1.6-21.6,3.5-32.4,5.9L162.2,72.1z"/>
						</g>
						<polygon class="st7" points="181.1,49.3 181.7,52.8 187.5,51.8 187,48.4 						"/>
						<polygon class="st7" points="170.7,51.1 171.4,54.6 177.1,53.5 176.5,50 						"/>
						<path class="st7" d="M160.4,53.2l0.7,3.4c1.9-0.4,3.8-0.8,5.7-1.2l-0.7-3.5C164.2,52.3,162.3,52.8,160.4,53.2z"/>
					</g>
				</g>
				<g>
					<g>
						<g>
							<path class="st3" d="M192,66.7c9.9-1.5,20.1-2.5,30.4-3.4l-2.9-35.1c-10.8,0.9-21.6,2-32.6,3.6L192,66.7z"/>
						</g>
						<polygon class="st7" points="212.6,45.2 213,48.8 218.8,48.2 218.5,44.7 						"/>
						<polygon class="st7" points="202.1,46.3 202.5,49.8 208.3,49.2 208,45.7 						"/>
						<polygon class="st7" points="191.7,47.7 192.2,51.2 198,50.4 197.5,46.9 						"/>
					</g>
				</g>
				<g>
					<g>
						<g>
							<path class="st3" d="M222.4,63.3c5.1-0.4,10.3-0.8,15.6-1.2l7.9-0.6l7.2-0.6l-1.2-35.3l-4.7,0.4l-3.8,0.3l-7.9,0.6
								c-5.3,0.4-10.6,0.8-16,1.2L222.4,63.3z"/>
						</g>
						<polygon class="st7" points="244.2,42.8 244.5,46.3 250.4,45.9 250.1,42.3 						"/>
						
							<rect x="233.8" y="43.3" transform="matrix(0.9975 -7.136452e-02 7.136452e-02 0.9975 -2.6128 17.0117)" class="st7" width="5.9" height="3.5"/>
						<polygon class="st7" points="223.2,44.3 223.5,47.8 229.4,47.4 229.1,43.9 						"/>
					</g>
				</g>
			</g>
		</g>
	</g>
	<ellipse class="st8" cx="266.1" cy="98.5" rx="170.4" ry="47.9"/>
	<g>
		<path class="st0" d="M107.1,77.4c-3.5-7.9-7-15.9-10.4-23.8c-1.3-3-1.3-6,0-9.1c0.9-2.2,2.5-4,4.5-5.3c0.5-0.3,1-0.6,1.5-0.8
			c6.8-3,13.7-6,20.5-9c1.4-0.6,2.8-0.8,4.3-0.5c1.6,0.3,3.1,0.8,4.6,1.3c2.1,0.8,4.2,1.6,6.2,2.4c2.6,1,5.3,2,7.9,3
			c1.7,0.7,3.3,1.4,4.9,2.3c1,0.6,1.9,1.3,2.6,2.3c0.2,0.3,0.3,0.5,0.4,0.8c5.4,12.3,10.8,24.5,16.1,36.8c1.8,4.2,1.2,8.2-1.6,11.8
			c-1.1,1.5-2.6,2.6-4.4,3.3c-10.5,4.6-21,9.2-31.5,13.8c-3.2,1.4-6.5,1.3-9.7-0.2c-2.2-1-3.8-2.6-5-4.6c-0.2-0.3-0.3-0.6-0.5-1
			C114.1,93.3,110.6,85.3,107.1,77.4z M112.4,75.1c3.5,7.9,6.9,15.8,10.4,23.8c0.2,0.3,0.3,0.7,0.6,1c1.6,2.3,4.5,3,7.1,1.9
			c10.5-4.6,21-9.2,31.5-13.8c0.9-0.4,1.6-0.9,2.2-1.6c1.5-1.9,1.7-3.9,0.8-6.1c-5-11.3-10-22.7-14.9-34c0-0.1-0.1-0.2-0.1-0.3
			c-0.6-1.1-1.4-1.5-2.6-1.4c-0.9,0.1-1.8,0.4-2.7,0.8c-3,1.3-6,2.6-9,3.9c-1.6,0.7-3.2,0-3.9-1.5c-1.1-2.6-2.3-5.2-3.4-7.8
			c-0.4-0.9-0.8-1.8-1.3-2.6c-0.3-0.6-0.7-1.1-1.2-1.5c-0.7-0.5-1.4-0.6-2.1-0.2c-6.2,2.7-12.4,5.4-18.6,8.2
			c-0.2,0.1-0.5,0.2-0.7,0.3c-2.6,1.4-3.7,4.6-2.5,7.3C105.4,59.3,108.9,67.2,112.4,75.1z"/>
		<path class="st1" d="M112.4,75.1c-3.5-7.9-6.9-15.8-10.4-23.7c-1.2-2.7-0.1-5.9,2.5-7.3c0.2-0.1,0.4-0.2,0.7-0.3
			c6.2-2.7,12.4-5.4,18.6-8.2c0.8-0.3,1.5-0.2,2.1,0.2c0.5,0.4,0.9,0.9,1.2,1.5c0.4,0.9,0.9,1.7,1.3,2.6c1.1,2.6,2.3,5.2,3.4,7.8
			c0.7,1.6,2.3,2.2,3.9,1.5c3-1.3,6-2.6,9-3.9c0.8-0.4,1.7-0.7,2.7-0.8c1.2-0.1,2,0.3,2.6,1.4c0,0.1,0.1,0.2,0.1,0.3
			c5,11.3,10,22.7,14.9,34c0.9,2.2,0.7,4.2-0.8,6.1c-0.6,0.7-1.3,1.3-2.2,1.6c-10.5,4.6-21,9.2-31.5,13.8c-2.6,1.1-5.4,0.4-7.1-1.9
			c-0.2-0.3-0.4-0.6-0.6-1C119.3,90.9,115.8,83,112.4,75.1z M141.6,84.3c4.6-2,9.3-4.1,13.9-6.1c0.1,0,0.2-0.1,0.3-0.2
			c0.8-0.5,1-1.6,0.6-2.5c-0.2-0.4-0.5-0.7-0.7-1c-2.5-3.2-5.2-6.4-8-9.3c-1.3-1.4-2.7-2.7-4.2-3.9c-0.6-0.5-1.3-0.9-2.1-1.2
			c-0.8-0.2-1.4,0-1.7,0.8c-0.3,0.6-0.4,1.2-0.4,1.8c-0.1,1.6,0,3.2,0.1,4.8c0.1,1.6,0.1,3.2,0.1,4.8c0,0.9-0.1,1.9-0.5,2.8
			c-0.5,1.4-1.6,2.1-3.1,2c-0.9-0.1-1.7-0.4-2.4-0.8c-0.8-0.4-1.7-0.9-2.5-1.3c-0.6-0.3-1.3-0.5-2-0.5c-0.7,0-1.2,0.3-1.6,0.9
			c-0.1,0.2-0.2,0.4-0.3,0.5c-0.5,1-0.7,2-0.9,3c-0.5,2.8-0.7,5.7-0.8,8.5c0,0.6-0.1,1.3-0.1,1.9c0,0.5,0.2,0.9,0.7,1
			c0.6,0.2,1.3,0.1,1.9-0.1C132.3,88.3,136.9,86.3,141.6,84.3z M128.5,61.7c-1.2-2.9-4.6-4.3-7.6-3c-2.9,1.3-4.2,4.6-3.1,7.4
			c1.2,3,4.6,4.5,7.6,3.2C128.4,68.1,129.8,64.7,128.5,61.7z"/>
		<path class="st0" d="M141.6,84.3c-4.6,2-9.2,4.1-13.9,6.1c-0.6,0.3-1.2,0.3-1.9,0.1c-0.5-0.2-0.7-0.5-0.7-1c0-0.6,0.1-1.3,0.1-1.9
			c0.1-2.9,0.3-5.7,0.8-8.5c0.2-1,0.4-2.1,0.9-3c0.1-0.2,0.2-0.4,0.3-0.5c0.4-0.6,0.9-0.8,1.6-0.9c0.7,0,1.4,0.2,2,0.5
			c0.8,0.4,1.7,0.8,2.5,1.3c0.8,0.4,1.6,0.7,2.4,0.8c1.5,0.1,2.6-0.5,3.1-2c0.3-0.9,0.5-1.8,0.5-2.8c0-1.6,0-3.2-0.1-4.8
			c-0.1-1.6-0.2-3.2-0.1-4.8c0-0.6,0.1-1.2,0.4-1.8c0.4-0.8,0.9-1,1.7-0.8c0.8,0.2,1.4,0.7,2.1,1.2c1.5,1.2,2.9,2.5,4.2,3.9
			c2.8,3,5.5,6.1,8,9.3c0.3,0.3,0.5,0.6,0.7,1c0.5,0.9,0.2,1.9-0.6,2.5c-0.1,0.1-0.2,0.1-0.3,0.2C150.8,80.2,146.2,82.2,141.6,84.3z
			"/>
		<path class="st0" d="M128.5,61.7c1.3,3-0.1,6.4-3.1,7.6c-3,1.2-6.4-0.2-7.6-3.2c-1.1-2.8,0.2-6.1,3.1-7.4
			C123.9,57.5,127.3,58.9,128.5,61.7z"/>
	</g>
	<g>
		<path class="st0" d="M361.8,107.1c-1.2-0.6-2.3-1.2-3.1-2.4c-1-1.5-1.2-3.1-0.9-4.8c1.8-11.8,3.5-23.7,5.3-35.5
			c0.9-6.2,1.8-12.3,2.8-18.5c0.4-2.6,1.7-4.4,4.2-5.2c0.9-0.3,2-0.2,3-0.2c0.8,0,1.5,0.2,2.4,0.3c0.2-1.2,0.4-2.3,0.7-3.4
			c0.7-2.7,3.3-4.6,6.1-4.4c1.1,0.1,2.1,0.3,3.4,0.5c0.2-1.2,0.2-2.4,0.5-3.5c0.8-3.1,3.5-4.8,6.6-4.4c0.2,0,0.3,0,0.5,0.1
			c12,1.8,24.1,3.6,36.1,5.4c2.6,0.4,4.5,1.7,5.2,4.2c0.3,0.9,0.3,2,0.2,2.9c-2.7,18.1-5.4,36.3-8.1,54.4c-0.6,3.7-3.4,5.8-7.1,5.3
			c-0.8-0.1-1.6-0.2-2.5-0.4c-0.2,1.2-0.3,2.3-0.5,3.4c-0.6,2.7-3.3,4.7-6.1,4.4c-2.6-0.3-5.3-0.8-7.9-1.1c-0.4,0-0.9,0.1-1.2,0.3
			c-2,1.4-3.9,2.8-5.8,4.3c-1.7,1.3-3.5,2.3-5.7,2.4C380.3,109.9,371,108.5,361.8,107.1z M388.9,106.4c0.1-0.4,0.1-0.7,0.1-1
			c0.3-1.9,0.5-3.7,0.8-5.6c0.5-2.8,2.4-4.8,5.2-5.1c0.7-0.1,1.4,0,2.1,0.1c2.1,0.3,4.1,0.6,6.2,0.9c0.1-0.4,0.1-0.7,0.1-1
			c2.1-14,4.2-28,6.3-42c0.2-1.6,0-2-1.6-2.2c-11.9-1.8-23.8-3.6-35.7-5.3c-1.7-0.2-2,0-2.3,1.7c-2.7,17.9-5.3,35.7-8,53.6
			c-0.2,1.6,0,2,1.7,2.3c8,1.2,15.9,2.4,23.9,3.6C388.3,106.3,388.5,106.4,388.9,106.4z M407.3,100.3c0.7,0.1,1.5,0.2,2.2,0.3
			c1.8,0.3,2.1,0,2.4-1.7c2.7-17.8,5.3-35.7,8-53.5c0.3-1.7,0-2-1.7-2.3c-11.8-1.8-23.7-3.5-35.5-5.3c-0.3,0-0.6-0.1-0.9-0.1
			c-0.6,0-1.1,0.3-1.2,0.9c-0.2,0.9-0.3,1.9-0.5,2.9c0.4,0.1,0.8,0.1,1.1,0.2c9.3,1.4,18.5,2.8,27.8,4.2c0.7,0.1,1.4,0.2,2.1,0.5
			c2.8,1.2,4.1,3.7,3.6,6.8c-2.2,15-4.5,30-6.7,45C407.8,98.9,407.6,99.6,407.3,100.3z M390.1,34.2c0.4,0.1,0.8,0.1,1.1,0.2
			c9.3,1.4,18.6,2.8,27.9,4.2c1,0.2,2.1,0.5,3,1.1c2.3,1.5,2.9,3.8,2.5,6.4c-2.3,15.3-4.6,30.6-6.9,45.9c-0.1,0.3-0.1,0.7-0.2,1.1
			c0.7,0.1,1.4,0.2,2,0.3c1.7,0.3,2.1,0,2.3-1.7c2.7-17.8,5.3-35.7,8-53.5c0.3-1.7,0-2.1-1.7-2.3c-11.9-1.8-23.7-3.5-35.6-5.3
			c-0.3,0-0.5-0.1-0.8-0.1c-0.7,0-1.1,0.3-1.3,1C390.3,32.2,390.2,33.1,390.1,34.2z"/>
		<path class="st1" d="M388.9,106.4c-0.4-0.1-0.7-0.1-0.9-0.1c-8-1.2-15.9-2.4-23.9-3.6c-1.6-0.2-1.9-0.6-1.7-2.3
			c2.7-17.9,5.3-35.7,8-53.6c0.2-1.6,0.6-1.9,2.3-1.7c11.9,1.8,23.8,3.5,35.7,5.3c1.6,0.2,1.9,0.6,1.6,2.2c-2.1,14-4.2,28-6.3,42
			c0,0.3-0.1,0.6-0.1,1c-2.1-0.3-4.2-0.6-6.2-0.9c-0.7-0.1-1.4-0.2-2.1-0.1c-2.8,0.3-4.8,2.3-5.2,5.1c-0.3,1.9-0.6,3.7-0.8,5.6
			C389.1,105.7,389,106,388.9,106.4z"/>
		<path class="st1" d="M407.3,100.3c0.2-0.7,0.5-1.4,0.6-2c2.3-15,4.5-30,6.7-45c0.5-3.2-0.8-5.7-3.6-6.8c-0.7-0.3-1.4-0.4-2.1-0.5
			c-9.3-1.4-18.5-2.8-27.8-4.2c-0.3-0.1-0.7-0.1-1.1-0.2c0.2-1,0.3-2,0.5-2.9c0.1-0.6,0.6-0.9,1.2-0.9c0.3,0,0.6,0.1,0.9,0.1
			c11.8,1.8,23.7,3.5,35.5,5.3c1.7,0.3,2,0.6,1.7,2.3c-2.7,17.8-5.3,35.7-8,53.5c-0.3,1.8-0.6,2-2.4,1.7
			C408.8,100.5,408,100.4,407.3,100.3z"/>
		<path class="st1" d="M390.1,34.2c0.2-1,0.3-2,0.4-2.9c0.1-0.7,0.6-1,1.3-1c0.3,0,0.6,0,0.8,0.1c11.9,1.8,23.7,3.5,35.6,5.3
			c1.7,0.3,2,0.6,1.7,2.3c-2.7,17.8-5.3,35.7-8,53.5c-0.3,1.7-0.6,2-2.3,1.7c-0.6-0.1-1.3-0.2-2-0.3c0.1-0.4,0.1-0.7,0.2-1.1
			c2.3-15.3,4.6-30.6,6.9-45.9c0.4-2.6-0.2-4.9-2.5-6.4c-0.9-0.6-2-0.9-3-1.1c-9.3-1.4-18.6-2.8-27.9-4.2
			C390.9,34.3,390.5,34.2,390.1,34.2z"/>
	</g>
	<g>
		<path class="st0" d="M218.4,6.9c-7.1,1.2-12.8,4.5-17.2,10c-0.6,0.7-1.2,1.5-1.8,2.3c-1.3,1.5-3.3,1.7-4.8,0.6
			c-1.5-1.2-1.8-3.1-0.7-4.8c4.2-5.9,9.4-10.4,16.2-12.8c12-4.2,23.1-2.1,33,5.9c1.7,1.3,1.9,3.5,0.7,5c-1.3,1.5-3.3,1.8-5,0.4
			c-3.8-3.1-8-5.3-12.9-6C223.5,7,220.9,7,218.4,6.9z"/>
		<path class="st0" d="M237,20.1c0.1,2-0.5,3.2-1.8,4.1c-1.3,0.8-2.7,0.8-3.9,0c-0.7-0.4-1.4-1-2.1-1.5c-5.3-3.9-12.4-3.2-16.7,1.9
			c-0.7,0.8-1.4,1.7-2.1,2.6c-1.4,1.7-3.6,2-5.3,0.8c-1.6-1.2-2-3.3-0.9-5.1c7.7-12,22-13.1,31.3-4.6
			C236.3,18.7,236.7,19.7,237,20.1z"/>
		<path class="st0" d="M222.2,39c-3.3,0.4-6.4-2-6.8-5.2c-0.4-3.3,2.1-6.4,5.3-6.7c3.2-0.4,6.2,2,6.7,5.2
			C227.8,35.4,225.5,38.5,222.2,39z"/>
	</g>
	<g>
		
			<rect x="284.8" y="3.3" transform="matrix(0.9981 6.226123e-02 -6.226123e-02 0.9981 1.8458 -19.3768)" class="st9" width="54.1" height="33.2"/>
		
			<rect x="298.2" y="5.4" transform="matrix(6.226123e-02 -0.9981 0.9981 6.226123e-02 264.3207 335.9167)" class="st3" width="25.4" height="43.8"/>
		<text transform="matrix(0.9981 6.226123e-02 -6.226123e-02 0.9981 289.1986 24.1205)" class="st0 st10 st11">NOSQL</text>
	</g>
	<g>
		<path class="st0" d="M308.4,79.6c-0.7-2.4-1.8-5-3-6.6c0-0.3-0.4-0.3-0.4-0.6c-0.4-0.3-1.2-0.9-1.9-0.8c-0.7-0.2-1.4-0.2-2.1,0.3
			l-0.3,0.4c-0.3,0.4-0.5,1.1-0.8,1.5c-0.2,0.7-0.5,1.1-1.2,1.6c-0.6,0.4-0.9,0.8-1.6,1.3c-0.4-0.6-0.9-1.3-1.3-1.6
			c-0.4-0.6-1.2-1.2-1.7-1.9c-0.4-0.3-0.8-0.9-1.6-1.2c-0.4-0.3-1.1-0.5-1.5-0.8c-1.5-0.8-3.1-1.7-4.6-2.5c-0.7-0.2-1.2-0.9-1.9-1.1
			c-3.5-2-6.4-3-9.5-2.6c-3.2,0.1-6.1,1.6-9.7,3.5c-1.9,1.3-3.2,2.2-4.1,3.7c-0.9,1.2-1.7,2.7-2.6,4.2c-0.7,0.1-1,0.1-1.7,0.6
			c-0.6,0.4-1.3,0.9-1.9,1.7c-0.3,0.4-0.9,1.2-1.2,1.6s-0.9,1.2-1.2,1.6c-3.4,1.2-6.1,1.9-8.4,3.3s-4.5,3.1-6.6,5.5
			c-0.9,0.8-1.5,2-2,3.1c-0.5,1.1-1.1,2.3-1.3,3c-0.3,0.4-0.9,1.2-1.2,1.6c-0.3,0.4-0.9,0.8-1.6,1.3l0,0c-0.3,0-0.3,0.4-0.3,0.4l0,0
			c0.6-0.8,0.7-2.2,0.6-3.3l0.4,0.3c0,0,0.4,0.3,0.4,0.6l0.8,0.6l0.2-1.1c-0.1-0.7,0.1-1.8-0.4-2.8c-0.1-0.7-0.5-1-0.9-1.3l0-0.3
			c0-0.3,0.2-0.7,0.2-1.1l0.2-0.7l-0.7,0.1c-1,0.1-2.9,1.8-4.1,3.4c-0.6,0.8-0.8,1.5-1.1,1.9c-0.2,0.7-0.2,1.4-0.1,2.1
			c0.1,0.7,0.5,1.3,1.3,1.6c0,0.3,0.4,0.6,0.5,1c0,0.3,0.4,0.6,0.5,1c0.5,1,1.2,1.2,2.3,1.4c0.7,0.2,1.4,0.2,2.1-0.3
			c0.1,0.7-0.1,1.8,0,2.5c0.1,1,0.3,2.4,0.6,4.2c0,0.3,0.1,0.7,0.1,1c0,0.3,0.1,0.7,0.1,1s-0.2,0.7-0.2,1.1l-0.5,1.8l-1.5,1.6
			c-0.3,0.4-0.6,0.8-1.2,1.6c0,0-0.3,0-0.3,0.4c-0.6,0.8-0.9,1.2-0.4,2.5c0.1,1,0.6,1.7,1.4,2.6c0.4,0.6,1.3,1.6,2.1,2.2
			c1.2,0.9,2.7,1.7,4.1,1.9c1.1,0.2,1.8,0.1,2.8,0l0,0.3c0,0.3-0.2,0.7-0.2,1.1c-0.7,2.6,0.5,3.5,2.3,3.9c0.7,0.2,1.8,0.5,2.9,0.7
			c0.3,0,0.3,0,0.7-0.1c1.1,0.2,3.2,0.3,5,0.4c1.7-0.2,3.4-0.8,3.9-2.7c0.2-0.7,0.2-1.1,0.1-1.8c0-0.3-0.1-1-0.2-1.4
			c0.5-1.1,0.5-1.5,0.7-2.2c0,0,0-0.3,0.3-0.4c0.2-0.7,0.5-1.1,0.5-1.5c0-0.3-0.1-1-0.2-1.7c0,0,0,0,0-0.3c1-0.1,2.1,0.1,3.2-0.1
			c0.7-0.1,1-0.1,1.7-0.2c0,0-0.3,0-0.3,0.4l-0.3,0c-1.3,0.9-1.1,2.3-0.6,3.6c0.5,1.3,1.8,2.6,2.2,3.2c1.3,1.6,2.5,2.8,4,3.3
			c1.5,0.5,2.9,0.7,4.8-0.7c0.9-0.8,1.2-1.2,1.5-2c0-0.3,0.3-0.4,0.2-0.7c0.3-0.4,1.2-1.2,2.1-2.4c0.3-0.4,0.6-0.8,0.9-1.2
			c0.4,0.3,0.7,0.2,1.1,0.2c0.3,0,1.1,0.2,1.8,0.1c0.7-0.1,2.4-0.3,3.5-0.5c0.3,0,0.7-0.1,0.7-0.1c1-0.1,2.1-0.3,2.7-0.7
			c0.6-0.4,1.2-1.2,1-2.6c-0.1-0.7-0.1-1-0.2-1.4c0-0.3-0.4-0.6-0.5-1c-0.1-0.7-0.1-1-0.2-1.7c-0.1-0.7-0.2-1.4-0.2-1.7
			c-0.1-0.7-0.2-1.4-0.6-2c-0.1-0.7-0.5-1-0.9-1.6c-0.4-0.3-0.5-1-0.5-1.3l-0.3,0l0,0l0.3,0l0,0c-0.4-0.6-0.5-1.3-1-2l0-0.3l0.8,0.6
			l1.2,0.9c0.8,0.6,1.6,1.2,2.3,1.4c0.7,0.2,1.8,0.5,3.2,0.3c1.4-0.2,2.7-1.1,3.6-1.9c0.9-0.8,1.8-2,2-3.5l0.2-1.1l0.2-0.7
			c1.8,0.1,3.9-0.2,5.6-0.4c1.7-0.6,3.4-1.2,4.7-2.1c1.9-1.3,3.4-3.3,4.2-5.5l0,0c1.1-2.3,1.4-5.1,1.4-8
			C309.9,85.3,309.5,82.2,308.4,79.6L308.4,79.6z M288.5,101c-1.1-0.2-1.8-0.5-3-1c0.5,1,0.6,2,0.5,3.5c-0.1,1.8-0.8,4.7,1.8,5
			c1.1,0.2,1.4-0.2,2.4-0.7c-1,0.5-1.3,0.5-2.1,0.3c-0.7,0.1-1.1-0.5-1.2-0.9c0.3,0,0.7,0.2,1.1,0.2c1.8,0.1,3.4-0.8,3.6-2.3
			c0.2-0.7-0.1-1,0.4-2.2c0.3,0,0.7,0.2,1.1,0.2l-0.4,2.2c-0.5,1.8-2.3,3.8-4.1,3.7c-1.7,0.2-2.9-0.7-4.4-1.5
			c-0.8-0.6-1.9-1.1-2.7-1.7c-2.2-0.4-4.3-0.8-6.3-2.3c1.6,1.5,2.8,2.4,5,2.8c0.1,3.2-0.7,5.4-0.9,8.6c-0.2,1.4-2.5,7.1-3.5,7.5
			c-0.6,0.4-4,4.4-4.6,4.9c-0.6,0.8-0.8,1.9-1.4,2.3c-2.2,1.7-4.3-0.8-6-2.7c-0.8-0.9-3-3.5-1.3-4.4c1.3-0.9,1.9-1.7,3.5-3
			c0.4,0.3,0.8,0.6,0.8,0.9l-0.2-1.4c-0.1-0.7-0.2-1.4-0.3-2.1s-0.2-1.4,0-2.5c-0.2,0.7-0.5,1.5-0.7,2.6c0,0.3,0.1,0.7-0.2,0.7
			c-3,1.1-6.5,1.6-9.7,1.4c-0.5-1-0.7-2.4-1.2-3.4c0.1,1,0.5,3.8,0.8,5.5c0.2,1.4,0.2,1.7-0.3,2.9c-0.5,1.1-0.5,1.1-1.3,3
			c0.1,1,0.2,1.7,0,2.8c-0.1,1.8-5.1,1.1-6.2,0.9c-1.4-0.2-4.6-0.4-4.2-2.6c0.5-1.8,0.6-3.6,0.6-6.1c-3.3-3.4-6.5-8.6-7.9-13.4
			c-0.9-3.8-0.8-5.9-0.5-8.4c0.9-3.7,2.2-7,4.6-10.2c3.3-4,6.9-5.9,12.4-7.4c-1.2,1.6-2.3,3.5-3.5,5.4c-1.1,1.9-1.9,3.8-2.7,6
			c-1,3-0.9,4,1.2,5.8c1.7,1.9,2.8,2.4,3.4,4.5c-0.5,1.1-0.4,2.2-0.6,3.6c2,1.8,3.6,3,5.4,3.1c1.8,0.1,3.2-0.1,4.8-1
			c3.2-2.2,6-5.1,9.8-5.6c1.1-4.7,0.6-8.2-1-12.6c-1.1-2.7-1.5-5.4-2.2-8.5c-0.3,3.2,0.1,6,0.9,8.7c1.2,3.7,2.1,7.5,0.9,11.2
			c-3.4,0.8-6.2,3.3-9.1,5.5c-1.3,0.9-2.7,1.1-4.1,0.9c-1.4-0.2-2.3-1.1-3.8-2.3c-0.2-1.7,0-2.5,0.5-4c0.7-2.6,1.8-4.8,3.2-7.5
			c-1.4,2.3-2.9,4.3-4,6.9c-0.9-1.3-1.7-2.2-3-3.8c-1.6-1.5-1.7-2.2-1-4.5c0.7-2.2,1.2-4,2.7-6c2.3-3.5,4.3-7,7-10.5
			c1.5-2,2.2-1.7,4.3-2.4c2-0.6,3.7-1.2,5.7-1.9c-2,0.6-3.8,0.9-5.5,1.1l0,0c1.4-2.7,2.2-4.2,5.2-5.7c6.8-4.1,11.6-5.1,18.2-1.1
			c1.6,1.2,3.1,2,5,2.8c-0.7,0.1-1,0.1-1.7,0.6c0.7-0.1,1.7-0.2,2.4-0.3c0.3,0,0.4,0.3,0.7,0.2c1.1,0.5,1.9,0.8,2.7,1.7
			c0.8,0.9,1.7,1.9,2.6,3.2c-0.3,0-0.7-0.2-1.1-0.2c-0.7-0.2-1.4-0.2-2.1,0.3l0,0c-0.6,0.4-1.3,0.9-2,1c0.3,0,1-0.1,1.4-0.2l0,0
			c0,0.3-0.2,0.7-0.2,0.7c0,0.3,0.1,0.7,0.5,1l0,0c0,0,0,0.3,0.4,0.3c-0.3,0-0.6,0.4-1,0.5c1.3-0.5,2.7-0.7,3.8-0.5
			c0,0.3,0.5,1,0.5,1.3l-0.3,0l0,0c-0.7-0.2-1.4-0.2-2.5,0c-2.7,1.1-2.1,2.8-2.8,5.3c1.1-1.9,0.9-3.7,2.9-4.6c0.7-0.1,1-0.5,1.3-0.5
			c-0.6,0.4-1.2,1.2-1.2,1.6c-0.5,1.8,0.1,3.2-0.4,5c0.5-1.5,0.7-2.9,1.1-4.7c0.2-0.7,1.2-1.6,1.9-1.7l0.3,0c0.1,1,0.6,2,0.7,2.7
			c0.2,1.4,0.2,3.9-0.1,4.6c0.5-1.1,0.6-3.3,0.8-4.7s-0.1-3.5-0.7-5.2c-0.7-2.4,1.8-2.4,2.7-3.5c0.9-0.8,1.4-2.3,2.3-3.5
			c0.9-1.2,2.5,0,3,1c1.9,3.6,3.8,9.4,3.6,13.3c0.2,4.2-1.2,9.3-4.7,11.9C299.3,103,293.2,102.1,288.5,101L288.5,101z M284.2,121
			c0.2,1.7-0.5,1.8-2.2,2.1c-0.7,0.1-3.5,0.5-4.2,0.6c-1,0.1-1.8-0.1-1.8-0.1c1.6-1.3,3.3-6.5,3.8-8.3c0.5-1.8,0.6-3.3,1.1-5.1
			c0.4,0.6,0.5,1.3,1,2c0.5,1,1,2,1.1,3l0.6,4.2C284.1,120,284.1,120,284.2,121L284.2,121z M234.9,114.1c1.5,3.3,3.7,6.5,5.9,9.1
			l0,0c0,0.3-0.2,1.1-0.5,1.5c-1.1,1.9-4.9,0-6.1-0.9c-1.2-0.9-2.1-2.2-2.6-3.5c-0.1-1-0.1-1,0.5-1.5l2.1-2.8L234.9,114.1
			L234.9,114.1z M230.2,92.9c-0.2,0.7-0.2,1.1-0.5,1.5c-0.5,1.8,0.8,3.4-0.7,5c0.9,1.6,1,2,2.6,1c0.6-0.4,1.3-0.9,1.6-1.3
			c-0.2,0.7-0.2,1.4-0.4,2.2l0,0.3c-1.3,0.9-3,1.5-3.9,0.2c-0.4-0.6-0.5-1.3-1-2C225.5,97.5,228.6,94.2,230.2,92.9L230.2,92.9z
			 M231.6,95.2c-0.4-0.3-0.4-0.3-0.7-0.2c0-0.3,0-0.3-0.1-0.7l0-0.3C231.4,93.8,231.5,94.5,231.6,95.2L231.6,95.2z M295.4,77.5
			c0,0,0,0.3,0.4,0.6c0,0,0,0-0.3,0c0-0.3-0.4-0.3-0.4-0.6C295.1,77.5,295.1,77.5,295.4,77.5L295.4,77.5z M234.2,96.6L234.2,96.6
			L234.2,96.6L234.2,96.6z M254.6,121.3L254.6,121.3L254.6,121.3z M275.2,124.4L275.2,124.4L275.2,124.4z M280.7,108.5L280.7,108.5
			L280.7,108.5L280.7,108.5z M231.5,99.8L231.5,99.8L231.5,99.8L231.5,99.8L231.5,99.8z M308.5,95.4L308.5,95.4L308.5,95.4z
			 M223.4,100.2c-0.2-3.9,0.3-5.7,2.6-9.2C223.3,94.2,222.4,95.4,223.4,100.2"/>
		<path d="M222.3,97.2c0.1-1.8,0.4-2.5,1.2-4C221.9,94.4,221.7,95.2,222.3,97.2 M259.7,66.9c-2,0.6-2.3,1.4-2.7,3.2
			C257.9,68.6,258.2,68.2,259.7,66.9"/>
		<path class="st0" d="M262.8,66.2c-4,1.6-5,2.5-5.7,7.5C258.4,69.9,259.6,68.4,262.8,66.2 M274.3,82.6c0.1-2.1,0.9-4,3.4-5.8
			C274,78,273.5,79.8,274.3,82.6 M299.9,79c2.3-1,3.1-3.3,3.5-5.4c-0.8,1.9-1.9,3.8-3.5,5.1c-1,0.5-1.7,0.6-2.7,0.7
			C297.8,79.3,298.5,79.5,299.9,79 M283.9,83.3c-0.4-0.6-0.8-0.9-1.6-1.2c0.6-0.4,0.9-0.8,1.6-1.3c-1.3,0.9-2.7,0.7-3.6,1.9
			c-0.9,0.8-2,3.1-2.9,4.3c0.6-0.4,1.3-0.9,1.9-1.7c0.1,1,1,2,1.7,2.2c-0.3,0.4-0.5,1.1-0.8,1.9c1.7-2.7,4.3-4.8,6.6-5.9
			c-0.7,0.1-1.7,0.2-2.4,0.7C284.3,83.6,283.9,83.3,283.9,83.3 M283.5,100.7c0.1,0.7-0.2,1.4-0.1,2.1c0.2-0.7,0.5-1.5,0.4-2.2
			c0.2-0.7,0.2-0.7,0.9-1.2c0.3-0.4,1.3-0.9,1.6-0.9c-0.3,0-1.3,0.5-1.7,0.6C283.6,99.2,283.7,99.6,283.5,100.7 M258.6,81.2
			c-1.2,1.6-1.9,7-2.3,8.8c0.5-1.8,1.6-6.6,2.7-8.1c0.3-0.4,0.6-0.8,0.9-0.8c-0.8,1.9-0.7,2.2-0.1,4.2c0-2.5,0.6-3.3,1.7-5.2
			c1.3-0.5,2.7-1.1,4-2c-1.7,0.6-3.1,0.8-4.8,1C259.8,80,259.4,80,258.6,81.2"/>
		<path class="st1" d="M279.8,86.7c-0.4-0.6-0.2-1.4,0.5-1.5c0.6-0.4,1.4-0.2,1.5,0.5l0,0c-0.6,0.4-0.9,1.2-1.2,1.6
			C280.6,87.3,280.2,87,279.8,86.7 M291.9,80.1c0-0.3,0.2-0.7,0.9-0.8c0.3,0,0.7,0.2,0.8,0.9l0,0.3c-0.3,0-0.6,0.4-1.3,0.5
			C292,80.8,292,80.4,291.9,80.1"/>
	</g>
</g>
</svg>
