<?xml version="1.0" encoding="utf-8"?>
<!-- Generator: Adobe Illustrator 22.0.1, SVG Export Plug-In . SVG Version: 6.00 Build 0)  -->
<svg version="1.1" id="Layer_1" xmlns="http://www.w3.org/2000/svg" xmlns:xlink="http://www.w3.org/1999/xlink" x="0px" y="0px"
	 viewBox="0 0 151.2 180.8" style="enable-background:new 0 0 151.2 180.8;" xml:space="preserve">
<style type="text/css">
	.st0{fill:none;stroke:#FFFFFF;stroke-miterlimit:10;}
	.st1{fill:none;stroke:#FFFFFF;stroke-width:0.5256;stroke-miterlimit:10;}
</style>
<g>
	<g>
		<path class="st0" d="M150.4,180.3c-50.3,0-99.8,0-149.7,0c0-9.2-0.6-18.3,0.2-27.3c0.7-7,5.2-12.9,11-16.7
			c9.4-6.2,19.4-11.4,29.2-17.1c3.2-1.8,6.3-3.7,9.5-5.6c-0.2-0.4-0.3-0.9-0.5-1.3c-3-0.5-6.4-0.4-9-1.8c-5.4-2.7-10.6-5.9-15.6-9.3
			c-2.6-1.8-2.5-4.7,0.4-6.6c5.4-3.5,7.6-8.9,8.3-14.8c0.9-6.7,1.4-13.6,1.1-20.3c-0.9-15.3,1.8-29.6,11.1-42
			c16.9-22.7,45.8-22.5,62.4,0.4c9.8,13.4,11.5,28.5,10.7,44.6c-0.4,8,1.4,16.1,3,24c0.6,2.9,3.3,5.9,5.8,7.8
			c3.8,2.9,3.3,5.2,0.4,8.1c-6.6,6.6-14.7,9.4-25.5,10.2c3.1,2.4,4.9,4.1,7.1,5.3c7.3,4.3,15,8,22.1,12.6
			c12.5,8,19.7,19.1,18.1,34.7C150,170,150.4,174.8,150.4,180.3z M88.6,28.7c-11.7,9.5-13.1,10.3-29.2,14c-5.6,1.3-9,4.6-10.6,10.1
			C44.9,66.5,50,81.5,61.5,90c10.1,7.4,22.5,7.3,32.4-0.5c9.9-7.8,14-18.5,15.8-30.7c1-6.7-1-11.7-5.8-16
			C98.7,38.2,93.7,33.4,88.6,28.7z M57.7,122c11.1,8.2,29.1,8.3,39.6,0.2c-2.1-6.6-4.1-12.9-6.2-19.3c-9.1,3.8-18.7,3.7-27.6,0
			C61.7,109.2,59.8,115.3,57.7,122z M50,152.8c0.1-0.1,0.2-0.3,0.3-0.3c3-2.1,5.9-4.3,8.9-6.4c4.2-3,4.5-4.1,2.5-9.7
			c-5.5,3.9-10.9,7.6-16.3,11.5c-2,1.5-3,8-1.2,9.4c5.9,4.4,12,8.5,18.5,13.1C64.9,158.7,53.6,159,50,152.8z M93.6,170.1
			c6.2-4.4,12.4-8,17.6-12.8c1.5-1.4,1.3-7.5-0.4-9.1c-5-4.7-11.1-8.2-17.2-12.4c-2.8,11.5,9,11.2,12.3,17.2
			C102.5,158.7,91,158.6,93.6,170.1z M77.4,135.7c-2.6,11.6-5.1,22.9-7.7,34.5c2.7,0,5.2,0,7.8,0c2.6-11.5,5.1-22.9,7.7-34.5
			C82.5,135.7,80.2,135.7,77.4,135.7z"/>
	</g>
	<path class="st1" d="M89.9,66.1c0.1,0-0.4-0.1-0.9-0.2c-2-0.7-3.4-0.2-3.8,2.1c-0.2,1.2-0.6,2.4-2.1,2.6c-1.5,0.2-2.2-0.9-2.7-2
		c-1.1-2.2-2.6-2.5-4.6-1.1c-1,0.7-2,1-3.1,0.1c-1.2-0.9-1-2-0.5-3.1c1-2.6,0-3.9-2.5-4.5c-1.1-0.3-2.2-0.8-2.3-2.1
		c-0.1-1.4,1-1.9,2-2.5c2.3-1.3,2.6-2.2,1.3-4.7c-0.5-1-1.1-2-0.1-3.1c0.9-1,1.9-1,3.1-0.6c2.5,0.9,3.5,0.3,4.4-2.1
		c0.4-1.1,0.6-2.2,2.1-2.4c1.5-0.2,2.2,0.8,2.7,2c1,2.1,2.4,2.6,4.3,1.3c1-0.7,2.2-1.2,3.4-0.3c1.3,1.1,0.9,2.3,0.4,3.6
		c-0.7,2,0,3.1,1.9,3.6c1.3,0.3,2.6,0.7,2.8,2.4c0.1,1.5-1.1,2-2.2,2.6c-1.9,1.1-2.4,2.5-1,4.4c0.6,0.8,1.1,1.8,0.3,2.9
		C92.2,65.8,91.6,66.3,89.9,66.1z M89.2,56.4c-0.1-4.3-3.7-7.8-8-7.6c-4.2,0.1-7.6,3.6-7.5,7.8c0.1,4.3,3.6,7.7,8,7.6
		C85.9,64.1,89.3,60.6,89.2,56.4z"/>
	<path class="st1" d="M65.2,68.6c1.9,1.5,2.9,0.4,4.1-1.3c0.5-0.7,1.5-0.2,1.8,0.7c0.4,1.4,1.1,2,2.7,1.4c1.4-0.5,2.4,0.2,1.6,1.8
		c-0.7,1.4-0.5,2.1,0.9,2.9c1.4,0.8,1.2,1.9-0.3,2.4c-1.4,0.5-1.6,1.3-1.3,2.6c0.4,1.7-0.5,2.4-2,1.6c-1.3-0.6-1.9-0.3-2.5,0.8
		c-0.8,1.6-1.9,1.6-2.6,0c-0.5-1.2-1.1-1.7-2.5-1.3c-1.6,0.5-2.5-0.2-1.7-1.9c0.6-1.3,0.3-2-0.9-2.7c-1.6-0.9-1.3-2,0.3-2.5
		c1.3-0.4,1.7-1.2,1.2-2.4C63.5,69.5,63.8,68.8,65.2,68.6z M69.3,77.1c1.2-0.2,2.1-0.8,2.2-2.1c0.1-1.4-0.8-2.3-2.2-2.3
		c-1.3,0-2.1,0.8-2.1,2.1C67.2,76.2,68,76.8,69.3,77.1z"/>
	<path class="st1" d="M89.2,56.4c0.1,4.2-3.3,7.7-7.5,7.8c-4.3,0.1-7.9-3.3-8-7.6c0-4.2,3.4-7.7,7.5-7.8
		C85.6,48.7,89.2,52.1,89.2,56.4z M80,55.7c0,1,0,2.1,0,3.1c0,1.1,0.3,1.6,1.5,1.6c1,0,1.4-0.4,1.4-1.4c0-2.2,0-4.4,0-6.5
		c0-1.1-0.6-1.3-1.5-1.3c-0.9,0-1.5,0.3-1.4,1.4C80,53.6,80,54.7,80,55.7z M86.9,57.2c0-0.4,0-0.9,0-1.3c0-1,0.1-1.9-1.4-1.9
		c-1.5,0-1.3,1-1.3,1.9c0,1,0,2.1,0,3.1c0,1,0.4,1.3,1.4,1.3c1,0,1.4-0.4,1.3-1.4C86.8,58.4,86.9,57.8,86.9,57.2z M78.9,58.7
		c0.1-1-0.2-1.6-1.4-1.6c-1.4,0-1.5,0.7-1.5,1.8c0,1.1,0.5,1.5,1.6,1.5C78.8,60.4,79,59.7,78.9,58.7z"/>
</g>
</svg>
