<?xml version="1.0" encoding="utf-8"?>
<!-- Generator: Adobe Illustrator 22.0.1, SVG Export Plug-In . SVG Version: 6.00 Build 0)  -->
<svg version="1.1" id="Layer_1" xmlns="http://www.w3.org/2000/svg" xmlns:xlink="http://www.w3.org/1999/xlink" x="0px" y="0px"
	 viewBox="0 0 107.8 107.9" style="enable-background:new 0 0 107.8 107.9;" xml:space="preserve">
<style type="text/css">
	.st0{fill:none;stroke:#272760;stroke-miterlimit:10;}
</style>
<g>
	<path class="st0" d="M54,5.9l26,26c0.4-0.9,0.9-1.8,1.3-2.8c0.1-0.2,0.2-0.5,0.3-0.7L53.9,0.7L40.6,14.1l2.6,2.6L54,5.9z"/>
	<path class="st0" d="M94.4,41.2c-0.6,1.2-1.2,2.4-1.8,3.4l9.3,9.3L91.1,64.7l2.6,2.6l13.4-13.4L94.4,41.2z"/>
	<path class="st0" d="M7,87.4c-1.3,3,0.1,6.6,3.1,7.9c0.8,0.3,1.6,0.5,2.4,0.5c2.3,0,4.5-1.4,5.5-3.6c1.7-3.9,3.6-8,5.4-11.9l-9-9
		C10.5,79.3,7.2,87,7,87.4z"/>
	<path class="st0" d="M101,20.4c1.2-3.1-0.3-6.6-3.3-7.8c-3.1-1.2-6.6,0.3-7.8,3.3c0,0.1-2.8,6.9-6.2,14.3
		c-3.5,7.5-5.9,11.6-7.3,13.7c-1.6-2-3.5-4.9-4.8-6.9c-5-7.6-9-13.6-14.9-13.6c-6.2,0-8.3,7.1-9.3,10.5c-1.2,4-2.2,9.1-3.3,14.2
		c-0.7,3.5-1.7,8.4-2.7,12.2c-0.3-0.5-0.5-1-0.8-1.3c-2.3-4.2-4.7-8.5-9.6-8.5c-4.4,0-7.2,4-9.7,8.1c-0.8,1.3-1.7,2.9-2.6,4.7
		l8.9,8.9c1.2-2.3,2.3-4.3,3.2-6c2.6,4.5,6.1,9.9,12,9.9c6.4,0,8.5-7.3,9.6-10.8c1.2-4.1,2.3-9.5,3.4-14.7c0.7-3.5,1.7-8,2.6-11.5
		c1.1,1.6,2.3,3.3,3.1,4.6c5.2,7.8,9.2,13.9,15.2,13.9c4.5,0,7.6-3.8,10.2-8c1.9-3,4.1-7,6.5-12.1C97.5,29.1,100.8,20.8,101,20.4z"
		/>
	<polygon class="st0" points="54,102 5.9,54 16.7,43.2 14.1,40.6 0.7,54 54,107.2 67.3,93.8 64.7,91.2 	"/>
</g>
</svg>
