<?xml version="1.0" encoding="utf-8"?>
<!-- Generator: Adobe Illustrator 22.0.1, SVG Export Plug-In . SVG Version: 6.00 Build 0)  -->
<svg version="1.1" id="Layer_1" xmlns="http://www.w3.org/2000/svg" xmlns:xlink="http://www.w3.org/1999/xlink" x="0px" y="0px"
	 viewBox="0 0 186.8 176" style="enable-background:new 0 0 186.8 176;" xml:space="preserve">
<style type="text/css">
	.st0{clip-path:url(#SVGID_2_);fill:url(#SVGID_3_);}
	.st1{display:none;}
	.st2{display:inline;}
</style>
<g>
	<g>
		<defs>
			<path id="SVGID_1_" d="M162.8,85.8c0,1.2,0,2.5,0,3.7c0.1,0.9-0.2,4.8-0.3,5.4c-0.5,2.1-0.5,4.4-1,6.5c-5.5,27.3-26.6,48.5-54,54
				c-1.5,0.3-3.1,0.6-4.7,0.5c-2.1-0.1-3.6-1.2-4-3.1c-0.4-2.1,0.5-4,2.6-4.8c1.4-0.5,2.9-0.8,4.3-1.1c21.9-5.1,41.5-20.5,46.6-47.1
				c4.1-21.7-1.6-40.4-17.1-56c-5.8-5.8-12.6-10.1-20.2-13.1c-0.9-0.4-1.9-0.8-2.7-1.3c-1.7-1.1-2.3-3.1-1.7-4.8
				c0.6-2,2.2-3.1,4.3-3c0.9,0,1.7,0.2,2.6,0.6c25.5,10.5,40.6,29.1,44.9,56.5C162.5,79.9,162.9,84.9,162.8,85.8z M68.7,143.5
				c-0.8-0.4-1.6-0.8-2.4-1.2c-23.9-11.9-37.1-36.1-33.6-62.6C35.1,61.2,44.3,46.6,60,36.3c5.8-3.8,12.1-6.3,18.7-8.3
				c2.9-0.9,4-2.8,3.4-5.3c-0.5-2.3-2.6-3.4-5.5-2.8c-1.9,0.4-3.7,0.8-5.5,1.5c-23.9,8.7-38.6,25.3-45.2,48.8
				c-0.5,1.9-1.8,8.3-1.9,10.2c-0.1,2.5-0.2,5.7-0.3,8.5c-0.1,3,1.3,14,1.6,15.2c1.4,5.8,3.5,11.5,6.4,16.9
				c7.4,14,18.9,23.7,33.1,30.3c2.6,1.2,4.7,0.5,5.9-1.8C71.8,147.2,71.1,145,68.7,143.5z M130.9,82.9
				c-13.8,23.5-27.6,47.1-41.5,70.6c-0.9,1.5-1.8,3.1-3.6,3.7c-0.2,0.1-0.6,0.3-1.1,0.4c-0.7,0-1.2-0.2-1.4-0.4
				c-2.6-1.4-3.6-3-3.2-5.9c2.2-14.4,4.4-28.9,6.6-43.3c0.3-1.8,0.5-3.6,0.9-5.4c0.3-1.4-0.1-1.7-1.5-1.7c-4.5,0-9,0-13.5,0
				c-5.9,0-11.8,0-17.7,0c-1,0-2,0-3-0.5c-2.4-1.1-3.3-3.7-1.9-6.2c2.7-4.7,5.5-9.4,8.2-14.1c11.4-19.4,22.9-38.9,34.3-58.3
				c0.9-1.5,1.6-3,3.4-3.6c0.7,0,1.4,0,2.1,0c3.1,1,4.1,2.5,3.6,6.1c-0.9,6.7-2,13.3-3,20c-1.4,9.5-2.8,19-4.4,28.4
				c-0.3,1.7,0.3,2,1.8,2c10.2,0,20.4,0,30.6,0c0.9,0,1.8,0,2.6,0.3c2.5,0.8,3.6,2.7,2.9,5.2C131.9,81.1,131.4,82,130.9,82.9z
				 M120.6,83.3c-1,0-1.7,0-2.3,0c-9.5,0-18.9,0-28.4,0c-0.8,0-1.6,0-2.4-0.1c-2.2-0.4-3.4-2.1-3.1-4.3c0.8-5.3,1.7-10.6,2.5-15.9
				c0.9-5.7,1.7-11.4,2.7-17.7c-0.6,0.8-0.8,1-1,1.3c-8.8,14.8-17.5,29.7-26.3,44.5c-0.7,1.2-0.6,1.5,0.9,1.5
				c9.3-0.1,18.6,0.1,28-0.1c5.1-0.1,7.4,0.9,6.2,7.1c-1.8,10-3.2,20.1-4.8,30.1c0.2,0.1,0.3,0.2,0.5,0.3
				C102.1,114.5,111.3,99,120.6,83.3z"/>
		</defs>
		<clipPath id="SVGID_2_">
			<use xlink:href="#SVGID_1_"  style="overflow:visible;"/>
		</clipPath>
		
			<linearGradient id="SVGID_3_" gradientUnits="userSpaceOnUse" x1="-200.587" y1="-339.6914" x2="-197.6278" y2="-339.6914" gradientTransform="matrix(62.0745 0 0 62.0745 12452.9473 21174.1719)">
			<stop  offset="0" style="stop-color:#1D9ADD"/>
			<stop  offset="1" style="stop-color:#EBE717"/>
		</linearGradient>
		<rect class="st0" width="186.8" height="176"/>
	</g>
</g>
<g class="st1">
	<path class="st2" d="M94.2,17.8c38.7,0,70.3,31.5,70.3,70.3s-31.5,70.3-70.3,70.3c-16.8,0-33-6-45.7-16.9
		c-12.6-10.8-21-25.7-23.6-41.9c-0.2-1.5-0.4-3-0.6-4.4c-0.1-1.3-0.2-2.5-0.3-3.8c0-1.1-0.1-2.1-0.1-3.2c0-0.4,0-0.8,0-1.2
		c0-0.6,0-1.1,0-1.7c0-0.5,0-1,0.1-1.5c0.1-2.3,0.4-4.6,0.8-6.9c2.6-16.3,11-31.2,23.6-42C61.2,23.8,77.4,17.8,94.2,17.8 M94.2,17.5
		c-35.1,0-64.2,25.6-69.6,59.2c-0.4,2.3-0.6,4.6-0.8,6.9c0,0.5-0.1,1-0.1,1.5c0,0.6,0,1.1,0,1.7c0,0.4,0,0.8,0,1.2
		c0,1.1,0,2.1,0.1,3.2c0.1,1.3,0.1,2.5,0.3,3.8c0.1,1.5,0.3,3,0.6,4.4c5.5,33.5,34.5,59.1,69.6,59.1c38.9,0,70.5-31.6,70.5-70.5
		S133.1,17.5,94.2,17.5L94.2,17.5z"/>
</g>
</svg>
