<?xml version="1.0" encoding="utf-8"?>
<!-- Generator: Adobe Illustrator 22.0.1, SVG Export Plug-In . SVG Version: 6.00 Build 0)  -->
<svg version="1.1" id="Layer_1" xmlns="http://www.w3.org/2000/svg" xmlns:xlink="http://www.w3.org/1999/xlink" x="0px" y="0px"
	 viewBox="0 0 313.9 295.7" style="enable-background:new 0 0 313.9 295.7;" xml:space="preserve">
<style type="text/css">
	.st0{clip-path:url(#SVGID_2_);fill:url(#SVGID_3_);}
</style>
<g>
	<g>
		<defs>
			<path id="SVGID_1_" d="M40.8,157.1c0.6-0.3,1.2-0.1,1.9-0.1c13.8,0,27.6,0,41.4,0c1.4,0,2-0.4,2.6-1.7
				c6.8-16,13.7-32.1,20.6-48.1c0.2-0.5,0.5-1,0.9-2c12.7,38.1,25.3,75.9,38,114c3.5-5.2,6.7-10.1,10-15c5.8-8.7,11.6-17.3,17.3-26
				c0.6-1,1.3-1.3,2.5-1.4c3.6-0.3,6.1,0.5,8.7,3.6c7.5,8.8,21,8.5,28.9,0.1s6.9-21.9-2.1-29.1c-9-7.2-22.2-5.3-28.7,4.2
				c-0.7,1-1.4,1.4-2.7,1.4c-4.9-0.1-9.8,0-14.7-0.1c-1.3,0-2,0.4-2.6,1.5c-3.1,4.8-6.4,9.6-9.6,14.4c-0.3,0.4-0.6,0.8-1.1,1.5
				c-1.4-4.1-2.7-8-4-11.9c-12.3-36.8-24.5-73.5-36.8-110.3c-0.1-0.2-0.1-0.3-0.2-0.5c-0.2-0.5-0.1-1.3-0.8-1.4
				c-0.8-0.1-0.7,0.8-0.9,1.3c-1.6,3.6-3.1,7.3-4.7,10.9c-10.4,24.4-20.9,48.7-31.3,73.1c-0.5,1.2-1,1.7-2.4,1.6
				c-13-0.1-26.1,0-39.1,0c-1,0-1.7-0.1-2.1-1.2c-6.4-15.5-10.3-31.6-10.3-48.5c0-35.7,23-66.8,57.4-76.5
				C107,2.4,133.4,9.7,156,31.2c1,1,2,2.7,3,2.7s2-1.7,3-2.7c12.5-12.2,27.2-20.4,44.6-22.7c28.4-3.8,52.6,5,71.9,26.1
				c15.2,16.6,21.2,36.5,19.9,58.8c-1.3,24.3-10,46.2-22.5,66.7c-11.5,18.7-25.5,35.5-40.2,51.8c-14.3,15.8-29.2,31-43.4,46.9
				c-5.1,5.7-10,11.5-14.9,17.4c-2,2.4-4.2,4.6-6.7,6.6c-7.1,5.4-16.3,5.4-23.4,0c-3.1-2.4-5.7-5.3-8.2-8.3
				c-13.3-16.3-27.9-31.5-42.3-46.9c-15.2-16.3-30.3-32.8-43.5-50.9c-4.2-5.7-8.1-11.6-11.8-17.7C41.2,158.2,40.8,157.8,40.8,157.1z
				"/>
		</defs>
		<clipPath id="SVGID_2_">
			<use xlink:href="#SVGID_1_"  style="overflow:visible;"/>
		</clipPath>
		
			<linearGradient id="SVGID_3_" gradientUnits="userSpaceOnUse" x1="-137.3057" y1="-279.1696" x2="-132.3342" y2="-279.1696" gradientTransform="matrix(62.0745 0 0 62.0745 8525.8564 17477.166)">
			<stop  offset="0" style="stop-color:#1D9ADD"/>
			<stop  offset="1" style="stop-color:#EBE717"/>
		</linearGradient>
		<rect class="st0" width="313.9" height="295.7"/>
	</g>
</g>
</svg>
