<?xml version="1.0" encoding="utf-8"?>
<!-- Generator: Adobe Illustrator 22.0.1, SVG Export Plug-In . SVG Version: 6.00 Build 0)  -->
<svg version="1.1" id="Layer_1" xmlns="http://www.w3.org/2000/svg" xmlns:xlink="http://www.w3.org/1999/xlink" x="0px" y="0px"
	 viewBox="0 0 500 500" style="enable-background:new 0 0 500 500;" xml:space="preserve">
<style type="text/css">
	.st0{clip-path:url(#SVGID_2_);fill:url(#SVGID_3_);}
</style>
<g>
	<defs>
		<path id="SVGID_1_" d="M356,138c2.7,0,5.3,0,8,0c0,2.7,0,5.3,0,8c-2.3,4.7-4.9,9.3-6.9,14.2c-3.3,8.4-8.3,15.3-14.8,21.5
			c-9.7,9.1-18.8,18.8-28.4,28.1c-2.4,2.4-3.1,4.7-2.7,7.9c1.7,12.4,3.2,24.7,4.7,37.1c3.6,30,7.3,60.1,10.7,90.1
			c0.3,2.5-0.4,5.9-1.9,7.8c-3.1,3.8-7.1,6.9-10.7,10.3c-1.7,0-3.3,0-5,0c-1.9-2.4-4.4-4.5-5.6-7.2c-10.7-23.4-21.1-47-31.6-70.4
			c-3.3-7.5-6.8-14.9-10.4-22.9c-8.4,8.4-16.4,16.2-24,24.3c-1.8,1.9-3.2,5.1-3.2,7.7c-0.3,14.1-0.1,28.3-0.2,42.5
			c0,5.1-5.9,12.2-10.6,13.1c-4.2,0.8-7.4-1.8-10.2-8.3c-4.6-10.8-9.4-21.6-13.8-32.5c-1.3-3.2-3.2-5-6.4-6.3
			c-11.7-4.8-23.2-9.8-34.8-14.9c-5.3-2.3-7.3-6.3-5.5-10.6c2.1-5.2,8-9.2,13.6-9.3c10.2,0,20.4-0.8,30.4,0.2
			c11.3,1.2,19.6-2.3,26.7-11.2c4.7-5.9,10.6-10.8,16.4-16.4c-31.5-14.1-62.1-27.8-92.6-41.6c-3-1.4-5.4-4-8.1-6c0-1.7,0-3.3,0-5
			c6.6-9.9,14.9-15.8,27.5-11.5c0.6,0.2,1.3,0.2,2,0.3c38.6,4.6,77.2,9.2,115.8,13.9c3.2,0.4,5.5-0.2,8-2.6
			c11.3-11.6,22.7-23,34.2-34.3c2.2-2.2,4.9-3.9,7.7-5.3C341.4,144.9,348.7,141.5,356,138z"/>
	</defs>
	<clipPath id="SVGID_2_">
		<use xlink:href="#SVGID_1_"  style="overflow:visible;"/>
	</clipPath>
	
		<linearGradient id="SVGID_3_" gradientUnits="userSpaceOnUse" x1="-45.8308" y1="676.1611" x2="-41.8236" y2="676.1611" gradientTransform="matrix(62.0745 0 0 -62.0745 2968.0767 42223.7422)">
		<stop  offset="0" style="stop-color:#1D9ADD"/>
		<stop  offset="1" style="stop-color:#EBE717"/>
	</linearGradient>
	<rect x="121" y="132.2" class="st0" width="253" height="238.3"/>
</g>
</svg>
