<?xml version="1.0" encoding="utf-8"?>
<!-- Generator: Adobe Illustrator 22.0.1, SVG Export Plug-In . SVG Version: 6.00 Build 0)  -->
<svg version="1.1" id="Layer_1" xmlns="http://www.w3.org/2000/svg" xmlns:xlink="http://www.w3.org/1999/xlink" x="0px" y="0px"
	 viewBox="0 0 321 316" style="enable-background:new 0 0 321 316;" xml:space="preserve">
<style type="text/css">
	.st0{clip-path:url(#SVGID_2_);fill:url(#SVGID_3_);}
</style>
<g>
	<defs>
		<path id="SVGID_1_" d="M90.9,173.9c9.5-8.8,18.2-16.8,26.8-24.8c8-7.4,16.1-14.9,24.1-22.4c1.9-1.7,3.7-3.5,6.6-2.1
			c2.6,1.2,2.6,3.6,2.6,6c0,14.5,0,29,0,43.6c1.8,0.3,2.5-1,3.4-1.7c17.6-13.5,35.1-27.1,52.7-40.6c2.1-1.6,4.1-3.6,7.1-2.1
			c2.9,1.5,2.5,4.3,2.5,6.9c0,8.6,0.3,17.2-0.1,25.8c-0.2,4.5,1.3,5.3,5.3,5.1c5.7-0.3,11.4-0.1,17-0.1c5.6,0,6.9,1.3,6.9,6.8
			c0,2.1,0,4.2,0,6.2c0,0.8-0.2,1.7,0.8,2.1c0.9,0.4,1.6-0.2,2.2-0.8c1.9-1.9,3.7-3.7,5.6-5.6c2.4-2.4,4.9-2.4,7.3-0.1
			c6.6,6.5,13.2,13.1,19.7,19.7c2.4,2.4,2.4,4.9,0,7.3c-1.7,1.8-3.5,3.5-5.3,5.3c-0.7,0.7-1.6,1.3-1.2,2.5c0.4,1.3,1.6,0.9,2.5,0.9
			c2.5,0.1,5,0,7.5,0c3.1,0,5.1,1.5,5.1,4.7c0.1,9.6,0.1,19.1,0,28.7c0,3.3-2.1,4.7-5.1,4.8c-2.5,0.1-5,0-7.5,0.1
			c-0.9,0-2.1-0.4-2.5,0.9c-0.4,1.1,0.6,1.8,1.2,2.4c1.6,1.7,3.3,3.3,5,5c2.5,2.5,2.7,5,0.1,7.6c-6.5,6.5-13,12.9-19.4,19.4
			c-2.5,2.5-5.1,2.6-7.6,0.1c-1.8-1.7-3.5-3.5-5.3-5.3c-0.7-0.7-1.4-1.5-2.5-0.9c-0.9,0.5-0.6,1.4-0.6,2.2c-0.1,1.7,0,3.3,0,5
			c0,6.8-1,7.8-7.6,7.8c-35.1,0-70.1,0-105.2,0c-30.8,0-61.6,0-92.3,0c-6.9,0-7.8-0.9-7.8-7.5c0-65.2,0-130.3,0-195.5
			c0-6,1.2-7.3,7.3-7.3c14.6,0,29.1,0,43.7,0c5.7,0,7.1,1.4,7.1,7.1c0,25.6,0,51.3,0,76.9C90.9,169.6,90.9,171.1,90.9,173.9z
			 M141.9,139.2c-1.2,1-1.7,1.3-2.1,1.7c-16.1,14.9-32.1,29.8-48.2,44.7c-2,1.9-3.9,4.3-7.2,2.8c-3.2-1.5-2.6-4.6-2.6-7.3
			c0-16.2-0.1-32.4,0.1-48.7c0-3-0.9-3.7-3.7-3.7c-10.7,0.2-21.4,0.2-32,0c-3.4-0.1-4.4,0.7-4.4,4.3c0.1,49.2,0.1,98.4,0,147.7
			c0,3.7,0.8,4.8,4.7,4.8c46.7-0.1,93.4-0.1,140.2-0.1c1.2,0,2.4,0.4,3.6-0.4c-0.4-1.5-1.7-2.2-2.6-3.1c-4.8-4.8-9.6-9.6-14.4-14.4
			c-4.3-4.3-4.3-5.7-0.1-9.9c1.4-1.4,2.8-2.7,4.1-4.1c0.7-0.7,1.5-1.4,1-2.5c-0.5-0.9-1.4-0.6-2.2-0.7c-2.4,0-4.7,0-7.1,0
			c-3.7,0-5.7-1.6-5.7-5.5c0-9.2,0-18.3,0-27.5c0-3.6,1.9-5.3,5.4-5.3c2.5,0,5,0,7.5,0c0.8,0,1.7,0.2,2.1-0.8
			c0.4-0.9-0.2-1.6-0.8-2.2c-1.8-1.8-3.5-3.5-5.3-5.3c-2.6-2.6-2.8-5.3-0.1-7.9c6.4-6.4,12.8-12.7,19.1-19.1c2.6-2.6,5.3-2.8,7.9,0
			c1.5,1.6,3.1,3.2,4.7,4.7c0.8,0.7,1.4,2,2.7,1.5c1.4-0.5,0.8-1.9,0.8-2.9c0-11.1,0-22.2,0-33.3c0-1,0.5-2.2-0.7-3.2
			c-3.9,3-7.9,6.1-11.8,9.1c-14.8,11.4-29.6,22.9-44.4,34.3c-1.8,1.4-3.7,2.6-6.1,1.5c-2.3-1.1-2.7-3.3-2.7-5.6c0.1-2.9,0-5.8,0-8.7
			C141.9,162.6,141.9,151.3,141.9,139.2z M226.7,285.3c1.1,0,2.2,0,3.3,0c6.6,0,6.7,0,6.7-6.8c0-2.3,0-4.4,2.1-5.9
			c6.5-4.8,10.7-4.5,16.5,1.3c0.3,0.3,0.6,0.6,0.9,0.9c1.2,1.6,2.3,1.5,3.7,0.1c2.4-2.5,4.9-4.9,7.3-7.4c5.1-5.1,5.1-5.1,0.1-10.1
			c-1.7-1.7-3.3-3.3-2.6-6.1c2.2-8.7,3.8-10.1,12.6-10.2c0.3,0,0.6,0,0.8,0c2.2,0.3,2.9-0.7,2.8-2.8c-0.1-4.2-0.4-8.3,0.1-12.5
			c0.4-4.2-1.2-5.3-5.1-4.9c-2.7,0.3-5.6,0.7-7.7-2c-4.8-6.3-4.5-10.8,1.1-16.5c0.3-0.3,0.6-0.6,0.9-0.9c1.9-1.4,1.4-2.6-0.1-4
			c-2.8-2.6-5.5-5.5-8.3-8.2c-4-4-4-4-8,0c-1.9,1.9-3.6,4.3-7,3.5c-8.3-1.8-10.2-4-10.3-12.5c0-0.4,0-0.8,0-1.2
			c0.2-2-0.7-2.7-2.6-2.6c-3.6,0.1-7.2,0-10.8,0c-6.6,0-6.6,0-6.6,6.5c0,2.4,0.1,4.8-2.1,6.4c-6.5,4.8-10.7,4.5-16.5-1.3
			c-0.3-0.3-0.6-0.6-0.9-0.9c-1.2-1.6-2.3-1.4-3.7,0c-2.4,2.5-4.9,4.9-7.3,7.4c-5.1,5.1-5.1,5.1-0.1,10.1c1.7,1.7,3.1,3.4,2.4,6.2
			c-2.1,8.5-3.9,10-12.7,10.2c-0.3,0-0.6,0-0.8,0c-2-0.2-2.7,0.6-2.7,2.6c0.1,4,0,8,0,12.1c0.1,6.3-0.8,5.3,5.6,5.4
			c2.6,0.1,5.3-0.5,7.2,2.1c4.7,6.5,4.4,10.6-1.1,16.2c-0.3,0.3-0.6,0.6-0.9,0.9c-2,1.5-1.5,2.7,0.1,4.3c2.8,2.6,5.5,5.5,8.3,8.2
			c3.9,3.9,4.1,4.1,7.7,0c3.2-3.7,6.5-4.9,10.8-2.1c1,0.7,2.3,0.9,3.5,1.4c2.1,0.9,3.1,2.5,3.3,4.9c0.2,2.7-1.4,6.5,0.7,7.9
			c2,1.4,5.6,0.5,8.5,0.5C226.1,285.3,226.4,285.3,226.7,285.3z M62,93.1c-5.7,0-11.3,0.1-17,0c-2.3-0.1-3.2,0.6-3.1,3
			c0.1,6.9,0.1,13.8,0,20.7c0,2,0.4,2.9,2.7,2.9c11.5-0.1,23-0.1,34.4,0c2.5,0,2.9-1,2.9-3.2c-0.1-6.8-0.2-13.6,0-20.3
			c0.1-2.7-1-3.2-3.4-3.2C73,93.2,67.5,93.1,62,93.1z M199.7,284c0.3,0.4,0.5,0.9,0.8,1.3c1.3,0,2.7,0.1,4,0c1.2-0.1,3.1,0.7,3-1.6
			c0-1.4,0.8-3.3-0.6-4.2c-1.7-1.1-2.5,1-3.6,1.8C202.1,282.2,200.9,283.1,199.7,284z M114.7,46.6c-3.7,3.4-4.2,6.3-1.7,8.9
			c2.4,2.5,5.1,2.2,8.7-1c0.3-0.3,0.6-0.6,0.9-0.9c13.1-11.2,28.2-15.4,45.2-12.3c10.4,1.9,19.1,6.9,26.9,14c2.9,2.7,6,2.5,8-0.1
			c2.2-2.9,1.4-5.4-1.1-7.7c-8.7-8.1-18.4-13.7-27.3-16.3c-0.8-0.2-1.6-0.4-2.4-0.6c-2.7-0.6-5.4-0.9-7.9-0.9
			C141.5,29.8,127,35.2,114.7,46.6z M187.1,60.1c-9.8-8.6-21.2-12.4-34.1-11c-9.9,1.1-18.6,5.2-25.9,12.1c-2.5,2.3-3.1,5.1-0.9,7.7
			c2.3,2.7,5.1,2.4,7.7,0.2c0.5-0.4,1-0.9,1.6-1.4c9.9-8.4,21.2-10.1,33.4-6.3c4.9,1.5,8.8,4.6,12.6,7.8c1.7,1.4,3.7,1.9,5.8,0.7
			c1.8-1,2.9-2.5,2.8-4.7C190.2,62.9,188.7,61.5,187.1,60.1z M140.9,73.9c-2.8,2.6-3.4,5.7-1.4,8c2.5,2.9,5.2,2.3,8.1,0.2
			c7.6-5.6,13.2-5.4,20.7,0.3c3.1,2.4,6.1,2.4,8-0.2c2.2-2.9,1.3-5.4-1.1-7.7c-4.9-4.7-10.9-7-17.6-7.1
			C151.6,67.5,145.2,70,140.9,73.9z M157.4,99.7c3.9,0.1,6.9-2.7,7.1-6.5c0.1-3.9-2.7-6.9-6.5-7.1c-3.8-0.1-6.9,2.7-7.1,6.5
			C150.8,96.6,153.6,99.6,157.4,99.7z M54.3,235.3c0-4.2,0-8.3,0-12.5c0-3.4,1.6-5.2,5-5.2c8.4,0,16.9,0,25.3,0c3.2,0,5,1.7,5,4.8
			c0.1,8.6,0.1,17.2,0,25.7c0,3.2-1.9,4.8-5.1,4.8c-8.4,0-16.9,0.1-25.3,0c-3.3,0-5-1.9-5-5.3C54.4,243.6,54.3,239.4,54.3,235.3z
			 M80.9,234.9c0-8.4,0-8.4-8.1-8.4c-9.5,0-9.5,0-9.5,9.4c0,8.2,0,8.2,8.3,8.2C80.9,244.1,80.9,244.1,80.9,234.9z M124.4,217.6
			c4.2,0,8.3,0,12.5,0c3.8-0.1,5.7,1.7,5.7,5.5c0,8.2,0,16.3,0,24.5c0,3.5-1.8,5.4-5.4,5.4c-8.3,0-16.6,0-24.9,0
			c-3.6,0-5.3-2-5.3-5.5c0-8.2,0-16.3,0-24.5c0-3.5,1.8-5.4,5.4-5.4C116.3,217.6,120.3,217.6,124.4,217.6z M133.5,235.3
			c0-8.8,0-8.8-8.4-8.8c-9.1,0-9.1,0-9.1,9c0,8.6,0,8.6,8.7,8.6C133.5,244.1,133.5,244.1,133.5,235.3z M255.6,230.9
			c0.1,15.7-12.9,28.8-28.8,29.1c-15.6,0.2-29-12.9-29.2-28.6c-0.2-15.9,13-29.2,29-29.2C242.4,202,255.5,215.1,255.6,230.9z
			 M246.6,230.7c-0.1-10.8-9.3-19.7-20.2-19.6c-10.8,0.1-19.8,9.3-19.6,20.1c0.1,10.7,9.5,19.9,20.2,19.7
			C237.7,250.7,246.7,241.5,246.6,230.7z"/>
	</defs>
	<clipPath id="SVGID_2_">
		<use xlink:href="#SVGID_1_"  style="overflow:visible;"/>
	</clipPath>
	
		<linearGradient id="SVGID_3_" gradientUnits="userSpaceOnUse" x1="-131.1931" y1="591.1848" x2="-126.5391" y2="591.1848" gradientTransform="matrix(62.0745 0 0 -62.0745 8159.4102 36862.4102)">
		<stop  offset="0" style="stop-color:#1D9ADD"/>
		<stop  offset="1" style="stop-color:#EBE717"/>
	</linearGradient>
	<rect x="13.2" y="26.5" class="st0" width="293.8" height="276.8"/>
</g>
</svg>
