<?xml version="1.0" encoding="utf-8"?>
<!-- Generator: Adobe Illustrator 22.0.1, SVG Export Plug-In . SVG Version: 6.00 Build 0)  -->
<svg version="1.1" id="Layer_1" xmlns="http://www.w3.org/2000/svg" xmlns:xlink="http://www.w3.org/1999/xlink" x="0px" y="0px"
	 viewBox="0 0 500 500" style="enable-background:new 0 0 500 500;" xml:space="preserve">
<style type="text/css">
	.st0{fill:#231F20;}
	.st1{display:none;fill:#231F20;}
	.st2{fill:#FAFAFA;}
	.st3{fill:#F9F9F9;}
	.st4{fill:#F5F5F5;}
	.st5{fill:#F6F6F6;}
	.st6{fill:#F3F3F3;}
	.st7{fill:#F7F7F7;}
	.st8{fill:#FFFFFF;}
	.st9{fill:none;stroke:#231F20;stroke-width:6;stroke-miterlimit:10;}
</style>
<g id="Troll">
	<g>
		<path class="st0" d="M362.5,142.3c0.5-0.6,1-1.2,1.4-1.9c0.1-0.3,0.2-0.5,0.3-0.8c7.9-15.5,9.8-33.3,6.4-50.5
			c-0.1-0.6-0.7-1.1-1.4-1.2c-0.7,0.2-1.4,0.4-2.2,0.6c-0.3,0.1-0.6,0.2-0.9,0.4c-0.1,0-0.2,0-0.2,0c-1.7,0.6-3.3,1.2-4.9,2
			c-2.2,1.1-4.1,2.5-6.2,3.5c-8.8,5.1-16.9,11.7-23,19.8c-2.2,2.1-4.3,4.3-6.3,6.5c-0.1,0.1-0.1,0.1-0.2,0.2
			c-1.2,1.1-1.9,3.1-0.4,4.2c1.1,0.8,2.8,0.9,4.2,0.9c0,0,0.1,0,0.1,0c2.9-0.9,5.8-1.7,8.7-2.6c-0.8,1-1.5,2-2.3,3
			c-1.5,2,1,4.3,2.9,3.8c2.4-0.5,4.7-0.8,6.9-0.8c-2.1,1.3-4.2,2.6-6.3,4.2c-2.1,1.6-1.4,4.6,1.3,4.9c5.6,0.7,10.8,2.3,15.8,4.8
			C358.7,143.6,360.6,144.5,362.5,142.3z M357.8,126.7c-0.1-0.9-1.6-1.1-2.7-1.4c-3.9-0.9-7.6-1.3-11.4-1.1c0.6-0.8,1.1-1.5,1.7-2.3
			c0.9-0.8,2.1-2.4,2.8-3.4c1.7-2.4,1.4-4.5-4.2-2.5c-1.8,0.7-3.7,1.3-5.5,1.9c-1.1,0.3-2.3,0.5-3.4,0.9c2.8-2.3,5.6-4.7,8.4-7
			c5.4-4.4,9.4-8.3,15.3-12.4c5.9-5.4,6.4-3.7,6.3-1.5l0,3.4c-0.7,5.4-0.6,10.8-1.5,16.2c-1.1,7-3,13.9-5.2,20.6
			c-1.3-0.6-2.6-1.2-4-1.7c-2.1-1.1-4.3-1.9-6.7-2.3c2.4-1.5,4.8-2.7,7.5-3.8c0.4-0.2,0.7-0.4,1-0.7
			C357,129.3,358.2,127.6,357.8,126.7z"/>
		<path class="st0" d="M121.6,151.4c5-2.5,10.2-4.2,15.8-4.8c2.7-0.3,3.4-3.3,1.3-4.9c-2-1.5-4.1-2.9-6.3-4.2c2.3,0,4.6,0.3,6.9,0.8
			c2,0.4,4.4-1.9,2.9-3.8c-0.8-1-1.5-2-2.3-3c2.9,0.9,5.8,1.7,8.7,2.6c0,0,0.1,0,0.1,0c1.3,0,3-0.1,4.2-0.9c1.5-1.1,0.8-3.2-0.4-4.2
			c-0.1-0.1-0.1-0.1-0.2-0.2c-2-2.2-4.1-4.4-6.3-6.5c-6-8.1-14.2-14.7-23-19.8c-2.1-1.1-4.1-2.5-6.2-3.5c-1.6-0.8-3.2-1.4-4.9-2
			c-0.1,0-0.2,0-0.2,0c-0.3-0.1-0.6-0.2-0.9-0.4c-0.7-0.2-1.4-0.4-2.2-0.6c-0.6,0.1-1.3,0.6-1.4,1.2c-3.5,17.2-1.5,35,6.4,50.5
			c0.1,0.3,0.2,0.5,0.3,0.8c0.5,0.6,0.9,1.3,1.4,1.9C117.4,152.6,119.3,151.6,121.6,151.4z M121.9,137.8c0.3,0.3,0.6,0.5,1,0.7
			c2.6,1.1,5.1,2.4,7.5,3.8c-2.4,0.4-4.6,1.2-6.7,2.3c-1.3,0.5-2.7,1.1-4,1.7c-2.3-6.7-4.1-13.6-5.2-20.6
			c-0.9-5.4-0.8-10.8-1.5-16.2l0-3.4c-0.2-2.2,0.3-3.8,6.3,1.5c5.9,4.1,9.9,8,15.3,12.4c2.8,2.3,5.6,4.7,8.4,7
			c-1.1-0.4-2.2-0.6-3.4-0.9c-1.8-0.7-3.7-1.3-5.5-1.9c-5.5-2-5.9,0.1-4.2,2.5c0.7,1,1.9,2.6,2.8,3.4c0.6,0.8,1.1,1.5,1.7,2.3
			c-3.8-0.2-7.5,0.1-11.4,1.1c-1.2,0.3-2.6,0.5-2.7,1.4C119.7,135.6,121,137.4,121.9,137.8z"/>
		<path class="st1" d="M225,195.2c-0.2,0-0.4-0.1-0.6,0c-0.9,0.1-3.4,0.7-4.2,1.9c0.1,0.3,0.1,0.6,0.3,0.8
			c12.1,18.1-30.3,16-37.9,16.1c-12.3,0.3-26.5-1.3-38.7,1.5c-1.4,1.1-2.6,2.6-3.2,4.3c-1.8,9.7-1.5,20.1,6.7,27
			c5.9,5,14.4,7.7,22.6,9.2c4.2,1.1,8.5,1.8,12.5,2c10.9,0.6,21.7-0.5,29.5-8.9c7-7.5,9.8-17.8,9.6-27.8c0-0.9-0.5-1.6-1.1-1.9
			c0.7-0.3,1.3-0.7,1.9-1.1c3.8-3.3,5.4-7.9,5.4-12.9c0-2.2-0.2-4.7-1-6.9C226.5,197.8,225.8,195.8,225,195.2z M178.7,251.2
			c-6.9-0.5-14.9-2.1-21.5-5.1c-5.3-3.3-9.5-7.8-11.5-13.6c-0.7-3.6-0.7-7.6-0.6-11.5c9.4,0.6,18.8,0.6,28.2,0.6
			c-3.4,2.3-5.9,5.6-5.9,10.2c0,6.5,5.6,10.4,11.5,11.4c6.3,1.1,13.6-0.3,16.3-6.7c2.2-5.1,0.9-11.7-3.6-15.2
			c4.9-0.1,9.8-0.1,14.7-0.1c2.4,0,5,0.1,7.5-0.1C218.8,241.7,196.4,252.5,178.7,251.2z"/>
		<path class="st1" d="M244.7,196.6c-0.8,2.1-0.9,4.6-1,6.9c0,5,1.5,9.6,5.4,12.9c0.6,0.4,1.2,0.8,1.9,1.1c-0.6,0.3-1.1,1-1.1,1.9
			c-0.3,10,2.6,20.4,9.6,27.8c7.8,8.4,18.6,9.4,29.5,8.9c4-0.2,8.3-0.9,12.5-2c8.2-1.4,16.7-4.2,22.6-9.2c8.2-6.9,8.5-17.2,6.7-27
			c-0.7-1.8-1.8-3.2-3.2-4.3c-12.1-2.8-26.4-1.3-38.7-1.5c-7.6-0.2-50.1,1.9-37.9-16.1c0.2-0.3,0.3-0.6,0.3-0.8
			c-0.8-1.2-3.3-1.8-4.2-1.9c-0.2,0-0.4,0-0.6,0C245.7,193.8,245,195.8,244.7,196.6z M257.7,219.1c2.5,0.2,5,0.2,7.5,0.1
			c4.9,0,9.8,0,14.7,0.1c-4.4,3.5-5.8,10-3.6,15.2c2.8,6.4,10.1,7.8,16.3,6.7c5.9-1,11.5-4.9,11.5-11.4c0-4.6-2.5-7.9-5.9-10.2
			c9.4,0.1,18.9,0,28.2-0.6c0.1,3.9,0.1,7.9-0.6,11.5c-2,5.8-6.2,10.3-11.5,13.6c-6.6,3-14.7,4.6-21.5,5.1
			C275.1,250.5,252.8,239.7,257.7,219.1z"/>
		<path class="st0" d="M252.3,258.1c-1.5-6.1-13.7-4.8-18.1-4.8c-4.3,0-15.3-1-13.6,6.2c0.8,3.1,4.1,6.3,6.2,8.6
			c2.1,2.3,4.4,4.4,6.8,6.2c0,0.2,4.5,3.1,4.8,3.1c0.2,0,1.8-1.3,2.1-1.7c3.2-3.7,6.6-7.4,9.6-11.3
			C251.5,262.7,252.9,260.5,252.3,258.1z"/>
		<path class="st0" d="M446.3,314.8c-13.6-5.9-28.6-8.2-43-7.7c-2.8,0.1-5.8,0.3-8.9,0.5c-0.3-5.6-0.5-11.2-0.9-16.8
			c8.2-2,16.4-3.7,24.9-4.6c2.9-0.7,5.9-1.2,8.3-3.1c1.7-1.3,3.2-3.2,3-5.8c0,0,0-0.1,0-0.1c-0.6-1.1-1.5-2-2.9-2.1
			c-11.2-0.7-22.9,0.5-34,4.1c-0.2-2-0.3-4.1-0.5-6.1c-2.7-31.9-6.5-65.6-16.7-95.2c7-20.6,11.2-42.7,10.9-65.3
			c-0.1-11.7-1.6-41.3-13.9-43.8c-5.6-1.1-12.5,4.3-17.5,7.2c-7.3,4.3-14.1,9.5-20.5,15.7c-10.3,10.1-19.2,22.7-23.9,38
			c-0.2-0.8-0.5-1.7-0.8-2.5c-0.1,0.6-0.2,1.1-0.3,1.7c-1.5,5.9-2.6,12.2-5.6,17.1c2.5-1.3,5-2.6,7.5-3.9c0.3-0.2,0.5-0.4,0.7-0.6
			c0.5-0.2,0.9-0.7,1.1-1.4c0.6-1.7,1.4-3.3,2.1-4.9c0.3-1.2,0.7-2.3,1.4-3.2c2.1-4.6,4.3-9.1,6.7-13.2c3.3-5.1,6.9-10,10.9-14.5
			c9.7-10.6,21-19,33.1-24.3c0.6-0.3,1.4-0.7,2.2-1.1c1.9,0.2,3.4,1.3,4.7,3c0.2,0.6,0.4,1.2,0.6,1.8c1.2,3.7,1.9,8,2.5,12
			c1.3,8.8,1.6,17.7,1.2,26.6c-0.8,17.3-4.6,34.1-9.8,50.1c0.7,3.1,0.5,6.7,0.4,9.8c0,0,0,0,0,0.1c1.2,13.8,4.4,27.9,6.2,41.4
			c2.4,18.3,4.5,36.6,6.1,55c0.1,1.7,0.3,3.4,0.4,5.1c-6,3-11.7,6.8-16.9,11.6c-2.8,2.6-0.5,7.7,2.7,5.9c5-2.8,9.9-5.3,14.8-7.4
			c0.1,0,0.1,0,0.2-0.1c0.4,5.2,0.7,10.4,1,15.6c-5,1-9.9,2.6-14.4,5c-0.2,0.3-0.5,0.6-1,0.7c-0.2,0.1-0.4,0.2-0.6,0.2
			c-0.1,0.1-0.2,0.2-0.4,0.2c-2.2,1.4-3.9,3-5.1,5.6c0,1.6,0.9,3.1,2.4,3c6.6-0.6,13.1-2.3,19.7-3.8c0.3,5.1,0.5,10.2,0.7,15.4
			c-7.7-1.1-15.2-0.6-21.7,3c-2,1.1-1.4,5.2,0.6,5.8c7,1.9,14.3,1.7,21.5,2.5c0.4,12.6,0.6,25.3,0.7,37.9c0,1.5,0.7,2.3,1.6,2.7
			c0.2,0.3,0.5,0.6,1,0.7c2.1,0.6,7.7-10.6,7.1-10.7c-0.1-9.6-0.2-19.1-0.3-28.7c9.8,2.9,19.3,7.4,28.8,11.6c1.9,0.8,3.3-0.2,4-1.8
			c0.1-1.6-0.1-3.2-0.7-4.7c-0.8-2-2.2-3.5-3.8-4.6c-4.5-2.3-9.1-4.3-14-6c-4.7-2-9.6-4-14.5-5.4c-0.1-6.6-0.3-13.2-0.6-19.8
			c2.8-0.5,5.6-0.8,8.4-0.9c14.1-0.4,27.3,2.7,40.9,7.2C449.1,326,451,316.8,446.3,314.8z"/>
		<path class="st0" d="M29.7,314.8c13.6-5.9,28.6-8.2,43-7.7c2.8,0.1,5.8,0.3,8.9,0.5c0.3-5.6,0.5-11.2,0.9-16.8
			c-8.2-2-16.4-3.7-24.9-4.6c-2.9-0.7-5.9-1.2-8.3-3.1c-1.7-1.3-3.2-3.2-3-5.8c0,0,0-0.1,0-0.1c0.6-1.1,1.5-2,2.9-2.1
			c11.2-0.7,22.9,0.5,34,4.1c0.2-2,0.3-4.1,0.5-6.1c2.7-31.9,6.5-65.6,16.7-95.2c-7-20.6-11.2-42.7-10.9-65.3
			c0.1-11.7,1.6-41.3,13.9-43.8c5.6-1.1,12.5,4.3,17.5,7.2c7.3,4.3,14.1,9.5,20.5,15.7c10.3,10.1,19.2,22.7,23.9,38
			c0.2-0.8,0.5-1.7,0.8-2.5c0.1,0.6,0.2,1.1,0.3,1.7c1.5,5.9,2.6,12.2,5.6,17.1c-2.5-1.3-5-2.6-7.5-3.9c-0.3-0.2-0.5-0.4-0.7-0.6
			c-0.5-0.2-0.9-0.7-1.1-1.4c-0.6-1.7-1.4-3.3-2.1-4.9c-0.3-1.2-0.7-2.3-1.4-3.2c-2.1-4.6-4.3-9.1-6.7-13.2
			c-3.3-5.1-6.9-10-10.9-14.5c-9.7-10.6-21-19-33.1-24.3c-0.6-0.3-1.4-0.7-2.2-1.1c-1.9,0.2-3.4,1.3-4.7,3c-0.2,0.6-0.4,1.2-0.6,1.8
			c-1.2,3.7-1.9,8-2.5,12c-1.3,8.8-1.6,17.7-1.2,26.6c0.8,17.3,4.6,34.1,9.8,50.1c-0.7,3.1-0.5,6.7-0.4,9.8c0,0,0,0,0,0.1
			c-1.2,13.8-4.4,27.9-6.2,41.4c-2.4,18.3-4.5,36.6-6.1,55c-0.1,1.7-0.3,3.4-0.4,5.1c6,3,11.7,6.8,16.9,11.6
			c2.8,2.6,0.5,7.7-2.7,5.9c-5-2.8-9.9-5.3-14.8-7.4c-0.1,0-0.1,0-0.2-0.1c-0.4,5.2-0.7,10.4-1,15.6c5,1,9.9,2.6,14.4,5
			c0.2,0.3,0.5,0.6,1,0.7c0.2,0.1,0.4,0.2,0.6,0.2c0.1,0.1,0.2,0.2,0.4,0.2c2.2,1.4,3.9,3,5.1,5.6c0,1.6-0.9,3.1-2.4,3
			c-6.6-0.6-13.1-2.3-19.7-3.8c-0.3,5.1-0.5,10.2-0.7,15.4c7.7-1.1,15.2-0.6,21.7,3c2,1.1,1.4,5.2-0.6,5.8c-7,1.9-14.3,1.7-21.5,2.5
			c-0.4,12.6-0.6,25.3-0.7,37.9c0,1.5-0.7,2.3-1.6,2.7c-0.2,0.3-0.5,0.6-1,0.7c-2.1,0.6-4.2,1-6.3,1.4c0-4.2-0.7-31.2-0.5-40.8
			c-9.8,2.9-19.3,7.4-28.8,11.6c-1.9,0.8-3.3-0.2-4-1.8c-0.1-1.6,0.1-3.2,0.7-4.7c0.8-2,2.2-3.5,3.8-4.6c4.5-2.3,9.1-4.3,14-6
			c4.7-2,9.6-4,14.5-5.4c0.1-6.6,0.3-13.2,0.6-19.8c-2.8-0.5-5.6-0.8-8.4-0.9c-14.1-0.4-27.3,2.7-40.9,7.2
			C26.9,326,25,316.8,29.7,314.8z"/>
		<g>
			<g>
				<path class="st0" d="M351.8,309.8c4.8-7.3,10.3-14.1,15.4-21.2c1.6-3.2-0.6-6.9,1.5-10c2.1-2.6,3.5-6.4,8-5.3
					c2.3-2.2,7.3,2.2,8.2-3.4c-7.7-6.6-19.4-9.5-19.9-22.5c0-0.8-2.3-0.2-3.1,1.1c-1.3,2.3,0.4,5.1-1.4,7.2
					c-3.5,2.1-6.8,5.4-10.6,6.1c-0.8,0.1-1.5,0.3-2.3,0.5c0.6,2.7-1,5.9-4.7,6.2c-3.5,0.3-7,0.3-10.5,0c-3.7,1.8-7.4,3.7-11.4,5
					c-11.1,3.7-22.1,7.9-32.9,12.3c-9.9,4.1-21.2,4.6-31.4,8.7c0.1,0.4,0.2,0.9,0.6,0.4c0.7-0.8,0.9,0.8-0.1,0.6
					c-1.7-0.2-3.5,0.2-5.1-0.5c-6.1,1.4-12.3,2.7-18.4,4.1c-3.5,1.6-3.7,1.6-7.9-0.3c-1.4-0.1-3-0.7-4.1,0.8
					c-26.4,3.2-52,2.1-75.9-12c-6.9-4.1-11-8.5-11.7-16.2c-0.2,0.1-0.4,0.3-0.7,0.4c-0.1,0-0.3-0.3-0.3-0.5c0-2.9-0.3-5.9,0-8.8
					h-5.2c-2.7,9.4-9.5,17.2-9.9,27.3c1.7,9.8-0.9,19.6,0.2,29.5c0.6,5.2,2.7,10.4,1.4,15.8c3.2,18.4,12.4,31,32.1,33.6
					c2,0.2,4.2-1.8,5.9,0.8c15.1,3.9,30.4,4.1,45.8,4.3c3.2-0.9,6.4-0.9,9.6,0c12.1-0.2,24.2-0.2,36.1-2.8c-0.5-0.6-1.1-0.9-1.7-1
					c2.8-0.1,6.1-0.4,9.3,0.4c8.9-1.6,17.5-3.8,25.7-6.6c2.1-0.9,4.2-1.7,6.4-2.4C314.5,351.3,335.6,334.5,351.8,309.8z"/>
				<path class="st2" d="M276.8,335c0.5,5.5,4.4,9.5,6.2,14.5c1,2.8,1.6,5-2.3,5.6c-7,1.1-12.7,6.6-20.3,6c-1.2-0.1-2.4,0.9-3.6,1.4
					c-5.3,1.3-10.5,1.9-15.8-0.3c0.2-0.5,0.1-0.9-0.3-1.2c-0.9-2.7-0.8-5.3-0.1-8c0.3-1.9,0.2-3.8-1.1-5.4c-1.5-3.1-2-6.1,0.2-9
					c1.1-0.5,2.1-1,3.2-1.5c1.8-1.8,3.9-0.9,6-0.7c9.4-2,18.3-5.5,27.2-9.1C278.3,329.6,277,332.4,276.8,335z"/>
				<path class="st2" d="M283.8,325.6c12.4-3.4,24.1-8.5,36.2-14.4c0,5.8,0.4,11.2,3.9,15.6c3.1,3.8-1.8,5.6-2.7,5.9
					c-10.5,4.8-18.6,13.6-29.7,17.9c-1-7.5-7.1-13-8.5-20.6C281.9,328.2,281.3,326.6,283.8,325.6z"/>
				<path class="st3" d="M320.4,293c-6.8,9.6-17.1,12.9-27.9,14.9c-4.5,0.8-7.2,5.1-12,4.7c-0.7-2-1.5-4.5-2.4-7
					c-1.4-1.4-0.9-2.9-0.5-4.5c-1.6-3.9-0.2-5.5,3.8-6.5c13.4-3.5,26.6-7.5,39.9-11.2C324.3,287,323,290.1,320.4,293z"/>
				<path class="st3" d="M269.8,300c0.1,1.7-0.1,3.6,1.5,4.9c2,1.7,1,3.9,0.7,5.9c-0.3,2.1,2.2,4.6-0.9,6.2c-1.8,1.9-3.9,1-5.9,0.7
					c-5.8,0.4-10.7,4.7-16.7,4.2c-5.2,1.6-10.4,2-15.6-0.2l0.3,0.3c-2.2-4.7-1.4-9.6-0.5-14.4c5.5-1.6,10.9-3.2,16.4-4.8
					c1.4-1.3,3-0.9,4.6-0.5c3.8-1.2,8.2-0.4,11.8-2.6C267,298.4,268.5,298,269.8,300z"/>
				<path class="st3" d="M233.1,357.7c1.9,4.3,0.5,6.9-4.1,7.9c-7.4,1.3-14.7,2.6-22-0.6c-0.3-2.6,0.4-5.4-1.5-7.6
					c-1.6-1.2-1-2.8-0.7-4.4c1.9-3.8,1.1-10.8,8.9-7.4c1,0.4,1.4,0.3,0.4,0.1c-0.1,0,0-0.5-0.1-0.8c0.1-0.8,0.4-1.4,0.8-2
					c1.1-0.4,2.2-0.5,3.3,0.1c1.9,0.3,3.6-0.2,5.1-1.3c1.4-1.3,3-0.8,4.6-0.6c8.8-2.9,3.8,4.4,5.2,7
					C233.8,351.3,233.7,354.5,233.1,357.7z"/>
				<path class="st3" d="M330.4,297.1c-1.3-5,0.3-8.8-1.9-12.3c-0.9-1.5-0.8-4.1,1.9-5.4c8.7-4.2,17.2-8.7,25.9-12.9
					c2.3-1.1,5.7-2.5,7.3-0.3c1.4,1.9,0.2,5-0.9,7.6c-3.8,9.6-11.9,13.9-20.8,17.6C338.1,293,333.3,291.8,330.4,297.1z"/>
				<path class="st4" d="M186.9,307.9c8.9-0.1,3.7,8.1,6.7,11.5c0.4,2.2-0.8,3.2-2.8,3.6c-4.3-0.4-8.7,1-12.8-0.9
					c-4.1-2.7-10.3,0.3-13.6-4.7c0.1-4.1,0.4-8.1,3.4-11.3c2.2,0.4,4.4,0.8,6.7,1.2C178.7,306.9,182.9,305.9,186.9,307.9z"/>
				<path class="st5" d="M189.5,365.6c-3.8-1.5-12.7-14.6-12.9-18.4c-0.1-2.6,1.7-2.1,3.1-2.5c9.1-2.2,15.8,1.6,18.6,10.5
					c0.6,2,1.2,4,1.8,6.1c1.1,1.6,1.7,3.1-0.4,4.4l0.3-0.3C196.7,367.5,193.1,367.1,189.5,365.6z"/>
				<path class="st6" d="M219.7,307.2c2.1,0.3,4.4-1.1,6.5,0.6c1.1,4.8,2,9.5-0.5,14.2l0.4,0l0-0.4c-8.4,2.7-17,1.6-25.5,0.5
					c-2.3-4.4,0.1-8.9,2.1-11.9c1.9-2.9,7.6,0.2,11-2.5C215.5,306.1,217.6,306.8,219.7,307.2z"/>
				<path class="st5" d="M351.2,296.7c-5.6,8-9.7,14.2-14.2,20.1c-1.7,2.2-4.5,5.3-7.2,3.8c-3-1.6-2.5-5.7-1.6-8.8
					C331.2,301,341,300.5,351.2,296.7z"/>
				<path class="st7" d="M146.7,299.4c5.4-1,10.5,2.2,12.6,5.5c2.3,3.7-1.4,10.5-3.7,12.8c-3,3-8.5-0.2-10.1-5.5
					C144.2,307.8,143.2,303.4,146.7,299.4z"/>
				<path class="st8" d="M161.1,343.4c10.9,1.8,9.2,12.3,14.1,19.6c-6.8-0.4-12.9,0.6-13.2-8.4c-0.1-4.1-5.3-6.7-5.1-11.4
					C158.3,342.1,159.7,341.9,161.1,343.4z"/>
				<path class="st8" d="M138.8,355c13.2-2.4,0.3-10.1,4.5-15.1c5.6,4.5,8.5,10.8,10.1,17.4c0.9,3.7-4.1,2.4-4.5,2
					C146.2,356.8,142.2,357.7,138.8,355z"/>
				<path class="st8" d="M131.3,302.9c2.5-3.5,2.7-8.4,7.3-11.5c0.2,3.2,0.4,5.7,0.6,8.1c0.5,2.6,1.2,5.3-0.5,7.7
					c-2.6,1.5,0.2,6.3-4.2,6.6c-2.4,0.2-1.9-2.1-2.8-3.1C129.5,308.3,129,305.6,131.3,302.9z"/>
				<path class="st8" d="M135.3,345c0,2.2,2.3,4.8-1.2,6.2C133.7,349,130.6,346.2,135.3,345z"/>
			</g>
		</g>
		<g>
			<path class="st0" d="M172,145.8c0-9.1,28.6-14.1,80-14.1"/>
			<path class="st0" d="M304,145.8c0-9.1-18.6-14.1-52-14.1"/>
			<polygon class="st0" points="213.7,166.2 191.7,140.4 226.1,134 			"/>
			<polygon class="st0" points="268.5,165.2 255.7,133.2 290.2,139.1 			"/>
			<polygon class="st0" points="241.5,175.5 224,132.1 258.9,132.1 			"/>
		</g>
		<g>
			<path class="st9" d="M216.3,242.5c2.9-5.8-17.5-41-44.1-41c-25.8,0-46.1,33.1-43.3,39c2.1,4.6,17.1-9.5,43.7-9
				C199.4,232,214.1,246.9,216.3,242.5z"/>
			<ellipse class="st0" cx="192.4" cy="219" rx="6.8" ry="11.5"/>
			<path class="st9" d="M337,242.5c2.9-5.8-17.5-41-44.1-41c-25.8,0-46.1,33.1-43.3,39c2.1,4.6,17.1-9.5,43.7-9
				C320.1,232,334.8,246.9,337,242.5z"/>
			<ellipse class="st0" cx="313.2" cy="219" rx="6.8" ry="11.5"/>
		</g>
	</g>
</g>
</svg>
