<?xml version="1.0" encoding="utf-8"?>
<!-- Generator: Adobe Illustrator 22.0.1, SVG Export Plug-In . SVG Version: 6.00 Build 0)  -->
<svg version="1.1" id="Layer_1" xmlns="http://www.w3.org/2000/svg" xmlns:xlink="http://www.w3.org/1999/xlink" x="0px" y="0px"
	 viewBox="0 0 500 500" style="enable-background:new 0 0 500 500;" xml:space="preserve">
<style type="text/css">
	.st0{fill:url(#XMLID_3_);}
	.st1{fill:url(#SVGID_1_);}
	.st2{fill:url(#SVGID_2_);}
	.st3{fill:#231F20;}
</style>
<g id="GRumpy">
	<g>
		<g>
			
				<linearGradient id="XMLID_3_" gradientUnits="userSpaceOnUse" x1="-2225.8281" y1="2417.6365" x2="-2135.718" y2="2327.5261" gradientTransform="matrix(-0.2712 -0.9625 0.9625 -0.2712 -2604.6438 -1329.7783)">
				<stop  offset="9.677000e-02" style="stop-color:#0095D5"/>
				<stop  offset="0.3007" style="stop-color:#238AD9"/>
				<stop  offset="0.6211" style="stop-color:#557BDE"/>
				<stop  offset="0.8643" style="stop-color:#7472E2"/>
				<stop  offset="1" style="stop-color:#806EE3"/>
			</linearGradient>
			<polygon id="XMLID_2_" class="st0" points="296.9,217.9 178.9,151.7 245.2,34.3 			"/>
			
				<linearGradient id="SVGID_1_" gradientUnits="userSpaceOnUse" x1="-2263.2505" y1="2220.6235" x2="-2210.9143" y2="2168.2876" gradientTransform="matrix(-0.2712 -0.9625 0.9625 -0.2712 -2604.6438 -1329.7783)">
				<stop  offset="0.1183" style="stop-color:#0095D5"/>
				<stop  offset="0.4178" style="stop-color:#3C83DC"/>
				<stop  offset="0.6962" style="stop-color:#6D74E1"/>
				<stop  offset="0.8333" style="stop-color:#806EE3"/>
			</linearGradient>
			<polygon class="st1" points="113.3,269.6 87.4,177.5 212.8,241.6 			"/>
			
				<linearGradient id="SVGID_2_" gradientUnits="userSpaceOnUse" x1="-2308.7319" y1="2357.6538" x2="-2131.2502" y2="2180.1721" gradientTransform="matrix(-0.2712 -0.9625 0.9625 -0.2712 -2604.6438 -1329.7783)">
				<stop  offset="0.1075" style="stop-color:#C757BC"/>
				<stop  offset="0.2138" style="stop-color:#D0609A"/>
				<stop  offset="0.4254" style="stop-color:#E1725C"/>
				<stop  offset="0.6048" style="stop-color:#EE7E2F"/>
				<stop  offset="0.743" style="stop-color:#F58613"/>
				<stop  offset="0.8232" style="stop-color:#F88909"/>
			</linearGradient>
			<polygon class="st2" points="87.4,177.5 210.3,242.3 296.9,217.9 178.9,151.7 61.6,86 			"/>
		</g>
		<path class="st3" d="M345.5,231c0.5-0.6,1-1.2,1.4-1.9c0.1-0.3,0.2-0.5,0.3-0.8c7.9-15.4,9.8-33.1,6.4-50.2
			c-0.1-0.6-0.7-1.1-1.4-1.2c-0.7,0.2-1.4,0.4-2.2,0.6c-0.3,0.1-0.6,0.2-0.9,0.3c-0.1,0-0.2,0-0.2,0c-1.7,0.6-3.3,1.2-4.9,2
			c-2.2,1.1-4.1,2.5-6.2,3.5c-8.8,5-16.9,11.6-23,19.6c-2.2,2.1-4.3,4.2-6.3,6.4c-0.1,0.1-0.1,0.1-0.2,0.2c-1.2,1-1.9,3.1-0.4,4.2
			c1.1,0.8,2.8,0.8,4.2,0.9c0,0,0.1,0,0.1,0c2.9-0.9,5.8-1.7,8.7-2.6c-0.8,1-1.5,2-2.3,3c-1.5,2,1,4.2,2.9,3.8
			c2.4-0.5,4.7-0.8,6.9-0.8c-2.1,1.2-4.2,2.6-6.3,4.1c-2.1,1.6-1.4,4.6,1.3,4.9c5.6,0.7,10.8,2.3,15.8,4.8
			C341.7,232.3,343.6,233.2,345.5,231z M340.8,215.6c-0.1-0.9-1.6-1.1-2.7-1.4c-3.9-0.9-7.6-1.3-11.4-1.1c0.6-0.7,1.1-1.5,1.7-2.2
			c0.9-0.8,2.1-2.4,2.8-3.3c1.7-2.4,1.4-4.4-4.2-2.5c-1.8,0.7-3.7,1.3-5.5,1.9c-1.1,0.3-2.3,0.5-3.4,0.9c2.8-2.3,5.6-4.7,8.4-7
			c5.4-4.4,9.4-8.2,15.3-12.3c5.9-5.3,6.4-3.7,6.3-1.5l0,3.4c-0.7,5.4-0.6,10.7-1.5,16.1c-1.1,7-3,13.8-5.2,20.5
			c-1.3-0.6-2.6-1.2-4-1.7c-2.1-1.1-4.3-1.9-6.7-2.3c2.4-1.4,4.8-2.7,7.5-3.8c0.4-0.2,0.7-0.4,1-0.7
			C340,218.1,341.2,216.4,340.8,215.6z"/>
		<path class="st3" d="M229,270.2c-0.2,0-0.4-0.1-0.6,0c-0.9,0.1-3.4,0.7-4.2,1.9c0.1,0.3,0.1,0.6,0.3,0.8
			c12.1,18.1-30.3,16-37.9,16.1c-12.3,0.3-26.5-1.3-38.7,1.5c-1.4,1.1-2.6,2.6-3.2,4.3c-1.8,9.7-1.5,20.1,6.7,27
			c5.9,5,14.4,7.7,22.6,9.2c4.2,1.1,8.5,1.8,12.5,2c10.9,0.6,21.7-0.5,29.5-8.9c7-7.5,9.8-17.8,9.6-27.8c0-0.9-0.5-1.6-1.1-1.9
			c0.7-0.3,1.3-0.7,1.9-1.1c3.8-3.3,5.4-7.9,5.4-12.9c0-2.2-0.2-4.7-1-6.9C230.5,272.8,229.8,270.8,229,270.2z M182.7,326.2
			c-6.9-0.5-14.9-2.1-21.5-5.1c-5.3-3.3-9.5-7.8-11.5-13.6c-0.7-3.6-0.7-7.6-0.6-11.5c9.4,0.6,18.8,0.6,28.2,0.6
			c-3.4,2.3-5.9,5.6-5.9,10.2c0,6.5,5.6,10.4,11.5,11.4c6.3,1.1,13.6-0.3,16.3-6.7c2.2-5.1,0.9-11.7-3.6-15.2
			c4.9-0.1,9.8-0.1,14.7-0.1c2.4,0,5,0.1,7.5-0.1C222.8,316.7,200.4,327.5,182.7,326.2z"/>
		<path class="st3" d="M331.1,284.3c-0.2,0-0.3-0.1-0.5-0.2c-16.2,0.3-32.4,0.8-48.6,1.2c-3.5,0.1-7.1,0.2-10.6,0.3
			c-6.1,0.2-7.5,1.6-8-4.6c-0.7-7.9,2.2-16.8,4-24.7c0,0-0.1-0.1-0.1-0.1c-1.2-0.8-4-2.3-6-2c-3.8,8.3-6.1,17.1-6.9,26.2
			c-0.3,3.5-0.2,7.2,1.4,9.8c-6.2,23.3,18.8,39,39.1,40.1c11,0.6,22.5-1.7,30.1-10.1c3.2-3.6,5.5-7.8,7.1-12.3
			c0.8-2,1.4-4.1,1.8-6.4c0.7-3.4,1.1-6.9,1.3-10.4C334.9,288,334.2,284.8,331.1,284.3z M297.9,323.2c-18.7,0.1-35.5-10.5-36.4-29.5
			c5.2,0.9,11.2,0.5,16.4,0.6c1.2,0,2.4,0,3.7,0c-2.1,1.9-2.9,4.3-3.3,7.8c-0.2,4.6,1.5,8.4,6.4,11.3c8.3,5,21.6,2.9,23.7-7.9
			c0.1-0.7,0.2-1.4,0.2-2.1c0.2-1.9-0.2-3.6-1-5c-0.9-2-2.5-3.5-4.4-4.5c8.4-0.4,16.8-1,25.3-1.9
			C325.6,309.3,318.4,323.1,297.9,323.2z"/>
		<path class="st3" d="M266.9,389c-3.2-10.8-12.6-19.8-24.2-20.4c0-5.6,0.2-11.2,0.3-16.7c0.2-0.1,0.4-0.3,0.5-0.5
			c0.3-0.1,0.7-0.3,1-0.6c3.2-3.7,6.6-7.4,9.6-11.3c1.4-1.8,2.8-4.1,2.2-6.5c-1.5-6.1-13.7-4.8-18.1-4.8c-4.3,0-15.3-1-13.6,6.2
			c0.8,3.1,4.1,6.3,6.2,8.6c2.1,2.3,4.4,4.4,6.8,6.2c-1,5.4-1,11.3-0.1,16.9c0,0.7-0.1,1.4-0.1,2.1c0,0.2,0,0.4,0.1,0.6
			c-2.7,0.5-5.4,1.5-7.9,2.8c-2.8,2-5.3,4.3-7.2,7.3c-1.6,2.5-3.4,6-4.4,9.3c0,0.2-0.1,0.3-0.1,0.5c-0.2,0.8-0.3,1.6-0.3,2.5
			c-0.2,3.1,4.6,3.6,5.3,0.7c2.3-8.6,8.5-16.3,18.1-16.4c7.7-0.1,14,5.1,16.7,11.9c1.3,2.7,2.5,6.1,5.8,6.5
			C267.3,394.6,267.2,391.7,266.9,389z"/>
		<path class="st3" d="M434.3,352.4c-13.6-4.7-28.6-6.5-43-6.1c-2.8,0.1-5.8,0.2-8.9,0.4c-0.3-4.4-0.5-8.9-0.9-13.3
			c8.2-1.6,16.4-2.9,24.9-3.7c2.9-0.5,5.9-1,8.3-2.4c1.7-1,3.2-2.5,3-4.6c0,0,0-0.1,0-0.1c-0.6-0.9-1.5-1.6-2.9-1.6
			c-11.2-0.6-22.9,0.4-34,3.3c-0.2-1.6-0.3-3.2-0.5-4.9c-2.7-25.2-6.5-51.8-16.7-75.3c7-16.3,11.2-33.8,10.9-51.6
			c-0.1-9.2-1.6-32.7-13.9-34.6c-5.6-0.9-12.5,3.4-17.5,5.7c-7.3,3.4-14.1,7.5-20.5,12.4c-10.3,7.9-19.2,18-23.9,30
			c-0.2-0.7-0.5-1.3-0.8-2c-0.1,0.4-0.2,0.9-0.3,1.3c-1.5,4.7-2.6,9.7-5.6,13.5c2.5-1,5-2.1,7.5-3.1c0.3-0.1,0.5-0.3,0.7-0.5
			c0.5-0.2,0.9-0.5,1.1-1.1c0.6-1.4,1.4-2.6,2.1-3.9c0.3-0.9,0.7-1.8,1.4-2.6c2.1-3.7,4.3-7.2,6.7-10.4c3.3-4.1,6.9-7.9,10.9-11.5
			c9.7-8.4,21-15,33.1-19.2c0.6-0.2,1.4-0.6,2.2-0.9c1.9,0.1,3.4,1,4.7,2.4c0.2,0.5,0.4,0.9,0.6,1.4c1.2,2.9,1.9,6.3,2.5,9.4
			c1.3,6.9,1.6,14,1.2,21c-0.8,13.7-4.6,27-9.8,39.6c0.7,2.4,0.5,5.3,0.4,7.7c0,0,0,0,0,0.1c1.2,10.9,4.4,22.1,6.2,32.7
			c2.4,14.4,4.5,28.9,6.1,43.5c0.1,1.4,0.3,2.7,0.4,4.1c-6,2.4-11.7,5.4-16.9,9.2c-2.8,2.1-0.5,6.1,2.7,4.7c5-2.2,9.9-4.2,14.8-5.9
			c0.1,0,0.1,0,0.2,0c0.4,4.1,0.7,8.2,1,12.3c-5,0.8-9.9,2.1-14.4,3.9c-0.2,0.3-0.5,0.5-1,0.6c-0.2,0-0.4,0.1-0.6,0.2
			c-0.1,0.1-0.2,0.1-0.4,0.2c-2.2,1.1-3.9,2.4-5.1,4.4c0,1.3,0.9,2.5,2.4,2.4c6.6-0.4,13.1-1.8,19.7-3c0.3,4,0.5,8.1,0.7,12.1
			c-7.7-0.9-15.2-0.4-21.7,2.4c-2,0.9-1.4,4.1,0.6,4.6c7,1.5,14.3,1.4,21.5,2c0.4,10,0.6,20,0.7,30c0,1.2,0.7,1.8,1.6,2.1
			c0.2,0.3,0.5,0.5,1,0.6c2.1,0.4,4.2,0.8,6.3,1.1c0-3.3,0.7-24.7,0.5-32.2c9.8,2.3,19.3,5.8,28.8,9.2c1.9,0.7,3.3-0.1,4-1.4
			c0.1-1.3-0.1-2.5-0.7-3.7c-0.8-1.6-2.2-2.7-3.8-3.6c-4.5-1.8-9.1-3.4-14-4.7c-4.7-1.6-9.6-3.1-14.5-4.3
			c-0.1-5.2-0.3-10.5-0.6-15.7c2.8-0.4,5.6-0.6,8.4-0.7c14.1-0.3,27.3,2.2,40.9,5.7C437.1,361.2,439,354,434.3,352.4z"/>
		<path class="st3" d="M126.5,368.7c-6.6-0.1-13.4,0.6-20,2c0.1-2.9,0.2-5.8,0.3-8.7c3.7,0.1,7.3,0.2,11,0.3c1.3,0.2,2.7,0.4,4,0.6
			c4.1,0.6,5.9-5.6,1.7-6.3c-5.2-0.9-10.7-1.7-16.3-2.2c0.1-0.9,0.1-1.9,0.2-2.8c0-0.5,0.1-0.9,0.1-1.4c0.3-3.8,0.6-7.5,0.9-11.3
			c5.6,1,11.3,2.2,16.9,3.9c1.5,0.4,2.5-0.5,2.7-1.7c0.9-1.3,0.9-3.2-1-4.2c-5.2-2.8-11.4-5.2-17.8-6.7c1.8-19,4.3-37.9,6.9-56.9
			c0.1,0,0.2,0,0.3-0.1c0-0.7,0.1-1.3,0.2-2c-1.3-1.8-1.9-4-1.5-6.2c-0.7,0.6-1.4,1.1-2.1,1.6c-0.4,0.2-0.8,0.5-1.2,0.6
			c-0.2,0.9-0.5,1.8-1,2.6c0.1,1.1-0.1,2.3-0.4,3.4c0,0,0.1,0,0.1,0.1c-4.9,17.8-6.8,36.7-8.1,55.5c-7.6-1-15.2-0.6-22,1.9
			c-1.8,1.3-2.1,3.5-0.6,4.9c7.5,0.5,14.8,1.1,22,2.1c-0.3,5.4-0.6,10.7-0.9,16c-14.8-0.8-30.1,0.6-43.2,5.8
			c-0.5,0.3-0.9,0.7-1.2,1.1c-1.4,1.7-0.9,3.6,0.9,4.1c4-0.4,8-1,12-1.7c6.6-0.6,13.2-1.1,19.8-1.3c3.7-0.1,7.5-0.1,11.2-0.1
			c-0.2,3.5-0.4,6.9-0.6,10.4c-2.3,0.6-4.5,1.3-6.7,2c-3.9,1.3-11.2,2.9-14.5,6.6c-0.2,0.6-0.3,1.2-0.2,1.8c0.2,1.1,0.7,1.5,1.5,1.8
			c0.1,0,0.3,0.1,0.4,0.1c0.1,0,0.2,0,0.3,0c0.4,0,0.9-0.1,1.3-0.1c0.4-0.1,0.7-0.2,1.1-0.2c0,0,0,0,0.1,0c0.1-0.1,0.2-0.2,0.3-0.2
			c3.3-1.2,6.6-2.4,10-3.5c2.1-0.5,4.2-0.9,6-1.3c-1.2,20.1-2.2,40.3-2,60.4c2.8-0.6,5.7-1.2,8.5-1.7c-0.2-6.7-0.4-13.3-0.5-20
			c0.1-13.4,0.4-26.8,0.8-40.1c3.8-0.7,7.5-1.2,11.3-1.7c2.7-0.2,5.3-0.4,8.1-0.5c0.3-0.1,0.6-0.2,0.8-0.4
			C129.6,373.2,129.2,370,126.5,368.7z"/>
	</g>
</g>
</svg>
