<?xml version="1.0" encoding="utf-8"?>
<!-- Generator: Adobe Illustrator 22.0.1, SVG Export Plug-In . SVG Version: 6.00 Build 0)  -->
<svg version="1.1" id="Layer_1" xmlns="http://www.w3.org/2000/svg" xmlns:xlink="http://www.w3.org/1999/xlink" x="0px" y="0px"
	 viewBox="0 0 500 500" style="enable-background:new 0 0 500 500;" xml:space="preserve">
<style type="text/css">
	.st0{clip-path:url(#SVGID_2_);}
	.st1{clip-path:url(#SVGID_4_);fill:url(#SVGID_5_);}
	.st2{clip-path:url(#SVGID_7_);fill:url(#SVGID_8_);}
	.st3{clip-path:url(#SVGID_10_);fill:url(#SVGID_11_);}
	.st4{fill:url(#SVGID_12_);}
	.st5{fill:#231F20;}
	.st6{fill:none;stroke:#231F20;stroke-width:4;stroke-linecap:round;stroke-linejoin:round;stroke-miterlimit:10;}
</style>
<g id="Enjoy">
	<g>
		<g>
			<defs>
				<polygon id="SVGID_1_" points="91.5,265.4 134.6,52.1 300.5,205 				"/>
			</defs>
			<clipPath id="SVGID_2_">
				<use xlink:href="#SVGID_1_"  style="overflow:visible;"/>
			</clipPath>
			<g class="st0">
				<defs>
					<path id="SVGID_3_" d="M214.7,133.7c0,0.1-3.9,11.5-8.8,23.6c-5,12.4-8.3,19.1-10.3,22.6c-2.2-3.3-4.9-8.1-6.8-11.4
						c-7.1-12.5-12.7-22.4-21-22.4c-8.8,0-11.7,11.7-13.2,17.3c-1.6,6.5-3.2,15.1-4.6,23.4c-1,5.8-2.5,13.9-3.9,20.1
						c-0.4-0.8-0.8-1.6-1.1-2.2c-3.3-6.9-6.7-14.1-13.5-14.1c-6.1,0-10.1,6.6-13.6,13.4c-2.5,4.8-5.5,11.5-9,19.7
						c-5.8,13.8-10.8,27.4-11.1,28c-1.9,5,0.1,10.9,4.4,13c1.1,0.6,2.2,0.8,3.4,0.8c3.3,0,6.4-2.2,7.8-6c5.7-15.5,13-33.2,17.9-43.2
						c3.6,7.5,8.6,16.4,17,16.4c9,0,12-12,13.5-17.8c1.7-6.8,3.3-15.7,4.8-24.2c1-5.7,2.3-13.2,3.6-19c1.6,2.6,3.2,5.5,4.4,7.7
						c7.3,12.8,13,23,21.5,23c6.3,0,10.7-6.3,14.4-13.2c2.7-4.9,5.8-11.6,9.2-20c5.7-13.9,10.4-27.6,10.6-28.2
						c1.7-5.1-0.4-10.8-4.7-12.9c-1-0.5-2.1-0.7-3.2-0.7C219.2,127.5,216,129.9,214.7,133.7"/>
				</defs>
				<clipPath id="SVGID_4_">
					<use xlink:href="#SVGID_3_"  style="overflow:visible;"/>
				</clipPath>
				
					<linearGradient id="SVGID_5_" gradientUnits="userSpaceOnUse" x1="-45.2653" y1="678.0612" x2="-43.1095" y2="678.0612" gradientTransform="matrix(62.0745 0 0 -62.0745 2907.0022 42286.8164)">
					<stop  offset="0" style="stop-color:#1D9ADD"/>
					<stop  offset="1" style="stop-color:#EBE717"/>
				</linearGradient>
				<rect x="96" y="127.5" class="st1" width="136.1" height="138"/>
			</g>
			<g class="st0">
				<defs>
					<path id="SVGID_6_" d="M211.4,59.4c0,0.1-3.8,11-8.4,22.6c-4.8,11.9-7.9,18.3-9.9,21.6c-2.1-3.1-4.7-7.7-6.5-10.9
						c-6.8-12-12.2-21.5-20-21.5c-8.4,0-11.2,11.2-12.6,16.6c-1.6,6.2-3,14.4-4.4,22.4c-1,5.5-2.3,13.3-3.7,19.2
						c-0.4-0.8-0.7-1.5-1-2.1c-3.1-6.6-6.4-13.5-12.9-13.5c-5.9,0-9.7,6.3-13,12.8c-2.4,4.6-5.3,11-8.6,18.9
						c-5.6,13.2-10.4,26.2-10.6,26.8c-1.8,4.8,0.1,10.4,4.2,12.5c1,0.5,2.1,0.8,3.2,0.8c3.1,0,6.1-2.1,7.4-5.7
						c5.5-14.8,12.4-31.7,17.1-41.3c3.5,7.2,8.2,15.7,16.2,15.7c8.6,0,11.5-11.5,12.9-17c1.7-6.5,3.2-15,4.6-23.1
						c1-5.5,2.2-12.6,3.5-18.1c1.5,2.5,3.1,5.2,4.2,7.3c6.9,12.3,12.4,22,20.5,22c6.1,0,10.2-6.1,13.8-12.6
						c2.6-4.7,5.5-11.1,8.8-19.1c5.5-13.3,10-26.4,10.2-27c1.7-4.9-0.3-10.4-4.5-12.3c-1-0.5-2-0.7-3-0.7
						C215.7,53.5,212.7,55.7,211.4,59.4"/>
				</defs>
				<clipPath id="SVGID_7_">
					<use xlink:href="#SVGID_6_"  style="overflow:visible;"/>
				</clipPath>
				
					<linearGradient id="SVGID_8_" gradientUnits="userSpaceOnUse" x1="-45.236" y1="679.3016" x2="-43.174" y2="679.3016" gradientTransform="matrix(62.0745 0 0 -62.0745 2907.0022 42286.8164)">
					<stop  offset="0" style="stop-color:#1D9ADD"/>
					<stop  offset="1" style="stop-color:#EBE717"/>
				</linearGradient>
				<rect x="97.9" y="53.5" class="st2" width="130.2" height="132"/>
			</g>
			<g class="st0">
				<defs>
					<path id="SVGID_9_" d="M260.3,190.6c-0.1,0.1-5.2,15-11.7,30.8c-6.6,16.2-11,24.9-13.7,29.5c-2.9-4.2-6.5-10.5-9-14.8
						c-9.4-16.4-16.9-29.3-27.9-29.3c-11.7,0-15.6,15.2-17.5,22.6c-2.2,8.5-4.2,19.7-6.2,30.5c-1.4,7.5-3.3,18.1-5.1,26.2
						c-0.5-1.1-1-2.1-1.4-2.9c-4.4-9-8.9-18.4-18-18.4c-8.2,0-13.4,8.6-18.1,17.4c-3.3,6.3-7.4,15-12,25.7
						c-7.7,18.1-14.4,35.8-14.7,36.5c-2.5,6.6,0.2,14.2,5.9,17c1.5,0.7,3,1.1,4.5,1.1c4.4,0,8.5-2.9,10.3-7.8
						c7.6-20.2,17.3-43.3,23.8-56.3c4.8,9.8,11.4,21.4,22.6,21.4c11.9,0,16-15.6,17.9-23.2c2.3-8.9,4.4-20.4,6.4-31.6
						c1.4-7.5,3.1-17.2,4.8-24.7c2.1,3.4,4.3,7.1,5.9,10c9.7,16.7,17.3,30,28.6,30c8.4,0,14.2-8.3,19.2-17.2
						c3.6-6.4,7.7-15.2,12.3-26.1c7.6-18.2,13.9-36,14.1-36.8c2.3-6.6-0.5-14.2-6.2-16.8c-1.4-0.6-2.8-0.9-4.2-0.9
						C266.3,182.5,262.1,185.6,260.3,190.6"/>
				</defs>
				<clipPath id="SVGID_10_">
					<use xlink:href="#SVGID_9_"  style="overflow:visible;"/>
				</clipPath>
				
					<linearGradient id="SVGID_11_" gradientUnits="userSpaceOnUse" x1="-45.1554" y1="676.8369" x2="-42.2879" y2="676.8369" gradientTransform="matrix(62.0745 0 0 -62.0745 2907.0022 42286.8164)">
					<stop  offset="0" style="stop-color:#1D9ADD"/>
					<stop  offset="1" style="stop-color:#EBE717"/>
				</linearGradient>
				<rect x="102.5" y="182.5" class="st3" width="181" height="180"/>
			</g>
			<use xlink:href="#SVGID_1_"  style="overflow:visible;fill:none;stroke:#000000;stroke-width:5;stroke-miterlimit:10;"/>
		</g>
		<linearGradient id="SVGID_12_" gradientUnits="userSpaceOnUse" x1="120" y1="39.5" x2="148" y2="39.5">
			<stop  offset="0" style="stop-color:#1D9ADD"/>
			<stop  offset="1" style="stop-color:#EBE717"/>
		</linearGradient>
		<circle class="st4" cx="134" cy="39.5" r="14"/>
		<path class="st5" d="M352.5,220c0.5-0.6,1-1.2,1.4-1.9c0.1-0.3,0.2-0.5,0.3-0.8c7.9-15.4,9.8-33.1,6.4-50.2
			c-0.1-0.6-0.7-1.1-1.4-1.2c-0.7,0.2-1.4,0.4-2.2,0.6c-0.3,0.1-0.6,0.2-0.9,0.3c-0.1,0-0.2,0-0.2,0c-1.7,0.6-3.3,1.2-4.9,2
			c-2.2,1.1-4.1,2.5-6.2,3.5c-8.8,5-16.9,11.6-23,19.6c-2.2,2.1-4.3,4.2-6.3,6.4c-0.1,0.1-0.1,0.1-0.2,0.2c-1.2,1-1.9,3.1-0.4,4.2
			c1.1,0.8,2.8,0.8,4.2,0.9c0,0,0.1,0,0.1,0c2.9-0.9,5.8-1.7,8.7-2.6c-0.8,1-1.5,2-2.3,3c-1.5,2,1,4.2,2.9,3.8
			c2.4-0.5,4.7-0.8,6.9-0.8c-2.1,1.2-4.2,2.6-6.3,4.1c-2.1,1.6-1.4,4.6,1.3,4.9c5.6,0.7,10.8,2.3,15.8,4.8
			C348.7,221.3,350.6,222.2,352.5,220z M347.8,204.6c-0.1-0.9-1.6-1.1-2.7-1.4c-3.9-0.9-7.6-1.3-11.4-1.1c0.6-0.7,1.1-1.5,1.7-2.2
			c0.9-0.8,2.1-2.4,2.8-3.3c1.7-2.4,1.4-4.4-4.2-2.5c-1.8,0.7-3.7,1.3-5.5,1.9c-1.1,0.3-2.3,0.5-3.4,0.9c2.8-2.3,5.6-4.7,8.4-7
			c5.4-4.4,9.4-8.2,15.3-12.3c5.9-5.3,6.4-3.7,6.3-1.5l0,3.4c-0.7,5.4-0.6,10.7-1.5,16.1c-1.1,7-3,13.8-5.2,20.5
			c-1.3-0.6-2.6-1.2-4-1.7c-2.1-1.1-4.3-1.9-6.7-2.3c2.4-1.4,4.8-2.7,7.5-3.8c0.4-0.2,0.7-0.4,1-0.7
			C347,207.1,348.2,205.4,347.8,204.6z"/>
		<path class="st5" d="M263.3,322.1c-1.5-6.1-13.7-4.8-18.1-4.8c-4.3,0-15.3-1-13.6,6.2c0.6,2.7,2,4.9,6.2,8.6
			c2.4,2.1,5.7,4.7,10.1,7.4c1.8-0.6,4.3-1.6,6.9-3.6c0.9-0.7,3.3-3.5,6.2-7.4C262.5,326.7,263.9,324.5,263.3,322.1z"/>
		<path class="st5" d="M441.3,341.4c-13.6-4.7-28.6-6.5-43-6.1c-2.8,0.1-5.8,0.2-8.9,0.4c-0.3-4.4-0.5-8.9-0.9-13.3
			c8.2-1.6,16.4-2.9,24.9-3.7c2.9-0.5,5.9-1,8.3-2.4c1.7-1,3.2-2.5,3-4.6c0,0,0-0.1,0-0.1c-0.6-0.9-1.5-1.6-2.9-1.6
			c-11.2-0.6-22.9,0.4-34,3.3c-0.2-1.6-0.3-3.2-0.5-4.9c-2.7-25.2-6.5-51.8-16.7-75.3c7-16.3,11.2-33.8,10.9-51.6
			c-0.1-9.2-1.6-32.7-13.9-34.6c-5.6-0.9-12.5,3.4-17.5,5.7c-7.3,3.4-14.1,7.5-20.5,12.4c-10.3,7.9-19.2,18-23.9,30
			c-0.2-0.7-0.5-1.3-0.8-2c-0.1,0.4-0.2,0.9-0.3,1.3c-1.5,4.7-2.6,9.7-5.6,13.5c2.5-1,5-2.1,7.5-3.1c0.3-0.1,0.5-0.3,0.7-0.5
			c0.5-0.2,0.9-0.5,1.1-1.1c0.6-1.4,1.4-2.6,2.1-3.9c0.3-0.9,0.7-1.8,1.4-2.6c2.1-3.7,4.3-7.2,6.7-10.4c3.3-4.1,6.9-7.9,10.9-11.5
			c9.7-8.4,21-15,33.1-19.2c0.6-0.2,1.4-0.6,2.2-0.9c1.9,0.1,3.4,1,4.7,2.4c0.2,0.5,0.4,0.9,0.6,1.4c1.2,2.9,1.9,6.3,2.5,9.4
			c1.3,6.9,1.6,14,1.2,21c-0.8,13.7-4.6,27-9.8,39.6c0.7,2.4,0.5,5.3,0.4,7.7c0,0,0,0,0,0.1c1.2,10.9,4.4,22.1,6.2,32.7
			c2.4,14.4,4.5,28.9,6.1,43.5c0.1,1.4,0.3,2.7,0.4,4.1c-6,2.4-11.7,5.4-16.9,9.2c-2.8,2.1-0.5,6.1,2.7,4.7c5-2.2,9.9-4.2,14.8-5.9
			c0.1,0,0.1,0,0.2,0c0.4,4.1,0.7,8.2,1,12.3c-5,0.8-9.9,2.1-14.4,3.9c-0.2,0.3-0.5,0.5-1,0.6c-0.2,0-0.4,0.1-0.6,0.2
			c-0.1,0.1-0.2,0.1-0.4,0.2c-2.2,1.1-3.9,2.4-5.1,4.4c0,1.3,0.9,2.5,2.4,2.4c6.6-0.4,13.1-1.8,19.7-3c0.3,4,0.5,8.1,0.7,12.1
			c-7.7-0.9-15.2-0.4-21.7,2.4c-2,0.9-1.4,4.1,0.6,4.6c7,1.5,14.3,1.4,21.5,2c0.4,10,0.6,20,0.7,30c0,1.2,0.7,1.8,1.6,2.1
			c0.2,0.3,0.5,0.5,1,0.6c2.1,0.4,4.2,0.8,6.3,1.1c0-3.3,0.7-24.7,0.5-32.2c9.8,2.3,19.3,5.8,28.8,9.2c1.9,0.7,3.3-0.1,4-1.4
			c0.1-1.3-0.1-2.5-0.7-3.7c-0.8-1.6-2.2-2.7-3.8-3.6c-4.5-1.8-9.1-3.4-14-4.7c-4.7-1.6-9.6-3.1-14.5-4.3
			c-0.1-5.2-0.3-10.5-0.6-15.7c2.8-0.4,5.6-0.6,8.4-0.7c14.1-0.3,27.3,2.2,40.9,5.7C444.1,350.2,446,343,441.3,341.4z"/>
		<path class="st5" d="M133.5,357.7c-6.6-0.1-13.4,0.6-20,2c0.1-2.9,0.2-5.8,0.3-8.7c3.7,0.1,7.3,0.2,11,0.3c1.3,0.2,2.7,0.4,4,0.6
			c4.1,0.6,5.9-5.6,1.7-6.3c-5.2-0.9-10.7-1.7-16.3-2.2c0.1-0.9,0.1-1.9,0.2-2.8c0-0.5,0.1-0.9,0.1-1.4c0.3-3.8,0.6-7.5,0.9-11.3
			c5.6,1,11.3,2.2,16.9,3.9c1.5,0.4,2.5-0.5,2.7-1.7c0.9-1.3,0.9-3.2-1-4.2c-5.2-2.8-11.4-5.2-17.8-6.7c1.8-19,4.3-37.9,6.9-56.9
			c0.1,0,0.2,0,0.3-0.1c0-0.7,0.1-1.3,0.2-2c-1.3-1.8-1.9-4-1.5-6.2c-0.7,0.6-1.4,1.1-2.1,1.6c-0.4,0.2-0.8,0.5-1.2,0.6
			c-0.2,0.9-0.5,1.8-1,2.6c0.1,1.1-0.1,2.3-0.4,3.4c0,0,0.1,0,0.1,0.1c-4.9,17.8-6.8,36.7-8.1,55.5c-7.6-1-15.2-0.6-22,1.9
			c-1.8,1.3-2.1,3.5-0.6,4.9c7.5,0.5,14.8,1.1,22,2.1c-0.3,5.4-0.6,10.7-0.9,16c-14.8-0.8-30.1,0.6-43.2,5.8
			c-0.5,0.3-0.9,0.7-1.2,1.1c-1.4,1.7-0.9,3.6,0.9,4.1c4-0.4,8-1,12-1.7c6.6-0.6,13.2-1.1,19.8-1.3c3.7-0.1,7.5-0.1,11.2-0.1
			c-0.2,3.5-0.4,6.9-0.6,10.4c-2.3,0.6-4.5,1.3-6.7,2c-3.9,1.3-11.2,2.9-14.5,6.6c-0.2,0.6-0.3,1.2-0.2,1.8c0.2,1.1,0.7,1.5,1.5,1.8
			c0.1,0,0.3,0.1,0.4,0.1c0.1,0,0.2,0,0.3,0c0.4,0,0.9-0.1,1.3-0.1c0.4-0.1,0.7-0.2,1.1-0.2c0,0,0,0,0.1,0c0.1-0.1,0.2-0.2,0.3-0.2
			c3.3-1.2,6.6-2.4,10-3.5c2.1-0.5,4.2-0.9,6-1.3c-1.2,20.1-2.2,40.3-2,60.4c2.8-0.6,5.7-1.2,8.5-1.7c-0.2-6.7-0.4-13.3-0.5-20
			c0.1-13.4,0.4-26.8,0.8-40.1c3.8-0.7,7.5-1.2,11.3-1.7c2.7-0.2,5.3-0.4,8.1-0.5c0.3-0.1,0.6-0.2,0.8-0.4
			C136.6,362.2,136.2,359,133.5,357.7z"/>
		<g>
			<circle class="st5" cx="187" cy="275.5" r="56"/>
			<circle class="st5" cx="313" cy="275.5" r="56"/>
			<path class="st6" d="M250,336.5c-4.3,20.7,10,42.3,27,44c13.6,1.4,27.9-8.1,33-23.5"/>
			<path class="st6" d="M248.2,336.5c4.3,20.7-10,39.3-27,41c-13.6,1.4-27.9-8.1-33-23.5"/>
			<path class="st6" d="M243.5,276c0,0,0,0,14,0"/>
		</g>
	</g>
</g>
</svg>
