<?xml version="1.0" encoding="utf-8"?>
<!-- Generator: Adobe Illustrator 22.0.1, SVG Export Plug-In . SVG Version: 6.00 Build 0)  -->
<svg version="1.1" id="Layer_1" xmlns="http://www.w3.org/2000/svg" xmlns:xlink="http://www.w3.org/1999/xlink" x="0px" y="0px"
	 viewBox="0 0 500 500" style="enable-background:new 0 0 500 500;" xml:space="preserve">
<style type="text/css">
	.st0{fill:#231F20;}
	.st1{fill:none;stroke:#231F20;stroke-miterlimit:10;}
	.st2{fill:none;stroke:#231F20;stroke-width:5;stroke-linecap:round;stroke-linejoin:round;stroke-miterlimit:10;}
	.st3{fill:none;stroke:#231F20;stroke-width:5;stroke-linecap:round;stroke-miterlimit:10;}
	.st4{fill:none;stroke:#231F20;stroke-width:5;stroke-miterlimit:10;}
	.st5{fill:none;stroke:#231F20;stroke-width:8;stroke-miterlimit:10;}
	.st6{fill:none;stroke:#231F20;stroke-width:8.6376;stroke-miterlimit:10;}
	.st7{fill:#FFFFFF;}
	.st8{fill:#FFFFFF;stroke:#231F20;stroke-miterlimit:10;}
	.st9{fill:#FFFFFF;stroke:#231F20;stroke-width:0.7994;stroke-miterlimit:10;}
</style>
<g id="HustleCat">
	<g>
		<path class="st0" d="M354.5,152c0.5-0.5,1-1.1,1.4-1.7c0.1-0.2,0.2-0.5,0.3-0.7c7.9-14,9.8-30,6.4-45.4c-0.1-0.6-0.7-1-1.4-1.1
			c-0.7,0.2-1.4,0.3-2.2,0.5c-0.3,0.1-0.6,0.2-0.9,0.3c-0.1,0-0.2,0-0.2,0c-1.7,0.5-3.3,1.1-4.9,1.8c-2.2,1-4.1,2.2-6.2,3.2
			c-8.8,4.6-16.9,10.5-23,17.8c-2.2,1.9-4.3,3.8-6.3,5.8c-0.1,0.1-0.1,0.1-0.2,0.2c-1.2,0.9-1.9,2.8-0.4,3.8
			c1.1,0.7,2.8,0.8,4.2,0.8c0,0,0.1,0,0.1,0c2.9-0.8,5.8-1.6,8.7-2.3c-0.8,0.9-1.5,1.8-2.3,2.7c-1.5,1.8,1,3.8,2.9,3.5
			c2.4-0.5,4.7-0.7,6.9-0.7c-2.1,1.1-4.2,2.4-6.3,3.8c-2.1,1.5-1.4,4.1,1.3,4.4c5.6,0.6,10.8,2.1,15.8,4.3
			C350.7,153.2,352.6,154,354.5,152z M349.8,138c-0.1-0.8-1.6-1-2.7-1.2c-3.9-0.8-7.6-1.1-11.4-1c0.6-0.7,1.1-1.4,1.7-2
			c0.9-0.7,2.1-2.2,2.8-3c1.7-2.1,1.4-4-4.2-2.2c-1.8,0.6-3.7,1.1-5.5,1.7c-1.1,0.2-2.3,0.5-3.4,0.8c2.8-2.1,5.6-4.2,8.4-6.3
			c5.4-4,9.4-7.4,15.3-11.1c5.9-4.8,6.4-3.3,6.3-1.4l0,3.1c-0.7,4.8-0.6,9.7-1.5,14.6c-1.1,6.3-3,12.5-5.2,18.5
			c-1.3-0.6-2.6-1.1-4-1.5c-2.1-1-4.3-1.7-6.7-2.1c2.4-1.3,4.8-2.5,7.5-3.5c0.4-0.1,0.7-0.4,1-0.6C349,140.4,350.2,138.8,349.8,138z
			"/>
		<path class="st0" d="M130.6,146c5-2.3,10.2-3.7,15.8-4.3c2.7-0.3,3.4-3,1.3-4.4c-2-1.4-4.1-2.6-6.3-3.8c2.3,0,4.6,0.2,6.9,0.7
			c2,0.4,4.4-1.7,2.9-3.5c-0.8-0.9-1.5-1.8-2.3-2.7c2.9,0.8,5.8,1.6,8.7,2.3c0,0,0.1,0,0.1,0c1.3,0,3,0,4.2-0.8
			c1.5-1,0.8-2.8-0.4-3.8c-0.1-0.1-0.1-0.1-0.2-0.2c-2-2-4.1-4-6.3-5.8c-6-7.3-14.2-13.2-23-17.8c-2.1-0.9-4.1-2.2-6.2-3.2
			c-1.6-0.7-3.2-1.3-4.9-1.8c-0.1,0-0.2,0-0.2,0c-0.3-0.1-0.6-0.2-0.9-0.3c-0.7-0.2-1.4-0.4-2.2-0.5c-0.6,0.1-1.3,0.6-1.4,1.1
			c-3.5,15.4-1.5,31.4,6.4,45.4c0.1,0.2,0.2,0.5,0.3,0.7c0.5,0.6,0.9,1.1,1.4,1.7C126.4,147,128.3,146.2,130.6,146z M130.9,133.7
			c0.3,0.3,0.6,0.5,1,0.6c2.6,1,5.1,2.2,7.5,3.5c-2.4,0.4-4.6,1.1-6.7,2.1c-1.3,0.5-2.7,1-4,1.5c-2.3-6.1-4.1-12.2-5.2-18.5
			c-0.9-4.9-0.8-9.7-1.5-14.6l0-3.1c-0.2-2,0.3-3.4,6.3,1.4c5.9,3.7,9.9,7.2,15.3,11.1c2.8,2.1,5.6,4.2,8.4,6.3
			c-1.1-0.3-2.2-0.6-3.4-0.8c-1.8-0.6-3.7-1.2-5.5-1.7c-5.5-1.8-5.9,0.1-4.2,2.2c0.7,0.9,1.9,2.3,2.8,3c0.6,0.7,1.1,1.4,1.7,2
			c-3.8-0.2-7.5,0.1-11.4,1c-1.2,0.3-2.6,0.4-2.7,1.2C128.7,131.8,130,133.4,130.9,133.7z"/>
		<path class="st0" d="M259.3,297.1c-1.5-6.1-13.7-4.8-18.1-4.8c-4.3,0-15.3-1-13.6,6.2c0.8,3.1,4.1,6.3,6.2,8.6
			c2.1,2.3,4.4,4.4,6.8,6.2c-1,5.4-1,11.3-0.1,16.9c0,0.3,2.2,0.8,4.3,1.3c0-0.9,0.1-1.8,0.5-2.6c0-0.6,0.2-1.2,0.4-1.8
			c0.1-3.7,0.1-7.5,0.2-11.2c0.2-0.1,0.4-0.3,0.5-0.5c0.3-0.1,0.7-0.3,1-0.6c3.2-3.7,6.6-7.4,9.6-11.3
			C258.5,301.7,259.9,299.5,259.3,297.1z"/>
		<path class="st0" d="M365,359.9c0-2.3,0.1-4.7,0.2-7c0-0.3-0.1-0.6-0.1-0.9c-3.7,0.5-7.3,1.8-10.6,3.9c-2,1.3-1.4,6.3,0.6,7
			c3.2,1.1,6.5,1.6,9.8,1.9C365,363.2,365,361.5,365,359.9z"/>
		<path class="st0" d="M437.3,338.1c-13.6-6.5-28.6-9-43-8.4c-2.8,0.1-5.8,0.3-8.9,0.6c-0.3-6.2-0.5-12.3-0.9-18.4
			c8.2-2.2,16.4-4,24.9-5.1c2.9-0.7,5.9-1.3,8.3-3.4c1.7-1.4,3.2-3.5,3-6.4c0,0,0-0.1,0-0.1c-0.6-1.2-1.5-2.2-2.9-2.3
			c-11.2-0.8-22.9,0.5-34,4.5c-0.2-2.2-0.3-4.5-0.5-6.7c-2.7-34.9-6.5-71.8-16.7-104.3c7-22.6,11.2-46.8,10.9-71.5
			c-0.1-12.8-1.6-45.2-13.9-48c-5.6-1.3-12.5,4.7-17.5,7.9c-7.3,4.7-14.1,10.4-20.5,17.1c-10.3,11-19.2,24.9-23.9,41.6
			c-0.2-0.9-0.5-1.8-0.8-2.7c-0.1,0.6-0.2,1.2-0.3,1.9c-1.5,6.5-2.6,13.4-5.6,18.7c2.5-1.4,5-2.8,7.5-4.3c0.3-0.2,0.5-0.4,0.7-0.7
			c0.5-0.3,0.9-0.7,1.1-1.5c0.6-1.9,1.4-3.6,2.1-5.4c0.3-1.3,0.7-2.5,1.4-3.6c2.1-5.1,4.3-9.9,6.7-14.4c3.3-5.6,6.9-11,10.9-15.9
			c9.7-11.6,21-20.8,33.1-26.5c0.6-0.3,1.4-0.8,2.2-1.2c1.9,0.2,3.4,1.4,4.7,3.3c0.2,0.6,0.4,1.3,0.6,2c1.2,4.1,1.9,8.8,2.5,13.1
			c1.3,9.6,1.6,19.4,1.2,29.1c-0.8,19-4.6,37.4-9.8,54.9c0.7,3.4,0.5,7.3,0.4,10.7c0,0,0,0,0,0.1c1.2,15.1,4.4,30.6,6.2,45.3
			c2.4,20,4.5,40.1,6.1,60.2c0.1,1.9,0.3,3.8,0.4,5.6c-6,3.3-4.3,13.4,0.6,11c0.1,0,0.1,0,0.2-0.1c0.4,5.7,0.7,11.4,1,17.1
			c-0.4,0.1,0.7,10.2,0.8,15.3c0.2,4.5,0.4,9,0.6,13.6c-0.3-0.1,0.9,9.9,2.1,14.8c0.5,1.9-1,27.4-1,39c0,1.6,2.1,3.6,2.5,3.7
			c2.1,0.6,4.2,1.1,6.3,1.5c0-4.6,0.7-34.1,0.5-44.6c9.8,3.2,19.3,8.1,28.8,12.7c1.9,0.9,3.3-0.2,4-2c0.1-1.7-0.1-3.5-0.7-5.1
			c-0.8-2.2-2.2-3.8-3.8-5c-4.5-2.5-9.1-4.7-14-6.5c-4.7-2.2-9.6-4.3-14.5-5.9c-0.1-7.2-0.3-14.5-0.6-21.7c2.8-0.5,5.6-0.9,8.4-1
			c14.1-0.4,27.3,3,40.9,7.9C440.1,350.3,442,340.3,437.3,338.1z"/>
		<path class="st0" d="M359.5,327.3c-0.2,0.1-0.4,0.2-0.6,0.3c-0.1,0.1-0.2,0.2-0.4,0.3c-2.2,1.7-3.9,3.6-5.1,6.8
			c0,1.9,0.9,3.8,2.4,3.6c2.6-0.3,5.1-0.7,7.7-1.3c-0.3-4-0.5-8-0.5-12c-0.8,0.5-1.7,0.9-2.5,1.5
			C360.2,326.9,359.9,327.2,359.5,327.3z"/>
		<path class="st0" d="M123.2,358.2c1.6,0.2,2.4-1.8,2.4-3.9c-1.2-3.3-3-5.4-5.1-7.2c-0.1-0.1-0.2-0.2-0.4-0.3
			c-0.2-0.1-0.4-0.3-0.6-0.3c-0.5-0.2-0.8-0.5-1-1c-0.1-0.1-0.3-0.2-0.4-0.3c-0.4,2.6-0.8,5.1-1.3,7.7c0,1.4-0.1,2.8-0.2,4.1
			C118.8,357.6,121,358,123.2,358.2z"/>
		<path class="st0" d="M120.2,328.7c3.2,2.3,5.6-4.2,2.7-7.6c-0.7-0.8-1.4-1.6-2.1-2.4c-0.7,3-1.5,5.9-2.2,8.9
			C119.1,328,119.6,328.4,120.2,328.7z"/>
		<path class="st0" d="M178.4,138.7c-0.1-0.7-0.2-1.3-0.3-2c-0.3,1-0.5,1.9-0.8,2.9c-4.7-17.8-13.5-32.6-23.9-44.3
			c-6.3-7.2-13.2-13.2-20.5-18.2c-5-3.4-11.9-9.7-17.5-8.4c-12.3,2.9-13.8,37.4-13.9,51c-0.3,26.3,3.9,52.1,10.9,76.1
			c-10.2,34.6-14,73.8-16.7,111c-0.2,2.4-0.3,4.8-0.5,7.2c-11.1-4.3-22.8-5.7-34-4.8c-1.4,0.1-2.3,1.1-2.9,2.4c0,0,0,0.1,0,0.1
			c-0.2,3.1,1.3,5.3,3,6.8c2.4,2.2,5.4,2.8,8.3,3.6c8.4,1.1,16.7,3.1,24.9,5.4c-0.3,6.5-0.6,13.1-0.9,19.6c-3.1-0.3-6-0.5-8.9-0.6
			c-14.4-0.6-29.4,2.1-43,8.9c-4.7,2.4-2.8,13,2.1,11.1c13.5-5.2,26.8-8.8,40.9-8.4c2.8,0.1,5.7,0.5,8.4,1
			c-0.2,7.7-0.4,15.4-0.6,23.1c-4.9,1.7-9.8,4-14.5,6.3c-4.9,1.9-9.6,4.3-14,7c-1.5,1.3-3,3-3.8,5.4c-0.6,1.8-0.8,3.6-0.7,5.5
			c0.7,1.9,2.2,3.1,4,2.1c9.5-4.9,18.9-10.1,28.8-13.5c-0.2,11.1-0.3,22.3-0.3,33.4c-0.6,0.1,0.8,9.2,0.8,14.1
			c2.1-0.5,4.2-1,6.3-1.6c0.4-0.1,0.7-0.4,1-0.8c0.9-0.4,1.5-1.4,1.6-3.1c0-14.7,0.3-29.4,0.7-44.2c0.2,0,0.3,0,0.5-0.1
			c-0.1-3.1-0.1-6.2,0.1-9.2c0-0.2,0-0.5,0-0.7c0-0.5,0.1-0.9,0.2-1.4c0,0,0,0,0,0c-0.9-1.4-0.5-27.5,1-32.4c0,0,0,0,0,0
			c0.3-6.1,2.1-33.8,2.3-35.8c1.6-21.5,3.7-42.8,6.1-64.1c1.8-15.7,5-32.1,6.2-48.3c0,0,0-0.1,0-0.1c0-3.6-0.2-7.8,0.4-11.4
			c-5.2-18.6-8.9-38.2-9.8-58.4c-0.4-10.4-0.1-20.8,1.2-31c0.6-4.6,1.2-9.6,2.5-13.9c0.2-0.7,0.4-1.4,0.6-2.1c1.2-2,2.8-3.3,4.7-3.5
			c0.8,0.4,1.6,1,2.2,1.3c12.1,6.1,23.4,15.9,33.1,28.3c4.1,5.2,7.6,11,10.9,16.9c2.5,4.8,4.7,10,6.7,15.4c0.6,1.1,1.1,2.4,1.4,3.8
			c0.7,1.9,1.4,3.7,2.1,5.7c0.3,0.9,0.7,1.4,1.1,1.6c0.2,0.3,0.4,0.5,0.7,0.7C179,155.6,179.9,145.6,178.4,138.7z"/>
		<path class="st0" d="M124.4,376.9c-2.8-2-5.8-3.2-8.9-3.9c-0.1,0.7-0.1,1.4-0.2,2.1c0.1,1.2,0.3,2.4,0.4,3.5
			c0.2,1.7-0.2,3.1-1,4.2c-0.1,1.2-0.1,2.4-0.2,3.5c3.1-0.4,6.1-0.9,9.1-2C125.8,383.7,126.4,378.3,124.4,376.9z"/>
		<g>
			<path class="st1" d="M165.5,174c5,7,6.5,10.5,6.5,10.5v9h8l4,5"/>
			<polyline class="st1" points="141.5,217 158,215.5 164,210.5 167,215.5 172,212.5 			"/>
			<polyline class="st1" points="150.5,265 167,252.5 167,247.5 175,247.5 172,241.5 			"/>
			<polyline class="st1" points="173.5,296 184,274.5 178,269.5 184,266.5 189,258.5 184,258.5 			"/>
			<polyline class="st1" points="233,187.5 221,198.5 215,192.5 211,198.5 211,206.5 207,206.5 			"/>
			<polyline class="st1" points="235.6,263.1 225,258.5 221,249.5 214,252.5 210,249.5 210,241.5 			"/>
			<path class="st1" d="M266,186.5c5,7,5,7,5,7v9h8l4,5"/>
			<polyline class="st1" points="249,224.5 257,224.5 263,219.5 266,224.5 271,221.5 			"/>
			<polyline class="st1" points="255,267.5 266,261.5 266,256.5 274,256.5 271,250.5 			"/>
			<polyline class="st1" points="276.9,296.1 283,283.5 277,278.5 283,275.5 288,267.5 283,267.5 			"/>
			<polyline class="st1" points="332,196.5 320,207.5 314,201.5 310,207.5 310,215.5 306,215.5 			"/>
			<polyline class="st1" points="334.6,272.1 324,267.5 320,258.5 313,261.5 309,258.5 309,250.5 			"/>
			<polyline class="st1" points="203.7,162.4 199,177.5 201,180.5 199,186.5 			"/>
			<polyline class="st1" points="308,174.5 298,187.5 303,196.5 298,198.5 			"/>
			<polyline class="st1" points="316.1,294 308.5,285 312.5,282 308.5,276 305.5,276 			"/>
		</g>
	</g>
	<g>
		<g>
			<line class="st2" x1="176.5" y1="149" x2="188.5" y2="132"/>
			<line class="st3" x1="201" y1="144.5" x2="189" y2="132.5"/>
			<line class="st3" x1="211" y1="129.5" x2="201" y2="144.5"/>
			<line class="st3" x1="220" y1="141.5" x2="211" y2="129.5"/>
			<line class="st4" x1="229.5" y1="121" x2="220" y2="141.5"/>
			<line class="st3" x1="245" y1="141.5" x2="229.5" y2="121"/>
			<line class="st4" x1="263.5" y1="117" x2="245" y2="141.5"/>
			<line class="st3" x1="271" y1="141.5" x2="263.5" y2="117"/>
			<line class="st3" x1="283" y1="128.5" x2="271" y2="141.5"/>
			<line class="st4" x1="298.5" y1="150" x2="283" y2="128.5"/>
		</g>
		<ellipse class="st5" cx="293.5" cy="236.5" rx="48.5" ry="65"/>
		<ellipse class="st6" cx="191.5" cy="231.5" rx="52.5" ry="70"/>
		<circle class="st0" cx="189.5" cy="225" r="9.5"/>
		<circle class="st0" cx="298.5" cy="225" r="9.5"/>
		<path class="st0" d="M339,325.5c-47.4,19.1-87.4,21.6-93.4,4.4l-4.2-0.1c-7.9,22.5-57.2,20.3-111.8-4.4c-4.6-5.3-9.2-10.7-13.8-16
			c-6.7,18.5-14.9,50.9-1.9,82c1.2,2.8,2.5,5.5,3.9,8c81.9-1.7,163.8-3.3,245.7-5c1-1,2-2,2.9-3c18.3-22,2.8-64.1-2.9-78
			C355.3,317.5,347.2,321.5,339,325.5z"/>
		<g>
			<path class="st7" d="M133.7,374.2L133.7,374.2L133.7,374.2L133.7,374.2c-1.6,0.8-3.1,1.5-4.7,2.3c-2.1-1.2-6.7,8.8-8.6,15.2
				l10.9,1.4C132.1,386.8,132.9,380.5,133.7,374.2z"/>
			<path class="st7" d="M138.9,339l-8.9,1.4c1.7,7.4,3.3,14.8,5,22.1c1-2,2-4,3-6c1.3,0.4,2.6,0.8,3.9,1.2h0L138.9,339z"/>
			<polygon class="st8" points="116.5,329 114.5,334 107.5,348 107.5,348 107.5,348 107.5,348 107.5,348 112,355 116.5,348 
				116.5,348 			"/>
			<path class="st7" d="M165,345.5h-12v19h0l0,0l6,7c0,0,2-2.3,0,0C161,362.8,163,354.2,165,345.5z"/>
			<g>
				
					<rect x="166.6" y="373.4" transform="matrix(-0.9777 -0.2101 0.2101 -0.9777 258.0824 793.2642)" class="st7" width="9.1" height="19"/>
				<polygon class="st7" points="174.6,366.8 168.7,372.7 177.6,374.6 				"/>
			</g>
			<path class="st7" d="M195,349.5h-9v19h0l0,0l4.5,7c0,0,2.5-4.3,1.5-3C193,364.8,194,357.2,195,349.5z"/>
			<path class="st7" d="M226,349.5h-12v19c0.7,1.7,1.3,3.3,2,5c1.3,0.7,2.7,1.3,4,2c0,0,2-2.3,0,0C222,366.8,224,358.2,226,349.5z"
				/>
			<g>
				
					<rect x="245.3" y="347.6" transform="matrix(0.9797 -0.2004 0.2004 0.9797 -66.4893 57.3027)" class="st7" width="9" height="19"/>
				<polygon class="st7" points="253.1,373.2 256.1,365.5 247.3,367.3 				"/>
			</g>
			<g>
				<polygon class="st7" points="280.3,369.1 269.8,369.9 269.1,351 279.6,350.2 				"/>
				<polygon class="st7" points="275.3,376.5 280.3,369.1 269.8,369.9 				"/>
			</g>
			<path class="st7" d="M309.6,345c-1.5-0.2-3-0.3-4.6-0.5c-2.3,6-4.7,12.1-7,18.1h0l0,0v0c0,0,0-0.1,0-0.1c1.4,2.6,2.8,5.3,4.1,7.9
				l5.5-6.3h0L309.6,345z"/>
			<path class="st7" d="M350,373.5L350,373.5L350,373.5l-5-7c0,0-3.7,3.7-3,2c-0.7,8-1.3,16-2,24h10C350,386.2,350,379.8,350,373.5z
				"/>
			<path class="st9" d="M292.2,374.8L292.2,374.8L292.2,374.8c0.4-2.8,0.8-5.6,1.2-8.4c-2.9,2.6-5.9,5.3-8.8,7.9l0,0l-1.3,19
				l7.7,0.5C291.4,387.4,291.8,381.1,292.2,374.8z"/>
			<path class="st8" d="M323.7,373.3c-1.1-0.8-2.2-1.5-3.2-2.3c-1.2-1.3-2.4-2.6-3.6-3.9l-5.1,7.7c0.6-1.6,1.1-3.2,1.7-4.8
				c0.2,7.9,0.4,15.8,0.6,23.6l11.9-1.4C325.3,385.9,324.5,379.6,323.7,373.3z"/>
			<path class="st7" d="M209.2,375L209.2,375L209.2,375l-5.4-6.4c0,0-2.4,5.8-1.8,4.9c0.2,7.2,0.5,14.3,0.7,21.5l8.9-1.2L209.2,375z
				"/>
			<path class="st7" d="M338,338.5h-9v21.2h0c0,1.6,0,3.2,0,4.8c1.5,1,3,2,4.5,3l4.5-7.8h0V338.5z"/>
			<path class="st8" d="M239.7,379.3c-1.1-0.8-2.2-1.6-3.2-2.3c-0.4-1.8-0.8-3.6-1.2-5.4l-6.1,6.1c0.1,0.1,0.2,0.2,0.3,0.2
				c-0.8,6.2-1.7,12.4-2.5,18.6l10.5,1.6C238.3,391.9,239,385.6,239.7,379.3z"/>
			<path class="st8" d="M266.2,383.7c-2.2-3.8-4.4-7.5-6.7-11.3l-4.7,7.3l0,0l1.7,18.9l10.6-0.6
				C266.9,393.2,266.5,388.5,266.2,383.7z"/>
			<path class="st7" d="M364.6,359.9C364.6,359.9,364.6,359.9,364.6,359.9l-2.1-18.9l-9.9,1.1c0.8,6.3,2.8,16.1,2.4,13.4
				c1.8,4,3.6,7.9,5.4,11.9L364.6,359.9z"/>
		</g>
	</g>
</g>
</svg>
