<?xml version="1.0" encoding="utf-8"?>
<!-- Generator: Adobe Illustrator 22.0.1, SVG Export Plug-In . SVG Version: 6.00 Build 0)  -->
<svg version="1.1" id="Layer_1" xmlns="http://www.w3.org/2000/svg" xmlns:xlink="http://www.w3.org/1999/xlink" x="0px" y="0px"
	 viewBox="0 0 500 500" style="enable-background:new 0 0 500 500;" xml:space="preserve">
<style type="text/css">
	.st0{fill:#231F20;}
	.st1{fill:none;stroke:#231F20;stroke-width:2;stroke-miterlimit:10;}
	.st2{fill:none;stroke:#231F20;stroke-width:5.3426;stroke-linecap:round;stroke-linejoin:bevel;stroke-miterlimit:10;}
	.st3{fill:none;stroke:#231F20;stroke-width:6.244;stroke-miterlimit:10;}
	.st4{fill:none;stroke:#231F20;stroke-width:6.2759;stroke-miterlimit:10;}
	.st5{fill:none;stroke:#231F20;stroke-width:6;stroke-linecap:round;stroke-miterlimit:10;}
</style>
<g id="Engineer">
	<g>
		<path class="st0" d="M348.5,213c0.5-0.6,1-1.2,1.4-1.9c0.1-0.3,0.2-0.5,0.3-0.8c7.9-15.4,9.8-33.1,6.4-50.2
			c-0.1-0.6-0.7-1.1-1.4-1.2c-0.7,0.2-1.4,0.4-2.2,0.6c-0.3,0.1-0.6,0.2-0.9,0.3c-0.1,0-0.2,0-0.2,0c-1.7,0.6-3.3,1.2-4.9,2
			c-2.2,1.1-4.1,2.5-6.2,3.5c-8.8,5-16.9,11.6-23,19.6c-2.2,2.1-4.3,4.2-6.3,6.4c-0.1,0.1-0.1,0.1-0.2,0.2c-1.2,1-1.9,3.1-0.4,4.2
			c1.1,0.8,2.8,0.8,4.2,0.9c0,0,0.1,0,0.1,0c2.9-0.9,5.8-1.7,8.7-2.6c-0.8,1-1.5,2-2.3,3c-1.5,2,1,4.2,2.9,3.8
			c2.4-0.5,4.7-0.8,6.9-0.8c-2.1,1.2-4.2,2.6-6.3,4.1c-2.1,1.6-1.4,4.6,1.3,4.9c5.6,0.7,10.8,2.3,15.8,4.8
			C344.7,214.3,346.6,215.2,348.5,213z M343.8,197.6c-0.1-0.9-1.6-1.1-2.7-1.4c-3.9-0.9-7.6-1.3-11.4-1.1c0.6-0.7,1.1-1.5,1.7-2.2
			c0.9-0.8,2.1-2.4,2.8-3.3c1.7-2.4,1.4-4.4-4.2-2.5c-1.8,0.7-3.7,1.3-5.5,1.9c-1.1,0.3-2.3,0.5-3.4,0.9c2.8-2.3,5.6-4.7,8.4-7
			c5.4-4.4,9.4-8.2,15.3-12.3c5.9-5.3,6.4-3.7,6.3-1.5l0,3.4c-0.7,5.4-0.6,10.7-1.5,16.1c-1.1,7-3,13.8-5.2,20.5
			c-1.3-0.6-2.6-1.2-4-1.7c-2.1-1.1-4.3-1.9-6.7-2.3c2.4-1.4,4.8-2.7,7.5-3.8c0.4-0.2,0.7-0.4,1-0.7
			C343,200.1,344.2,198.4,343.8,197.6z"/>
		<path class="st0" d="M245.8,350.6c0-5.6,0.7-17,0.8-17.2c0.3-0.1,0.7-0.3,1-0.6c3.2-3.7,6.6-7.4,9.6-11.3c1.4-1.8,2.8-4.1,2.2-6.5
			c-1.5-6.1-13.7-4.8-18.1-4.8c-4.3,0-15.3-1-13.6,6.2c0.8,3.1,4.1,6.3,6.2,8.6c2.1,2.3,4.4,4.4,6.8,6.2c-1,5.4-1,11.3-0.1,16.9
			c0,0.7-0.1,1.4-0.1,2.1c0,0.2,0,0.4,0.1,0.6C237.9,351.4,249.7,353.1,245.8,350.6z"/>
		<path class="st0" d="M144.5,347.7c-6.6-0.1-13.4,0.6-20,2c0.1-2.9,0.2-5.8,0.3-8.7c3.7,0.1,7.3,0.2,11,0.3c1.3,0.2,2.7,0.4,4,0.6
			c4.1,0.6,5.9-5.6,1.7-6.3c-5.2-0.9-10.7-1.7-16.3-2.2c0.1-0.9,0.1-1.9,0.2-2.8c0-0.5,0.1-0.9,0.1-1.4c0.3-3.8,0.6-7.5,0.9-11.3
			c5.6,1,11.3,2.2,16.9,3.9c1.5,0.4,2.5-0.5,2.7-1.7c0.9-1.3,0.9-3.2-1-4.2c-5.2-2.8-11.4-5.2-17.8-6.7c1.8-19,4.3-37.9,6.9-56.9
			c0.1,0,0.2,0,0.3-0.1c0-0.7,0.1-1.3,0.2-2c-1.3-1.8-1.9-4-1.5-6.2c-0.7,0.6-1.4,1.1-2.1,1.6c-0.4,0.2-0.8,0.5-1.2,0.6
			c-0.2,0.9-0.5,1.8-1,2.6c0.1,1.1-0.1,2.3-0.4,3.4c0,0,0.1,0,0.1,0.1c-4.9,17.8-6.8,36.7-8.1,55.5c-7.6-1-15.2-0.6-22,1.9
			c-1.8,1.3-2.1,3.5-0.6,4.9c7.5,0.5,14.8,1.1,22,2.1c-0.3,5.4-0.6,10.7-0.9,16c-14.8-0.8-30.1,0.6-43.2,5.8
			c-0.5,0.3-0.9,0.7-1.2,1.1c-1.4,1.7-0.9,3.6,0.9,4.1c4-0.4,8-1,12-1.7c6.6-0.6,13.2-1.1,19.8-1.3c3.7-0.1,7.5-0.1,11.2-0.1
			c-0.2,3.5-0.4,6.9-0.6,10.4c-2.3,0.6-4.5,1.3-6.7,2c-3.9,1.3-11.2,2.9-14.5,6.6c-0.2,0.6-0.3,1.2-0.2,1.8c0.2,1.1,0.7,1.5,1.5,1.8
			c0.1,0,0.3,0.1,0.4,0.1c0.1,0,0.2,0,0.3,0c0.4,0,0.9-0.1,1.3-0.1c0.4-0.1,0.7-0.2,1.1-0.2c0,0,0,0,0.1,0c0.1-0.1,0.2-0.2,0.3-0.2
			c3.3-1.2,6.6-2.4,10-3.5c2.1-0.5,4.2-0.9,6-1.3c-1.2,20.1-2.2,40.3-2,60.4c2.8-0.6,5.7-1.2,8.5-1.7c-0.2-6.7-0.4-13.3-0.5-20
			c0.1-13.4,0.4-26.8,0.8-40.1c3.8-0.7,7.5-1.2,11.3-1.7c2.7-0.2,5.3-0.4,8.1-0.5c0.3-0.1,0.6-0.2,0.8-0.4
			C147.6,352.2,147.2,349,144.5,347.7z"/>
		<g>
			<path class="st0" d="M130.1,246.6v-50h-16.7c-0.4,0.2-0.4,0.2-0.4,0.2c-2,5.9-7.5,10-14,10c-8.3,0-15-6.7-15-15
				c0-8.3,6.7-15,15-15c7.3,0,13.4,5.3,14.6,12H138v0.2v7.7v50"/>
			<path class="st0" d="M154,238.5v-67.2c0,0,0-2.6-0.4-2.6c-0.2,0-24.6-19-24.6-19c1-2.4,1.4-5,1-7.9c-1-6.5-6.3-11.7-12.9-12.5
				c-9.7-0.6-17.8,7.9-15.9,17.6c1,5.7,5.7,10.5,11.5,11.5c4.4,0.8,8.3-0.2,11.5-2.6l22,17v65.6"/>
			<path class="st0" d="M178.1,232.2l-0.3-57.7c4.8-1.2,8.2-4.9,8.2-9.3c0-5.4-5.2-9.7-11.5-9.6c-6.3,0-11.3,4.5-11.2,9.9
				c0,4.4,3.8,8.2,8.6,9.2l0.3,57.6"/>
			<path class="st0" d="M257.6,209.3V102c7.5-2.2,12.9-9,12.9-17.3c0-10-8-18-18-18c-10,0-17.8,8.5-17.8,18.3
				c0,8.3,5.8,15.3,13.4,17.3v107.1"/>
			<path class="st0" d="M289.8,200v-47.9h16c0.4,0.2,0.4,0.2,0.4,0.2c1.9,5.7,7.2,9.5,13.4,9.5c8,0,14.4-6.4,14.4-14.4
				s-6.4-14.4-14.4-14.4c-7,0-12.9,5.1-14,11.5h-23.4v0.2v7.4V200"/>
			<path class="st0" d="M269.5,203.8v-71.4c0,0,0-2.3,0.4-2.7c0.4-0.2,26.1-20.2,26.1-20.2c-0.8-1.9-1.3-4-1.3-6.1
				c0-8.6,7-15.6,15.6-15.6c8.6,0,15.6,7,15.6,15.6s-7,15.6-15.6,15.6c-3.4,0-6.5-1.1-9.3-2.9L277.8,134v69.7"/>
			<path class="st1" d="M211.5,125.5c4.8,4.7,7.9,2,11.8-2.4c1.6-1.8,4.2-0.1,4.8,2.5c0.7,4,2.4,5.8,7.1,4.7c4-1,6.6,1.3,3.9,5.5
				c-2.4,3.7-2,5.7,1.6,8.3c3.6,2.7,2.8,5.6-1.6,6.5c-4,1-4.9,3.1-4.4,6.8c0.6,4.9-2.1,6.5-6,3.9c-3.4-2-5.2-1.4-7.2,1.5
				c-2.7,4.2-5.7,3.9-7.2-0.8c-1-3.5-2.5-5.1-6.6-4.4c-4.6,0.9-6.9-1.3-4.1-5.8c2-3.4,1.5-5.4-1.7-7.8c-4.2-3-3-5.9,1.6-6.9
				c3.7-0.7,5.1-2.8,4.1-6.3C206.5,127.5,207.5,125.6,211.5,125.5z M220.2,150.4c3.4-0.2,6.1-1.6,6.8-5.2c0.7-3.8-1.5-6.6-5.4-7
				c-3.6-0.4-6.1,1.6-6.5,5.2C214.7,147.2,216.7,149.1,220.2,150.4z"/>
			<g>
				<path class="st1" d="M193.4,131.7c0.3,0-1.1-0.3-2.5-0.5c-5.6-2-9.5-0.5-10.6,5.9c-0.5,3.4-1.7,6.7-5.9,7.3
					c-4.2,0.6-6.1-2.5-7.5-5.6c-3-6.1-7.3-7-12.8-3c-2.8,2-5.6,2.8-8.7,0.3c-3.4-2.5-2.8-5.6-1.4-8.7c2.8-7.3,0-10.9-7-12.6
					c-3-0.9-6.1-2.2-6.4-5.9c-0.3-3.9,2.8-5.3,5.6-7c6.4-3.6,7.3-6.1,3.6-13.1c-1.4-2.8-3-5.6-0.3-8.7c2.5-2.8,5.3-2.8,8.7-1.7
					c7,2.5,9.8,0.9,12.3-5.9c1.1-3,1.7-6.1,5.9-6.7c4.2-0.5,6.1,2.2,7.5,5.6c2.8,5.9,6.7,7.3,12,3.6c2.8-2,6.1-3.4,9.5-0.9
					c3.6,3,2.5,6.4,1.1,10c-2,5.6,0,8.7,5.3,10c3.6,0.9,7.3,2,7.8,6.7c0.3,4.2-3,5.6-6.1,7.3c-5.3,3-6.7,7-2.8,12.3
					c1.7,2.2,3,5,0.9,8.1C199.9,130.9,198.2,132.3,193.4,131.7z M191.5,104.7c-0.3-12-10.3-21.7-22.3-21.2
					c-11.7,0.3-21.2,10-20.9,21.7c0.3,12,10,21.5,22.3,21.2C182.2,126.1,191.7,116.4,191.5,104.7z"/>
				<path class="st1" d="M191.5,104.7c0.3,11.7-9.2,21.5-20.9,21.7c-12,0.3-22.1-9.2-22.3-21.2c0-11.7,9.5-21.5,20.9-21.7
					C181.4,83.2,191.5,92.6,191.5,104.7z M165.8,102.7c0,2.8,0,5.9,0,8.7c0,3,0.9,4.5,4.2,4.5c2.8,0,3.9-1.1,3.9-3.9
					c0-6.1,0-12.3,0-18.2c0-3-1.7-3.6-4.2-3.6c-2.5,0-4.2,0.9-3.9,3.9C165.8,96.8,165.8,99.9,165.8,102.7z M185.1,106.9
					c0-1.1,0-2.5,0-3.6c0-2.8,0.3-5.3-3.9-5.3s-3.6,2.8-3.6,5.3c0,2.8,0,5.9,0,8.7c0,2.8,1.1,3.6,3.9,3.6s3.9-1.1,3.6-3.9
					C184.7,110.2,185.1,108.6,185.1,106.9z M162.7,111.1c0.3-2.8-0.5-4.5-3.9-4.5c-3.9,0-4.2,2-4.2,5s1.4,4.2,4.5,4.2
					C162.5,115.8,163,113.8,162.7,111.1z"/>
			</g>
			<g>
				<path class="st2" d="M308.6,337.1c6.7,15.5-3.6,19.8-109.6,13.9"/>
				<path class="st3" d="M231,284.5c0,13.7-16.6,22.8-37,24.7c-37.7,3.5-41.9-10.1-37-24.7c4.3-12.9,16.6-24.7,37-24.7
					S231,270.8,231,284.5z"/>
				<ellipse class="st4" cx="293" cy="285.5" rx="37" ry="25"/>
				<ellipse class="st0" cx="198.5" cy="285" rx="8.5" ry="10.5"/>
				<ellipse class="st0" cx="296.5" cy="287" rx="8.5" ry="10.5"/>
			</g>
			<line class="st5" x1="293" y1="197.5" x2="133" y2="244.5"/>
		</g>
		<path class="st0" d="M428.3,334.4c-13.6-4.7-28.6-6.5-43-6.1c-2.8,0.1-5.8,0.2-8.9,0.4c-0.3-4.4-0.5-8.9-0.9-13.3
			c8.2-1.6,16.4-2.9,24.9-3.7c2.9-0.5,5.9-1,8.3-2.4c1.7-1,3.2-2.5,3-4.6c0,0,0-0.1,0-0.1c-0.6-0.9-1.5-1.6-2.9-1.6
			c-11.2-0.6-22.9,0.4-34,3.3c-0.2-1.6-0.3-3.2-0.5-4.9c-2.7-25.2-6.5-51.8-16.7-75.3c7-16.3,11.2-33.8,10.9-51.6
			c-0.1-9.2-1.6-32.7-13.9-34.6c-5.6-0.9-12.5,3.4-17.5,5.7c-7.3,3.4-14.1,7.5-20.5,12.4c-10.3,7.9-19.2,18-23.9,30
			c-0.2-0.7-0.5-1.3-0.8-2c-0.1,0.4-0.2,0.9-0.3,1.3c-1.5,4.7-2.6,9.7-5.6,13.5c2.5-1,5-2.1,7.5-3.1c0.3-0.1,0.5-0.3,0.7-0.5
			c0.5-0.2,0.9-0.5,1.1-1.1c0.6-1.4,1.4-2.6,2.1-3.9c0.3-0.9,0.7-1.8,1.4-2.6c2.1-3.7,4.3-7.2,6.7-10.4c3.3-4.1,6.9-7.9,10.9-11.5
			c9.7-8.4,21-15,33.1-19.2c0.6-0.2,1.4-0.6,2.2-0.9c1.9,0.1,3.4,1,4.7,2.4c0.2,0.5,0.4,0.9,0.6,1.4c1.2,2.9,1.9,6.3,2.5,9.4
			c1.3,6.9,1.6,14,1.2,21c-0.8,13.7-4.6,27-9.8,39.6c0.7,2.4,0.5,5.3,0.4,7.7c0,0,0,0,0,0.1c1.2,10.9,4.4,22.1,6.2,32.7
			c2.4,14.4,4.5,28.9,6.1,43.5c0.1,1.4,0.3,2.7,0.4,4.1c-6,2.4-11.7,5.4-16.9,9.2c-2.8,2.1-0.5,6.1,2.7,4.7c5-2.2,9.9-4.2,14.8-5.9
			c0.1,0,0.1,0,0.2,0c0.4,4.1,0.7,8.2,1,12.3c-5,0.8-9.9,2.1-14.4,3.9c-0.2,0.3-0.5,0.5-1,0.6c-0.2,0-0.4,0.1-0.6,0.2
			c-0.1,0.1-0.2,0.1-0.4,0.2c-2.2,1.1-3.9,2.4-5.1,4.4c0,1.3,0.9,2.5,2.4,2.4c6.6-0.4,13.1-1.8,19.7-3c0.3,4,0.5,8.1,0.7,12.1
			c-7.7-0.9-15.2-0.4-21.7,2.4c-2,0.9-1.4,4.1,0.6,4.6c7,1.5,14.3,1.4,21.5,2c0.4,10,0.6,20,0.7,30c0,1.2,0.7,1.8,1.6,2.1
			c0.2,0.3,0.5,0.5,1,0.6c2.1,0.4,4.2,0.8,6.3,1.1c0-3.3,0.7-24.7,0.5-32.2c9.8,2.3,19.3,5.8,28.8,9.2c1.9,0.7,3.3-0.1,4-1.4
			c0.1-1.3-0.1-2.5-0.7-3.7c-0.8-1.6-2.2-2.7-3.8-3.6c-4.5-1.8-9.1-3.4-14-4.7c-4.7-1.6-9.6-3.1-14.5-4.3
			c-0.1-5.2-0.3-10.5-0.6-15.7c2.8-0.4,5.6-0.6,8.4-0.7c14.1-0.3,27.3,2.2,40.9,5.7C431.1,343.2,433,336,428.3,334.4z"/>
	</g>
</g>
</svg>
