<?xml version="1.0" encoding="utf-8"?>
<!-- Generator: Adobe Illustrator 22.0.1, SVG Export Plug-In . SVG Version: 6.00 Build 0)  -->
<svg version="1.1" id="Layer_1" xmlns="http://www.w3.org/2000/svg" xmlns:xlink="http://www.w3.org/1999/xlink" x="0px" y="0px"
	 viewBox="0 0 540.7 254" style="enable-background:new 0 0 540.7 254;" xml:space="preserve">
<style type="text/css">
	.st0{fill:none;}
	.st1{enable-background:new    ;}
	.st2{fill:none;stroke:#000000;stroke-width:0.7152;stroke-miterlimit:10;}
	.st3{fill:#2A99D5;}
	.st4{fill:#FFF809;}
	.st5{fill:#2ADF1F;}
</style>
<g>
	<rect class="st0" width="57.2" height="38.1"/>
	<g class="st1">
		<path d="M35,25.1l-2.5-6.7h-8l-2.5,6.7h-2.3l7.9-21h1.9l7.8,21H35z M31.8,16.3l-2.3-6.5c-0.3-0.8-0.6-1.8-0.9-3
			c-0.2,0.9-0.5,1.9-0.9,3l-2.3,6.5H31.8z"/>
	</g>
	<rect x="304.6" y="95.7" class="st0" width="57.2" height="38.1"/>
	<g class="st1">
		<path d="M325.4,127.9v-1.5l8.6-13.2l-8.4-11.7v-1.5h14.8v2.2h-11.6l7.9,11.1l-8.2,12.6h12.8v2.2H325.4z"/>
	</g>
	<rect y="187.7" class="st0" width="57.2" height="38.1"/>
	<g class="st1">
		<path d="M22.3,191.9h5.6c2.6,0,4.6,0.4,5.7,1.2c1.2,0.8,1.8,2.1,1.8,3.9c0,1.2-0.3,2.3-1,3.1s-1.6,1.3-2.9,1.6v0.1
			c3,0.5,4.5,2.2,4.5,5c0,1.9-0.6,3.3-1.8,4.4c-1.2,1-2.9,1.6-5,1.6h-6.9V191.9z M24.6,200.8h3.8c1.6,0,2.8-0.3,3.5-0.8
			c0.7-0.5,1.1-1.4,1.1-2.7c0-1.2-0.4-2-1.2-2.5c-0.8-0.5-2.1-0.8-3.8-0.8h-3.4V200.8z M24.6,202.9v7.8h4.2c1.6,0,2.8-0.3,3.6-1
			c0.8-0.7,1.2-1.7,1.2-3.1c0-1.3-0.4-2.3-1.2-2.9c-0.8-0.6-2.1-0.9-3.8-0.9H24.6z"/>
	</g>
	<rect x="483.5" y="103" class="st0" width="57.2" height="38.1"/>
	<g class="st1">
		<path d="M520,128.1h-2.6l-5.4-9.2l-5.5,9.2h-2.5l6.6-10.9l-6.2-10h2.6l4.9,8.3l5-8.3h2.5l-6.2,9.9L520,128.1z"/>
	</g>
	<rect x="216.6" y="215.9" class="st0" width="226.8" height="38.1"/>
	<g class="st1">
		<path d="M249.3,241h-2.6l-5.4-9.2l-5.5,9.2h-2.5l6.6-10.9l-6.2-10h2.6l4.9,8.3l5-8.3h2.5l-6.2,9.9L249.3,241z"/>
	</g>
	<g class="st1">
		<path d="M258.8,241v-7.6c0-1-0.2-1.7-0.6-2.1c-0.4-0.5-1.1-0.7-2-0.7c-1.2,0-2,0.3-2.6,1c-0.5,0.7-0.8,1.8-0.8,3.3v6.2h-1.7v-11.8
			h1.4l0.3,1.6h0.1c0.3-0.6,0.8-1,1.5-1.3c0.6-0.3,1.3-0.5,2.1-0.5c1.3,0,2.4,0.3,3,1c0.7,0.7,1,1.8,1,3.3v7.7H258.8z"/>
	</g>
	<g class="st1">
		<path d="M271.1,228.7v-2h12.7v2H271.1z M271.1,234.6v-2h12.7v2H271.1z"/>
	</g>
	<g class="st1">
		<path d="M301.2,225c0.9,0,1.7,0.2,2.3,0.7c0.7,0.5,1.2,1.1,1.5,2h0.2c0.5-1.1,0.9-2,1.4-2.4h1.8c-0.3,0.7-0.7,1.8-1.1,3.1
			c-0.4,1.3-0.7,2.6-1,3.7l-1,4.6c-0.1,0.6-0.2,1.2-0.2,1.6c0,0.3,0.1,0.6,0.2,0.8s0.4,0.3,0.7,0.3c0.3,0,0.6-0.1,0.9-0.2v1.7
			c-0.2,0.1-0.4,0.2-0.8,0.3c-0.4,0.1-0.6,0.1-0.9,0.1c-1.6,0-2.4-0.9-2.4-2.8v-0.2h-0.1c-0.8,1-1.6,1.8-2.4,2.3
			c-0.8,0.5-1.6,0.7-2.4,0.7c-1.3,0-2.2-0.5-3-1.4c-0.7-0.9-1.1-2.2-1.1-3.9c0-2,0.3-3.8,1-5.5c0.6-1.7,1.5-3,2.6-4
			C298.7,225.5,299.9,225,301.2,225z M298.8,239.3c0.9,0,1.7-0.4,2.6-1.3c0.9-0.9,1.5-2,2.1-3.4s0.8-2.8,0.8-4.3
			c0-1-0.3-1.8-0.8-2.3s-1.2-0.9-2-0.9c-0.9,0-1.8,0.4-2.6,1.2s-1.4,1.9-1.9,3.3c-0.5,1.4-0.7,2.9-0.7,4.5c0,1.1,0.2,1.9,0.6,2.4
			C297.4,239,298,239.3,298.8,239.3z"/>
	</g>
	<g class="st1">
		<path d="M323.8,241l-2.5-6.7h-8l-2.5,6.7h-2.3l7.9-21h1.9l7.8,21H323.8z M320.6,232.2l-2.3-6.5c-0.3-0.8-0.6-1.8-0.9-3
			c-0.2,0.9-0.5,1.9-0.9,3l-2.3,6.5H320.6z"/>
	</g>
	<g class="st1">
		<path d="M342.3,241v-7.7c0-0.9-0.2-1.6-0.6-2.1c-0.4-0.5-1-0.7-1.8-0.7c-1.1,0-1.8,0.3-2.3,1c-0.5,0.6-0.8,1.6-0.8,2.9v6.6h-1.7
			v-7.7c0-0.9-0.2-1.6-0.6-2.1s-1-0.7-1.8-0.7c-1.1,0-1.8,0.3-2.3,1s-0.7,1.8-0.7,3.3v6.2H328v-11.8h1.4l0.3,1.6h0.1
			c0.3-0.6,0.8-1,1.4-1.3c0.6-0.3,1.2-0.5,2-0.5c1.8,0,2.9,0.7,3.4,2h0.1c0.3-0.6,0.8-1.1,1.5-1.5s1.4-0.5,2.2-0.5
			c1.3,0,2.2,0.3,2.8,1c0.6,0.7,0.9,1.8,0.9,3.3v7.7H342.3z"/>
	</g>
	<g class="st1">
		<path d="M365.4,229.7h5.6v2h-5.6v6.1h-1.9v-6.1h-5.6v-2h5.6v-6.1h1.9V229.7z"/>
	</g>
	<g class="st1">
		<path d="M379.1,248.1l4.6-22.7c0.4-1.7,0.8-3,1.4-3.9c0.6-0.9,1.3-1.7,2.2-2.2c0.9-0.5,1.9-0.7,3.2-0.7c1.6,0,2.8,0.4,3.7,1.3
			c0.9,0.9,1.3,2.1,1.3,3.6c0,1.5-0.4,2.8-1.2,3.8c-0.8,1-2,1.7-3.6,2.1c1.1,0.3,2,0.8,2.6,1.7c0.6,0.8,0.9,1.9,0.9,3.2
			c0,2.1-0.6,3.8-1.8,5.1c-1.2,1.3-2.8,1.9-4.9,1.9c-0.8,0-1.5-0.1-2.2-0.4c-0.7-0.2-1.4-0.7-2.1-1.3l-1.7,8.4H379.1z M390.2,220.6
			c-1.1,0-2,0.4-2.6,1.1c-0.7,0.7-1.2,2-1.6,3.8l-2.6,12.7c0.5,0.4,1.1,0.7,1.7,0.9c0.7,0.2,1.4,0.4,2.1,0.4c0.9,0,1.7-0.2,2.4-0.6
			s1.2-1,1.6-1.8s0.6-1.6,0.6-2.5c0-2.7-1.4-4.1-4.1-4.1h-0.9l0.4-2h1c1.6,0,2.7-0.4,3.6-1.2s1.2-1.9,1.2-3.4c0-0.9-0.3-1.7-0.8-2.3
			C391.8,220.9,391.1,220.6,390.2,220.6z"/>
	</g>
	<g class="st1">
		<path d="M398.6,220.1h5.6c2.6,0,4.6,0.4,5.7,1.2c1.2,0.8,1.8,2.1,1.8,3.9c0,1.2-0.3,2.3-1,3.1c-0.7,0.8-1.6,1.3-2.9,1.6v0.1
			c3,0.5,4.5,2.2,4.5,5c0,1.9-0.6,3.3-1.8,4.4c-1.2,1-2.9,1.6-5,1.6h-6.9V220.1z M400.9,229h3.8c1.6,0,2.8-0.3,3.5-0.8
			s1.1-1.4,1.1-2.7c0-1.2-0.4-2-1.2-2.5c-0.8-0.5-2.1-0.8-3.8-0.8h-3.4V229z M400.9,231.1v7.8h4.2c1.6,0,2.8-0.3,3.6-1
			c0.8-0.7,1.2-1.7,1.2-3.1c0-1.3-0.4-2.3-1.2-2.9c-0.8-0.6-2.1-0.9-3.8-0.9H400.9z"/>
	</g>
	<g class="st1">
		<path d="M417.3,229.2v7.6c0,1,0.2,1.7,0.6,2.1c0.4,0.5,1.1,0.7,2,0.7c1.2,0,2-0.3,2.6-1c0.5-0.7,0.8-1.8,0.8-3.3v-6.2h1.7V241
			h-1.4l-0.2-1.6h-0.1c-0.3,0.6-0.8,1-1.4,1.3c-0.6,0.3-1.3,0.5-2.1,0.5c-1.4,0-2.4-0.3-3.1-1c-0.7-0.7-1-1.8-1-3.3v-7.7H417.3z"/>
	</g>
	<g>
		<g>
			<path class="st2" d="M63.3,205.3c25.6-1,68.3,9,111.2-22.5c35.4-26,70.3-52.5,114.3-52.8"/>
			<g>
				<polygon points="286.8,132.7 287.9,130 286.7,127.4 293,130 				"/>
			</g>
		</g>
	</g>
	<g>
		<g>
			<path class="st2" d="M289.7,110.8c-20.7-1-65.1-5.7-100.9-22.3c-40.8-19-78.6-75.7-124.2-75.2"/>
			<g>
				<polygon points="287.8,108 288.8,110.7 287.6,113.3 294,110.9 				"/>
			</g>
		</g>
	</g>
	<rect x="301.6" y="79.2" class="st2" width="68" height="71.8"/>
	<g>
		<g>
			<line class="st2" x1="375" y1="117.3" x2="449.9" y2="117.3"/>
			<g>
				<polygon points="447.9,119.9 449.1,117.3 447.9,114.6 454.2,117.3 				"/>
			</g>
		</g>
	</g>
	<path class="st3" d="M50.5,24.7L50.5,24.7c-4.9,0-8.9-4-8.9-8.9v-0.9c0-4.9,4-8.9,8.9-8.9l0,0c4.9,0,8.9,4,8.9,8.9v0.9
		C59.4,20.7,55.4,24.7,50.5,24.7z"/>
	<path class="st4" d="M51,213.8L51,213.8c-4.9,0-8.9-4-8.9-8.9V204c0-4.9,4-8.9,8.9-8.9l0,0c4.9,0,8.9,4,8.9,8.9v0.9
		C59.9,209.8,55.9,213.8,51,213.8z"/>
	<path class="st5" d="M477,128L477,128c-4.9,0-8.9-4-8.9-8.9v-0.9c0-4.9,4-8.9,8.9-8.9l0,0c4.9,0,8.9,4,8.9,8.9v0.9
		C485.9,124,481.9,128,477,128z"/>
</g>
</svg>
