<?xml version="1.0" encoding="utf-8"?>
<!-- Generator: Adobe Illustrator 22.0.1, SVG Export Plug-In . SVG Version: 6.00 Build 0)  -->
<svg version="1.1" id="Layer_1" xmlns="http://www.w3.org/2000/svg" xmlns:xlink="http://www.w3.org/1999/xlink" x="0px" y="0px"
	 viewBox="0 0 580.6 254.1" style="enable-background:new 0 0 580.6 254.1;" xml:space="preserve">
<style type="text/css">
	.st0{opacity:0.49;fill:none;stroke:#2A99D5;stroke-width:1.2763;stroke-miterlimit:10;}
	.st1{opacity:0.49;fill:none;stroke:#2A99D5;stroke-width:3.6782;stroke-miterlimit:10;}
	.st2{fill:#FFF809;}
	.st3{fill:#FF0604;}
	.st4{opacity:0.49;fill:#2ADF1F;}
</style>
<g>
	<polyline class="st0" points="15.7,252.7 18.2,89.3 41.2,244.5 88.5,148.3 94.1,230.7 129.6,94.8 154.5,222.5 240.9,104.4 
		295.7,188.2 341.1,93.4 364.7,221.1 377.8,145.6 380.9,217 387.1,179.9 392.1,208.8 404.5,87.9 412.6,164.8 432.5,13.7 451.2,94.8 
		468,61.8 482.3,203.3 488.5,72.8 496,203.3 502.8,43.9 524.6,174.4 570,72.8 577.5,145.6 	"/>
	<path class="st1" d="M118.7,225.2"/>
	<path class="st1" d="M109.9,254.1"/>
	<path class="st1" d="M95.6,182.7"/>
	<path class="st1" d="M0,147"/>
	<rect x="121.1" y="78.8" class="st2" width="18.6" height="25.2"/>
	<rect x="562" y="60.2" class="st2" width="18.6" height="25.2"/>
	<rect x="425.9" class="st3" width="13.4" height="16.1"/>
	<ellipse class="st4" cx="298.5" cy="182.8" rx="3.6" ry="4.3"/>
	<ellipse class="st4" cx="302.6" cy="173.2" rx="3.6" ry="4.3"/>
	<ellipse class="st4" cx="307" cy="164.1" rx="3.6" ry="4.3"/>
	<ellipse class="st4" cx="311.3" cy="155.4" rx="3.6" ry="4.3"/>
	<ellipse class="st4" cx="315.6" cy="146.6" rx="3.6" ry="4.3"/>
	<ellipse class="st4" cx="320" cy="137.7" rx="3.6" ry="4.3"/>
	<ellipse class="st4" cx="324.3" cy="128.6" rx="3.6" ry="4.3"/>
	<ellipse class="st4" cx="328.2" cy="119.7" rx="3.6" ry="4.3"/>
	<ellipse class="st4" cx="332.2" cy="111.1" rx="3.6" ry="4.3"/>
	<ellipse class="st4" cx="336.7" cy="102.2" rx="3.6" ry="4.3"/>
</g>
</svg>
