<?xml version="1.0" encoding="utf-8"?>
<!-- Generator: Adobe Illustrator 22.0.1, SVG Export Plug-In . SVG Version: 6.00 Build 0)  -->
<svg version="1.1" id="Layer_1" xmlns="http://www.w3.org/2000/svg" xmlns:xlink="http://www.w3.org/1999/xlink" x="0px" y="0px"
	 viewBox="0 0 513.3 432.9" style="enable-background:new 0 0 513.3 432.9;" xml:space="preserve">
<style type="text/css">
	.st0{fill:#3A24AC;}
</style>
<g>
	<g>
		<path class="st0" d="M0,187.7c1-3.8,1.7-7.6,3-11.3c10.5-29.1,44.6-40.8,70.9-24.4c2.1,1.3,4.3,3.6,6.4,3.5c2,0,4.1-2.4,6.1-3.8
			c17.8-12.4,35.6-24.9,53.5-37.2c1.6-1.1,2.1-2,1.6-4c-8.3-29,9.4-57.3,39.1-61.9c19.5-3,45.6,7.9,52.5,34.7
			c1.2,4.8,1.9,9.7,2.6,14.7c0.3,1.9,1,2.8,2.8,3.4c15,5,29.9,10.1,44.8,15.3c1.7,0.6,2.6,0.2,3.9-0.9c4.4-4,8.5-8.5,13.4-11.7
			c16.5-10.7,33.6-10.1,50.5-0.7c6.9,3.8,6.8,4.2,13.1-0.2c17.3-11.8,34.5-23.7,51.8-35.5c4-2.7,4-2.8,2.8-7.6
			c-1.7-6.8-2-13.6-0.7-20.5c4-22.2,24.3-39.3,46.8-39.5c22.5-0.2,43.2,16.6,47.6,38.6c0.3,1.5,0.7,3,1,4.5c0,3.1,0,6.3,0,9.4
			c-1.4,4.8-2.3,9.9-4.3,14.5c-11.7,27.2-44.6,37.2-69.7,21.4c-1.9-1.2-3.8-2.5-5.7-3.7c-0.3,0.1-0.5,0.1-0.7,0.3
			c-18.2,12.8-36.4,25.5-54.7,38.3c-0.1,0.1-0.3,0.2-0.4,0.3c-4.5,2.5-5.5,6.2-4.8,11.2c1.4,10.7,1.1,21.1-4,31.1
			c-9.4,18.2-29.3,28.7-49.9,25.9c-17.3-2.4-36-15.7-40-38.3c-0.7-3.7-1.2-7.4-1.6-11.1c-0.2-1.6-0.7-2.6-2.5-3.1
			c-15.1-5.1-30.2-10.3-45.2-15.5c-1.5-0.5-2.5-0.4-3.6,0.8c-1.8,2-3.8,3.9-5.7,5.8c-16.4,15.9-40.3,18.3-59.6,6
			c-5.1-3.3-5.1-3.3-10.1,0.1c-18.4,12.7-36.7,25.5-55,38.2c-1.8,1.2-2.3,2.4-1.6,4.5c8.7,28.9-12.1,55.9-37.8,60.7
			c-21.2,4-44-8.4-52.6-29.4c-1.7-4.2-2.5-8.8-3.7-13.2C0,193.9,0,190.8,0,187.7z M349.4,144.2c1.4-13.2-10.7-24.1-24.4-23.8
			c-12.1,0.2-22.8,11.1-22.8,23.8c0,12.2,11,23.9,22.4,24C339.1,168.5,350.7,157.5,349.4,144.2z M48.2,216.6
			c12,0,23.8-12.1,24.1-23.9c0.2-12-12.1-24.7-24.6-24.4c-11.9,0.3-23.8,12.3-23.7,24.3C24,204.6,36.2,216.6,48.2,216.6z
			 M186.6,119.7c13.9,0,24.4-10,24.5-23.4c0.1-13.2-10.9-23.8-24.6-23.9c-12.7-0.1-22.9,10.6-23.1,23.8
			C163.3,108.2,173.7,120.8,186.6,119.7z M465.3,72c12.5-0.1,24-11.6,24-24c0-12.6-11.6-24-24.3-23.9c-12,0-23.9,12-23.9,24
			C441,60.1,453.2,72.1,465.3,72z"/>
		<path class="st0" d="M0,308.1c0.1-1.4,0.3-2.8,0.4-4.1c0.3-8.4,6.1-14.6,14.5-14.7c21.8-0.1,43.6,0,65.4,0.1
			c3.7,0,7.4,0.5,10.4,3.4s4.6,6.2,4.6,10.4c0,38.5-0.1,77,0.1,115.5c0,7.2-6.5,13.7-13.5,13.7c-22.5-0.2-45,0-67.5-0.1
			c-7.9-0.1-13.1-5.2-13.3-13.1c-0.4-12.6-0.5-25.1-0.7-37.7c0-1.4-0.2-2.8-0.3-4.1C0,354.2,0,331.2,0,308.1z"/>
		<path class="st0" d="M512.7,288.8c0,36.2,0,72.4,0,108.7c0,8.2-0.4,16.4-0.8,24.6c-0.3,4.2-5.1,9.3-9.4,9.7
			c-6.4,0.5-12.9,0.8-19.3,0.8c-16.9,0-33.9-0.2-50.8-0.2c-4.3,0-8-1.2-10.9-4.6c-1.7-2-2.9-4-3-6.7c-0.2-10.3-0.8-20.6-0.8-30.9
			c-0.1-76.3-0.1-152.6-0.2-228.8c0-4.2,0.8-7.8,3.6-11.1c3.3-4,7.5-5.4,12.5-5.4c13.3,0,26.5-0.1,39.8,0c8.8,0,17.6,0.2,26.4,0.5
			c7.1,0.2,12,5.1,12.5,12.2c0.3,5.3,0.5,10.6,0.5,16C512.7,211.9,512.7,250.4,512.7,288.8L512.7,288.8z"/>
		<path class="st0" d="M235.1,312.9c0,34.9,0,69.8,0,104.8c0,6.7-5.8,13.9-12.5,14.6c-6.6,0.7-13.2,0.7-19.9,0.6
			c-16.1-0.1-32.1-0.6-48.2-0.5c-7.8,0.1-11.4-4.9-15-10.4c-0.4-0.6-0.3-1.5-0.3-2.3c0-62.7,0-125.4,0.1-188
			c0-8.5,0.7-16.9,0.8-25.4c0.1-7.8,6.7-13.3,13.3-13.3c22.3,0,44.5-0.2,66.8-0.1c7.3,0,11.4,5,14.5,10.9c0.4,0.8,0.2,1.9,0.2,2.8
			C235.1,242.1,235.1,277.5,235.1,312.9z"/>
		<path class="st0" d="M374,336.9c0,27.4,0,54.8,0,82.2c0,4.6-5.9,12.2-10.5,12.6c-7.1,0.7-14.3,0.9-21.4,1
			c-15.5,0.2-31.1,0.2-46.6,0c-3.1,0-6.5-0.7-9.2-2.1c-4.9-2.6-7.6-7-7.5-12.8c0-5.5-0.4-11-0.3-16.5c0.1-47.9,0.2-95.8,0.3-143.7
			c0-5.8,1.4-10.8,6.6-13.9c2.1-1.2,4.6-2.4,7-2.5c16.3-0.2,32.6-0.3,48.9-0.2c6.8,0,13.6,0.4,20.4,0.6c2.8,0.1,5,1.3,6.9,3.2
			c3.6,3.6,5.7,7.5,5.6,13.1C373.8,284.2,374,310.5,374,336.9z"/>
	</g>
</g>
</svg>
