<?xml version="1.0" encoding="utf-8"?>
<!-- Generator: Adobe Illustrator 22.0.1, SVG Export Plug-In . SVG Version: 6.00 Build 0)  -->
<svg version="1.1" id="Layer_1" xmlns="http://www.w3.org/2000/svg" xmlns:xlink="http://www.w3.org/1999/xlink" x="0px" y="0px"
	 viewBox="0 0 491 429" style="enable-background:new 0 0 491 429;" xml:space="preserve">
<style type="text/css">
	.st0{fill:#3A24AC;}
</style>
<g>
	<path class="st0" d="M491,88.2c-52.9,25.6-105.7,51.1-158.6,76.6c-27.6,13.3-55.1,26.7-83,39.6c-4.1,1.9-10.1,2.6-14.1,1
		c-75.8-31.3-151.5-63-227.2-94.6c-2.3-1-4.5-2.2-8.2-4c31.3-13.3,61.4-26.1,91.5-38.9c52-22.2,103.9-44.6,156-66.4
		c4.7-2,11.5-2.1,16.2-0.3c71.9,26.9,143.4,54.1,215,81.2c4,1.5,8.3,2.4,12.4,3.6C491,86.7,491,87.5,491,88.2z"/>
	<path class="st0" d="M491,202.4c-80.3,38.4-160.5,77-240.9,115.1c-4.3,2-10.8,2.9-15,1.1c-77.9-32-155.6-64.5-234.9-97.6
		c3.4-1.7,5.6-3.1,8-4.1c26.3-10.7,52.6-21.7,79.1-31.8c5.1-1.9,12.4-2,17.4,0c42.6,17.2,85,34.9,127.2,53c7.8,3.4,13.9,3,21.4-0.6
		c44.9-22,89.9-43.6,135.2-64.8c4.6-2.2,11.4-2.5,16.3-1c28.9,9,57.5,18.9,86.1,28.5C491,200.9,491,201.7,491,202.4z"/>
	<path class="st0" d="M491,312.2c-3.4,1.2-6.9,2.1-10.1,3.7c-77,36.9-154,73.7-230.8,110.9c-6.2,3-11,2.8-17.1,0.2
		c-74.6-31.3-149.4-62.4-224.1-93.6c-2.6-1.1-5-2.5-8.8-4.5c29.8-12,58-23.6,86.5-34.7c3.1-1.2,7.8-0.3,11.2,1.1
		c45.8,18.9,91.5,38.3,137.4,57c4.3,1.7,10.7,1.6,14.9-0.3c48.2-22.6,96.1-46,144.3-68.6c4.6-2.2,11.3-2.7,16.1-1.1
		c27,8.7,53.8,18.3,80.6,27.7C491,310.8,491,311.5,491,312.2z"/>
</g>
</svg>
