<?xml version="1.0" encoding="utf-8"?>
<!-- Generator: Adobe Illustrator 22.0.1, SVG Export Plug-In . SVG Version: 6.00 Build 0)  -->
<svg version="1.1" id="Layer_1" xmlns="http://www.w3.org/2000/svg" xmlns:xlink="http://www.w3.org/1999/xlink" x="0px" y="0px"
	 viewBox="0 0 309.5 315.3" style="enable-background:new 0 0 309.5 315.3;" xml:space="preserve">
<style type="text/css">
	.st0{fill:#20145F;}
	.st1{fill:none;stroke:#20145F;stroke-width:8.302;stroke-miterlimit:10;}
	.st2{fill:none;}
</style>
<g>
	<path class="st0" d="M0,269c0.2-1,0.3-2,0.5-2.9c1-4.4,3.9-7.4,7.5-9.6c6.7-3.9,13.5-7.4,20.4-11c1.4-0.7,1.6-1.3,0.8-2.5
		c-0.1-0.2-0.2-0.4-0.3-0.5c-2.3-2.9-2.7-6.3-2.6-9.9c0.3-5.4,0.1-10.8,0.3-16.2c0.1-1.6,0.4-3.4,1.1-4.9c1.3-2.8,1.6-5.6,1.3-8.6
		c-0.2-1.8-0.3-3.6-0.4-5.8c3.3-0.1,6.5-0.3,9.7-0.3c0.4,0,1.1,0.6,1.1,1c0.2,1.3,0.8,1.1,1.8,1c4.3-0.7,8.7-0.9,13,0.2
		c7.5,1.9,13.7,9.3,14.1,17.1c0.3,6,0.4,12,0.5,18c0.1,2.8-0.4,5.4-2,7.8c-0.5,0.7-0.8,1.6-1.3,2.5c0.7,0.4,1.3,0.8,1.9,1.1
		c6.1,3.2,12.3,6.4,18.4,9.7c1.2,0.6,2.3,1.5,3.5,2.2c4.2,2.8,6,6.9,6.4,11.7c0.2,2.3,0.4,4.7,0,7.1c-0.6,4.4-3.2,6.5-7.6,6.6
		c-0.8,0-1.6,0-2.8,0c1.1,1,2,1.8,2.8,2.6c0.7,0.6,0.8,1.2,0.3,1.9c-0.7,1.1-1.4,2.2-2.1,3.3c-0.9,1.4-1.8,2.7-2.9,4.3
		c-3.2-2.4-6.4-4.7-9.5-7.1c-1-0.7-2-1.4-2.8-2.3c-2.2-2.4-4.8-2.8-7.9-2.8c-15.1,0.1-30.3,0.1-45.4,0c-4,0-8-0.2-12-0.6
		c-3.9-0.4-4.7-1.3-5.4-5.3c0-0.3-0.2-0.5-0.3-0.7C0,273.6,0,271.3,0,269z M85.5,271.8c-0.8-5.1-0.8-5.1-5.1-7.6
		c-0.8-0.4-1.6-0.9-2.3-1.3c-7-3.7-14-7.4-21-11.2c-2.6-1.4-3.3-3.4-2.9-6.4c0.4-2.5,1.7-4.6,3.1-6.7c0.4-0.6,0.8-1.3,0.8-2
		c0-6.4-0.1-12.7-0.4-19.1c-0.1-1.8-0.7-3.7-1.6-5.2c-2.1-3.4-7.4-5-11.6-3.6c-5,1.7-7.1,4.4-7.2,8.8c-0.1,5.6-0.1,11.3-0.3,16.9
		c-0.1,2,0.4,3.6,1.7,5.2c2,2.3,2.9,5.1,2.7,8.2c-0.1,1.5-0.5,2.6-1.9,3.3c-5.1,2.7-10.2,5.4-15.3,8.2c-3.8,2.1-7.6,4.3-11.2,6.7
		c-2,1.3-2.7,3.2-2.1,5.6C35.7,271.8,60.5,271.8,85.5,271.8z"/>
	<path class="st0" d="M309.4,278.8c0,0-0.1,0-0.1,0.1c-2.6,3.4-6.2,3.8-10.3,3.8c-20.9-0.2-41.8-0.1-62.6-0.1
		c-1.2,0-2.2,0.4-3.1,1.2c-3.3,2.7-6.6,5.4-9.9,8c-0.9,0.7-1.8,1.2-2.9,1.9c-2.2-2.6-4.2-5.2-6.4-7.9c1.4-1.1,2.8-2.2,4.2-3.4
		c-0.4-0.4-0.7-0.7-1.1-1c-2.6-1.6-3.5-4-3.4-7c0.1-3.2-0.5-6.5,0.9-9.6c1.6-3.8,4.2-6.7,7.7-8.7c6-3.3,12-6.5,18.1-9.6
		c3.4-1.8,3.4-1.7,1.8-5.2c-0.8-1.8-1.6-3.8-1.6-5.7c-0.1-6.7-0.3-13.5,0.2-20.2c0.6-8.6,8.3-16.1,16.9-17.3
		c10.2-1.4,18.7,2.9,23.1,12c1,2.1,1.6,4.6,1.7,6.9c0.3,5.3,0.1,10.6,0.1,15.9c0,3.2-0.6,6.2-2.3,9c-0.4,0.7-0.7,1.4-1.1,2.2
		c3.7,1.9,7.4,3.7,11,5.6c4.2,2.2,8.3,4.5,12.3,7c3.9,2.4,6.3,6,6.6,10.7c0,0.3,0.2,0.5,0.3,0.7
		C309.4,271.9,309.4,275.3,309.4,278.8z M299.1,271.8c0.1-3.9-1.7-6.3-5.1-7.9c-3.9-1.8-7.6-3.9-11.3-5.9c-3.8-2-7.6-4-11.4-6
		c-2.9-1.5-3.8-4.1-3.2-7.1c0.4-1.9,1.6-3.7,2.3-5.6c0.5-1.3,1.3-2.6,1.4-3.9c0.1-5.6,0.3-11.3,0-16.9c-0.4-6.9-5.6-11-12.2-9.9
		c-5.2,0.9-8.4,4.5-8.5,9.9s0,10.7-0.1,16.1c0,2,0.3,3.8,1.7,5.3c2,2.3,2.5,4.9,2.2,7.9c-0.2,1.9-0.9,3.1-2.6,3.9
		c-6.2,3.2-12.5,6.5-18.6,9.9c-2.6,1.4-5,3-7.4,4.7c-1.8,1.3-2.4,3.1-1.8,5.3C249.4,271.8,274.2,271.8,299.1,271.8z"/>
	<path class="st0" d="M93.6,215.6c-3.1-0.5-6-1-8.9-1.5c-2.6-0.5-5.2-0.9-7.7-1.5c-3.4-0.8-4.6-2.2-4.6-5.6c0-9.7,0.1-19.5,0.3-29.2
		c0.1-3.8,1.5-5.3,5.2-6c4.8-0.9,9.6-1.7,14.4-2.5c0.8-0.1,1.5-0.3,2.5-0.5c-0.9-1.3-1.7-2.5-2.5-3.6c-1.6-2.2-3.2-4.4-4.7-6.7
		c-1.7-2.5-1.6-4.9,0.2-7.3c0.8-1,1.5-2,2.4-2.9c6-6,11.9-12,18.1-17.9c4.5-4.2,6.2-4.2,11.3-0.7c2.6,1.8,5.3,3.6,8.2,5.6
		c0.6-3.4,1.1-6.5,1.6-9.6c0.4-2.2,0.7-4.5,1-6.7c0.4-2.2,1.5-4,3.2-5.4c0.3-0.3,1-0.4,1.4-0.4c9,0,18.1,0,27.1,0
		c1.7,0,3.5,0.3,5.2,0.5c2.5,0.3,3.8,1.9,4.3,4.2c0.7,3.8,1.3,7.6,1.9,11.3c0.3,1.7,0.6,3.4,0.8,5.1c0.2,1.4,0.8,1.6,1.9,0.8
		c2.3-1.6,4.7-3.2,7-4.9c5.1-3.7,6.8-3.9,11.4,0.5c7,6.6,13.7,13.5,20.5,20.4c2.1,2.1,2.3,3.8,0.8,6.4c-1.6,2.8-3.5,5.5-5.2,8.3
		c-0.6,0.9-1.1,1.9-1.8,3.1c2.4,0.4,4.6,0.9,6.8,1.2c3.2,0.5,6.3,1,9.5,1.6s4.3,1.8,4.6,5.1c0.1,1.3,0.3,2.5,0.3,3.8
		c-0.1,8.7-0.2,17.4-0.3,26c-0.1,4.2-1,5.3-5.1,6.1c-4.9,1-9.9,1.9-14.9,2.8c-0.5,0.1-1,0.3-1.7,0.5c0.9,1.5,1.7,2.8,2.6,4.1
		c1.4,2.1,2.9,4.3,4.4,6.4c1.6,2.4,1.5,4.7-0.3,7c-0.4,0.6-0.9,1.2-1.4,1.7c-6.8,6.7-13.5,13.5-20.4,20.2c-2.8,2.7-4.5,2.7-7.8,0.7
		c-2.8-1.7-5.4-3.6-8.1-5.4c-0.7-0.5-1.5-0.9-2.5-1.6c-0.4,2.7-0.8,5.2-1.2,7.6c-0.5,3.1-0.9,6.1-1.6,9.2c-0.7,3.4-1.6,4.3-5,4.3
		c-10.2,0.1-20.5,0.1-30.8,0c-3.3,0-4.7-1.4-5.4-4.7c-0.9-4.9-1.7-9.8-2.5-14.8c-0.1-0.6-0.2-1.2-0.4-2.1c-0.9,0.6-1.7,1-2.4,1.5
		c-3.2,2.1-6.3,4.1-9.5,6.2c-1.8,1.2-3.6,1-5.2-0.4c-8.1-7-16.1-14.2-23.1-22.4c-0.4-0.4-0.7-0.9-1-1.4c-1.2-1.6-1.3-3.1-0.1-4.9
		c2.1-3,4-6.2,6-9.3C92.9,217.3,93.1,216.6,93.6,215.6z M162,124c-6.7,0-13.3,0-19.9,0c-1.4,0-1.8,0.7-2,1.9
		c-0.7,4.6-1.4,9.1-2.3,13.7c-0.5,2.6-1.1,5.1-2,7.6c-0.9,2.6-2.7,3.2-5.3,2.3c-1.1-0.4-2.1-0.9-3.1-1.5c-3.9-2.6-7.8-5.3-11.7-8
		c-0.4-0.3-0.8-0.6-1.4-0.9c-5,5.2-9.9,10.2-14.9,15.2c-0.7,0.7-0.7,1.3-0.1,2.2c2.1,2.8,4.1,5.7,6.1,8.6c1.4,2,2.7,4,3.8,6.2
		c1.2,2.4,0.3,4.7-2.1,6c-0.8,0.4-1.7,0.7-2.5,0.9c-6.4,1.1-12.8,2.2-19.3,3.2c-1.7,0.3-2.6,0.9-2.6,2.7c0.1,5.9,0.1,11.8,0.2,17.7
		c0,1,0.5,1.3,1.5,1.5c3.5,0.6,6.9,1.2,10.4,1.9c3.5,0.7,7,1.3,10.5,2.2c2.9,0.8,4,3.5,2.8,6.3c-0.6,1.3-1.3,2.5-2,3.7
		c-2.4,3.6-4.8,7.3-7.3,10.8c-0.7,1-0.6,1.6,0.2,2.4c3.1,3.1,6.1,6.2,9.2,9.3c1.8,1.9,3.7,3.7,5.5,5.6c3.5-2.5,6.8-5,10.2-7.2
		c2.2-1.5,4.4-2.8,6.8-3.9c2.3-1,4.5,0.1,5.5,2.4c0.3,0.7,0.6,1.5,0.7,2.3c0.8,4.3,1.5,8.7,2.2,13.1c0.4,2.6,0.8,5.2,1.2,7.6
		c7,0,13.7,0,20.4,0c1.1,0,1.4-0.4,1.5-1.5c0.5-4.1,1.2-8.1,1.9-12.2c0.4-2.6,0.9-5.2,1.6-7.7c1-3.2,4.1-4.5,7-2.8
		c3.5,2,6.9,4.3,10.3,6.5c1.8,1.1,3.5,2.3,4.9,3.3c5.4-5.4,10.7-10.7,16-16c-2.8-4-5.8-8.1-8.7-12.3c-0.9-1.3-1.6-2.7-2.2-4.2
		c-0.8-2.4,0.2-4.4,2.5-5.4c0.9-0.4,1.9-0.7,2.8-0.9c6.4-1.1,12.7-2.2,19.1-3.1c1.2-0.2,1.7-0.7,1.7-1.7c0.1-1.3,0.2-2.5,0.2-3.8
		c0-4.6,0-9.3-0.1-13.9c0-1.6-0.5-2.5-2.3-2.7c-2.2-0.2-4.4-0.6-6.5-1c-4-0.7-8.1-1.3-12.1-2.2c-4-1-5.2-4.1-3.4-7.8
		c0.7-1.3,1.5-2.6,2.3-3.8c2.4-3.7,4.9-7.3,7.2-10.6c-5.1-5.2-10-10.3-14.9-15.4c-0.7-0.7-1.3-0.4-1.9,0c-3.3,2.3-6.6,4.7-10,6.9
		c-1.9,1.2-3.9,2.3-5.9,3.4c-1.2,0.6-2.7,0.7-3.7-0.4s-2-2.4-2.3-3.7c-1-4.2-1.6-8.6-2.3-12.9C163,130.4,162.5,127.1,162,124z"/>
	<path class="st0" d="M131.5,46.5c-0.7-1.3-1.5-2.4-2-3.6c-0.6-1.5-1.5-3.1-1.5-4.7c-0.1-6.9-0.1-13.9,0.3-20.8
		c0.5-8.1,8.3-15.4,16.2-17c7.2-1.5,18.4,0.9,23.7,11.4c1.3,2.6,2.1,5.1,2,8.1c-0.2,5.5-0.1,11-0.1,16.6c0,2.6-0.5,5.1-1.8,7.4
		c-0.5,0.9-0.9,1.8-1.4,2.8c1.4,0.7,2.6,1.4,3.9,2.1c5.6,2.8,11.1,5.8,16.7,8.5c6.6,3.1,9.1,8.5,9.7,15.3c0.2,1.6,0.2,3.2,0.4,4.7
		c0.1,0.6,0.6,1.3,1.1,1.6c2.1,1.1,4.2,2.1,6.3,3.2c1,0.4,1.2,1,0.7,2c-1.2,2.2-2.4,4.4-3.5,6.7c-0.5,1-1.2,1.2-2.3,0.7
		c-4.5-2-9-3.8-13.5-5.7c-0.8-0.3-1.8-0.5-2.7-0.5c-21.8,0-43.6,0-65.3,0c-0.9,0-1.8,0.2-2.6,0.5c-3.3,1.2-6.5,2.4-9.7,3.7
		c-1.2,0.5-1.9,0.1-2.5-1c-2.5-4.1-2.7-8.6-2.2-13.1c0.2-2.1,0.4-4.2,0.6-6.3c0.3-2.7,1.5-4.9,3.4-6.8c3.7-3.6,8.1-6,12.5-8.4
		c3.9-2.1,7.9-4.1,11.9-6.2C130.3,47.2,130.8,46.9,131.5,46.5z M186.5,74c0.1-3.2-0.4-5.7-3.5-7.2c-3.8-1.8-7.4-3.9-11.1-5.9
		c-4.5-2.4-9-4.9-13.4-7.3c-2-1.1-2.8-2.9-2.7-5.1c0-2.9,1.3-5.2,2.8-7.6c0.5-0.8,1.1-1.9,1.1-2.8c0-6.2-0.3-12.3-0.2-18.5
		c0-2.6-0.9-4.4-2.8-6.1c-3.2-2.8-6.8-4-10.9-2.5c-4.1,1.5-6.7,4.7-7,9.1c-0.3,5.1-0.3,10.2-0.2,15.3c0,2.5,0.6,4.9,2.2,6.9
		c1.4,1.7,2,3.6,2.3,5.8c0.3,3.1-0.4,4.7-3.1,6.2c-5,2.6-10.1,5.2-15.1,7.9c-3.4,1.8-6.8,3.8-10.1,5.9c-1,0.7-1.9,1.9-2.3,3
		c-0.7,1.8,0.3,2.8,2.1,2.9c1.1,0.1,2.1,0.1,3.2,0.1c21.4,0,42.8-0.1,64.2-0.1C183.3,74,184.8,74,186.5,74z"/>
	<path class="st0" d="M34.7,153c1.6-4,3.1-7.8,4.8-11.5c1.1-2.5,2.3-4.9,3.6-7.4c0.2-0.4,1-0.9,1.2-0.7c2.8,1.3,5.6,2.6,8.5,4
		c-0.6,1.6-1.1,2.9-1.7,4.3c-1.9,4.6-3.8,9.1-5.6,13.7c-0.3,0.8-0.7,1.1-1.7,0.8C40.9,155.1,38,154.1,34.7,153z"/>
	<path class="st0" d="M146,315.3c-3.8-0.4-7.3-0.8-10.8-1.2c-2.9-0.3-5.7-0.8-8.6-1.1c-1.3-0.2-1.9-0.7-1.7-2.1
		c0.3-2.2,0.5-4.5,0.9-6.7c0.3-2,0.5-2,2.5-1.7c5.3,0.7,10.5,1.3,15.8,1.9c2.6,0.3,2.8,0.6,2.6,3.2C146.6,310,146.3,312.5,146,315.3
		z"/>
	<path class="st0" d="M38.9,186.6c-2.9-0.2-6-0.5-9.1-0.8c-1-0.1-1.1-0.8-1-1.6c0.3-3.3,0.6-6.6,1.1-9.9c0.4-2.6,1-5.3,1.4-7.9
		c0.3-1.6,1.1-2.3,2.8-1.9c2.3,0.5,4.6,1,6.9,1.4c0.8,0.2,1.1,0.5,1,1.4C40.9,173.7,39.9,180,38.9,186.6z"/>
	<path class="st0" d="M261.6,169.8c3.5-0.2,6.9-0.5,10.7-0.7c0.6,7.2,1.1,14.2,1.7,21.6c-3.5,0-6.4,0.1-9.4-0.1
		c-0.5,0-1.1-1-1.2-1.6c-0.3-1.9-0.4-3.9-0.5-5.8C262.4,178.9,262,174.5,261.6,169.8z"/>
	<path class="st0" d="M95.5,94.6c-3.8,2.6-7.4,5-10.9,7.4c-1.5,1-2.9,2.1-4.4,3.1c-1.2,0.8-2.4,0.7-3.3-0.5
		c-1.6-2.2-3.1-4.3-4.7-6.4c0.1-0.2,0.1-0.4,0.1-0.4c5.3-3.7,10.6-7.3,16-11c1.2-0.8,2.1-0.7,2.9,0.7C92.5,89.8,94,92.2,95.5,94.6z"
		/>
	<path class="st0" d="M71.3,113.2c-1.8,2.1-3.5,3.9-5.1,5.9c-2.2,2.7-4.3,5.5-6.5,8.3c-1.2,1.5-1.5,1.6-3.1,0.5
		c-1.9-1.3-3.8-2.7-5.7-4c-0.8-0.6-1-1.1-0.4-1.9c3.9-4.8,7.7-9.6,11.6-14.3c1.3-1.6,1.6-1.5,3.2-0.1
		C67.3,109.3,69.2,111.2,71.3,113.2z"/>
	<path class="st0" d="M268.6,156.6c-0.3,0.3-0.6,1-1.2,1.2c-2.3,0.9-4.7,1.7-7.1,2.5c-0.3,0.1-1.1-0.3-1.3-0.7
		c-2.4-5.6-4.7-11.1-6.9-16.7c-0.2-0.4,0.1-1.5,0.5-1.7c2.5-1.3,5-2.6,7.6-3.7c0.3-0.1,1.1,0.6,1.3,1.1c2.2,5.4,4.4,10.8,6.5,16.2
		C268.4,155.2,268.4,155.7,268.6,156.6z"/>
	<path class="st0" d="M210.5,299.5c-1.2,0.7-2.1,1.5-3.2,2c-4.8,2.2-9.7,4.3-14.5,6.6c-1.4,0.7-2.2,0.3-2.8-1.1
		c-1-2.6-2.2-5.1-3.4-7.8c2.9-1.3,5.5-2.4,8.2-3.6c2.9-1.3,5.9-2.6,8.7-4c1.2-0.6,2.1-0.5,2.8,0.7
		C207.8,294.6,209.1,297,210.5,299.5z"/>
	<path class="st0" d="M246.7,132.9c-3.9-5.3-7.6-10.4-11.4-15.5c-0.8-1-0.7-1.8,0.4-2.6c1.9-1.4,3.7-2.9,5.6-4.4
		c0.8-0.6,1.4-0.6,2,0.2c3.6,5.1,7.3,10.2,10.9,15.2c0.6,0.9,0.4,1.5-0.5,2.1C251.4,129.6,249.1,131.2,246.7,132.9z"/>
	<path class="st0" d="M157,305c6.6-1.1,12.6-2.1,18.7-3.2c1-0.2,1.6,0.1,1.8,1.1c0.5,2.6,1.1,5.1,1.8,7.7c0.3,1.1-0.5,1.3-1.2,1.5
		c-2.4,0.6-4.9,1.2-7.4,1.5c-3.6,0.5-7.3,0.9-10.9,1.3c-1.2,0.2-1.9-0.2-2-1.5C157.4,310.6,157.2,307.7,157,305z"/>
	<path class="st0" d="M227.2,109.2c-5.6-4.3-10.9-8.4-16.4-12.7c1.9-2.6,3.7-5.1,5.6-7.5c0.2-0.3,1-0.4,1.3-0.2
		c5.2,4.1,10.4,8.2,15.6,12.3c0.2,0.2,0.3,0.4,0.6,0.7C231.6,104.2,229.4,106.6,227.2,109.2z"/>
	<path class="st0" d="M97.4,291.4c6.2,2.5,12.1,4.9,18,7.3c1.1,0.5,1,1.3,0.7,2.1c-0.8,2.7-1.8,5.5-2.7,8.4c-1.6-0.6-3.2-1-4.7-1.7
		c-4.2-1.7-8.4-3.4-12.6-5.3c-2.4-1-2.7-1.9-1.7-4.2C95.4,295.9,96.4,293.7,97.4,291.4z"/>
	<path class="st1" d="M85.5,271.8c-24.9,0-49.7,0-74.6,0c-0.6-2.4,0.1-4.4,2.1-5.6c3.7-2.3,7.4-4.5,11.2-6.7
		c5-2.8,10.2-5.5,15.3-8.2c1.4-0.7,1.9-1.9,1.9-3.3c0.2-3.1-0.8-5.8-2.7-8.2c-1.3-1.5-1.8-3.2-1.7-5.2c0.2-5.6,0.2-11.3,0.3-16.9
		c0.1-4.4,2.2-7.1,7.2-8.8c4.2-1.4,9.5,0.2,11.6,3.6c0.9,1.5,1.5,3.4,1.6,5.2c0.3,6.4,0.3,12.7,0.4,19.1c0,0.7-0.4,1.4-0.8,2
		c-1.4,2.1-2.7,4.1-3.1,6.7c-0.4,2.9,0.3,5,2.9,6.4c7,3.8,14,7.5,21,11.2c0.8,0.4,1.6,0.8,2.3,1.3C84.6,266.7,84.6,266.7,85.5,271.8
		z"/>
	<path class="st1" d="M299.1,271.8c-24.9,0-49.7,0-74.6,0c-0.5-2.2,0-4,1.8-5.3c2.4-1.7,4.9-3.3,7.4-4.7c6.2-3.4,12.4-6.6,18.6-9.9
		c1.7-0.9,2.4-2.1,2.6-3.9c0.3-3-0.3-5.7-2.2-7.9c-1.4-1.6-1.8-3.3-1.7-5.3c0.1-5.4,0-10.7,0.1-16.1s3.3-9.1,8.5-9.9
		c6.6-1.1,11.8,2.9,12.2,9.9c0.3,5.6,0.2,11.2,0,16.9c0,1.3-0.8,2.7-1.4,3.9c-0.8,1.9-2,3.7-2.3,5.6c-0.6,2.9,0.3,5.5,3.2,7.1
		c3.8,2,7.6,4,11.4,6c3.8,2,7.5,4.1,11.3,5.9C297.4,265.5,299.1,267.9,299.1,271.8z"/>
	<path class="st0" d="M162,124c0.5,3.1,1,6.4,1.5,9.6c0.7,4.3,1.3,8.6,2.3,12.9c0.3,1.4,1.4,2.7,2.3,3.7c1,1.1,2.5,1,3.7,0.4
		c2-1,4-2.1,5.9-3.4c3.4-2.2,6.7-4.6,10-6.9c0.7-0.5,1.2-0.8,1.9,0c4.9,5.1,9.9,10.2,14.9,15.4c-2.3,3.3-4.7,7-7.2,10.6
		c-0.8,1.2-1.6,2.5-2.3,3.8c-1.9,3.7-0.6,6.8,3.4,7.8s8,1.5,12.1,2.2c2.2,0.4,4.4,0.8,6.5,1c1.8,0.2,2.3,1.1,2.3,2.7
		c0,4.6,0.1,9.3,0.1,13.9c0,1.3-0.1,2.5-0.2,3.8c-0.1,1.1-0.5,1.6-1.7,1.7c-6.4,1-12.8,2-19.1,3.1c-1,0.2-1.9,0.5-2.8,0.9
		c-2.3,1-3.3,3-2.5,5.4c0.5,1.5,1.3,2.9,2.2,4.2c2.9,4.2,5.9,8.3,8.7,12.3c-5.3,5.3-10.6,10.6-16,16c-1.5-1-3.2-2.2-4.9-3.3
		c-3.4-2.2-6.8-4.4-10.3-6.5c-2.9-1.7-6-0.4-7,2.8c-0.8,2.5-1.2,5.1-1.6,7.7c-0.7,4-1.3,8.1-1.9,12.2c-0.1,1-0.5,1.5-1.5,1.5
		c-6.7,0-13.5,0-20.4,0c-0.4-2.4-0.8-5-1.2-7.6c-0.7-4.4-1.4-8.7-2.2-13.1c-0.1-0.8-0.4-1.5-0.7-2.3c-1-2.4-3.2-3.5-5.5-2.4
		c-2.4,1.1-4.7,2.4-6.8,3.9c-3.4,2.3-6.7,4.7-10.2,7.2c-1.9-1.9-3.7-3.8-5.5-5.6c-3.1-3.1-6.1-6.3-9.2-9.3c-0.8-0.8-0.9-1.4-0.2-2.4
		c2.5-3.6,4.9-7.2,7.3-10.8c0.8-1.2,1.5-2.4,2-3.7c1.2-2.8,0.1-5.5-2.8-6.3c-3.4-0.9-7-1.5-10.5-2.2s-6.9-1.3-10.4-1.9
		c-0.9-0.2-1.4-0.5-1.5-1.5c-0.1-5.9-0.1-11.8-0.2-17.7c0-1.8,0.9-2.4,2.6-2.7c6.4-1,12.9-2.1,19.3-3.2c0.9-0.1,1.7-0.4,2.5-0.9
		c2.4-1.3,3.3-3.6,2.1-6c-1.1-2.2-2.4-4.2-3.8-6.2c-2-2.9-4-5.8-6.1-8.6c-0.6-0.8-0.6-1.4,0.1-2.2c4.9-5,9.9-10.1,14.9-15.2
		c0.5,0.4,1,0.6,1.4,0.9c3.9,2.7,7.8,5.4,11.7,8c1,0.6,2,1.1,3.1,1.5c2.6,1,4.4,0.3,5.3-2.3c0.9-2.5,1.5-5,2-7.6
		c0.9-4.5,1.6-9.1,2.3-13.7c0.2-1.2,0.6-1.9,2-1.9C148.7,124,155.3,124,162,124z M183.7,192.6c-0.2-2-0.2-4-0.6-6
		c-2.1-12.3-8.7-20.9-20.8-24.8c-2.6-0.8-5.3-1.2-8-1.6c-20.3-2.6-38.9,16.8-34.8,38.1c3.3,17,19.2,28.1,36.4,25.8
		C171.5,222.1,183.6,208.3,183.7,192.6z"/>
	<path class="st1" d="M186.5,74c-1.6,0-3.2,0-4.8,0c-21.4,0-42.8,0.1-64.2,0.1c-1.1,0-2.1-0.1-3.2-0.1c-1.8-0.1-2.8-1.2-2.1-2.9
		c0.4-1.2,1.3-2.4,2.3-3c3.3-2.1,6.6-4,10.1-5.9c5-2.7,10.1-5.2,15.1-7.9c2.8-1.5,3.5-3,3.1-6.2c-0.2-2.1-0.9-4.1-2.3-5.8
		c-1.6-2-2.2-4.5-2.2-6.9c-0.1-5.1-0.1-10.2,0.2-15.3c0.3-4.5,2.8-7.6,7-9.1c4.1-1.5,7.7-0.3,10.9,2.5c1.9,1.7,2.8,3.4,2.8,6.1
		c-0.1,6.1,0.2,12.3,0.2,18.5c0,0.9-0.5,2-1.1,2.8c-1.5,2.3-2.8,4.7-2.8,7.6c0,2.2,0.7,4,2.7,5.1c4.5,2.5,8.9,4.9,13.4,7.3
		c3.7,2,7.4,4.1,11.1,5.9C186.1,68.3,186.6,70.8,186.5,74z"/>
	<path class="st2" d="M183.7,192.6c-0.1,15.7-12.1,29.5-27.7,31.6c-17.2,2.3-33.1-8.9-36.4-25.8c-4.1-21.3,14.5-40.7,34.8-38.1
		c2.7,0.3,5.5,0.7,8,1.6c12,3.9,18.7,12.5,20.8,24.8C183.4,188.6,183.5,190.6,183.7,192.6z M151.1,213.5c12.4,1,21.8-9.9,21.8-21
		c0-10.9-8.5-21.9-21.5-21.9c-12.7,0-21.5,10.9-21.7,21.3C129.5,203.8,140.1,214.7,151.1,213.5z"/>
</g>
</svg>
