<?xml version="1.0" encoding="utf-8"?>
<!-- Generator: Adobe Illustrator 22.0.1, SVG Export Plug-In . SVG Version: 6.00 Build 0)  -->
<svg version="1.1" id="Layer_1" xmlns="http://www.w3.org/2000/svg" xmlns:xlink="http://www.w3.org/1999/xlink" x="0px" y="0px"
	 viewBox="0 0 195.6 210.5" style="enable-background:new 0 0 195.6 210.5;" xml:space="preserve">
<style type="text/css">
	.st0{fill:#20145F;}
	.st1{fill:#20145F;stroke:#FFFFFF;stroke-miterlimit:10;}
	.st2{fill:none;stroke:#FFFFFF;stroke-width:7;stroke-miterlimit:10;}
	.st3{fill:#FFFFFF;}
</style>
<g>
	<path class="st0" d="M176.5,87.5C176.5,39.2,137.3,0,89,0S1.5,39.2,1.5,87.5c0,28.4,13.5,53.6,34.5,69.6H18.6v21.2h139.8v-21.2
		h-16.2C163,141.1,176.5,115.8,176.5,87.5z"/>
	<rect x="0.5" y="178.2" class="st1" width="176" height="31.8"/>
	<path class="st2" d="M89.1,18.1c-39.7,0-71.8,29-71.8,64.9"/>
	<circle class="st3" cx="101.4" cy="15.9" r="5.6"/>
	<polygon class="st3" points="142.7,25.7 140.8,38.9 150.6,47.9 137.5,50.2 131.9,62.2 125.7,50.5 112.5,49 121.8,39.4 119.1,26.4 
		131.1,32.2 	"/>
	<polygon class="st0" points="179.2,8.3 184.2,18.6 195.6,20.4 187.3,28.3 189.2,39.6 179,34.2 168.8,39.5 170.9,28.2 162.7,20.1 
		174.1,18.5 	"/>
	<polygon class="st3" points="152.8,75.3 150.9,85.7 158.3,93.3 147.8,94.6 142.9,104 138.4,94.4 127.9,92.7 135.7,85.5 134.1,75 
		143.4,80.1 	"/>
</g>
</svg>
