<?xml version="1.0" encoding="utf-8"?>
<!-- Generator: Adobe Illustrator 22.0.1, SVG Export Plug-In . SVG Version: 6.00 Build 0)  -->
<svg version="1.1" id="Layer_1" xmlns="http://www.w3.org/2000/svg" xmlns:xlink="http://www.w3.org/1999/xlink" x="0px" y="0px"
	 viewBox="0 0 188.4 178.1" style="enable-background:new 0 0 188.4 178.1;" xml:space="preserve">
<style type="text/css">
	.st0{fill:none;stroke:#FFFFFF;stroke-width:2;stroke-miterlimit:10;}
</style>
<g>
	<path class="st0" d="M58.7,174c-16,0-32,0-48,0c-6.2,0-8-2-7.7-8.1c0.5-11.1,6.1-19.5,14.4-26.3c10.5-8.6,22.8-13.5,35.7-16.9
		c5.6-1.5,6.5-4.8,3.8-10.1c-5.5-10.7-12.6-20.7-15.2-32.7c-1.2-5.6-1.8-11.2,1.4-16.5c0.9-1.5,0.5-2.8,0.4-4.3
		c-0.7-7.1-1.9-14.2-0.4-21.4c1.7-8.5,5.4-15.4,14.5-17.8c1.7-0.4,2.3-1.5,3-2.9C66.5,6.5,76.8,1.9,88.8,3.6
		c10.3,1.5,20.6,0.7,30.9-0.1c1.7-0.1,3.8-1.4,5,0.6c1,1.7,0.2,3.9-0.8,5.2c-2.4,3.1-1.2,4.5,1.4,6.7c7.7,6.6,11.1,15.6,11.9,25.5
		c0.5,6,0.4,12-0.7,17.9c-0.2,1.1-0.4,2.5,0.1,3.4c5.9,12.3,0.9,22.9-4.9,33.4c-3.4,6.1-5.9,12.5-9.5,18.5c-2.3,3.9-0.4,6.6,4,7.9
		c10.5,2.9,10.5,2.9,10.5,13.6c0,1.5-0.1,3,0,4.5c0.1,1.9-0.3,2.8-2.5,2.1c-3.6-1.1-7.3-0.5-10.9-0.5c-7.2,0.1-11.8,4.8-11.9,12
		c-0.1,5.3-0.3,10.7,0.1,16c0.2,3.5-1.1,4-4.1,4C91.1,173.9,74.9,174,58.7,174z M124.4,62.3c0.4-3.8-0.5-7.6-3.3-10.8
		c-1-1.1-2-2-3.8-1.8c-11.9,1.8-22.9-1.3-34-5.6s-19.6-0.3-24,10.8c-1.2,3.1-1.8,6.4-2.7,9.6c-0.3,1-0.2,2.6-0.7,2.8
		c-7.3,2.7-4.2,8.4-2.7,12.4c3.5,9.8,7.7,19.6,13.7,28.1c12.2,17.2,32.9,17.1,45.9,0.6c3.3-4.2,5.6-9,7.2-14.1
		c0.4-1.2,0.3-2.4,1.4-3.5c5.4-5.2,6.5-12,6.9-19.1c0.1-1.2-0.1-2.9-1.1-3.1C122.9,68,124.3,65.1,124.4,62.3z M88,144.9
		c9.3,0,16.1-2.3,21.9-6.7c6.2-4.7,6.1-4.9,1.6-11c-1.2-1.6-1.8-1.9-3.4-0.9c-11.9,7-23.9,6.7-36,0.3c-4.8-2.5-3.9,3.5-6.7,4.5
		c-2.4,0.9-0.1,2.5,0.7,3.3C72.6,141.4,80.7,144.7,88,144.9z"/>
	<path class="st0" d="M160.2,144.9c0,8.2-0.1,16.3,0.1,24.5c0.1,4-1.4,5.7-5.5,5.7c-10.2,0-10.2,0.2-10.2-10
		c0-14.6,0.1-29.3-0.1-43.9c-0.1-4.7,1.4-7,6.3-6.3c1.1,0.2,2.3,0.1,3.5,0c4.7-0.6,6.1,1.7,5.9,6.2
		C160,128.9,160.2,136.9,160.2,144.9z"/>
	<path class="st0" d="M170.1,155c0-5.2,0.1-10.3,0-15.5c-0.1-3.1,1.3-4.4,4.4-4.6c10.9-0.6,10.9-0.6,10.9,10c0,8.3-0.1,16.6,0,24.9
		c0.1,3.6-1.3,5-5,5.1c-10.4,0.2-10.4,0.3-10.4-10.1C170.1,161.6,170.1,158.3,170.1,155z"/>
	<path class="st0" d="M119.2,162.8c0-0.8,0-1.7,0-2.5c-0.2-11-0.7-10.2,11.3-10.2c2.9,0,4.3,1.6,4.3,4.3c0,5.5,0.1,10.9,0,16.4
		c0,2.8-1.4,4.2-4.3,4.2C117.5,175,119.2,176,119.2,162.8z"/>
</g>
</svg>
