<?xml version="1.0" encoding="utf-8"?>
<!-- Generator: Adobe Illustrator 22.0.1, SVG Export Plug-In . SVG Version: 6.00 Build 0)  -->
<svg version="1.1" id="Layer_1" xmlns="http://www.w3.org/2000/svg" xmlns:xlink="http://www.w3.org/1999/xlink" x="0px" y="0px"
	 viewBox="0 0 146.3 162.7" style="enable-background:new 0 0 146.3 162.7;" xml:space="preserve">
<style type="text/css">
	.st0{fill:none;stroke:#FFFFFF;stroke-miterlimit:10;}
	.st1{display:none;fill:none;stroke:#FFFFFF;stroke-miterlimit:10;}
	.st2{fill:none;}
	.st3{font-family:'MyriadPro-Regular';}
	.st4{font-size:12px;}
</style>
<g>
	<path class="st0" d="M1.8,161.9"/>
	<path class="st0" d="M1.8,161.9c-0.6-0.9-1.1-2-1.2-3.2c-0.1-0.5-0.1-1.1-0.1-1.7c0.4-16.1,2.5-31.8,8.7-46.8
		c2.9-7.1,8.6-10.6,15.3-13.2c7.8-3,15.3-6.5,22.9-9.8c0.2-0.1,0.4-0.2,0.6-0.3c-1.3,4.8-2.3,12,0.1,19.7c2,6.5,5.7,10.6,7.3,12.5
		c5.5,6.5,11.9,18.1,15.6,40.4c0.2-0.2,0.7-0.6,1.1-1.1c10.3-11.1,2.2-23.8,9.6-38.5c4.3-8.4,9-8.3,10.8-16.5
		c1.4-6.4-0.2-12.4-1.8-16.4c8,3.4,16.1,7.3,24.5,10.4c8,3,12.9,8.2,15.8,16.1"/>
	<path class="st0" d="M37.2,33.9c-0.7-14.5,4.2-23.3,17.4-30.5c3.5-1.9,8.2-3.4,11.8-2.7c8.4,1.7,16.9,4.1,24.6,7.8
		c9.9,4.7,13.4,13.8,12.5,24.5c0,1.9,0.1,3.8,0.2,5.6"/>
	<path class="st0" d="M97.6,68.8c-3.1,7.3-7.7,13.8-14.9,18.8C73,94.5,62.8,94,54.1,85.8c-3.7-3.5-7.2-7.6-9.4-12.1
		c-1.8-3.8-3.3-7.9-4.7-11.9"/>
	<path class="st1" d="M70.3,111.1c-3.4-5.2-6.3-9.8-9.4-14.5c6.3,0,12.3,0,18.8,0c-2.9,4.7-6,9.4-8.9,14.1c0.2,0.5,0.3,0.9,0.6,1
		c7,2.6,6.9,7.6,5.6,13.9c-2.3,10.7-3.7,21.6-5.5,32.5c-0.2,1-0.5,2.1-1.6,3c-2.4-14.2-4.8-28.4-7-42.6c-0.2-1.1,0.9-2.6,1.8-3.5
		C66.2,113.6,68.1,112.6,70.3,111.1z"/>
</g>
<line class="st0" x1="1.7" y1="161.9" x2="136.9" y2="162.2"/>
<path class="st0" d="M103.7,37.8l10.8,53.8c0,0-15.4-4.5-19.9-36.5s2.9-33.9-17.9-28.1C61.2,31.2,57,45.5,42.4,59.6
	c-35,34-11,4.5-11,4.5l5.8-30.5"/>
<path class="st0" d="M70.4,160.3"/>
<line class="st0" x1="92.1" y1="87.6" x2="99.8" y2="99.9"/>
<line class="st0" x1="92.1" y1="110.9" x2="99.8" y2="99.9"/>
<line class="st0" x1="97.8" y1="120.6" x2="92.1" y2="110.9"/>
<line class="st0" x1="72.2" y1="158.3" x2="97.8" y2="119.6"/>
<line class="st0" x1="47.5" y1="87.1" x2="37.1" y2="98.9"/>
<line class="st0" x1="43.4" y1="108.9" x2="37.1" y2="98.9"/>
<line class="st0" x1="70.9" y1="159.9" x2="40.4" y2="116.6"/>
<line class="st0" x1="43.4" y1="108.9" x2="40.4" y2="116.6"/>
<image style="display:none;overflow:visible;" width="160" height="160" xlink:href="../../../EU Funds/Imágenes/moleskine.png"  transform="matrix(0.3479 0 0 0.3479 100.1679 113.528)">
</image>
<g>
	<g>
		<line class="st0" x1="111.5" y1="136.8" x2="111.5" y2="130.8"/>
		<polyline class="st0" points="111.5,144.5 111.5,138.9 111.5,138.9 		"/>
		<line class="st0" x1="111.5" y1="147.7" x2="111.5" y2="146.5"/>
		<line class="st0" x1="111.5" y1="151.9" x2="111.5" y2="147.7"/>
		<path class="st0" d="M111.5,128.6V122c0-1.1,0.9-2,2-2h30.3c1.1,0,2,0.9,2,2v38.1c0,1.1-0.9,2-2,2h-30.3c-1.1,0-2-0.9-2-2v-6.3"/>
		<rect x="120.8" y="128.3" class="st0" width="15.3" height="8.3"/>
		<line class="st0" x1="123.8" y1="132.4" x2="133.2" y2="132.5"/>
	</g>
	<g>
		<g>
			<ellipse class="st0" cx="142.3" cy="134.8" rx="0.9" ry="0.8"/>
			<ellipse class="st0" cx="142.3" cy="137.8" rx="0.9" ry="0.8"/>
			<ellipse class="st0" cx="136.5" cy="122.8" rx="0.9" ry="0.8"/>
			<ellipse class="st0" cx="142.3" cy="122.8" rx="0.9" ry="0.8"/>
			<ellipse class="st0" cx="142.3" cy="125.8" rx="0.9" ry="0.8"/>
			<ellipse class="st0" cx="139.3" cy="122.8" rx="0.9" ry="0.8"/>
			<ellipse class="st0" cx="114.2" cy="144.5" rx="1.4" ry="1.2"/>
			<ellipse class="st0" cx="114.2" cy="128.7" rx="1.4" ry="1.2"/>
			<ellipse class="st0" cx="114" cy="152" rx="1.4" ry="1.2"/>
			<ellipse class="st0" cx="114.2" cy="136.8" rx="1.4" ry="1.2"/>
		</g>
		<ellipse class="st0" cx="115.3" cy="122.8" rx="0.9" ry="0.8"/>
		<ellipse class="st0" cx="118.3" cy="122.8" rx="0.9" ry="0.8"/>
		<ellipse class="st0" cx="118.3" cy="158.8" rx="0.9" ry="0.8"/>
		<ellipse class="st0" cx="115.3" cy="158.8" rx="0.9" ry="0.8"/>
		<ellipse class="st0" cx="121.3" cy="122.8" rx="0.9" ry="0.8"/>
		<ellipse class="st0" cx="130.3" cy="158.8" rx="0.9" ry="0.8"/>
		<ellipse class="st0" cx="127.3" cy="158.8" rx="0.9" ry="0.8"/>
		<ellipse class="st0" cx="124.3" cy="158.8" rx="0.9" ry="0.8"/>
		<ellipse class="st0" cx="121.3" cy="158.8" rx="0.9" ry="0.8"/>
		<ellipse class="st0" cx="130.3" cy="122.8" rx="0.9" ry="0.8"/>
		<ellipse class="st0" cx="127.3" cy="122.8" rx="0.9" ry="0.8"/>
		<ellipse class="st0" cx="124.3" cy="122.8" rx="0.9" ry="0.8"/>
		<ellipse class="st0" cx="139.3" cy="158.8" rx="0.9" ry="0.8"/>
		<ellipse class="st0" cx="136.3" cy="158.8" rx="0.9" ry="0.8"/>
		<ellipse class="st0" cx="133.3" cy="158.8" rx="0.9" ry="0.8"/>
		<ellipse class="st0" cx="133.3" cy="122.8" rx="0.9" ry="0.8"/>
		<ellipse class="st0" cx="142.3" cy="140.8" rx="0.9" ry="0.8"/>
		<ellipse class="st0" cx="142.3" cy="143.8" rx="0.9" ry="0.8"/>
		<ellipse class="st0" cx="142.3" cy="149.8" rx="0.9" ry="0.8"/>
		
			<ellipse transform="matrix(0.7071 -0.7071 0.7071 0.7071 -66.3381 145.3576)" class="st0" cx="142.3" cy="152.8" rx="0.9" ry="0.8"/>
		<ellipse class="st0" cx="142.3" cy="155.8" rx="0.9" ry="0.8"/>
		<ellipse class="st0" cx="142.3" cy="158.8" rx="0.9" ry="0.8"/>
		<ellipse class="st0" cx="142.3" cy="146.8" rx="0.9" ry="0.8"/>
		<ellipse class="st0" cx="142.3" cy="128.8" rx="0.9" ry="0.8"/>
		<ellipse class="st0" cx="142.3" cy="131.8" rx="0.9" ry="0.8"/>
	</g>
	<path class="st0" d="M114.3,128.7c-1.9,0-3.7-0.1-5.6-0.1c-0.1,0-1,0.4-1.3,1.3c-0.2,0.7,0,1.4,0.2,1.8c0.6,0.9,2,1.3,3.3,0.8"/>
	<path class="st0" d="M114.3,136.8c-1.9,0-3.7-0.1-5.6-0.1c-0.1,0-1,0.4-1.3,1.3c-0.2,0.7,0,1.4,0.2,1.8c0.6,0.9,2,1.3,3.3,0.8"/>
	<path class="st0" d="M114.3,144.6c-1.9,0-3.7-0.1-5.6-0.1c-0.1,0-1,0.4-1.3,1.3c-0.2,0.7,0,1.4,0.2,1.8c0.6,0.9,2,1.3,3.3,0.8"/>
	<path class="st0" d="M114.3,152c-1.9,0-3.7-0.1-5.6-0.1c-0.1,0-1,0.4-1.3,1.3c-0.2,0.7,0,1.4,0.2,1.8c0.6,0.9,2,1.3,3.3,0.8"/>
	<rect x="119.7" y="141.9" class="st2" width="18.3" height="14"/>
	<text transform="matrix(1 0 0 1 125.7147 151.9886)" class="st0 st3 st4">$</text>
	<ellipse class="st0" cx="128.7" cy="148.2" rx="7.3" ry="7"/>
</g>
</svg>
