<?xml version="1.0" encoding="utf-8"?>
<!-- Generator: Adobe Illustrator 22.0.1, SVG Export Plug-In . SVG Version: 6.00 Build 0)  -->
<svg version="1.1" id="Layer_1" xmlns="http://www.w3.org/2000/svg" xmlns:xlink="http://www.w3.org/1999/xlink" x="0px" y="0px"
	 viewBox="0 0 148.8 168.2" style="enable-background:new 0 0 148.8 168.2;" xml:space="preserve">
<style type="text/css">
	.st0{fill:none;stroke:#FFFFFF;stroke-width:2;stroke-miterlimit:10;}
	.st1{fill:none;stroke:#FFFFFF;stroke-miterlimit:10;}
	.st2{font-family:'MyriadPro-Regular';}
	.st3{font-size:12px;}
</style>
<g>
	<g>
		<path class="st0" d="M4.3,164.4c-0.6-0.9-1.1-2-1.2-3.2C3,160.7,3,160.1,3,159.5c0.4-16.1,2.5-31.8,8.7-46.8
			c2.9-7.1,8.6-10.6,15.3-13.2c7.8-3,15.3-6.5,22.9-9.8c0.2-0.1,0.4-0.2,0.6-0.3c-1.3,4.8-2.3,12,0.1,19.7c2,6.5,5.7,10.6,7.3,12.5
			c5.5,6.5,11.9,18.1,15.6,40.4c0.2-0.2,0.7-0.6,1.1-1.1c10.3-11.1,2.2-23.8,9.6-38.5c4.3-8.4,9-8.3,10.8-16.5
			c1.4-6.4-0.2-12.4-1.8-16.4c8,3.4,16.1,7.3,24.5,10.4c8,3,12.9,8.2,15.8,16.1"/>
		<path class="st0" d="M39.7,36.4C39,21.9,43.9,13.1,57.1,5.9c3.5-1.9,8.2-3.4,11.8-2.7c8.4,1.7,16.9,4.1,24.6,7.8
			c9.9,4.7,13.4,13.8,12.5,24.5c0,1.9,0.1,3.8,0.2,5.6"/>
		<path class="st0" d="M100.1,71.3c-3.1,7.3-7.7,13.8-14.9,18.8c-9.7,6.9-19.9,6.4-28.6-1.8c-3.7-3.5-7.2-7.6-9.4-12.1
			c-1.8-3.8-3.3-7.9-4.7-11.9"/>
	</g>
	<line class="st0" x1="4.2" y1="164.4" x2="105" y2="164.6"/>
	<path class="st0" d="M106.2,40.3L117,94.1c0,0-15.4-4.5-19.9-36.5s2.9-33.9-17.9-28.1C63.7,33.7,59.5,48,44.9,62.1
		c-35,34-11,4.5-11,4.5l5.8-30.5"/>
	<path class="st0" d="M72.9,162.8"/>
	<line class="st0" x1="94.6" y1="90.1" x2="102.3" y2="102.4"/>
	<line class="st0" x1="94.6" y1="113.4" x2="102.3" y2="102.4"/>
	<line class="st0" x1="100.3" y1="123.1" x2="94.6" y2="113.4"/>
	<line class="st0" x1="74.7" y1="160.8" x2="100.3" y2="122.1"/>
	<line class="st0" x1="50" y1="89.6" x2="39.6" y2="101.4"/>
	<line class="st0" x1="45.9" y1="111.4" x2="39.6" y2="101.4"/>
	<line class="st0" x1="73.4" y1="162.4" x2="42.9" y2="119.1"/>
	<line class="st0" x1="45.9" y1="111.4" x2="42.9" y2="119.1"/>
</g>
<g>
	<g>
		<line class="st1" x1="114" y1="139.3" x2="114" y2="133.3"/>
		<polyline class="st1" points="114,147 114,141.4 114,141.4 		"/>
		<line class="st1" x1="114" y1="150.2" x2="114" y2="149"/>
		<line class="st1" x1="114" y1="154.4" x2="114" y2="150.2"/>
		<path class="st1" d="M114,131.1v-6.6c0-1.1,0.9-2,2-2h30.3c1.1,0,2,0.9,2,2v38.1c0,1.1-0.9,2-2,2H116c-1.1,0-2-0.9-2-2v-6.3"/>
		<rect x="123.3" y="130.8" class="st1" width="15.3" height="8.3"/>
		<line class="st1" x1="126.3" y1="134.9" x2="135.7" y2="135"/>
	</g>
	<g>
		<g>
			<ellipse class="st1" cx="144.8" cy="137.3" rx="0.9" ry="0.8"/>
			<ellipse class="st1" cx="144.8" cy="140.3" rx="0.9" ry="0.8"/>
			<ellipse class="st1" cx="139" cy="125.3" rx="0.9" ry="0.8"/>
			<ellipse class="st1" cx="144.8" cy="125.3" rx="0.9" ry="0.8"/>
			<ellipse class="st1" cx="144.8" cy="128.3" rx="0.9" ry="0.8"/>
			<ellipse class="st1" cx="141.8" cy="125.3" rx="0.9" ry="0.8"/>
			<ellipse class="st1" cx="116.7" cy="147" rx="1.4" ry="1.2"/>
			<ellipse class="st1" cx="116.7" cy="131.2" rx="1.4" ry="1.2"/>
			<ellipse class="st1" cx="116.5" cy="154.5" rx="1.4" ry="1.2"/>
			<ellipse class="st1" cx="116.7" cy="139.3" rx="1.4" ry="1.2"/>
		</g>
		<ellipse class="st1" cx="117.8" cy="125.3" rx="0.9" ry="0.8"/>
		<ellipse class="st1" cx="120.8" cy="125.3" rx="0.9" ry="0.8"/>
		<ellipse class="st1" cx="120.8" cy="161.3" rx="0.9" ry="0.8"/>
		<ellipse class="st1" cx="117.8" cy="161.3" rx="0.9" ry="0.8"/>
		<ellipse class="st1" cx="123.8" cy="125.3" rx="0.9" ry="0.8"/>
		<ellipse class="st1" cx="132.8" cy="161.3" rx="0.9" ry="0.8"/>
		<ellipse class="st1" cx="129.8" cy="161.3" rx="0.9" ry="0.8"/>
		<ellipse class="st1" cx="126.8" cy="161.3" rx="0.9" ry="0.8"/>
		<ellipse class="st1" cx="123.8" cy="161.3" rx="0.9" ry="0.8"/>
		<ellipse class="st1" cx="132.8" cy="125.3" rx="0.9" ry="0.8"/>
		<ellipse class="st1" cx="129.8" cy="125.3" rx="0.9" ry="0.8"/>
		<ellipse class="st1" cx="126.8" cy="125.3" rx="0.9" ry="0.8"/>
		<ellipse class="st1" cx="141.8" cy="161.3" rx="0.9" ry="0.8"/>
		<ellipse class="st1" cx="138.8" cy="161.3" rx="0.9" ry="0.8"/>
		<ellipse class="st1" cx="135.8" cy="161.3" rx="0.9" ry="0.8"/>
		<ellipse class="st1" cx="135.8" cy="125.3" rx="0.9" ry="0.8"/>
		<ellipse class="st1" cx="144.8" cy="143.3" rx="0.9" ry="0.8"/>
		<ellipse class="st1" cx="144.8" cy="146.3" rx="0.9" ry="0.8"/>
		<ellipse class="st1" cx="144.8" cy="152.3" rx="0.9" ry="0.8"/>
		
			<ellipse transform="matrix(0.7071 -0.7071 0.7071 0.7071 -67.3974 147.8745)" class="st1" cx="144.8" cy="155.3" rx="0.9" ry="0.8"/>
		<ellipse class="st1" cx="144.8" cy="158.3" rx="0.9" ry="0.8"/>
		<ellipse class="st1" cx="144.8" cy="161.3" rx="0.9" ry="0.8"/>
		<ellipse class="st1" cx="144.8" cy="149.3" rx="0.9" ry="0.8"/>
		<ellipse class="st1" cx="144.8" cy="131.3" rx="0.9" ry="0.8"/>
		<ellipse class="st1" cx="144.8" cy="134.3" rx="0.9" ry="0.8"/>
	</g>
	<path class="st1" d="M116.8,131.2c-1.9,0-3.7-0.1-5.6-0.1c-0.1,0-1,0.4-1.3,1.3c-0.2,0.7,0,1.4,0.2,1.8c0.6,0.9,2,1.3,3.3,0.8"/>
	<path class="st1" d="M116.8,139.3c-1.9,0-3.7-0.1-5.6-0.1c-0.1,0-1,0.4-1.3,1.3c-0.2,0.7,0,1.4,0.2,1.8c0.6,0.9,2,1.3,3.3,0.8"/>
	<path class="st1" d="M116.8,147.1c-1.9,0-3.7-0.1-5.6-0.1c-0.1,0-1,0.4-1.3,1.3c-0.2,0.7,0,1.4,0.2,1.8c0.6,0.9,2,1.3,3.3,0.8"/>
	<path class="st1" d="M116.8,154.5c-1.9,0-3.7-0.1-5.6-0.1c-0.1,0-1,0.4-1.3,1.3c-0.2,0.7,0,1.4,0.2,1.8c0.6,0.9,2,1.3,3.3,0.8"/>
	<rect x="122.2" y="144.4" class="st1" width="18.3" height="14"/>
	<text transform="matrix(1 0 0 1 128.2147 154.4637)" class="st1 st2 st3">$</text>
	<text transform="matrix(1 0 0 1 128.2147 154.4637)" class="st1 st2 st3">$</text>
	<ellipse class="st1" cx="131.2" cy="150.7" rx="7.3" ry="7"/>
</g>
</svg>
