<?xml version="1.0" encoding="utf-8"?>
<!-- Generator: Adobe Illustrator 22.0.1, SVG Export Plug-In . SVG Version: 6.00 Build 0)  -->
<svg version="1.1" id="Layer_1" xmlns="http://www.w3.org/2000/svg" xmlns:xlink="http://www.w3.org/1999/xlink" x="0px" y="0px"
	 viewBox="0 0 125.8 123.5" style="enable-background:new 0 0 125.8 123.5;" xml:space="preserve">
<style type="text/css">
	.st0{fill:none;stroke:#27255C;stroke-width:0.75;stroke-miterlimit:10;}
	.st1{fill:none;stroke:#27235D;stroke-width:0.75;stroke-miterlimit:10;}
</style>
<g>
	<g>
		<path class="st0" d="M91,15.5c-2.9-1-4.9-3.7-4.9-6.9c0-4.1,3.3-7.4,7.4-7.4s7.4,3.3,7.4,7.4c0,3.6-2.6,6.6-5.9,7.2v12h-0.1h-3.8
			H66.5v-3.9h24.6v-8.2C91,15.5,91,15.5,91,15.5z"/>
		<path class="st1" d="M112.9,14.6c-2.9,0.5-5.3,2.9-5.8,5.8c-0.4,2.2,0.1,4.2,1.3,5.8l-8.6,11.1H66.7v3.9h33.9c0,0,1.3,0,1.3-0.2
			s9.6-12.4,9.6-12.4c1.2,0.5,2.5,0.7,4,0.5c3.3-0.5,5.9-3.2,6.3-6.5C122.2,17.7,117.9,13.7,112.9,14.6z"/>
		<path class="st1" d="M117.9,44.9c-3.4,0-6.3,2.4-7.1,5.5h-44v3.9h44.1c0.9,3.1,3.7,5.3,7.1,5.3c4.1,0,7.4-3.3,7.4-7.4
			S122,44.9,117.9,44.9z"/>
		<path class="st1" d="M117.7,61.7c-3.4,0-6.3,2.4-7.1,5.5h-44v3.9h44.1c0.9,3.1,3.7,5.3,7.1,5.3c4.1,0,7.4-3.3,7.4-7.4
			S121.8,61.7,117.7,61.7z"/>
		<path class="st1" d="M114.1,107c-4.1,0-7.4-3.3-7.4-7.4c0-1.6,0.5-3.1,1.4-4.4l-8.6-11.1H66.4v-3.9h33.9c0,0,1.1,0,1.3,0.2
			c0.1,0.2,9.6,12.4,9.6,12.4c0.9-0.4,1.9-0.6,2.9-0.6c4.1,0,7.4,3.3,7.4,7.4S118.2,107,114.1,107z"/>
		<path class="st0" d="M91.4,104.8c-2.9,1-4.9,3.7-4.9,6.9c0,4.1,3.3,7.4,7.4,7.4s7.4-3.3,7.4-7.4c0-3.6-2.6-6.6-5.9-7.2v-12h-0.1
			h-3.8H66.9v3.9h24.6v8.2C91.4,104.8,91.4,104.8,91.4,104.8z"/>
	</g>
	<path class="st0" d="M62.3,12.6c-2.6,0-5.1,0.2-7.5,0.6L48.1,0.6c-0.1-0.1-0.2-0.2-0.4-0.2L27.9,8.8c-0.1,0.1-0.2,0.2-0.2,0.4
		l3.9,14c-3.1,2.5-5.9,5.3-8.4,8.4L9.5,27c-0.1-0.1-0.3,0-0.4,0.1L0.4,46.7c-0.1,0.1,0,0.3,0.1,0.4l12.6,7.7c0,0,0,0,0.1-0.1
		c-0.3,2.4-0.5,4.8-0.5,7.2c0,1.9,0.1,3.7,0.3,5.5L0.9,73.6c-0.1,0.1-0.2,0.2-0.1,0.4l8.1,20.6c0.1,0.2,0.2,0.2,0.4,0.2l13.3-3.1
		c2.4,3.2,5.3,6.2,8.4,8.7l-4.9,13c-0.1,0.1,0,0.3,0.1,0.4l19.4,9.3c0.1,0.1,0.3,0,0.4-0.1l8-12.1c2.7,0.4,5.4,0.7,8.2,0.7
		L62.3,12.6L62.3,12.6z"/>
</g>
</svg>
