<?xml version="1.0" encoding="utf-8"?>
<!-- Generator: Adobe Illustrator 22.0.1, SVG Export Plug-In . SVG Version: 6.00 Build 0)  -->
<svg version="1.1" id="Layer_1" xmlns="http://www.w3.org/2000/svg" xmlns:xlink="http://www.w3.org/1999/xlink" x="0px" y="0px"
	 viewBox="0 0 967.8 505.6" style="enable-background:new 0 0 967.8 505.6;" xml:space="preserve">
<style type="text/css">
	.st0{fill:#2C99D5;}
	.st1{fill:#FFFFFF;}
	.st2{fill:none;stroke:#000000;stroke-miterlimit:10;}
	.st3{fill:#76B900;}
	.st4{fill:none;}
	.st5{enable-background:new    ;}
</style>
<g>
	<g>
		<g>
			<path d="M240.3,158.8l50.3,131.1l-131.1,50.3l-50.3-131.1L240.3,158.8 M240.7,157.9l-132.4,50.8L159.2,341l132.3-50.8
				L240.7,157.9L240.7,157.9z"/>
		</g>
		<g>
			
				<rect x="134.6" y="184.1" transform="matrix(0.9335 -0.3586 0.3586 0.9335 -76.1526 88.2949)" class="st0" width="130.7" height="130.7"/>
		</g>
		<g>
			<path class="st1" d="M166.2,251c-0.9-2.3-0.8-4.4,0.2-6.4s2.7-3.4,5.1-4.3c2.3-0.9,4.5-1,6.5-0.4s3.4,1.9,4.1,3.8
				c0.3,0.7,0.4,1,0.5,1.2c-1.3,0.5-2.1,0.8-2.5,1c-0.1-0.3-0.2-0.6-0.3-0.7c-0.5-1.4-1.5-2.3-2.9-2.8c-1.3-0.4-2.9-0.3-4.5,0.3
				c-1.7,0.6-2.8,1.6-3.5,2.9c-0.7,1.3-0.7,2.9,0,4.8c1.6,4.1,2.8,7.2,3.5,9.1c0.7,1.8,1.8,3,3.2,3.6s3,0.6,4.6,0
				c1.7-0.6,2.8-1.5,3.5-2.8s0.8-2.6,0.3-4c-0.2-0.6-0.3-0.8-0.4-1c1.3-0.5,2.1-0.8,2.5-1c0.3,0.7,0.5,1.2,0.6,1.5
				c0.7,1.9,0.6,3.7-0.5,5.6c-1,1.8-2.7,3.2-5.1,4.1c-2.3,0.9-4.5,1-6.7,0.2s-3.6-2.3-4.4-4.6C168.3,256.6,167,253.3,166.2,251z"/>
			<path class="st1" d="M183.7,236.1c3.9-1.5,6.8-2.6,8.8-3.4c2.4-0.9,4.5-1,6.5-0.1c1.9,0.9,3.3,2.4,4.2,4.7
				c0.3,0.7,0.5,1.3,0.6,1.7c0.9,2.3,0.9,4.4,0.1,6.3c-0.9,1.9-2.5,3.3-4.9,4.2c-3.1,1.2-5.1,2-6.2,2.4c1.4,3.7,2.4,6.3,2.9,7.5
				c-1.3,0.5-2.1,0.8-2.6,1C188.4,248.3,185.2,240.2,183.7,236.1z M197.9,247.2c1.7-0.6,2.7-1.6,3.3-2.9c0.5-1.3,0.4-2.8-0.3-4.7
				c-0.1-0.4-0.2-0.6-0.3-0.7c-0.7-1.9-1.7-3-2.9-3.7c-1.2-0.6-2.7-0.6-4.4,0.1c-3.1,1.2-5.1,2-6.2,2.4c2.3,6,3.8,10,4.6,11.9
				C194.5,248.5,196.6,247.7,197.9,247.2z"/>
			<path class="st1" d="M203.5,228.5c1.3-0.5,2.1-0.8,2.6-1c2.9,7.5,5,13,6.4,16.7c0.7,1.8,1.7,3,3.1,3.6c1.4,0.5,2.9,0.6,4.7-0.1
				s2.9-1.7,3.5-3.1c0.7-1.3,0.6-2.9-0.1-4.8c-3.2-8.3-5.3-13.9-6.4-16.7c1.3-0.5,2.1-0.8,2.6-1c2.9,7.7,5.1,13.3,6.6,17.2
				c0.9,2.3,0.8,4.4-0.1,6.4c-1,2-2.7,3.4-5.1,4.3c-2.4,0.9-4.6,1-6.7,0.2c-2-0.8-3.5-2.3-4.4-4.6
				C206.8,237.1,204.6,231.3,203.5,228.5z"/>
		</g>
		<g>
			<polygon class="st1" points="110.5,231.1 106.8,229.9 109,225.1 114.3,223.1 116.5,228.9 			"/>
			<path d="M114,223.5l2,5.1l-5.6,2.2l-3.3-1l2-4.4L114,223.5 M114.4,222.6c-5.8,2.2-5.8,2.2-5.8,2.2l-2.4,5.3l4.2,1.4l6.4-2.5
				L114.4,222.6L114.4,222.6z"/>
		</g>
		<g>
			<polygon class="st1" points="114.2,240.8 110.4,239.5 112.7,234.7 118,232.7 120.2,238.5 			"/>
			<path d="M117.7,233.1l2,5.1l-5.6,2.2l-3.3-1l2-4.4L117.7,233.1 M118.1,232.2c-5.8,2.2-5.8,2.2-5.8,2.2l-2.3,5.4l4.2,1.4l6.4-2.5
				L118.1,232.2L118.1,232.2z"/>
		</g>
		<g>
			<polygon class="st1" points="117.9,250.4 114.2,249.2 116.4,244.3 121.7,242.3 123.9,248.1 			"/>
			<path d="M121.4,242.7l2,5.1l-5.6,2.2l-3.3-1l2-4.4L121.4,242.7 M121.9,241.9c-5.8,2.2-5.8,2.2-5.8,2.2l-2.4,5.3l4.2,1.4l6.4-2.5
				L121.9,241.9L121.9,241.9z"/>
		</g>
		<g>
			<polygon class="st1" points="121.6,260 117.9,258.9 120.1,254 125.4,251.9 127.6,257.7 			"/>
			<path d="M125.1,252.4l2,5.1l-5.6,2.2l-3.3-1l2-4.4L125.1,252.4 M125.5,251.5c-5.8,2.2-5.8,2.2-5.8,2.2l-2.4,5.3l4.2,1.4l6.4-2.5
				L125.5,251.5L125.5,251.5z"/>
		</g>
		<g>
			<polygon class="st1" points="125.3,269.6 121.6,268.5 123.7,263.6 129.1,261.5 131.3,267.3 			"/>
			<path d="M128.8,262l2,5.1l-5.6,2.2l-3.3-1l2-4.4L128.8,262 M129.2,261.1c-5.8,2.2-5.8,2.2-5.8,2.2l-2.4,5.3l4.2,1.4l6.4-2.5
				L129.2,261.1L129.2,261.1z"/>
		</g>
		<g>
			<polygon class="st1" points="129,279.3 125.3,278.1 127.5,273.3 132.8,271.2 135,277 			"/>
			<path d="M132.5,271.7l2,5.1l-5.6,2.2l-3.3-1l2-4.4L132.5,271.7 M132.9,270.8c-5.8,2.2-5.8,2.2-5.8,2.2l-2.4,5.3l4.2,1.4l6.4-2.5
				L132.9,270.8L132.9,270.8z"/>
		</g>
		<g>
			<polygon class="st1" points="132.7,288.9 128.9,287.7 131.2,282.9 136.5,280.8 138.7,286.6 			"/>
			<path d="M136.2,281.3l2,5.1l-5.6,2.2l-3.3-1l2-4.4L136.2,281.3 M136.6,280.4c-5.8,2.2-5.8,2.2-5.8,2.2l-2.4,5.3l4.2,1.4l6.4-2.5
				L136.6,280.4L136.6,280.4z"/>
		</g>
		<g>
			<polygon class="st1" points="136.4,298.5 132.7,297.4 134.9,292.5 140.2,290.5 142.4,296.3 			"/>
			<path d="M140,291l2,5.1l-5.6,2.2l-3.3-1l2-4.4L140,291 M140.4,290.1c-5.8,2.2-5.8,2.2-5.8,2.2l-2.4,5.3l4.2,1.4l6.4-2.5
				L140.4,290.1L140.4,290.1z"/>
		</g>
		<g>
			<polygon class="st1" points="140.1,308.2 136.4,307 138.6,302.1 143.9,300.1 146.1,305.9 			"/>
			<path d="M143.6,300.6l2,5.1l-5.6,2.2l-3.3-1l2-4.4L143.6,300.6 M144,299.7c-5.8,2.2-5.8,2.2-5.8,2.2l-2.4,5.3l4.2,1.4l6.4-2.5
				L144,299.7L144,299.7z"/>
		</g>
		<g>
			<polygon class="st1" points="143.8,317.8 140.1,316.6 142.2,311.7 147.6,309.7 149.8,315.5 			"/>
			<path d="M147.3,310.2l2,5.1l-5.6,2.2l-3.3-1l2-4.4L147.3,310.2 M147.7,309.3c-5.8,2.2-5.8,2.2-5.8,2.2l-2.4,5.3l4.2,1.4l6.4-2.5
				L147.7,309.3L147.7,309.3z"/>
		</g>
		<g>
			<polygon class="st1" points="147.5,327.5 143.8,326.3 146,321.4 151.3,319.4 153.5,325.2 			"/>
			<path d="M151,319.8l2,5.1l-5.6,2.2l-3.3-1l2-4.4L151,319.8 M151.4,318.9c-5.8,2.2-5.8,2.2-5.8,2.2l-2.4,5.3l4.2,1.4l6.4-2.5
				L151.4,318.9L151.4,318.9z"/>
		</g>
		<g>
			<polygon class="st1" points="151.2,337.1 147.4,335.9 149.7,331.1 155,329 157.2,334.8 			"/>
			<path d="M154.7,329.4l2,5.1l-5.6,2.2l-3.3-1l2-4.4L154.7,329.4 M155.1,328.5c-5.8,2.2-5.8,2.2-5.8,2.2l-2.4,5.3l4.2,1.4l6.4-2.5
				L155.1,328.5L155.1,328.5z"/>
		</g>
		<g>
			<polygon class="st1" points="287.4,280.4 285.1,274.6 291.1,272.3 294.9,273.5 292.7,278.4 			"/>
			<path d="M291.1,272.7l3.3,1l-2,4.4l-4.9,1.9l-2-5.1L291.1,272.7 M291.2,271.9l-6.4,2.5l2.5,6.4c5.8-2.2,5.8-2.2,5.8-2.2l2.4-5.3
				L291.2,271.9L291.2,271.9z"/>
		</g>
		<g>
			<polygon class="st1" points="283.6,270.7 281.4,264.9 287.4,262.6 291.2,263.8 289,268.7 			"/>
			<path d="M287.4,263l3.3,1l-2,4.4l-4.9,1.9l-2-5.1L287.4,263 M287.5,262.3l-6.4,2.5l2.5,6.4c5.8-2.2,5.8-2.2,5.8-2.2l2.4-5.3
				L287.5,262.3L287.5,262.3z"/>
		</g>
		<g>
			<polygon class="st1" points="279.9,261.1 277.7,255.3 283.7,253 287.5,254.2 285.3,259.1 			"/>
			<path d="M283.7,253.4l3.3,1l-2,4.4l-4.9,1.9l-2-5.1L283.7,253.4 M283.8,252.7l-6.4,2.5l2.5,6.4c5.8-2.2,5.8-2.2,5.8-2.2l2.4-5.3
				L283.8,252.7L283.8,252.7z"/>
		</g>
		<g>
			<polygon class="st1" points="276.3,251.5 274,245.7 280,243.4 283.8,244.5 281.6,249.4 			"/>
			<path d="M280,243.7l3.3,1l-2,4.4l-4.9,1.9l-2-5.1L280,243.7 M280.1,243l-6.4,2.5l2.5,6.4c5.8-2.2,5.8-2.2,5.8-2.2l2.4-5.3
				L280.1,243L280.1,243z"/>
		</g>
		<g>
			<polygon class="st1" points="272.6,241.9 270.3,236.1 276.3,233.8 280.1,234.9 277.9,239.8 			"/>
			<path d="M276.3,234.1l3.3,1l-2,4.4l-4.9,1.9l-2-5.1L276.3,234.1 M276.4,233.3l-6.4,2.5l2.5,6.4c5.8-2.2,5.8-2.2,5.8-2.2l2.4-5.3
				L276.4,233.3L276.4,233.3z"/>
		</g>
		<g>
			<polygon class="st1" points="268.9,232.2 266.6,226.5 272.6,224.2 276.4,225.3 274.2,230.2 			"/>
			<path d="M272.6,224.5l3.3,1l-2,4.4l-4.9,1.9l-2-5.1L272.6,224.5 M272.7,223.7l-6.4,2.5l2.5,6.4c5.8-2.2,5.8-2.2,5.8-2.2l2.4-5.3
				L272.7,223.7L272.7,223.7z"/>
		</g>
		<g>
			<polygon class="st1" points="265.1,222.5 262.9,216.8 268.9,214.5 272.7,215.7 270.5,220.5 			"/>
			<path d="M268.9,214.9l3.3,1l-2,4.4l-4.9,1.9l-2-5.1L268.9,214.9 M269,214.1l-6.4,2.5l2.5,6.4c5.8-2.2,5.8-2.2,5.8-2.2l2.4-5.3
				L269,214.1L269,214.1z"/>
		</g>
		<g>
			<polygon class="st1" points="261.4,212.9 259.2,207.1 265.2,204.8 269,206.1 266.8,210.9 			"/>
			<path d="M265.2,205.3l3.3,1l-2,4.4l-4.9,1.9l-2-5.1L265.2,205.3 M265.3,204.5l-6.4,2.5l2.5,6.4c5.8-2.2,5.8-2.2,5.8-2.2l2.4-5.3
				L265.3,204.5L265.3,204.5z"/>
		</g>
		<g>
			<polygon class="st1" points="257.7,203.3 255.5,197.5 261.5,195.2 265.3,196.4 263.1,201.3 			"/>
			<path d="M261.5,195.5l3.3,1l-2,4.4l-4.9,1.9l-2-5.1L261.5,195.5 M261.6,194.9l-6.4,2.5l2.5,6.4c5.8-2.2,5.8-2.2,5.8-2.2l2.4-5.3
				L261.6,194.9L261.6,194.9z"/>
		</g>
		<g>
			<polygon class="st1" points="254.1,193.7 251.8,187.9 257.8,185.6 261.6,186.7 259.4,191.7 			"/>
			<path d="M257.8,185.9l3.3,1l-2,4.4l-4.9,1.9l-2-5.1L257.8,185.9 M257.8,185.2l-6.4,2.5l2.5,6.4c5.8-2.2,5.8-2.2,5.8-2.2l2.4-5.3
				L257.8,185.2L257.8,185.2z"/>
		</g>
		<g>
			<polygon class="st1" points="250.3,184 248.1,178.3 254.1,176 257.9,177.1 255.6,181.9 			"/>
			<path d="M254.1,176.3l3.3,1l-2,4.4l-4.9,1.9l-2-5.1L254.1,176.3 M254.2,175.6l-6.4,2.5l2.5,6.4c5.8-2.2,5.8-2.2,5.8-2.2l2.4-5.3
				L254.2,175.6L254.2,175.6z"/>
		</g>
		<g>
			<polygon class="st1" points="246.6,174.4 244.4,168.6 250.4,166.3 254.2,167.5 252,172.3 			"/>
			<path d="M250.4,166.7l3.3,1l-2,4.4l-4.9,1.9l-2-5.1L250.4,166.7 M250.5,165.9l-6.4,2.5l2.5,6.4c5.8-2.2,5.8-2.2,5.8-2.2l2.4-5.3
				L250.5,165.9L250.5,165.9z"/>
		</g>
		<g>
			<polygon class="st1" points="171.7,342 169.7,336.6 175.5,334.4 177.8,340.4 176.5,344.1 			"/>
			<path d="M175.2,334.8l2.2,5.6l-1,3.3l-4.4-2l-1.9-4.9L175.2,334.8 M175.6,333.9l-6.4,2.5c2.2,5.8,2.2,5.8,2.2,5.8l5.3,2.4
				l1.4-4.2L175.6,333.9L175.6,333.9z"/>
		</g>
		<g>
			<polygon class="st1" points="181.4,338.3 179.3,333 185.1,330.7 187.4,336.7 186.2,340.4 			"/>
			<path d="M184.9,331.1l2.2,5.6l-1,3.3l-4.4-2l-1.9-4.9L184.9,331.1 M185.2,330.3l-6.3,2.4c2.2,5.8,2.2,5.8,2.2,5.8l5.3,2.4
				l1.4-4.2L185.2,330.3L185.2,330.3z"/>
		</g>
		<g>
			<polygon class="st1" points="191,334.6 188.9,329.3 194.7,327 197,333 195.9,336.7 			"/>
			<path d="M194.6,327.4l2.2,5.6l-1,3.3l-4.4-2l-1.9-4.9L194.6,327.4 M195,326.5l-6.4,2.5c2.2,5.8,2.2,5.8,2.2,5.8l5.3,2.4l1.4-4.2
				L195,326.5L195,326.5z"/>
		</g>
		<g>
			<polygon class="st1" points="200.6,330.9 198.6,325.6 204.3,323.3 206.6,329.3 205.5,333 			"/>
			<path d="M204.2,323.7l2.2,5.6l-1,3.3l-4.4-2l-1.9-4.9L204.2,323.7 M204.6,322.8l-6.4,2.5c2.2,5.8,2.2,5.8,2.2,5.8l5.3,2.4
				l1.4-4.2L204.6,322.8L204.6,322.8z"/>
		</g>
		<g>
			<polygon class="st1" points="210.3,327.2 208.3,321.8 214,319.6 216.3,325.6 215.1,329.3 			"/>
			<path d="M213.8,320l2.2,5.6l-1,3.3l-4.4-2l-1.9-4.9L213.8,320 M214.2,319.1l-6.4,2.5c2.2,5.8,2.2,5.8,2.2,5.8l5.3,2.4l1.4-4.2
				L214.2,319.1L214.2,319.1z"/>
		</g>
		<g>
			<polygon class="st1" points="219.9,323.5 217.9,318.1 223.7,315.9 226,321.9 224.7,325.6 			"/>
			<path d="M223.4,316.3l2.2,5.6l-1,3.3l-4.4-2l-1.9-4.9L223.4,316.3 M223.8,315.4l-6.4,2.5c2.2,5.8,2.2,5.8,2.2,5.8l5.3,2.4
				l1.4-4.2L223.8,315.4L223.8,315.4z"/>
		</g>
		<g>
			<polygon class="st1" points="229.5,319.8 227.5,314.5 233.3,312.2 235.6,318.2 234.4,321.9 			"/>
			<path d="M233.1,312.6l2.2,5.6l-1,3.3l-4.4-2l-1.9-4.9L233.1,312.6 M233.4,311.7l-6.4,2.5c2.2,5.8,2.2,5.8,2.2,5.8l5.3,2.4
				l1.4-4.2L233.4,311.7L233.4,311.7z"/>
		</g>
		<g>
			<polygon class="st1" points="239.1,316.1 237.1,310.8 242.9,308.5 245.2,314.5 244,318.2 			"/>
			<path d="M242.7,308.9l2.2,5.6l-1,3.3l-4.4-2l-1.9-4.9L242.7,308.9 M243.1,308l-6.4,2.5c2.2,5.8,2.2,5.8,2.2,5.8l5.3,2.4l1.4-4.2
				L243.1,308L243.1,308z"/>
		</g>
		<g>
			<polygon class="st1" points="248.8,312.4 246.7,307.1 252.5,304.8 254.8,310.8 253.6,314.5 			"/>
			<path d="M252.3,305.2l2.2,5.6l-1,3.3l-4.4-2l-1.9-4.9L252.3,305.2 M252.7,304.3l-6.4,2.5c2.2,5.8,2.2,5.8,2.2,5.8l5.3,2.4
				l1.4-4.2L252.7,304.3L252.7,304.3z"/>
		</g>
		<g>
			<polygon class="st1" points="258.5,308.7 256.4,303.3 262.2,301.1 264.5,307.1 263.3,310.8 			"/>
			<path d="M261.9,301.5l2.2,5.6l-1,3.3l-4.4-2l-1.9-4.9L261.9,301.5 M262.4,300.6l-6.4,2.5c2.2,5.8,2.2,5.8,2.2,5.8l5.3,2.4
				l1.4-4.2L262.4,300.6L262.4,300.6z"/>
		</g>
		<g>
			<polygon class="st1" points="268.1,305 266,299.6 271.8,297.4 274.1,303.4 272.9,307.1 			"/>
			<path d="M271.6,297.8l2.2,5.6l-1,3.3l-4.4-2l-1.9-4.9L271.6,297.8 M272,296.9l-6.4,2.5c2.2,5.8,2.2,5.8,2.2,5.8l5.3,2.4l1.4-4.2
				L272,296.9L272,296.9z"/>
		</g>
		<g>
			<polygon class="st1" points="277.7,301.3 275.7,295.9 281.4,293.7 283.7,299.7 282.6,303.4 			"/>
			<path d="M281.3,294.1l2.2,5.6l-1,3.3l-4.4-2l-1.9-4.9L281.3,294.1 M281.6,293.2l-6.4,2.5c2.2,5.8,2.2,5.8,2.2,5.8l5.3,2.4
				l1.4-4.2L281.6,293.2L281.6,293.2z"/>
		</g>
		<g>
			<polygon class="st1" points="226.4,163.7 224.1,157.8 225.2,154.1 230.1,156.2 232.2,161.5 			"/>
			<path d="M225.5,154.5l4.4,2l1.9,4.9l-5.1,2l-2.2-5.6L225.5,154.5 M225.1,153.6l-1.4,4.2l2.5,6.4l6.4-2.5
				c-2.2-5.8-2.2-5.8-2.2-5.8L225.1,153.6L225.1,153.6z"/>
		</g>
		<g>
			<polygon class="st1" points="216.8,167.4 214.5,161.4 215.6,157.8 220.5,159.9 222.5,165.2 			"/>
			<path d="M215.8,158.3l4.4,2l1.9,4.9l-5.1,2l-2.2-5.6L215.8,158.3 M215.4,157.3l-1.4,4.2l2.5,6.4l6.4-2.5
				c-2.2-5.8-2.2-5.8-2.2-5.8L215.4,157.3L215.4,157.3z"/>
		</g>
		<g>
			<polygon class="st1" points="207,171.2 204.8,165.2 206,161.5 210.8,163.6 212.8,168.9 			"/>
			<path d="M206.2,161.9l4.4,2l1.9,4.9l-5.1,2l-2.2-5.6L206.2,161.9 M205.8,161l-1.4,4.2l2.5,6.4l6.4-2.5c-2.2-5.8-2.2-5.8-2.2-5.8
				L205.8,161L205.8,161z"/>
		</g>
		<g>
			<polygon class="st1" points="197.4,174.8 195.1,168.9 196.4,165.2 201.2,167.3 203.2,172.6 			"/>
			<path d="M196.6,165.6l4.4,2l1.9,4.9l-5.1,2l-2.2-5.6L196.6,165.6 M196.1,164.7l-1.4,4.2l2.5,6.4l6.4-2.5
				c-2.2-5.8-2.2-5.8-2.2-5.8L196.1,164.7L196.1,164.7z"/>
		</g>
		<g>
			<polygon class="st1" points="187.8,178.5 185.5,172.6 186.7,168.9 191.6,171 193.6,176.3 			"/>
			<path d="M187,169.3l4.4,2l1.9,4.9l-5.1,2l-2.2-5.6L187,169.3 M186.5,168.4l-1.4,4.2l2.5,6.4l6.4-2.5c-2.2-5.8-2.2-5.8-2.2-5.8
				L186.5,168.4L186.5,168.4z"/>
		</g>
		<g>
			<polygon class="st1" points="178.2,182.2 175.9,176.3 177.1,172.6 181.9,174.7 184,180 			"/>
			<path d="M177.2,173.1l4.4,2l1.9,4.9l-5.1,2l-2.2-5.6L177.2,173.1 M176.9,172.1l-1.4,4.2l2.5,6.4l6.4-2.5
				c-2.2-5.8-2.2-5.8-2.2-5.8L176.9,172.1L176.9,172.1z"/>
		</g>
		<g>
			<polygon class="st1" points="168.6,185.9 166.3,180 167.5,176.3 172.3,178.4 174.4,183.7 			"/>
			<path d="M167.6,176.8l4.4,2l1.9,4.9l-5.1,2l-2.2-5.6L167.6,176.8 M167.3,175.8l-1.4,4.2l2.5,6.4l6.4-2.5
				c-2.2-5.8-2.2-5.8-2.2-5.8L167.3,175.8L167.3,175.8z"/>
		</g>
		<g>
			<polygon class="st1" points="158.9,189.7 156.6,183.7 157.8,180 162.6,182.1 164.7,187.4 			"/>
			<path d="M158,180.5l4.4,2l1.9,4.9l-5.1,2l-2.2-5.6L158,180.5 M157.7,179.5l-1.4,4.2l2.5,6.4l6.4-2.5c-2.2-5.8-2.2-5.8-2.2-5.8
				L157.7,179.5L157.7,179.5z"/>
		</g>
		<g>
			<polygon class="st1" points="149.3,193.3 147,187.4 148.2,183.7 153,185.8 155,191.1 			"/>
			<path d="M148.4,184.1l4.4,2l1.9,4.9l-5.1,2l-2.2-5.6L148.4,184.1 M148,183.2l-1.4,4.2l2.5,6.4l6.4-2.5c-2.2-5.8-2.2-5.8-2.2-5.8
				L148,183.2L148,183.2z"/>
		</g>
		<g>
			<polygon class="st1" points="139.6,197 137.4,191.1 138.5,187.4 143.4,189.5 145.4,194.8 			"/>
			<path d="M138.8,187.8l4.4,2l1.9,4.9l-5.1,2l-2.2-5.6L138.8,187.8 M138.3,186.9l-1.4,4.2l2.5,6.4l6.4-2.5
				c-2.2-5.8-2.2-5.8-2.2-5.8L138.3,186.9L138.3,186.9z"/>
		</g>
		<g>
			<polygon class="st1" points="130,200.7 127.7,194.8 128.9,191.1 133.8,193.2 135.8,198.5 			"/>
			<path d="M129.1,191.6l4.4,2l1.9,4.9l-5.1,2l-2.2-5.6L129.1,191.6 M128.7,190.6l-1.4,4.2l2.5,6.4l6.4-2.5C134,193,134,193,134,193
				L128.7,190.6L128.7,190.6z"/>
		</g>
		<g>
			<polygon class="st1" points="120.4,204.4 118.1,198.5 119.3,194.8 124.2,196.9 126.2,202.2 			"/>
			<path d="M119.5,195.3l4.4,2l1.9,4.9l-5.1,2l-2.2-5.6L119.5,195.3 M119.1,194.3l-1.4,4.2l2.5,6.4l6.4-2.5
				c-2.2-5.8-2.2-5.8-2.2-5.8L119.1,194.3L119.1,194.3z"/>
		</g>
	</g>
	<g>
		<line class="st2" x1="214.8" y1="168.3" x2="180.8" y2="79.6"/>
	</g>
	<g>
		<line class="st2" x1="235.3" y1="160.6" x2="217.1" y2="113.5"/>
	</g>
	<g>
		<line class="st2" x1="196" y1="175.7" x2="177.9" y2="128.6"/>
	</g>
	<g>
		<line class="st2" x1="176.4" y1="183.2" x2="158.3" y2="136.1"/>
	</g>
	<g>
		<line class="st2" x1="156.8" y1="190.8" x2="138.7" y2="143.6"/>
	</g>
	<g>
		<line class="st2" x1="138.2" y1="197.9" x2="111.8" y2="129.3"/>
	</g>
	<g>
		<line class="st2" x1="117.6" y1="205.8" x2="92.7" y2="140.9"/>
	</g>
	<line class="st2" x1="93.2" y1="108.6" x2="92.7" y2="140.9"/>
	<line class="st2" x1="113.2" y1="96.7" x2="111.8" y2="129.3"/>
	<line class="st2" x1="86.3" y1="90.9" x2="93.2" y2="108.6"/>
	<line class="st2" x1="106.6" y1="79.4" x2="113.2" y2="96.7"/>
	<line class="st2" x1="71.9" y1="86.8" x2="86.3" y2="90.9"/>
	<circle class="st2" cx="105" cy="76.8" r="3.5"/>
	<circle class="st2" cx="117.7" cy="84.7" r="3.5"/>
	<circle class="st2" cx="156.6" cy="133" r="3.5"/>
	<circle class="st2" cx="176.3" cy="125.2" r="3.5"/>
	<circle class="st2" cx="152.9" cy="50.9" r="3.5"/>
	<circle class="st2" cx="215.5" cy="110.2" r="3.5"/>
	<circle class="st2" cx="69" cy="86.3" r="3.5"/>
	<line class="st2" x1="120.4" y1="137.8" x2="138.7" y2="143.6"/>
	<line class="st2" x1="115" y1="123.8" x2="120.4" y2="137.8"/>
	<line class="st2" x1="124.8" y1="101.8" x2="115" y2="123.8"/>
	<line class="st2" x1="119.4" y1="87.8" x2="124.8" y2="101.8"/>
	<line class="st2" x1="161.2" y1="70.5" x2="180.9" y2="80.1"/>
	<line class="st2" x1="154.6" y1="54" x2="161.1" y2="70.8"/>
	<g>
		<line class="st2" x1="281.1" y1="262.9" x2="369.8" y2="228.8"/>
	</g>
	<g>
		<line class="st2" x1="288.6" y1="283.3" x2="335.7" y2="265.2"/>
	</g>
	<g>
		<line class="st2" x1="273.5" y1="244.1" x2="320.7" y2="226"/>
	</g>
	<g>
		<line class="st2" x1="266" y1="224.5" x2="313.1" y2="206.4"/>
	</g>
	<g>
		<line class="st2" x1="258.5" y1="204.9" x2="305.6" y2="186.8"/>
	</g>
	<g>
		<line class="st2" x1="251.3" y1="186.2" x2="319.9" y2="159.8"/>
	</g>
	<g>
		<line class="st2" x1="243.4" y1="165.7" x2="308.3" y2="140.7"/>
	</g>
	<line class="st2" x1="340.6" y1="141.2" x2="308.3" y2="140.7"/>
	<line class="st2" x1="352.6" y1="161.2" x2="319.9" y2="159.8"/>
	<line class="st2" x1="358.3" y1="134.4" x2="340.6" y2="141.2"/>
	<line class="st2" x1="369.8" y1="154.6" x2="352.6" y2="161.2"/>
	<line class="st2" x1="362.4" y1="119.9" x2="358.3" y2="134.4"/>
	<circle class="st2" cx="372.4" cy="153" r="3.5"/>
	<circle class="st2" cx="364.5" cy="165.7" r="3.5"/>
	<circle class="st2" cx="316.2" cy="204.6" r="3.5"/>
	<circle class="st2" cx="324.1" cy="224.4" r="3.5"/>
	<circle class="st2" cx="398.3" cy="200.9" r="3.5"/>
	<circle class="st2" cx="339.2" cy="263.6" r="3.5"/>
	<circle class="st2" cx="362.9" cy="117.1" r="3.5"/>
	<line class="st2" x1="311.4" y1="168.4" x2="305.6" y2="186.8"/>
	<line class="st2" x1="325.4" y1="163.1" x2="311.4" y2="168.4"/>
	<line class="st2" x1="347.4" y1="172.8" x2="325.4" y2="163.1"/>
	<line class="st2" x1="361.4" y1="167.5" x2="347.4" y2="172.8"/>
	<line class="st2" x1="378.5" y1="209.1" x2="369.8" y2="228.5"/>
	<line class="st2" x1="395.3" y1="202.7" x2="378.5" y2="209.1"/>
	<g>
		<line class="st2" x1="121.4" y1="240.4" x2="32.7" y2="274.4"/>
	</g>
	<g>
		<line class="st2" x1="112.8" y1="220.4" x2="65.7" y2="238.5"/>
	</g>
	<g>
		<line class="st2" x1="127.9" y1="259.6" x2="80.8" y2="277.7"/>
	</g>
	<g>
		<line class="st2" x1="135.4" y1="279.2" x2="88.3" y2="297.3"/>
	</g>
	<g>
		<line class="st2" x1="143" y1="298.8" x2="95.8" y2="316.9"/>
	</g>
	<g>
		<line class="st2" x1="150.1" y1="317.5" x2="81.5" y2="343.8"/>
	</g>
	<g>
		<line class="st2" x1="158" y1="338" x2="93.1" y2="362.9"/>
	</g>
	<line class="st2" x1="60.8" y1="362.5" x2="93.1" y2="362.9"/>
	<line class="st2" x1="48.9" y1="342.5" x2="81.5" y2="343.8"/>
	<line class="st2" x1="43.1" y1="369.3" x2="60.8" y2="362.5"/>
	<line class="st2" x1="31.6" y1="349.1" x2="48.9" y2="342.5"/>
	<line class="st2" x1="39" y1="383.7" x2="43.1" y2="369.3"/>
	<circle class="st2" cx="29" cy="350.6" r="3.5"/>
	<circle class="st2" cx="36.9" cy="337.9" r="3.5"/>
	<circle class="st2" cx="85.2" cy="299" r="3.5"/>
	<circle class="st2" cx="77.4" cy="279.2" r="3.5"/>
	<circle class="st2" cx="4" cy="302.4" r="3.5"/>
	<circle class="st2" cx="62.3" cy="240" r="3.5"/>
	<circle class="st2" cx="38.5" cy="386.6" r="3.5"/>
	<line class="st2" x1="90" y1="335.2" x2="95.8" y2="316.9"/>
	<line class="st2" x1="76" y1="340.6" x2="90" y2="335.2"/>
	<line class="st2" x1="54" y1="330.8" x2="76" y2="340.6"/>
	<line class="st2" x1="40" y1="336.2" x2="54" y2="330.8"/>
	<line class="st2" x1="23.5" y1="294.8" x2="32.7" y2="274.1"/>
	<line class="st2" x1="7.1" y1="300.7" x2="23.9" y2="294.2"/>
	<g>
		<line class="st2" x1="186.8" y1="330.1" x2="220.9" y2="418.8"/>
	</g>
	<g>
		<line class="st2" x1="166.3" y1="337.6" x2="184.4" y2="384.8"/>
	</g>
	<g>
		<line class="st2" x1="205.5" y1="322.6" x2="223.6" y2="369.7"/>
	</g>
	<g>
		<line class="st2" x1="225.1" y1="315" x2="243.2" y2="362.2"/>
	</g>
	<g>
		<line class="st2" x1="244.7" y1="307.5" x2="262.9" y2="354.6"/>
	</g>
	<g>
		<line class="st2" x1="263.4" y1="300.3" x2="289.8" y2="368.9"/>
	</g>
	<g>
		<line class="st2" x1="284" y1="292.4" x2="308.9" y2="357.3"/>
	</g>
	<line class="st2" x1="308.4" y1="389.6" x2="308.9" y2="357.3"/>
	<line class="st2" x1="288.4" y1="401.6" x2="289.8" y2="368.9"/>
	<line class="st2" x1="315.2" y1="407.4" x2="308.4" y2="389.6"/>
	<line class="st2" x1="295" y1="418.9" x2="288.4" y2="401.6"/>
	<line class="st2" x1="329.7" y1="411.5" x2="315.2" y2="407.4"/>
	<circle class="st2" cx="296.6" cy="421.5" r="3.5"/>
	<circle class="st2" cx="283.9" cy="413.5" r="3.5"/>
	<circle class="st2" cx="245" cy="365.3" r="3.5"/>
	<circle class="st2" cx="225.3" cy="373.1" r="3.5"/>
	<circle class="st2" cx="248.7" cy="447.4" r="3.5"/>
	<circle class="st2" cx="186" cy="388.1" r="3.5"/>
	<circle class="st2" cx="332.5" cy="412" r="3.5"/>
	<line class="st2" x1="281.2" y1="360.5" x2="262.9" y2="354.6"/>
	<line class="st2" x1="286.5" y1="374.5" x2="281.2" y2="360.5"/>
	<line class="st2" x1="276.8" y1="396.4" x2="286.5" y2="374.5"/>
	<line class="st2" x1="282.1" y1="410.4" x2="276.8" y2="396.4"/>
	<line class="st2" x1="240.5" y1="427.5" x2="221.1" y2="418.9"/>
	<line class="st2" x1="246.9" y1="444.3" x2="240.5" y2="427.5"/>
</g>
<circle class="st2" cx="731.5" cy="249.1" r="3.5"/>
<g>
	<g>
		<g>
			<path d="M854.4,212.9L754.3,390.7L576.5,290.6l100.1-177.7L854.4,212.9 M855.7,212.6L676.3,111.5L575.2,290.9L754.6,392
				L855.7,212.6L855.7,212.6z"/>
		</g>
	</g>
	<g>
		<g>
			
				<rect x="620.5" y="156.8" transform="matrix(0.4908 -0.8713 0.8713 0.4908 144.9954 751.6008)" class="st3" width="190" height="190"/>
		</g>
	</g>
	<g>
		
			<rect x="686.5" y="198" transform="matrix(0.4908 -0.8713 0.8713 0.4908 148.6102 753.585)" class="st4" width="65" height="103.4"/>
	</g>
	<g class="st5">
		<path class="st1" d="M682.5,215.4c1.8-3.1,4.2-5,7.3-5.7s6.3-0.1,9.6,1.8c3.3,1.8,5.5,4.2,6.6,7s0.9,5.5-0.5,8.1
			c-0.3,0.6-0.6,1-0.7,1.2c-1.7-1-2.9-1.6-3.4-1.9c0.1-0.2,0.2-0.4,0.3-0.6c1.1-1.9,1.2-3.8,0.4-5.7c-0.7-1.9-2.3-3.5-4.6-4.8
			s-4.5-1.7-6.6-1.2c-2.2,0.5-3.9,2-5.3,4.5c-3.1,5.5-5.5,9.7-7,12.5c-1.4,2.5-1.8,4.7-1.1,6.8c0.6,2.1,2.1,3.8,4.4,5.1
			c1.5,0.9,3.2,1.3,4.9,1.4c1.7,0.1,3.3-0.1,4.6-0.7c2-3.6,3.4-6,4.1-7.3c-3.6-2.1-6.1-3.4-7.3-4.1c0.9-1.6,1.5-2.7,1.8-3.2
			c5.4,3.1,9,5.1,10.8,6.1c-4.7,8.3-7.8,13.8-9.4,16.6c-1.6-0.9-2.6-1.5-3.1-1.8c0.4-1,0.8-1.8,1-2.4c-1.3,0.4-2.9,0.4-4.6,0.2
			c-1.7-0.3-3.3-0.8-4.8-1.7c-3.3-1.8-5.4-4.3-6.4-7.3s-0.7-6.1,1.1-9.2C678.2,223,680.8,218.4,682.5,215.4z"/>
		<path class="st1" d="M715.4,221.2c5.3,3,9.2,5.2,11.9,6.7c3.2,1.8,5.3,4.2,6.1,7.1c0.8,2.9,0.4,5.9-1.4,9c-0.6,1-1,1.8-1.3,2.3
			c-1.8,3.1-4.1,5.1-7,5.9c-2.9,0.8-6,0.3-9.3-1.5c-4.1-2.3-6.9-3.9-8.3-4.7c-2.9,5.1-4.8,8.5-5.7,10.2c-1.7-1-2.9-1.6-3.5-2
			C706.1,237.7,712.3,226.7,715.4,221.2z M716.2,247.4c2.2,1.3,4.3,1.6,6.2,1s3.6-2.2,5-4.7c0.3-0.5,0.4-0.8,0.6-1
			c1.4-2.5,1.9-4.7,1.4-6.7s-1.8-3.6-4.1-4.8c-4.1-2.3-6.9-3.9-8.3-4.7c-4.6,8.1-7.6,13.5-9.1,16.2
			C711.6,244.8,714.4,246.4,716.2,247.4z"/>
		<path class="st1" d="M742.3,236.4c1.8,1,3,1.7,3.5,2c-5.7,10.1-9.9,17.6-12.8,22.7c-1.4,2.5-1.8,4.7-1.1,6.8
			c0.6,2.1,2.1,3.8,4.4,5.1c2.3,1.3,4.6,1.7,6.7,1.2c2.1-0.6,3.8-2.1,5.2-4.5c6.4-11.3,10.6-18.9,12.8-22.7c1.8,1,3,1.7,3.5,2
			c-5.8,10.4-10.2,18.2-13.1,23.3c-1.8,3.1-4.2,5-7.3,5.8c-3.1,0.7-6.3,0.1-9.6-1.8S729,272,728,269s-0.6-6.1,1.1-9.2
			C735.7,248.1,740.1,240.3,742.3,236.4z"/>
	</g>
	<g>
		<g>
			<polygon class="st1" points="653,134.5 651,129.2 658.4,127.2 665.7,131.3 661.2,139.1 			"/>
		</g>
		<g>
			<path d="M665,131.5l-3.9,7l-7.5-4.2l-1.9-4.6l6.7-1.9L665,131.5 M666.3,131.1c-7.8-4.4-7.8-4.4-7.8-4.4l-8.2,2.3l2.4,5.9l8.7,4.9
				L666.3,131.1L666.3,131.1z"/>
		</g>
	</g>
	<g>
		<g>
			<polygon class="st1" points="645.7,147.6 643.6,142.3 651.1,140.3 658.3,144.4 653.9,152.2 			"/>
		</g>
		<g>
			<path d="M657.6,144.6l-3.9,7l-7.5-4.2l-1.9-4.6l6.7-1.9L657.6,144.6 M659,144.2c-7.8-4.4-7.8-4.4-7.8-4.4l-8.2,2.3l2.4,5.9
				l8.7,4.9L659,144.2L659,144.2z"/>
		</g>
	</g>
	<g>
		<g>
			<polygon class="st1" points="638.3,160.7 636.3,155.4 643.7,153.4 650.9,157.4 646.5,165.3 			"/>
		</g>
		<g>
			<path d="M650.2,157.6l-3.9,7l-7.5-4.2l-1.9-4.6l6.7-1.9L650.2,157.6 M651.6,157.3c-7.8-4.4-7.8-4.4-7.8-4.4l-8.2,2.3l2.4,5.9
				l8.7,4.9L651.6,157.3L651.6,157.3z"/>
		</g>
	</g>
	<g>
		<g>
			<polygon class="st1" points="631,173.7 628.9,168.4 636.3,166.4 643.6,170.5 639.1,178.4 			"/>
		</g>
		<g>
			<path d="M642.9,170.7l-3.9,7l-7.5-4.2l-1.9-4.6l6.7-1.9L642.9,170.7 M644.2,170.3c-7.8-4.4-7.8-4.4-7.8-4.4l-8.2,2.3l2.4,5.9
				l8.7,4.9L644.2,170.3L644.2,170.3z"/>
		</g>
	</g>
	<g>
		<g>
			<polygon class="st1" points="623.6,186.8 621.5,181.5 629,179.5 636.2,183.6 631.8,191.4 			"/>
		</g>
		<g>
			<path d="M635.5,183.8l-3.9,7l-7.5-4.2l-1.9-4.6l6.7-1.9L635.5,183.8 M636.9,183.4C629,179,629,179,629,179l-8.2,2.3l2.4,5.9
				l8.7,4.9L636.9,183.4L636.9,183.4z"/>
		</g>
	</g>
	<g>
		<g>
			<polygon class="st1" points="616.2,199.9 614.2,194.6 621.6,192.6 628.8,196.7 624.4,204.5 			"/>
		</g>
		<g>
			<path d="M628.2,196.8l-3.9,7l-7.5-4.2l-1.9-4.6l6.7-1.9L628.2,196.8 M629.5,196.5c-7.8-4.4-7.8-4.4-7.8-4.4l-8.2,2.3l2.4,5.9
				l8.7,4.9L629.5,196.5L629.5,196.5z"/>
		</g>
	</g>
	<g>
		<g>
			<polygon class="st1" points="608.9,213 606.8,207.7 614.2,205.6 621.5,209.7 617.1,217.6 			"/>
		</g>
		<g>
			<path d="M620.8,209.9l-3.9,7l-7.5-4.2l-1.9-4.6l6.7-1.9L620.8,209.9 M622.2,209.5c-7.8-4.4-7.8-4.4-7.8-4.4l-8.2,2.3l2.4,5.9
				l8.7,4.9L622.2,209.5L622.2,209.5z"/>
		</g>
	</g>
	<g>
		<g>
			<polygon class="st1" points="601.5,226 599.4,220.7 606.9,218.7 614.1,222.8 609.7,230.6 			"/>
		</g>
		<g>
			<path d="M613.4,223l-3.9,7l-7.5-4.2l-1.9-4.6l6.7-1.9L613.4,223 M614.8,222.6c-7.8-4.4-7.8-4.4-7.8-4.4l-8.2,2.3l2.4,5.9l8.7,4.9
				L614.8,222.6L614.8,222.6z"/>
		</g>
	</g>
	<g>
		<g>
			<polygon class="st1" points="594.1,239.1 592.1,233.8 599.5,231.8 606.8,235.9 602.3,243.7 			"/>
		</g>
		<g>
			<path d="M606.1,236.1l-3.9,7l-7.5-4.2l-1.9-4.6l6.7-1.9L606.1,236.1 M607.4,235.7c-7.8-4.4-7.8-4.4-7.8-4.4l-8.2,2.3l2.4,5.9
				l8.7,4.9L607.4,235.7L607.4,235.7z"/>
		</g>
	</g>
	<g>
		<g>
			<polygon class="st1" points="586.8,252.2 584.7,246.9 592.2,244.9 599.4,248.9 595,256.8 			"/>
		</g>
		<g>
			<path d="M598.7,249.1l-3.9,7l-7.5-4.2l-1.9-4.6l6.7-1.9L598.7,249.1 M600.1,248.7c-7.8-4.4-7.8-4.4-7.8-4.4l-8.2,2.3l2.4,5.9
				l8.7,4.9L600.1,248.7L600.1,248.7z"/>
		</g>
	</g>
	<g>
		<g>
			<polygon class="st1" points="579.4,265.2 577.4,259.9 584.8,257.9 592,262 587.6,269.8 			"/>
		</g>
		<g>
			<path d="M591.3,262.2l-3.9,7l-7.5-4.2l-1.9-4.6l6.7-1.9L591.3,262.2 M592.7,261.8c-7.8-4.4-7.8-4.4-7.8-4.4l-8.2,2.3l2.4,5.9
				l8.7,4.9L592.7,261.8L592.7,261.8z"/>
		</g>
	</g>
	<g>
		<g>
			<polygon class="st1" points="572.1,278.3 570,273 577.4,271 584.7,275.1 580.2,282.9 			"/>
		</g>
		<g>
			<path d="M584,275.3l-3.9,7l-7.5-4.2l-1.9-4.6l6.7-1.9L584,275.3 M585.3,274.9c-7.8-4.4-7.8-4.4-7.8-4.4l-8.2,2.3l2.4,5.9l8.7,4.9
				L585.3,274.9L585.3,274.9z"/>
		</g>
	</g>
	<g>
		<g>
			<polygon class="st1" points="761.8,378.3 766.2,370.5 774.3,375 776.4,380.2 769,382.4 			"/>
		</g>
		<g>
			<path d="M773.9,375.4l1.9,4.6l-6.7,1.9l-6.6-3.7l3.9-7L773.9,375.4 M774.7,374.7l-8.7-4.9l-4.9,8.7c7.8,4.4,7.8,4.4,7.8,4.4
				l8.2-2.3L774.7,374.7L774.7,374.7z"/>
		</g>
	</g>
	<g>
		<g>
			<polygon class="st1" points="769.2,365.2 773.6,357.4 781.7,362 783.8,367.2 776.4,369.3 			"/>
		</g>
		<g>
			<path d="M781.3,362.3l1.9,4.6l-6.7,1.9l-6.6-3.7l3.9-7L781.3,362.3 M782.1,361.6l-8.7-4.9l-4.9,8.7c7.8,4.4,7.8,4.4,7.8,4.4
				l8.2-2.3L782.1,361.6L782.1,361.6z"/>
		</g>
	</g>
	<g>
		<g>
			<polygon class="st1" points="776.5,352.2 780.9,344.3 789,348.9 791.2,354.1 783.8,356.2 			"/>
		</g>
		<g>
			<path d="M788.6,349.2l1.9,4.6l-6.7,1.9l-6.6-3.7l3.9-7L788.6,349.2 M789.5,348.5l-8.7-4.9l-4.9,8.7c7.8,4.4,7.8,4.4,7.8,4.4
				l8.2-2.3L789.5,348.5L789.5,348.5z"/>
		</g>
	</g>
	<g>
		<g>
			<polygon class="st1" points="783.9,339.1 788.3,331.2 796.4,335.8 798.5,341 791.1,343.2 			"/>
		</g>
		<g>
			<path d="M796,336.2l1.9,4.6l-6.7,1.9l-6.6-3.7l3.9-7L796,336.2 M796.8,335.5l-8.7-4.9l-4.9,8.7c7.8,4.4,7.8,4.4,7.8,4.4l8.2-2.3
				L796.8,335.5L796.8,335.5z"/>
		</g>
	</g>
	<g>
		<g>
			<polygon class="st1" points="791.3,326 795.7,318.2 803.8,322.7 805.9,328 798.5,330.1 			"/>
		</g>
		<g>
			<path d="M803.4,323.1l1.9,4.6l-6.7,1.9l-6.6-3.7l3.9-7L803.4,323.1 M804.2,322.4l-8.7-4.9l-4.9,8.7c7.8,4.4,7.8,4.4,7.8,4.4
				l8.2-2.3L804.2,322.4L804.2,322.4z"/>
		</g>
	</g>
	<g>
		<g>
			<polygon class="st1" points="798.6,313 803,305.1 811.1,309.7 813.3,314.9 805.8,317 			"/>
		</g>
		<g>
			<path d="M810.7,310l1.9,4.6l-6.7,1.9l-6.6-3.7l3.9-7L810.7,310 M811.6,309.3l-8.7-4.9l-4.9,8.7c7.8,4.4,7.8,4.4,7.8,4.4l8.2-2.3
				L811.6,309.3L811.6,309.3z"/>
		</g>
	</g>
	<g>
		<g>
			<polygon class="st1" points="806,299.9 810.4,292 818.5,296.6 820.6,301.8 813.2,304 			"/>
		</g>
		<g>
			<path d="M818.1,296.9l1.9,4.6l-6.7,1.9l-6.6-3.7l3.9-7L818.1,296.9 M818.9,296.3l-8.7-4.9l-4.9,8.7c7.8,4.4,7.8,4.4,7.8,4.4
				l8.2-2.3L818.9,296.3L818.9,296.3z"/>
		</g>
	</g>
	<g>
		<g>
			<polygon class="st1" points="813.3,286.8 817.8,279 825.9,283.5 828,288.7 820.6,290.9 			"/>
		</g>
		<g>
			<path d="M825.4,283.9l1.9,4.6l-6.7,1.9l-6.6-3.7l3.9-7L825.4,283.9 M826.3,283.2l-8.7-4.9l-4.9,8.7c7.8,4.4,7.8,4.4,7.8,4.4
				l8.2-2.3L826.3,283.2L826.3,283.2z"/>
		</g>
	</g>
	<g>
		<g>
			<polygon class="st1" points="820.7,273.7 825.1,265.9 833.2,270.5 835.3,275.7 827.9,277.8 			"/>
		</g>
		<g>
			<path d="M832.8,270.8l1.9,4.6l-6.7,1.9l-6.6-3.7l3.9-7L832.8,270.8 M833.6,270.1l-8.7-4.9l-4.9,8.7c7.8,4.4,7.8,4.4,7.8,4.4
				l8.2-2.3L833.6,270.1L833.6,270.1z"/>
		</g>
	</g>
	<g>
		<g>
			<polygon class="st1" points="828.1,260.7 832.5,252.8 840.6,257.4 842.7,262.6 835.3,264.7 			"/>
		</g>
		<g>
			<path d="M840.2,257.7l1.9,4.6l-6.7,1.9l-6.6-3.7l3.9-7L840.2,257.7 M841,257.1l-8.7-4.9l-4.9,8.7c7.8,4.4,7.8,4.4,7.8,4.4
				l8.2-2.3L841,257.1L841,257.1z"/>
		</g>
	</g>
	<g>
		<g>
			<polygon class="st1" points="835.4,247.6 839.8,239.8 847.9,244.3 850.1,249.5 842.7,251.7 			"/>
		</g>
		<g>
			<path d="M847.5,244.7l1.9,4.6l-6.7,1.9l-6.6-3.7l3.9-7L847.5,244.7 M848.4,244l-8.7-4.9l-4.9,8.7c7.8,4.4,7.8,4.4,7.8,4.4
				l8.2-2.3L848.4,244L848.4,244z"/>
		</g>
	</g>
	<g>
		<g>
			<polygon class="st1" points="842.8,234.5 847.2,226.7 855.3,231.3 857.4,236.5 850,238.6 			"/>
		</g>
		<g>
			<path d="M854.9,231.6l1.9,4.6l-6.7,1.9l-6.6-3.7l3.9-7L854.9,231.6 M855.7,230.9L847,226l-4.9,8.7c7.8,4.4,7.8,4.4,7.8,4.4
				l8.2-2.3L855.7,230.9L855.7,230.9z"/>
		</g>
	</g>
	<g>
		<g>
			<polygon class="st1" points="585.7,305.8 589.8,298.6 597.6,303 593,311.1 587.8,313.2 			"/>
		</g>
		<g>
			<path d="M596.9,303.2l-4.2,7.5l-4.6,1.9l-1.9-6.7l3.7-6.6L596.9,303.2 M598.3,302.8l-8.7-4.9c-4.4,7.8-4.4,7.8-4.4,7.8l2.3,8.2
				l5.9-2.4L598.3,302.8L598.3,302.8z"/>
		</g>
	</g>
	<g>
		<g>
			<polygon class="st1" points="598.8,313.2 602.8,306 610.7,310.4 606.1,318.5 600.8,320.6 			"/>
		</g>
		<g>
			<path d="M610,310.6l-4.2,7.5l-4.6,1.9l-1.9-6.7l3.7-6.6L610,310.6 M611.4,310.2l-8.7-4.9c-4.4,7.8-4.4,7.8-4.4,7.8l2.3,8.2
				l5.9-2.4L611.4,310.2L611.4,310.2z"/>
		</g>
	</g>
	<g>
		<g>
			<polygon class="st1" points="611.8,320.6 615.9,313.3 623.8,317.7 619.2,325.8 613.9,327.9 			"/>
		</g>
		<g>
			<path d="M623.1,317.9l-4.2,7.5l-4.6,1.9l-1.9-6.7l3.7-6.6L623.1,317.9 M624.4,317.6l-8.7-4.9c-4.4,7.8-4.4,7.8-4.4,7.8l2.3,8.2
				l5.9-2.4L624.4,317.6L624.4,317.6z"/>
		</g>
	</g>
	<g>
		<g>
			<polygon class="st1" points="624.9,327.9 629,320.7 636.8,325.1 632.3,333.2 627,335.3 			"/>
		</g>
		<g>
			<path d="M636.1,325.3l-4.2,7.5l-4.6,1.9l-1.9-6.7l3.7-6.6L636.1,325.3 M637.5,324.9l-8.7-4.9c-4.4,7.8-4.4,7.8-4.4,7.8l2.3,8.2
				l5.9-2.4L637.5,324.9L637.5,324.9z"/>
		</g>
	</g>
	<g>
		<g>
			<polygon class="st1" points="638,335.3 642,328.1 649.9,332.5 645.3,340.6 640,342.6 			"/>
		</g>
		<g>
			<path d="M649.2,332.7l-4.2,7.5l-4.6,1.9l-1.9-6.7l3.7-6.6L649.2,332.7 M650.6,332.3l-8.7-4.9c-4.4,7.8-4.4,7.8-4.4,7.8l2.3,8.2
				l5.9-2.4L650.6,332.3L650.6,332.3z"/>
		</g>
	</g>
	<g>
		<g>
			<polygon class="st1" points="651,342.6 655.1,335.4 663,339.8 658.4,347.9 653.1,350 			"/>
		</g>
		<g>
			<path d="M662.3,340l-4.2,7.5l-4.6,1.9l-1.9-6.7l3.7-6.6L662.3,340 M663.6,339.6l-8.7-4.9c-4.4,7.8-4.4,7.8-4.4,7.8l2.3,8.2
				l5.9-2.4L663.6,339.6L663.6,339.6z"/>
		</g>
	</g>
	<g>
		<g>
			<polygon class="st1" points="664.1,350 668.2,342.8 676,347.2 671.5,355.3 666.2,357.4 			"/>
		</g>
		<g>
			<path d="M675.3,347.4l-4.2,7.5l-4.6,1.9l-1.9-6.7l3.7-6.6L675.3,347.4 M676.7,347l-8.7-4.9c-4.4,7.8-4.4,7.8-4.4,7.8l2.3,8.2
				l5.9-2.4L676.7,347L676.7,347z"/>
		</g>
	</g>
	<g>
		<g>
			<polygon class="st1" points="677.2,357.4 681.3,350.1 689.1,354.6 684.5,362.7 679.2,364.7 			"/>
		</g>
		<g>
			<path d="M688.4,354.7l-4.2,7.5l-4.6,1.9l-1.9-6.7l3.7-6.6L688.4,354.7 M689.8,354.4l-8.7-4.9c-4.4,7.8-4.4,7.8-4.4,7.8l2.3,8.2
				l5.9-2.4L689.8,354.4L689.8,354.4z"/>
		</g>
	</g>
	<g>
		<g>
			<polygon class="st1" points="690.3,364.7 694.3,357.5 702.2,361.9 697.6,370 692.3,372.1 			"/>
		</g>
		<g>
			<path d="M701.5,362.1l-4.2,7.5l-4.6,1.9l-1.9-6.7l3.7-6.6L701.5,362.1 M702.8,361.7l-8.7-4.9c-4.4,7.8-4.4,7.8-4.4,7.8l2.3,8.2
				l5.9-2.4L702.8,361.7L702.8,361.7z"/>
		</g>
	</g>
	<g>
		<g>
			<polygon class="st1" points="703.3,372.1 707.4,364.9 715.2,369.3 710.7,377.4 705.4,379.4 			"/>
		</g>
		<g>
			<path d="M714.6,369.5l-4.2,7.5l-4.6,1.9l-1.9-6.7l3.7-6.6L714.6,369.5 M715.9,369.1l-8.7-4.9c-4.4,7.8-4.4,7.8-4.4,7.8l2.3,8.2
				l5.9-2.4L715.9,369.1L715.9,369.1z"/>
		</g>
	</g>
	<g>
		<g>
			<polygon class="st1" points="716.4,379.5 720.5,372.2 728.3,376.6 723.7,384.7 718.4,386.8 			"/>
		</g>
		<g>
			<path d="M727.6,376.8l-4.2,7.5l-4.6,1.9l-1.9-6.7l3.7-6.6L727.6,376.8 M729,376.5l-8.7-4.9c-4.4,7.8-4.4,7.8-4.4,7.8l2.3,8.2
				l5.9-2.4L729,376.5L729,376.5z"/>
		</g>
	</g>
	<g>
		<g>
			<polygon class="st1" points="729.5,386.8 733.5,379.6 741.4,384 736.8,392.1 731.5,394.2 			"/>
		</g>
		<g>
			<path d="M740.7,384.2l-4.2,7.5l-4.6,1.9l-1.9-6.7l3.7-6.6L740.7,384.2 M742.1,383.8l-8.7-4.9c-4.4,7.8-4.4,7.8-4.4,7.8l2.3,8.2
				l5.9-2.4L742.1,383.8L742.1,383.8z"/>
		</g>
	</g>
	<g>
		<g>
			<polygon class="st1" points="835.9,202 840.5,193.9 845.7,191.7 847.8,199.1 843.7,206.4 			"/>
		</g>
		<g>
			<path d="M845.4,192.4l1.9,6.7l-3.7,6.6l-7-3.9l4.2-7.5L845.4,192.4 M846.1,191l-5.9,2.4l-4.9,8.7l8.7,4.9
				c4.4-7.8,4.4-7.8,4.4-7.8L846.1,191L846.1,191z"/>
		</g>
	</g>
	<g>
		<g>
			<polygon class="st1" points="822.8,194.6 827.4,186.5 832.6,184.3 834.7,191.8 830.7,199 			"/>
		</g>
		<g>
			<path d="M832.3,185l1.9,6.7l-3.7,6.6l-7-3.9l4.2-7.5L832.3,185 M833,183.7l-5.9,2.4l-4.9,8.7l8.7,4.9c4.4-7.8,4.4-7.8,4.4-7.8
				L833,183.7L833,183.7z"/>
		</g>
	</g>
	<g>
		<g>
			<polygon class="st1" points="809.8,187.2 814.3,179.1 819.6,176.9 821.7,184.4 817.6,191.7 			"/>
		</g>
		<g>
			<path d="M819.3,177.7l1.9,6.7l-3.7,6.6l-7-3.9l4.2-7.5L819.3,177.7 M819.9,176.3l-5.9,2.4l-4.9,8.7l8.7,4.9
				c4.4-7.8,4.4-7.8,4.4-7.8L819.9,176.3L819.9,176.3z"/>
		</g>
	</g>
	<g>
		<g>
			<polygon class="st1" points="796.7,179.9 801.2,171.8 806.5,169.6 808.6,177.1 804.5,184.3 			"/>
		</g>
		<g>
			<path d="M806.2,170.3l1.9,6.7l-3.7,6.6l-7-3.9l4.2-7.5L806.2,170.3 M806.8,169l-5.9,2.4l-4.9,8.7l8.7,4.9
				c4.4-7.8,4.4-7.8,4.4-7.8L806.8,169L806.8,169z"/>
		</g>
	</g>
	<g>
		<g>
			<polygon class="st1" points="783.6,172.5 788.2,164.4 793.4,162.2 795.5,169.7 791.5,176.9 			"/>
		</g>
		<g>
			<path d="M793.1,162.9l1.9,6.7l-3.7,6.6l-7-3.9l4.2-7.5L793.1,162.9 M793.8,161.6l-5.9,2.4l-4.9,8.7l8.7,4.9
				c4.4-7.8,4.4-7.8,4.4-7.8L793.8,161.6L793.8,161.6z"/>
		</g>
	</g>
	<g>
		<g>
			<polygon class="st1" points="770.5,165.1 775.1,157 780.4,154.8 782.5,162.3 778.4,169.6 			"/>
		</g>
		<g>
			<path d="M780.1,155.6l1.9,6.7l-3.7,6.6l-7-3.9l4.2-7.5L780.1,155.6 M780.7,154.2l-5.9,2.4l-4.9,8.7l8.7,4.9
				c4.4-7.8,4.4-7.8,4.4-7.8L780.7,154.2L780.7,154.2z"/>
		</g>
	</g>
	<g>
		<g>
			<polygon class="st1" points="757.5,157.8 762,149.7 767.3,147.5 769.4,155 765.3,162.2 			"/>
		</g>
		<g>
			<path d="M767,148.2l1.9,6.7l-3.7,6.6l-7-3.9l4.2-7.5L767,148.2 M767.6,146.9l-5.9,2.4l-4.9,8.7l8.7,4.9c4.4-7.8,4.4-7.8,4.4-7.8
				L767.6,146.9L767.6,146.9z"/>
		</g>
	</g>
	<g>
		<g>
			<polygon class="st1" points="744.4,150.4 749,142.3 754.2,140.1 756.3,147.6 752.2,154.8 			"/>
		</g>
		<g>
			<path d="M753.9,140.9l1.9,6.7l-3.7,6.6l-7-3.9l4.2-7.5L753.9,140.9 M754.6,139.5l-5.9,2.4l-4.9,8.7l8.7,4.9
				c4.4-7.8,4.4-7.8,4.4-7.8L754.6,139.5L754.6,139.5z"/>
		</g>
	</g>
	<g>
		<g>
			<polygon class="st1" points="731.3,143.1 735.9,135 741.2,132.8 743.3,140.2 739.2,147.5 			"/>
		</g>
		<g>
			<path d="M740.9,133.5l1.9,6.7l-3.7,6.6l-7-3.9l4.2-7.5L740.9,133.5 M741.5,132.1l-5.9,2.4l-4.9,8.7l8.7,4.9
				c4.4-7.8,4.4-7.8,4.4-7.8L741.5,132.1L741.5,132.1z"/>
		</g>
	</g>
	<g>
		<g>
			<polygon class="st1" points="718.3,135.7 722.8,127.6 728.1,125.4 730.2,132.9 726.1,140.1 			"/>
		</g>
		<g>
			<path d="M727.8,126.1l1.9,6.7l-3.7,6.6l-7-3.9l4.2-7.5L727.8,126.1 M728.4,124.8l-5.9,2.4l-4.9,8.7l8.7,4.9
				c4.4-7.8,4.4-7.8,4.4-7.8L728.4,124.8L728.4,124.8z"/>
		</g>
	</g>
	<g>
		<g>
			<polygon class="st1" points="705.2,128.3 709.8,120.2 715,118 717.1,125.5 713,132.8 			"/>
		</g>
		<g>
			<path d="M714.7,118.8l1.9,6.7l-3.7,6.6l-7-3.9l4.2-7.5L714.7,118.8 M715.4,117.4l-5.9,2.4l-4.9,8.7l8.7,4.9
				c4.4-7.8,4.4-7.8,4.4-7.8L715.4,117.4L715.4,117.4z"/>
		</g>
	</g>
	<g>
		<g>
			<polygon class="st1" points="692.1,121 696.7,112.9 702,110.7 704,118.2 700,125.4 			"/>
		</g>
		<g>
			<path d="M701.6,111.4l1.9,6.7l-3.7,6.6l-7-3.9l4.2-7.5L701.6,111.4 M702.3,110.1l-5.9,2.4l-4.9,8.7l8.7,4.9
				c4.4-7.8,4.4-7.8,4.4-7.8L702.3,110.1L702.3,110.1z"/>
		</g>
	</g>
	<g>
		<g>
			<rect x="610.9" y="84.4" transform="matrix(0.4909 -0.8712 0.8712 0.4909 196.4002 599.7463)" width="1" height="94.9"/>
		</g>
	</g>
	<g>
		<g>
			<rect x="645.1" y="91.3" transform="matrix(0.4895 -0.872 0.872 0.4895 227.9445 622.4609)" width="1" height="50.5"/>
		</g>
	</g>
	<g>
		<g>
			<rect x="615.5" y="143.6" transform="matrix(0.491 -0.8711 0.8711 0.491 166.4954 622.574)" width="1" height="50.5"/>
		</g>
	</g>
	<g>
		<g>
			<rect x="600.9" y="169.7" transform="matrix(0.491 -0.8712 0.8712 0.491 136.2714 623.1169)" width="1" height="50.5"/>
		</g>
	</g>
	<g>
		<g>
			<rect x="586.2" y="195.8" transform="matrix(0.491 -0.8712 0.8712 0.491 106.0516 623.5973)" width="1" height="50.5"/>
		</g>
	</g>
	<g>
		<g>
			<rect x="561.4" y="204.9" transform="matrix(0.4903 -0.8716 0.8716 0.4903 75.8565 612.9095)" width="1" height="73.4"/>
		</g>
	</g>
	<g>
		<g>
			<rect x="546.9" y="236.6" transform="matrix(0.491 -0.8711 0.8711 0.491 42.2716 614.9576)" width="1" height="69.4"/>
		</g>
	</g>
	<g>
		<rect x="506.6" y="225.5" transform="matrix(0.7788 -0.6273 0.6273 0.7788 -39.4343 371.568)" width="1" height="32.4"/>
	</g>
	<g>
		<rect x="519.5" y="194.2" transform="matrix(0.7967 -0.6044 0.6044 0.7967 -21.5507 357.1238)" width="1" height="32.8"/>
	</g>
	<g>
		<rect x="488.2" y="214.9" transform="matrix(0.491 -0.8712 0.8712 0.491 53.2703 539.9415)" width="1" height="18.9"/>
	</g>
	<g>
		<rect x="501.5" y="183.7" transform="matrix(0.4921 -0.8706 0.8706 0.4921 87.0073 535.0784)" width="1" height="18.5"/>
	</g>
	<g>
		<rect x="466.1" y="222.3" transform="matrix(0.9159 -0.4013 0.4013 0.9159 -49.5994 208.7808)" width="15" height="1"/>
	</g>
	<g>
		<path d="M491.2,191.4c-2.2,0-4-1.8-4-4s1.8-4,4-4s4,1.8,4,4S493.4,191.4,491.2,191.4z M491.2,184.4c-1.7,0-3,1.3-3,3s1.3,3,3,3
			s3-1.3,3-3S492.9,184.4,491.2,184.4z"/>
	</g>
	<g>
		<path d="M510.9,180.7c-2.2,0-4-1.8-4-4s1.8-4,4-4c2.2,0,4,1.8,4,4S513.1,180.7,510.9,180.7z M510.9,173.7c-1.7,0-3,1.3-3,3
			s1.3,3,3,3c1.7,0,3-1.3,3-3S512.6,173.7,510.9,173.7z"/>
	</g>
	<g>
		<path d="M576.1,185.3c-2.2,0-4-1.8-4-4s1.8-4,4-4s4,1.8,4,4S578.3,185.3,576.1,185.3z M576.1,178.3c-1.7,0-3,1.3-3,3s1.3,3,3,3
			s3-1.3,3-3S577.8,178.3,576.1,178.3z"/>
	</g>
	<g>
		<path d="M590.8,159.1c-2.2,0-4-1.8-4-4s1.8-4,4-4s4,1.8,4,4S593,159.1,590.8,159.1z M590.8,152.1c-1.7,0-3,1.3-3,3s1.3,3,3,3
			s3-1.3,3-3S592.5,152.1,590.8,152.1z"/>
	</g>
	<g>
		<path d="M531.1,108.3c-2.2,0-4-1.8-4-4s1.8-4,4-4s4,1.8,4,4S533.3,108.3,531.1,108.3z M531.1,101.3c-1.7,0-3,1.3-3,3s1.3,3,3,3
			s3-1.3,3-3S532.8,101.3,531.1,101.3z"/>
	</g>
	<g>
		<path d="M620.8,106c-2.2,0-4-1.8-4-4s1.8-4,4-4s4,1.8,4,4S623,106,620.8,106z M620.8,99c-1.7,0-3,1.3-3,3s1.3,3,3,3s3-1.3,3-3
			S622.5,99,620.8,99z"/>
	</g>
	<g>
		<path d="M464.1,231.2c-2.2,0-4-1.8-4-4s1.8-4,4-4s4,1.8,4,4S466.3,231.2,464.1,231.2z M464.1,224.2c-1.7,0-3,1.3-3,3s1.3,3,3,3
			s3-1.3,3-3S465.8,224.2,464.1,224.2z"/>
	</g>
	<g>
		<rect x="546.1" y="211.8" transform="matrix(0.9278 -0.3731 0.3731 0.9278 -39.0732 222.6789)" width="19.3" height="1"/>
	</g>
	<g>
		<rect x="539.8" y="204.7" transform="matrix(0.4947 -0.8691 0.8691 0.4947 88.6242 576.7886)" width="1" height="15"/>
	</g>
	<g>
		<rect x="530" y="185" transform="matrix(0.9626 -0.2709 0.2709 0.9626 -33.5274 151.0831)" width="1" height="24"/>
	</g>
	<g>
		<rect x="520.2" y="174.2" transform="matrix(0.4918 -0.8707 0.8707 0.4918 106.3901 545.7343)" width="1" height="15"/>
	</g>
	<g>
		<rect x="549.7" y="111.1" transform="matrix(0.963 -0.2696 0.2696 0.963 -9.3337 155.1913)" width="21.2" height="1"/>
	</g>
	<g>
		<rect x="541.8" y="101" transform="matrix(0.489 -0.8723 0.8723 0.489 181.1954 529.2352)" width="1" height="18"/>
	</g>
	<g>
		<g>
			<rect x="815.9" y="330.7" transform="matrix(0.4909 -0.8712 0.8712 0.4909 86.1847 903.7263)" width="1" height="94.9"/>
		</g>
	</g>
	<g>
		<g>
			<rect x="781.8" y="368" transform="matrix(0.491 -0.8712 0.8712 0.491 55.6125 881.65)" width="1" height="50.5"/>
		</g>
	</g>
	<g>
		<g>
			<rect x="811.2" y="315.8" transform="matrix(0.491 -0.8711 0.8711 0.491 116.0813 880.6888)" width="1" height="50.5"/>
		</g>
	</g>
	<g>
		<g>
			<rect x="826" y="289.6" transform="matrix(0.491 -0.8712 0.8712 0.491 146.41 880.245)" width="1" height="50.5"/>
		</g>
	</g>
	<g>
		<g>
			<polygon points="863,301.5 819,276.8 819.4,276 863.4,300.7 			"/>
		</g>
	</g>
	<g>
		<g>
			<rect x="865.5" y="231.5" transform="matrix(0.4913 -0.871 0.871 0.4913 206.8997 890.747)" width="1" height="73.5"/>
		</g>
	</g>
	<g>
		<g>
			<rect x="879.9" y="203.8" transform="matrix(0.4904 -0.8715 0.8715 0.4904 240.7568 888.842)" width="1" height="69.5"/>
		</g>
	</g>
	<g>
		<rect x="920.3" y="252.1" transform="matrix(0.7788 -0.6273 0.6273 0.7788 35.4242 636.9781)" width="1" height="32.4"/>
	</g>
	<g>
		<rect x="907.3" y="283" transform="matrix(0.797 -0.6039 0.6039 0.797 3.5167 609.0143)" width="1" height="32.6"/>
	</g>
	<g>
		<rect x="938.8" y="275.9" transform="matrix(0.491 -0.8712 0.8712 0.491 229.5106 963.5291)" width="1" height="18.9"/>
	</g>
	<g>
		<rect x="925.4" y="307.5" transform="matrix(0.4898 -0.8719 0.8719 0.4898 196.1764 968.8956)" width="1" height="18.6"/>
	</g>
	<g>
		<rect x="946.9" y="286.5" transform="matrix(0.9138 -0.4061 0.4061 0.9138 -34.3184 412.3071)" width="15" height="1"/>
	</g>
	<g>
		<path d="M936.7,326.5c-2.2,0-4-1.8-4-4s1.8-4,4-4s4,1.8,4,4S938.9,326.5,936.7,326.5z M936.7,319.5c-1.7,0-3,1.3-3,3s1.3,3,3,3
			s3-1.3,3-3S938.4,319.5,936.7,319.5z"/>
	</g>
	<g>
		<path d="M916.9,337.1c-2.2,0-4-1.8-4-4s1.8-4,4-4s4,1.8,4,4S919.1,337.1,916.9,337.1z M916.9,330.1c-1.7,0-3,1.3-3,3s1.3,3,3,3
			s3-1.3,3-3S918.6,330.1,916.9,330.1z"/>
	</g>
	<g>
		<path d="M851.8,332.6c-2.2,0-4-1.8-4-4s1.8-4,4-4s4,1.8,4,4S854,332.6,851.8,332.6z M851.8,325.6c-1.7,0-3,1.3-3,3s1.3,3,3,3
			s3-1.3,3-3S853.5,325.6,851.8,325.6z"/>
	</g>
	<g>
		<path d="M837.1,358.7c-2.2,0-4-1.8-4-4s1.8-4,4-4s4,1.8,4,4S839.3,358.7,837.1,358.7z M837.1,351.7c-1.7,0-3,1.3-3,3s1.3,3,3,3
			s3-1.3,3-3S838.8,351.7,837.1,351.7z"/>
	</g>
	<g>
		<path d="M896.8,409.6c-2.2,0-4-1.8-4-4s1.8-4,4-4s4,1.8,4,4S899,409.6,896.8,409.6z M896.8,402.6c-1.7,0-3,1.3-3,3s1.3,3,3,3
			s3-1.3,3-3S898.5,402.6,896.8,402.6z"/>
	</g>
	<g>
		<path d="M807.1,411.8c-2.2,0-4-1.8-4-4s1.8-4,4-4s4,1.8,4,4S809.3,411.8,807.1,411.8z M807.1,404.8c-1.7,0-3,1.3-3,3s1.3,3,3,3
			s3-1.3,3-3S808.8,404.8,807.1,404.8z"/>
	</g>
	<g>
		<path d="M963.8,286.6c-2.2,0-4-1.8-4-4s1.8-4,4-4s4,1.8,4,4S966,286.6,963.8,286.6z M963.8,279.6c-1.7,0-3,1.3-3,3s1.3,3,3,3
			s3-1.3,3-3S965.5,279.6,963.8,279.6z"/>
	</g>
	<g>
		<rect x="862.4" y="297" transform="matrix(0.9287 -0.3707 0.3707 0.9287 -48.1541 344.4784)" width="19.2" height="1"/>
	</g>
	<g>
		<rect x="887.1" y="290.2" transform="matrix(0.4868 -0.8735 0.8735 0.4868 195.5171 928.1132)" width="1" height="15"/>
	</g>
	<g>
		<rect x="896.8" y="300.9" transform="matrix(0.9629 -0.2698 0.2698 0.9629 -51.1558 253.7011)" width="1" height="24.1"/>
	</g>
	<g>
		<rect x="906.7" y="320.7" transform="matrix(0.4867 -0.8736 0.8736 0.4867 178.9597 960.8838)" width="1" height="15"/>
	</g>
	<g>
		<rect x="857" y="397.8" transform="matrix(0.9618 -0.2737 0.2737 0.9618 -75.8817 252.6713)" width="21.2" height="1"/>
	</g>
	<g>
		<rect x="885.1" y="390.7" transform="matrix(0.4931 -0.87 0.87 0.4931 101.1719 973.108)" width="1" height="18"/>
	</g>
	<g>
		<g>
			<rect x="795.9" y="150.8" transform="matrix(0.4904 -0.8715 0.8715 0.4904 297.9494 812.0774)" width="95" height="1"/>
		</g>
	</g>
	<g>
		<g>
			<rect x="833.3" y="184.9" transform="matrix(0.4912 -0.8711 0.8711 0.4912 275.3728 842.2255)" width="50.5" height="1"/>
		</g>
	</g>
	<g>
		<g>
			<rect x="781.1" y="155.5" transform="matrix(0.4897 -0.8719 0.8719 0.4897 275.4759 782.6521)" width="50.5" height="1"/>
		</g>
	</g>
	<g>
		<g>
			<rect x="754.9" y="140.8" transform="matrix(0.4912 -0.8711 0.8711 0.4912 273.8908 751.4941)" width="50.5" height="1"/>
		</g>
	</g>
	<g>
		<g>
			<rect x="728.8" y="126" transform="matrix(0.4912 -0.8711 0.8711 0.4912 273.5005 721.2288)" width="50.5" height="1"/>
		</g>
	</g>
	<g>
		<g>
			<rect x="696.8" y="101.3" transform="matrix(0.4912 -0.8711 0.8711 0.4912 284.6088 690.7588)" width="73.5" height="1"/>
		</g>
	</g>
	<g>
		<g>
			<rect x="669.2" y="86.9" transform="matrix(0.4912 -0.8711 0.8711 0.4912 282.0319 657.5869)" width="69.4" height="1"/>
		</g>
	</g>
	<g>
		<rect x="717.4" y="46.5" transform="matrix(0.7788 -0.6273 0.6273 0.7788 132.7897 470.5481)" width="32.4" height="1"/>
	</g>
	<g>
		<rect x="748.3" y="59.4" transform="matrix(0.7972 -0.6037 0.6037 0.7972 118.9112 473.8046)" width="32.8" height="1"/>
	</g>
	<g>
		<rect x="741.3" y="28" transform="matrix(0.4912 -0.8711 0.8711 0.4912 357.1647 668.4158)" width="18.9" height="1"/>
	</g>
	<g>
		<rect x="772.9" y="41.4" transform="matrix(0.4881 -0.8728 0.8728 0.4881 363.8072 704.0912)" width="18.4" height="1"/>
	</g>
	<g>
		<rect x="751.9" y="5.9" transform="matrix(0.9171 -0.3987 0.3987 0.9171 57.0357 301.0993)" width="1" height="15"/>
	</g>
	<g>
		<path d="M787.8,35c-2.2,0-4-1.8-4-4s1.8-4,4-4s4,1.8,4,4S790,35,787.8,35z M787.8,28c-1.7,0-3,1.3-3,3s1.3,3,3,3s3-1.3,3-3
			S789.5,28,787.8,28z"/>
	</g>
	<g>
		<path d="M798.4,54.8c-2.2,0-4-1.8-4-4s1.8-4,4-4s4,1.8,4,4S800.6,54.8,798.4,54.8z M798.4,47.8c-1.7,0-3,1.3-3,3s1.3,3,3,3
			s3-1.3,3-3S800.1,47.8,798.4,47.8z"/>
	</g>
	<g>
		<path d="M793.9,120c-2.2,0-4-1.8-4-4s1.8-4,4-4s4,1.8,4,4S796.1,120,793.9,120z M793.9,113c-1.7,0-3,1.3-3,3s1.3,3,3,3s3-1.3,3-3
			S795.6,113,793.9,113z"/>
	</g>
	<g>
		<path d="M820,134.7c-2.2,0-4-1.8-4-4s1.8-4,4-4s4,1.8,4,4S822.2,134.7,820,134.7z M820,127.7c-1.7,0-3,1.3-3,3s1.3,3,3,3
			s3-1.3,3-3S821.7,127.7,820,127.7z"/>
	</g>
	<g>
		<path d="M870.9,75c-2.2,0-4-1.8-4-4s1.8-4,4-4s4,1.8,4,4S873.1,75,870.9,75z M870.9,68c-1.7,0-3,1.3-3,3s1.3,3,3,3s3-1.3,3-3
			S872.6,68,870.9,68z"/>
	</g>
	<g>
		<path d="M873.2,164.6c-2.2,0-4-1.8-4-4s1.8-4,4-4s4,1.8,4,4S875.4,164.6,873.2,164.6z M873.2,157.6c-1.7,0-3,1.3-3,3s1.3,3,3,3
			s3-1.3,3-3S874.9,157.6,873.2,157.6z"/>
	</g>
	<g>
		<path d="M747.9,8c-2.2,0-4-1.8-4-4s1.8-4,4-4s4,1.8,4,4S750.1,8,747.9,8z M747.9,1c-1.7,0-3,1.3-3,3s1.3,3,3,3s3-1.3,3-3
			S749.6,1,747.9,1z"/>
	</g>
	<g>
		<rect x="762.4" y="86" transform="matrix(0.927 -0.375 0.375 0.927 19.8264 293.0624)" width="1" height="19.2"/>
	</g>
	<g>
		<rect x="755.5" y="79.7" transform="matrix(0.4897 -0.8719 0.8719 0.4897 319.4172 706.1303)" width="14.9" height="1"/>
	</g>
	<g>
		<rect x="766.2" y="70" transform="matrix(0.963 -0.2696 0.2696 0.963 9.8226 212.4264)" width="24.1" height="1"/>
	</g>
	<g>
		<rect x="785.9" y="60.2" transform="matrix(0.4919 -0.8706 0.8706 0.4919 350.319 721.6085)" width="15" height="1"/>
	</g>
	<g>
		<rect x="863.2" y="89.5" transform="matrix(0.9634 -0.2679 0.2679 0.9634 4.7471 235.0444)" width="1" height="21.3"/>
	</g>
	<g>
		<rect x="856.2" y="81.6" transform="matrix(0.4912 -0.8711 0.8711 0.4912 368.7106 795.408)" width="17.9" height="1"/>
	</g>
	<g>
		<g>
			<rect x="542.1" y="352.8" transform="matrix(0.4904 -0.8715 0.8715 0.4904 -7.4194 693.845)" width="95" height="1"/>
		</g>
	</g>
	<g>
		<g>
			<rect x="549.1" y="318.7" transform="matrix(0.4904 -0.8715 0.8715 0.4904 14.5006 663.2224)" width="50.5" height="1"/>
		</g>
	</g>
	<g>
		<g>
			<rect x="601.4" y="348.1" transform="matrix(0.4904 -0.8715 0.8715 0.4904 15.533 723.7813)" width="50.5" height="1"/>
		</g>
	</g>
	<g>
		<g>
			<rect x="627.5" y="362.8" transform="matrix(0.4904 -0.8715 0.8715 0.4904 16.0229 754.0175)" width="50.5" height="1"/>
		</g>
	</g>
	<g>
		<g>
			<rect x="653.7" y="377.6" transform="matrix(0.4904 -0.8715 0.8715 0.4904 16.4774 784.3912)" width="50.5" height="1"/>
		</g>
	</g>
	<g>
		<g>
			<rect x="662.7" y="402.3" transform="matrix(0.4919 -0.8706 0.8706 0.4919 4.6527 813.5994)" width="73.5" height="1"/>
		</g>
	</g>
	<g>
		<g>
			<rect x="694.4" y="416.8" transform="matrix(0.4904 -0.8715 0.8715 0.4904 7.9176 848.0952)" width="69.4" height="1"/>
		</g>
	</g>
	<g>
		<rect x="683.4" y="457.1" transform="matrix(0.7774 -0.629 0.629 0.7774 -132.1099 541.8507)" width="32.3" height="1"/>
	</g>
	<g>
		<rect x="652.1" y="444.2" transform="matrix(0.7955 -0.6059 0.6059 0.7955 -132.7653 495.9305)" width="32.7" height="1"/>
	</g>
	<g>
		<rect x="672.7" y="475.5" transform="matrix(0.4942 -0.8693 0.8693 0.4942 -68.7708 833.8356)" width="19" height="1"/>
	</g>
	<g>
		<rect x="641.5" y="462.1" transform="matrix(0.4919 -0.8706 0.8706 0.4919 -72.1459 801.642)" width="18.5" height="1"/>
	</g>
	<g>
		<rect x="680.2" y="483.7" transform="matrix(0.9146 -0.4043 0.4043 0.9146 -140.4968 317.1516)" width="1" height="15.1"/>
	</g>
	<g>
		<path d="M645.2,477.6c-2.2,0-4-1.8-4-4s1.8-4,4-4s4,1.8,4,4S647.4,477.6,645.2,477.6z M645.2,470.6c-1.7,0-3,1.3-3,3s1.3,3,3,3
			s3-1.3,3-3S646.9,470.6,645.2,470.6z"/>
	</g>
	<g>
		<path d="M634.6,457.8c-2.2,0-4-1.8-4-4s1.8-4,4-4s4,1.8,4,4S636.8,457.8,634.6,457.8z M634.6,450.8c-1.7,0-3,1.3-3,3s1.3,3,3,3
			s3-1.3,3-3S636.3,450.8,634.6,450.8z"/>
	</g>
	<g>
		<path d="M561.7,437.4c-2.2,0-4-1.8-4-4s1.8-4,4-4s4,1.8,4,4S563.9,437.4,561.7,437.4z M561.7,430.4c-1.7,0-3,1.3-3,3s1.3,3,3,3
			s3-1.3,3-3S563.4,430.4,561.7,430.4z"/>
	</g>
	<g>
		<path d="M639.1,392.6c-2.2,0-4-1.8-4-4s1.8-4,4-4s4,1.8,4,4S641.3,392.6,639.1,392.6z M639.1,385.6c-1.7,0-3,1.3-3,3s1.3,3,3,3
			s3-1.3,3-3S640.8,385.6,639.1,385.6z"/>
	</g>
	<g>
		<path d="M613,377.9c-2.2,0-4-1.8-4-4s1.8-4,4-4s4,1.8,4,4S615.2,377.9,613,377.9z M613,370.9c-1.7,0-3,1.3-3,3s1.3,3,3,3
			s3-1.3,3-3S614.7,370.9,613,370.9z"/>
	</g>
	<g>
		<path d="M559.9,348c-2.2,0-4-1.8-4-4s1.8-4,4-4s4,1.8,4,4S562.1,348,559.9,348z M559.9,341c-1.7,0-3,1.3-3,3s1.3,3,3,3s3-1.3,3-3
			S561.6,341,559.9,341z"/>
	</g>
	<g>
		<rect x="669.6" y="399.4" transform="matrix(0.9288 -0.3705 0.3705 0.9288 -103.851 277.3825)" width="1" height="19.2"/>
	</g>
	<g>
		<rect x="662.6" y="423.9" transform="matrix(0.4904 -0.8715 0.8715 0.4904 -28.3816 800.1854)" width="14.9" height="1"/>
	</g>
	<g>
		<rect x="642.8" y="433.7" transform="matrix(0.963 -0.2696 0.2696 0.963 -92.7997 192.6289)" width="24.1" height="1"/>
	</g>
	<g>
		<rect x="632.1" y="443.4" transform="matrix(0.4866 -0.8736 0.8736 0.4866 -59.454 786.6616)" width="15" height="1"/>
	</g>
	<g>
		<rect x="568.9" y="393.8" transform="matrix(0.9631 -0.2691 0.2691 0.9631 -87.8273 168.1432)" width="1" height="21.2"/>
	</g>
	<g>
		<rect x="558.9" y="422" transform="matrix(0.4928 -0.8702 0.8702 0.4928 -79.5955 708.4739)" width="18" height="1"/>
	</g>
</g>
<circle class="st2" cx="684.9" cy="501.6" r="3.5"/>
</svg>
