<?xml version="1.0" encoding="utf-8"?>
<!-- Generator: Adobe Illustrator 22.0.1, SVG Export Plug-In . SVG Version: 6.00 Build 0)  -->
<svg version="1.1" id="Layer_1" xmlns="http://www.w3.org/2000/svg" xmlns:xlink="http://www.w3.org/1999/xlink" x="0px" y="0px"
	 viewBox="0 0 636.5 761" style="enable-background:new 0 0 636.5 761;" xml:space="preserve">
<style type="text/css">
	.st0{fill:none;stroke:#FFFFFF;stroke-width:8;stroke-miterlimit:10;}
	.st1{fill:none;stroke:#FFFFFF;stroke-width:4;stroke-miterlimit:10;}
</style>
<g>
	<path class="st0" d="M634.1,760c-212.4,0-421.5,0-632.2,0c0-38.9-2.5-77.3,0.8-115.3c3-29.6,22-54.5,46.5-70.5
		c39.7-26.2,82-48.1,123.3-72.2c13.5-7.6,26.6-15.6,40.1-23.7c-0.8-1.7-1.3-3.8-2.1-5.5c-12.7-2.1-27-1.7-38-7.6
		c-22.8-11.4-44.8-24.9-65.9-39.3c-11-7.6-10.6-19.8,1.7-27.9c22.8-14.8,32.1-37.6,35.1-62.5c3.8-28.3,5.9-57.4,4.6-85.7
		c-3.8-64.6,7.6-125,46.9-177.4c71.4-95.9,193.4-95,263.5,1.7c41.4,56.6,48.6,120.4,45.2,188.4c-1.7,33.8,5.9,68,12.7,101.4
		c2.5,12.2,13.9,24.9,24.5,32.9c16,12.2,13.9,22,1.7,34.2c-27.9,27.9-62.1,39.7-107.7,43.1c13.1,10.1,20.7,17.3,30,22.4
		c30.8,18.2,63.3,33.8,93.3,53.2c52.8,33.8,83.2,80.7,76.4,146.5C632.5,716.5,634.1,736.8,634.1,760z M373.1,119.8
		c-49.4,40.1-55.3,43.5-123.3,59.1c-23.7,5.5-38,19.4-44.8,42.7c-16.5,57.9,5.1,121.2,53.6,157.1c42.7,31.3,95,30.8,136.8-2.1
		s59.1-78.1,66.7-129.7c4.2-28.3-4.2-49.4-24.5-67.6C415.8,159.9,394.7,139.6,373.1,119.8z M242.6,513.8
		c46.9,34.6,122.9,35.1,167.2,0.8c-8.9-27.9-17.3-54.5-26.2-81.5c-38.4,16-79,15.6-116.6,0C259.5,459.8,251.5,485.5,242.6,513.8z
		 M210.1,643.9c0.4-0.4,0.8-1.3,1.3-1.3c12.7-8.9,24.9-18.2,37.6-27c17.7-12.7,19-17.3,10.6-41c-23.2,16.5-46,32.1-68.8,48.6
		c-8.4,6.3-12.7,33.8-5.1,39.7c24.9,18.6,50.7,35.9,78.1,55.3C273.1,668.8,225.3,670.1,210.1,643.9z M394.3,717
		c26.2-18.6,52.4-33.8,74.3-54.1c6.3-5.9,5.5-31.7-1.7-38.4c-21.1-19.8-46.9-34.6-72.6-52.4c-11.8,48.6,38,47.3,51.9,72.6
		C431.9,668.8,383.3,668.4,394.3,717z M325.8,571.7c-11,49-21.5,96.7-32.5,145.7c11.4,0,22,0,32.9,0c11-48.6,21.5-96.7,32.5-145.7
		C347.4,571.7,337.7,571.7,325.8,571.7z"/>
</g>
<path class="st1" d="M378.6,277.7c0.4,0-1.7-0.4-3.8-0.8c-8.4-3-14.4-0.8-16,8.9c-0.8,5.1-2.5,10.1-8.9,11s-9.3-3.8-11.4-8.4
	c-4.6-9.3-11-10.6-19.4-4.6c-4.2,3-8.4,4.2-13.1,0.4c-5.1-3.8-4.2-8.4-2.1-13.1c4.2-11,0-16.5-10.6-19c-4.6-1.3-9.3-3.4-9.7-8.9
	c-0.4-5.9,4.2-8,8.4-10.6c9.7-5.5,11-9.3,5.5-19.8c-2.1-4.2-4.6-8.4-0.4-13.1c3.8-4.2,8-4.2,13.1-2.5c10.6,3.8,14.8,1.3,18.6-8.9
	c1.7-4.6,2.5-9.3,8.9-10.1c6.3-0.8,9.3,3.4,11.4,8.4c4.2,8.9,10.1,11,18.2,5.5c4.2-3,9.3-5.1,14.4-1.3c5.5,4.6,3.8,9.7,1.7,15.2
	c-3,8.4,0,13.1,8,15.2c5.5,1.3,11,3,11.8,10.1c0.4,6.3-4.6,8.4-9.3,11c-8,4.6-10.1,10.6-4.2,18.6c2.5,3.4,4.6,7.6,1.3,12.2
	C388.4,276.5,385.8,278.6,378.6,277.7z M375.7,236.8c-0.4-18.2-15.6-32.9-33.8-32.1c-17.7,0.4-32.1,15.2-31.7,32.9
	c0.4,18.2,15.2,32.5,33.8,32.1C361.7,269.3,376.1,254.5,375.7,236.8z"/>
<path class="st1" d="M274.3,288.3c8,6.3,12.2,1.7,17.3-5.5c2.1-3,6.3-0.8,7.6,3c1.7,5.9,4.6,8.4,11.4,5.9c5.9-2.1,10.1,0.8,6.8,7.6
	c-3,5.9-2.1,8.9,3.8,12.2c5.9,3.4,5.1,8-1.3,10.1c-5.9,2.1-6.8,5.5-5.5,11c1.7,7.2-2.1,10.1-8.4,6.8c-5.5-2.5-8-1.3-10.6,3.4
	c-3.4,6.8-8,6.8-11,0c-2.1-5.1-4.6-7.2-10.6-5.5c-6.8,2.1-10.6-0.8-7.2-8c2.5-5.5,1.3-8.4-3.8-11.4c-6.8-3.8-5.5-8.4,1.3-10.6
	c5.5-1.7,7.2-5.1,5.1-10.1C267.1,292.1,268.4,289.1,274.3,288.3z M291.6,324.2c5.1-0.8,8.9-3.4,9.3-8.9c0.4-5.9-3.4-9.7-9.3-9.7
	c-5.5,0-8.9,3.4-8.9,8.9C282.8,320.4,286.1,322.9,291.6,324.2z"/>
<path class="st1" d="M375.7,236.8c0.4,17.7-13.9,32.5-31.7,32.9c-18.2,0.4-33.4-13.9-33.8-32.1c0-17.7,14.4-32.5,31.7-32.9
	C360.5,204.3,375.7,218.6,375.7,236.8z M336.8,233.8c0,4.2,0,8.9,0,13.1c0,4.6,1.3,6.8,6.3,6.8c4.2,0,5.9-1.7,5.9-5.9
	c0-9.3,0-18.6,0-27.5c0-4.6-2.5-5.5-6.3-5.5s-6.3,1.3-5.9,5.9C336.8,224.9,336.8,229.6,336.8,233.8z M366,240.2c0-1.7,0-3.8,0-5.5
	c0-4.2,0.4-8-5.9-8s-5.5,4.2-5.5,8c0,4.2,0,8.9,0,13.1c0,4.2,1.7,5.5,5.9,5.5s5.9-1.7,5.5-5.9C365.5,245.2,366,242.7,366,240.2z
	 M332.2,246.5c0.4-4.2-0.8-6.8-5.9-6.8c-5.9,0-6.3,3-6.3,7.6s2.1,6.3,6.8,6.3C331.8,253.7,332.6,250.7,332.2,246.5z"/>
</svg>
