<?xml version="1.0" encoding="utf-8"?>
<!-- Generator: Adobe Illustrator 19.2.0, SVG Export Plug-In . SVG Version: 6.00 Build 0)  -->
<svg version="1.1" xmlns="http://www.w3.org/2000/svg" xmlns:xlink="http://www.w3.org/1999/xlink" x="0px" y="0px"
	 viewBox="0 0 293.1 158.8" style="enable-background:new 0 0 293.1 158.8;" xml:space="preserve">
<style type="text/css">
	.st0{fill:#82BC00;}
	.st1{fill:#FFFFFF;}
</style>
<g id="Background">
</g>
<g id="Artwork">
	<g>
		<g>
			<g>
				<g>
					<path d="M257.9,73.8v-0.6h0.4c0.2,0,0.5,0,0.5,0.3c0,0.3-0.2,0.3-0.4,0.3H257.9 M257.9,74.2h0.3l0.6,1.1h0.7l-0.7-1.1
						c0.3,0,0.6-0.2,0.6-0.7c0-0.6-0.4-0.8-1.1-0.8h-1v2.5h0.6V74.2 M260.8,74c0-1.5-1.2-2.4-2.5-2.4c-1.3,0-2.5,0.9-2.5,2.4
						c0,1.5,1.2,2.4,2.5,2.4C259.6,76.4,260.8,75.5,260.8,74 M260.1,74c0,1.1-0.8,1.8-1.7,1.8v0c-1,0-1.8-0.7-1.8-1.8
						c0-1.1,0.8-1.8,1.8-1.8C259.3,72.2,260.1,72.9,260.1,74"/>
					<path d="M170.5,48.7l0,26.9h7.6V48.7L170.5,48.7z M110.8,48.6v26.9h7.7V54.6l6,0c2,0,3.3,0.5,4.3,1.5c1.2,1.3,1.7,3.3,1.7,7.1
						v12.3h7.4V60.7c0-10.6-6.8-12-13.4-12H110.8z M182.7,48.7v26.9H195c6.6,0,8.7-1.1,11-3.5c1.6-1.7,2.7-5.5,2.7-9.6
						c0-3.8-0.9-7.1-2.5-9.2c-2.8-3.8-6.9-4.5-12.9-4.5H182.7z M190.2,54.5h3.3c4.7,0,7.8,2.1,7.8,7.6c0,5.5-3.1,7.6-7.8,7.6h-3.3
						V54.5z M159.5,48.7L153.2,70l-6.1-21.3l-8.2,0l8.7,26.9h10.9l8.7-26.9H159.5z M212.2,75.5h7.6V48.7l-7.6,0L212.2,75.5z
						 M233.5,48.7l-10.6,26.8h7.5l1.7-4.7h12.5l1.6,4.7h8.1l-10.7-26.8L233.5,48.7z M238.4,53.6l4.6,12.6h-9.3L238.4,53.6z"/>
					<path class="st0" d="M61.9,53.1v-3.7c0.4,0,0.7,0,1.1-0.1c10.1-0.3,16.7,8.7,16.7,8.7s-7.2,10-14.8,10c-1.1,0-2.1-0.2-3-0.5
						V56.3c3.9,0.5,4.7,2.2,7.1,6.2l5.3-4.4c0,0-3.8-5-10.3-5C63.2,53,62.5,53.1,61.9,53.1 M61.9,40.9v5.5c0.4,0,0.7-0.1,1.1-0.1
						C77,45.9,86.2,57.9,86.2,57.9S75.6,70.7,64.7,70.7c-1,0-1.9-0.1-2.8-0.2v3.4c0.8,0.1,1.5,0.2,2.4,0.2
						c10.2,0,17.6-5.2,24.7-11.4c1.2,0.9,6,3.3,7,4.3c-6.8,5.7-22.6,10.3-31.6,10.3c-0.9,0-1.7-0.1-2.5-0.1v4.8h38.8V40.9H61.9z
						 M61.9,67.6v2.9C52.4,68.8,49.8,59,49.8,59s4.5-5,12.1-5.8v3.2c0,0,0,0,0,0c-3.9-0.5-7,3.2-7,3.2S56.5,65.8,61.9,67.6
						 M45.1,58.6c0,0,5.6-8.3,16.8-9.1v-3c-12.4,1-23.1,11.5-23.1,11.5s6.1,17.5,23.1,19.1v-3.2C49.4,72.3,45.1,58.6,45.1,58.6"/>
				</g>
			</g>
		</g>
		<g>
			<path d="M38.8,117.9v-15.7h1.7v15.7H38.8z"/>
			<path d="M54.6,117.9l-8.3-12.6v12.6h-1.7v-15.7h1.6l8.3,12.5v-12.5h1.7v15.7H54.6z"/>
			<path d="M65.3,118c-1.5,0-2.9-0.6-4-1.6c-1.5-1.5-1.5-3-1.5-6.3c0-3.3,0-4.9,1.5-6.3c1.1-1.1,2.5-1.6,4-1.6
				c2.8,0,4.9,1.7,5.4,4.7h-1.7c-0.4-1.9-1.8-3.2-3.7-3.2c-1,0-2,0.4-2.7,1.1c-1,1-1.1,2.1-1.1,5.4c0,3.3,0.1,4.4,1.1,5.4
				c0.7,0.7,1.7,1.1,2.7,1.1c2,0,3.3-1.3,3.8-3.2h1.7C70.3,116.3,68.1,118,65.3,118z"/>
			<path d="M74.2,117.9v-15.7h9.7v1.5h-8.1v5.5h6.9v1.5h-6.9v5.7h8.1v1.5H74.2z"/>
			<path d="M93.1,111.4h-4.2v6.4h-1.7v-15.7h5.8c2.9,0,4.8,1.8,4.8,4.6C97.9,109.6,95.9,111.4,93.1,111.4z M92.9,103.7h-4v6.2h4
				c2,0,3.3-1.1,3.3-3.1C96.2,104.7,94.9,103.7,92.9,103.7z"/>
			<path d="M106.1,103.7v14.2h-1.7v-14.2h-4.5v-1.5h10.7v1.5H106.1z"/>
			<path d="M113.7,117.9v-15.7h1.7v15.7H113.7z"/>
			<path d="M128.5,116.4c-1.1,1.1-2.4,1.6-4,1.6c-1.6,0-2.9-0.6-4-1.6c-1.5-1.5-1.5-3-1.5-6.3c0-3.3,0-4.9,1.5-6.3
				c1.1-1.1,2.4-1.6,4-1.6c1.6,0,2.9,0.6,4,1.6c1.5,1.5,1.5,3,1.5,6.3C130,113.4,130,114.9,128.5,116.4z M127.2,104.7
				c-0.7-0.7-1.7-1.1-2.7-1.1c-1,0-2,0.4-2.7,1.1c-1,1-1.1,2.1-1.1,5.3c0,3.3,0.1,4.3,1.1,5.3c0.7,0.7,1.7,1.1,2.7,1.1
				c1,0,2-0.4,2.7-1.1c1-1,1.1-2.1,1.1-5.3C128.3,106.8,128.2,105.7,127.2,104.7z"/>
			<path d="M143.7,117.9l-8.3-12.6v12.6h-1.7v-15.7h1.6l8.3,12.5v-12.5h1.7v15.7H143.7z"/>
			<path d="M161.1,111.4H157v6.4h-1.7v-15.7h5.8c2.9,0,4.8,1.8,4.8,4.6C166,109.6,164,111.4,161.1,111.4z M161,103.7h-4v6.2h4
				c2,0,3.3-1.1,3.3-3.1C164.3,104.7,162.9,103.7,161,103.7z"/>
			<path d="M178.2,117.9l-3.6-7h-3.8v7h-1.7v-15.7h6c2.7,0,4.6,1.7,4.6,4.4c0,2.3-1.4,3.8-3.4,4.2l3.7,7.1H178.2z M175,103.7h-4.2
				v5.7h4.2c1.8,0,3.1-0.9,3.1-2.9C178.1,104.7,176.8,103.7,175,103.7z"/>
			<path d="M192.4,116.4c-1.1,1.1-2.4,1.6-4,1.6s-2.9-0.6-4-1.6c-1.5-1.5-1.5-3-1.5-6.3c0-3.3,0-4.9,1.5-6.3c1.1-1.1,2.4-1.6,4-1.6
				s2.9,0.6,4,1.6c1.5,1.5,1.5,3,1.5,6.3C193.9,113.4,193.9,114.9,192.4,116.4z M191.2,104.7c-0.7-0.7-1.7-1.1-2.7-1.1
				c-1,0-2,0.4-2.7,1.1c-1,1-1.1,2.1-1.1,5.3c0,3.3,0.1,4.3,1.1,5.3c0.7,0.7,1.7,1.1,2.7,1.1c1,0,2-0.4,2.7-1.1c1-1,1.1-2.1,1.1-5.3
				C192.3,106.8,192.1,105.7,191.2,104.7z"/>
			<path d="M206.8,116.2c-1.1,1.2-2.6,1.8-4.2,1.8c-1.5,0-2.9-0.6-4-1.6c-1.5-1.5-1.5-3-1.5-6.3c0-3.3,0-4.9,1.5-6.3
				c1.1-1.1,2.4-1.6,4-1.6c3,0,5,1.9,5.5,4.7h-1.7c-0.4-2-1.8-3.2-3.8-3.2c-1,0-2,0.4-2.7,1.1c-1,1-1.1,2.1-1.1,5.3
				c0,3.3,0.1,4.4,1.1,5.4c0.7,0.7,1.7,1.1,2.7,1.1c1.1,0,2.2-0.5,3-1.3c0.6-0.8,0.9-1.6,0.9-2.8v-1.2h-3.9v-1.5h5.5v2.5
				C208.2,114,207.8,115.2,206.8,116.2z"/>
			<path d="M220.8,117.9l-3.6-7h-3.8v7h-1.7v-15.7h6c2.7,0,4.6,1.7,4.6,4.4c0,2.3-1.4,3.8-3.4,4.2l3.7,7.1H220.8z M217.7,103.7h-4.2
				v5.7h4.2c1.8,0,3.1-0.9,3.1-2.9C220.8,104.7,219.5,103.7,217.7,103.7z"/>
			<path d="M236.2,117.9l-1.3-3.5h-6.8l-1.3,3.5h-1.8l5.8-15.7h1.4l5.7,15.7H236.2z M231.6,104.6l-2.9,8.3h5.9L231.6,104.6z"/>
			<path d="M252.6,117.9V106l-4.3,9.4h-1.4l-4.4-9.4v11.9h-1.7v-15.7h1.7l5.1,11.1l5-11.1h1.7v15.7H252.6z"/>
		</g>
	</g>
</g>
</svg>
