<?xml version="1.0" encoding="utf-8"?>
<!-- Generator: Adobe Illustrator 22.0.1, SVG Export Plug-In . SVG Version: 6.00 Build 0)  -->
<svg version="1.1" id="Layer_1" xmlns="http://www.w3.org/2000/svg" xmlns:xlink="http://www.w3.org/1999/xlink" x="0px" y="0px"
	 viewBox="0 0 139 134.7" style="enable-background:new 0 0 139 134.7;" xml:space="preserve">
<style type="text/css">
	.st0{fill:none;stroke:#27235D;stroke-miterlimit:10;}
	.st1{fill:#27235D;}
</style>
<g>
	<path class="st0" d="M62.1,104.1c5.2,2.6,8.7,8,8.7,14.3c0,8.8-7.2,16-16,16s-16-7.2-16-16s7.2-16,16-16c0.5,0,1,0,1.5,0.1"/>
	<path class="st0" d="M114.4,112.6"/>
	<path class="st0" d="M114.4,112.6c1.6-0.8,3.3-1.3,5.2-1.3c6.2,0,11.3,5,11.3,11.3c0,6.2-5,11.3-11.3,11.3c-6.2,0-11.3-5-11.3-11.3
		c0-2,0.5-3.9,1.4-5.5"/>
	<circle class="st0" cx="96.1" cy="17.4" r="8.3"/>
	<path class="st0" d="M27.6,31.6"/>
	<path class="st0" d="M27.6,31.6c-2.8,2.1-6.3,3.3-10.1,3.3c-9.4,0-17.1-7.6-17.1-17.1S8,0.7,17.5,0.7s17.1,7.6,17.1,17.1
		c0,3.7-1.2,7.2-3.2,10"/>
	<path class="st0" d="M86.9,41.8c5.3,3.6,9.4,8.8,11.6,15"/>
	<path class="st0" d="M86.9,41.8"/>
	<path class="st0" d="M48.9,45c5.4-5.2,12.8-8.4,21-8.4c4.2,0,8.2,0.9,11.9,2.4"/>
	<line class="st0" x1="114.7" y1="112.8" x2="91.3" y2="87.9"/>
	<line class="st0" x1="86.5" y1="91.9" x2="110.2" y2="117.2"/>
	<line class="st0" x1="61.9" y1="104.4" x2="64.7" y2="96.5"/>
	<line class="st0" x1="59" y1="94.9" x2="56.2" y2="102.8"/>
	<g>
		<path class="st0" d="M91.8,32.7c1.5,0.4,3.1,0.7,4.7,0.7c9.1,0,16.5-7.4,16.5-16.5S105.6,0.4,96.5,0.4S80,7.8,80,16.9
			c0,5.3,2.5,10.1,6.5,13.1"/>
		<path class="st0" d="M91.7,88.1c5.3-5.5,8.6-12.9,8.6-21.2c0-1.5-0.1-3-0.3-4.4l-9-2.1C88.2,51.5,79.9,45,70,45
			c-6.2,0-11.9,2.6-15.9,6.8l-9-2.1c-3.1,4.4-5,9.6-5.4,15.3"/>
		<path class="st0" d="M64.6,96.8c1.7,0.3,3.5,0.5,5.3,0.5c6.3,0,12.1-1.9,17-5.2"/>
		<path class="st0" d="M39.9,71.2c1.5,11,9,20.1,19,24"/>
		<path class="st0" d="M39.2,65"/>
		<path class="st0" d="M40,65l-13.2,1.1c0,0-0.1,0.2-0.1,0c-1.4-4.5-5.7-7.8-10.7-7.8c-6.2,0-11.3,5-11.3,11.3s5,11.3,11.3,11.3
			c5.2,0,9.6-3.6,10.9-8.5c0.2-0.6,0.4-0.3,0.4-0.3L40.2,71"/>
	</g>
	<line class="st0" x1="31.7" y1="27.9" x2="49.1" y2="45.3"/>
	<line class="st0" x1="27.5" y1="32.1" x2="45.2" y2="49.8"/>
	<line class="st0" x1="86.6" y1="29.7" x2="81.7" y2="39.3"/>
	<path class="st0" d="M86.5,30.1"/>
	<line class="st0" x1="87" y1="41.9" x2="91.9" y2="32.4"/>
	<g>
		<path class="st0" d="M99.6,62.7l6.2-1.3"/>
		<line class="st0" x1="104.3" y1="55.4" x2="98.2" y2="56.9"/>
		<path class="st0" d="M105.9,61c2.7,6,8.7,10.1,15.6,10.1c9.5,0,17.1-7.7,17.1-17.1s-7.7-17.1-17.1-17.1s-17.1,7.7-17.1,17.1
			c0,0.4,0,0.8,0,1.2"/>
		<g>
			<polygon class="st1" points="105.7,61 105.7,61.1 106.2,60.8 			"/>
			<polygon class="st1" points="104.9,55.6 104.4,55.7 104.4,55.8 			"/>
		</g>
	</g>
	<polygon class="st1" points="104.8,55.1 104.2,55.2 104.4,55.7 104.8,55.6 	"/>
	<polygon class="st1" points="31.5,28.2 31,27.6 31.4,27.1 32,27.7 	"/>
	<polyline class="st1" points="27.8,31.9 27.3,31.3 26.8,31.8 27.3,32.4 	"/>
	<path class="st0" d="M24.9,12.3C24.9,12.2,24.8,12.2,24.9,12.3c-3-3.6-8.2-4-11.7-1.1s-3.9,8.1-1,11.6l0.1,0.1L24.9,12.3z"/>
	<g>
		<path class="st0" d="M116.8,62.5c-2.9-1.6-4.8-4.6-4.8-8.1c0-5.1,4.1-9.2,9.2-9.2s9.2,4.1,9.2,9.2c0,3.5-2,6.6-4.9,8.2"/>
		<g>
			<path class="st0" d="M119.6,56.8c-0.8-0.5-1.3-1.4-1.3-2.4c0-1.6,1.3-2.9,2.9-2.9s2.9,1.3,2.9,2.9c0,1-0.5,1.8-1.2,2.3"/>
			<line class="st0" x1="116.7" y1="62.8" x2="119.9" y2="56.5"/>
			<line class="st0" x1="125.7" y1="62.9" x2="122.5" y2="56.5"/>
		</g>
	</g>
</g>
</svg>
