<?xml version="1.0" encoding="utf-8"?>
<!-- Generator: Adobe Illustrator 22.0.1, SVG Export Plug-In . SVG Version: 6.00 Build 0)  -->
<svg version="1.1" id="Layer_1" xmlns="http://www.w3.org/2000/svg" xmlns:xlink="http://www.w3.org/1999/xlink" x="0px" y="0px"
	 viewBox="0 0 222.4 173.3" style="enable-background:new 0 0 222.4 173.3;" xml:space="preserve">
<style type="text/css">
	.st0{fill:none;stroke:#25215D;stroke-width:0.75;stroke-miterlimit:10;}
	.st1{fill:none;}
	.st2{font-family:'MyriadPro-Regular';}
	.st3{font-size:26px;}
</style>
<g>
	<g>
		<path class="st0" d="M102.8,109.9H23.4c-5.5,0-10.1-4.5-10.1-10.1v9.5c0,5.8,4.8,10.6,10.6,10.6h160.9c3,0,5.7-1.3,7.7-3.3"/>
		<path class="st0" d="M195.3,57.7V23.5c0-3.2-1.5-6.1-3.8-8.1"/>
		<path class="st0" d="M13.3,99.4v0.2v0.2c0,5.5,4.5,10.1,10.1,10.1h80.2"/>
		<path class="st0" d="M125.5,12.9H23.9c-5.8,0-10.6,4.8-10.6,10.6v43.4v2.4"/>
	</g>
	<rect x="81.3" y="119.9" class="st0" width="48" height="32"/>
	<polygon class="st0" points="139.3,138.9 129.3,138.9 129.3,151.7 81.4,151.8 81.4,151.8 81.4,151.8 81.4,151.8 81.3,139 
		70.3,138.9 60.3,171.9 150.3,172.9 	"/>
	<g>
		<rect x="0.4" y="83.6" class="st0" width="3.4" height="12.9"/>
		<rect x="6.2" y="82" class="st0" width="3.4" height="14.4"/>
		<rect x="12.3" y="72.6" class="st0" width="3.4" height="23.8"/>
		<rect x="17.8" y="72.6" class="st0" width="3.4" height="23.8"/>
		<rect x="23.3" y="72.6" class="st0" width="3.4" height="23.8"/>
		<rect x="29.4" y="76.9" class="st0" width="3.4" height="19.5"/>
		<rect x="35.3" y="86.6" class="st0" width="3.4" height="10.2"/>
		<rect x="40.4" y="70.7" class="st0" width="3.4" height="26"/>
		<rect x="45.9" y="77.5" class="st0" width="3.4" height="19.2"/>
		<rect x="51.4" y="64.2" class="st0" width="3.4" height="32.6"/>
		<rect x="56.6" y="67.2" class="st0" width="3.4" height="29.6"/>
		<rect x="61.8" y="62.7" class="st0" width="3.7" height="34.1"/>
		<rect x="67.3" y="58.3" class="st0" width="3.4" height="38.5"/>
	</g>
	<g>
		<polyline class="st0" points="127.9,12.7 127.9,0.4 189.5,0.4 189.5,37.1 127.9,37.1 127.9,12.7 		"/>
		<rect x="139.3" y="3.6" class="st1" width="38.9" height="28"/>
		<text transform="matrix(0.9197 0 0 1 139.2584 25.3872)" class="st0 st2 st3">&lt;/&gt;</text>
	</g>
	<g>
		<path class="st0" d="M220.3,75.9l-4.7,12.7l-3.7-6l-5.7,10.2l-4-3.3l-3.7,6.7l-2.3-23.3l-2.7,13.7l-9.2-2.7l-14,9.8l-7.5-6
			l-9.2,9.3l-5.3-3.3l-13.7,7.7c0,0-0.3-0.5-5.8-6.3l-20,18.7h112l0.2-39.7L220.3,75.9z"/>
		<polygon class="st0" points="107.3,114.2 107.3,93.1 123.1,85.1 127.5,86.6 141.8,81.2 150.5,84.7 165.8,80.4 169.8,85.7 
			183.6,70.1 189.8,77.9 198.1,61.6 202.8,74.4 209.1,68.9 215,72.2 221,67.6 221.5,66.7 220.8,113.7 		"/>
		<polygon class="st0" points="106.8,89.1 107.3,114.2 220.8,113.7 222,58.1 204.8,69.7 197.8,58.7 188.8,68.9 186.1,65.1 
			173.3,74.7 137.5,79.9 131,76.2 		"/>
	</g>
</g>
</svg>
