<?xml version="1.0" encoding="utf-8"?>
<!-- Generator: Adobe Illustrator 22.0.1, SVG Export Plug-In . SVG Version: 6.00 Build 0)  -->
<svg version="1.1" id="Layer_1" xmlns="http://www.w3.org/2000/svg" xmlns:xlink="http://www.w3.org/1999/xlink" x="0px" y="0px"
	 viewBox="0 0 471 504" style="enable-background:new 0 0 471 504;" xml:space="preserve">
<style type="text/css">
	.st0{fill:#20145F;}
	.st1{opacity:0.3;fill:#FFFFFF;}
	.st2{fill:#FFFFFF;}
</style>
<rect class="st0" width="471" height="504"/>
<rect x="36" y="301" class="st1" width="387" height="22"/>
<g>
	<path class="st2" d="M79.7,217.5h-9.8v-20H51.6v20h-9.8v-46.4h9.8v18.2h18.4v-18.2h9.8V217.5z"/>
	<path class="st2" d="M106.8,218.2c-5.7,0-10.2-1.6-13.4-4.7c-3.2-3.2-4.8-7.6-4.8-13.4c0-5.9,1.5-10.5,4.5-13.8
		c3-3.2,7.1-4.9,12.3-4.9c5,0,8.9,1.4,11.7,4.3s4.2,6.8,4.2,11.8v4.7H98.3c0.1,2.8,0.9,4.9,2.4,6.4c1.5,1.5,3.7,2.3,6.4,2.3
		c2.1,0,4.2-0.2,6.1-0.7s3.9-1.2,6-2.1v7.5c-1.7,0.8-3.5,1.5-5.4,1.9C111.9,218,109.5,218.2,106.8,218.2z M105.4,188.3
		c-2.1,0-3.7,0.7-4.8,2c-1.2,1.3-1.8,3.1-2,5.5h13.6c0-2.4-0.7-4.2-1.9-5.5C109.1,188.9,107.4,188.3,105.4,188.3z"/>
	<path class="st2" d="M124,182.1h10.6l6.7,20c0.6,1.7,1,3.8,1.2,6.2h0.2c0.2-2.2,0.7-4.2,1.4-6.2l6.6-20H161l-15,40
		c-1.4,3.7-3.3,6.5-5.9,8.3c-2.5,1.8-5.5,2.8-8.9,2.8c-1.7,0-3.3-0.2-4.9-0.5v-7.7c1.2,0.3,2.4,0.4,3.8,0.4c1.7,0,3.2-0.5,4.5-1.6
		c1.3-1,2.3-2.6,3-4.7l0.6-1.7L124,182.1z"/>
	<path class="st2" d="M175.6,210.7c-1.1,4.3-3,9.3-5.6,15.2h-7c1.4-5.6,2.4-10.9,3.2-15.9h8.9L175.6,210.7z"/>
	<path class="st2" d="M70.1,307.5l-2.7-12.4l-3.7-15.7h-0.2L57,307.5H46.6l-10.1-35.5h9.6l4.1,15.7c0.7,2.8,1.3,6.7,2,11.6h0.2
		c0.1-1.6,0.5-4.2,1.1-7.6l0.5-2.7l4.4-17h10.7l4.2,17c0.1,0.5,0.2,1.2,0.4,2.1c0.2,0.9,0.4,1.9,0.5,2.9c0.2,1,0.3,2,0.5,3
		c0.1,1,0.2,1.8,0.2,2.4h0.2c0.2-1.5,0.5-3.6,1-6.3c0.5-2.7,0.8-4.4,1-5.4l4.3-15.7h9.5l-10.2,35.5H70.1z"/>
	<path class="st2" d="M112.7,308.2c-5.7,0-10.2-1.6-13.4-4.7c-3.2-3.2-4.8-7.6-4.8-13.4c0-5.9,1.5-10.5,4.5-13.8
		c3-3.2,7.1-4.9,12.3-4.9c5,0,8.9,1.4,11.7,4.3s4.2,6.8,4.2,11.8v4.7h-22.9c0.1,2.8,0.9,4.9,2.4,6.4c1.5,1.5,3.7,2.3,6.4,2.3
		c2.1,0,4.2-0.2,6.1-0.7s3.9-1.2,6-2.1v7.5c-1.7,0.8-3.5,1.5-5.4,1.9C117.8,308,115.4,308.2,112.7,308.2z M111.3,278.3
		c-2.1,0-3.7,0.7-4.8,2c-1.2,1.3-1.8,3.1-2,5.5h13.6c0-2.4-0.7-4.2-1.9-5.5C115,278.9,113.3,278.3,111.3,278.3z"/>
	<path class="st2" d="M142.8,261.1l0.4,0.7c-1.1,4.2-2.9,9.2-5.6,15.2h-7c1.5-6.3,2.5-11.6,3.2-15.9H142.8z"/>
	<path class="st2" d="M168.9,271.4c1.3,0,2.4,0.1,3.3,0.3l-0.7,9.1c-0.8-0.2-1.7-0.3-2.9-0.3c-3.1,0-5.5,0.8-7.2,2.4
		c-1.7,1.6-2.6,3.8-2.6,6.7v18.1h-9.7v-35.5h7.3l1.4,6h0.5c1.1-2,2.6-3.6,4.5-4.8C164.7,272,166.7,271.4,168.9,271.4z"/>
	<path class="st2" d="M194.7,308.2c-5.7,0-10.2-1.6-13.4-4.7c-3.2-3.2-4.8-7.6-4.8-13.4c0-5.9,1.5-10.5,4.5-13.8
		c3-3.2,7.1-4.9,12.3-4.9c5,0,8.9,1.4,11.7,4.3s4.2,6.8,4.2,11.8v4.7h-22.9c0.1,2.8,0.9,4.9,2.4,6.4c1.5,1.5,3.7,2.3,6.4,2.3
		c2.1,0,4.2-0.2,6.1-0.7s3.9-1.2,6-2.1v7.5c-1.7,0.8-3.5,1.5-5.4,1.9C199.8,308,197.4,308.2,194.7,308.2z M193.3,278.3
		c-2.1,0-3.7,0.7-4.8,2c-1.2,1.3-1.8,3.1-2,5.5h13.6c0-2.4-0.7-4.2-1.9-5.5C197,278.9,195.4,278.3,193.3,278.3z"/>
	<path class="st2" d="M266.6,307.5H257v-20.7c0-5.1-1.9-7.7-5.7-7.7c-2.7,0-4.7,0.9-5.9,2.8s-1.8,4.8-1.8,9v16.7h-9.7v-49.4h9.7
		v10.1c0,0.8-0.1,2.6-0.2,5.5l-0.2,2.9h0.5c2.2-3.5,5.6-5.2,10.3-5.2c4.2,0,7.3,1.1,9.5,3.4c2.2,2.2,3.2,5.5,3.2,9.6V307.5z"/>
	<path class="st2" d="M276.2,262.9c0-3.2,1.8-4.7,5.3-4.7c3.5,0,5.3,1.6,5.3,4.7c0,1.5-0.4,2.7-1.3,3.5c-0.9,0.8-2.2,1.3-4,1.3
		C278,267.6,276.2,266.1,276.2,262.9z M286.3,307.5h-9.7v-35.5h9.7V307.5z"/>
	<path class="st2" d="M316.3,271.4c1.3,0,2.4,0.1,3.3,0.3l-0.7,9.1c-0.8-0.2-1.7-0.3-2.9-0.3c-3.1,0-5.5,0.8-7.2,2.4
		c-1.7,1.6-2.6,3.8-2.6,6.7v18.1h-9.7v-35.5h7.3l1.4,6h0.5c1.1-2,2.6-3.6,4.5-4.8C312,272,314.1,271.4,316.3,271.4z"/>
	<path class="st2" d="M325.6,262.9c0-3.2,1.8-4.7,5.3-4.7c3.5,0,5.3,1.6,5.3,4.7c0,1.5-0.4,2.7-1.3,3.5c-0.9,0.8-2.2,1.3-4,1.3
		C327.3,267.6,325.6,266.1,325.6,262.9z M335.6,307.5H326v-35.5h9.7V307.5z"/>
	<path class="st2" d="M378.6,307.5h-9.7v-20.7c0-2.6-0.5-4.5-1.4-5.8c-0.9-1.3-2.4-1.9-4.3-1.9c-2.7,0-4.7,0.9-5.9,2.7
		c-1.2,1.8-1.8,4.8-1.8,9v16.7h-9.7v-35.5h7.4l1.3,4.5h0.5c1.1-1.7,2.6-3,4.5-3.9c1.9-0.9,4-1.3,6.5-1.3c4.1,0,7.3,1.1,9.4,3.3
		c2.1,2.2,3.2,5.5,3.2,9.7V307.5z"/>
	<path class="st2" d="M419.4,272.1v4.9l-5.6,1.4c1,1.6,1.5,3.4,1.5,5.3c0,3.8-1.3,6.8-4,8.9c-2.7,2.1-6.3,3.2-11.1,3.2l-1.7-0.1
		l-1.4-0.2c-1,0.8-1.5,1.6-1.5,2.5c0,1.4,1.8,2.1,5.3,2.1h6c3.9,0,6.9,0.8,8.9,2.5c2,1.7,3.1,4.1,3.1,7.4c0,4.1-1.7,7.4-5.2,9.6
		c-3.5,2.3-8.4,3.4-14.9,3.4c-5,0-8.7-0.9-11.3-2.6c-2.6-1.7-3.9-4.1-3.9-7.3c0-2.1,0.7-3.9,2-5.4c1.3-1.4,3.3-2.5,5.9-3.1
		c-1-0.4-1.9-1.1-2.6-2.1c-0.7-1-1.1-2-1.1-3.1c0-1.4,0.4-2.5,1.2-3.4c0.8-0.9,1.9-1.8,3.4-2.7c-1.9-0.8-3.3-2.1-4.4-3.9
		c-1.1-1.8-1.6-3.9-1.6-6.3c0-3.9,1.3-6.9,3.8-9c2.5-2.1,6.1-3.2,10.8-3.2c1,0,2.2,0.1,3.5,0.3c1.4,0.2,2.2,0.3,2.6,0.4H419.4z
		 M392,312.6c0,1.3,0.6,2.4,1.9,3.1s3.1,1.1,5.4,1.1c3.5,0,6.2-0.5,8.2-1.4c2-1,3-2.3,3-3.9c0-1.3-0.6-2.3-1.7-2.8
		c-1.2-0.5-3-0.8-5.4-0.8h-5c-1.8,0-3.3,0.4-4.5,1.3C392.6,310.1,392,311.2,392,312.6z M395.5,283.7c0,1.9,0.4,3.4,1.3,4.6
		c0.9,1.1,2.2,1.7,4,1.7c1.8,0,3.2-0.6,4-1.7c0.8-1.1,1.3-2.6,1.3-4.6c0-4.3-1.8-6.4-5.3-6.4C397.3,277.3,395.5,279.4,395.5,283.7z"
		/>
</g>
</svg>
